<?xml version="1.0" encoding="UTF-8"?>
<svg id="_Слой_2" data-name="Слой 2" xmlns="http://www.w3.org/2000/svg" viewBox="0 0 799.79 497.89">
  <defs>
    <style>
      .cls-1 {
        fill: #783719;
      }

      .cls-1, .cls-2, .cls-3, .cls-4 {
        stroke-width: 0px;
      }

      .cls-2 {
        fill: #442216;
      }

      .cls-3 {
        fill: #b75b08;
      }

      .cls-4 {
        fill: #ffffe3;
      }
    </style>
  </defs>
  <g id="_Слой_1-2" data-name="Слой 1">
    <g>
      <rect class="cls-3" x="118.02" y="87.99" width="654.13" height="369.66"/>
      <rect class="cls-3" x="85.75" y="40.44" width="654.13" height="362.09"/>
      <g>
        <rect class="cls-4" x="103.72" y="63.92" width="654.13" height="369.66"/>
        <path class="cls-4" d="m758.87,434.61c-216.94,9.03-437.41,16.24-655.15,14.04,0,0-15.24-.16-15.24-.16,1.38-91.48,1.8-201.06,4.48-292.15-.12-3.04,3.25-101,3.08-100.59,111.57,3.68,223.16,5.35,334.75,2.04,108.99-3.59,218-8.37,327.06-6.68,0,0,12.88.12,12.88.12-.16,35.73-.67,71.61-1.39,107.3-2.03,91.49-5.8,185.33-10.46,276.08h0Zm-2.05-2.05c-5.01-108.32-9.7-215.58-11.29-323.55-.18-15.03-.42-30.05-.5-45.08l12.82,12.82c-109.07,1.7-218.08-3.09-327.06-6.68-109.03-3.23-218.05-1.73-327.06,1.8,0,0,7.94-7.94,7.94-7.94,3.1,86.08,5.22,191.13,6.04,277.24,0,0,1.09,92.41,1.09,92.41l-15.07-15.07c53.63-.57,107.07-.6,160.65-.03,164.5,2,327.23,7.53,492.45,14.08h0Z"/>
      </g>
    </g>
    <g>
      <path class="cls-1" d="m128.74,113.69c-.02-1.3,1.03-2.31,2.31-2.31s2.31,1.01,2.31,2.29-1.01,2.31-2.31,2.31-2.31-.99-2.31-2.29Z"/>
      <path class="cls-1" d="m157.76,104.61v13.27l1.3.04-.13,5.08h-1.5l-.13-3.56h-9.35l-.13,3.56h-1.5l-.13-5.08,1.12-.04c.55-1.01,1.1-2.09,1.45-3.26.51-1.72.7-3.7.7-6.25v-3.76h8.3Zm-6.51,4.38c0,2.38-.22,4.38-.75,6.05-.31,1.03-.77,2.02-1.21,2.82h6.56v-11.66h-4.6v2.79Z"/>
      <path class="cls-1" d="m170.92,114.02c0,3.94-2.73,5.65-5.3,5.65-2.88,0-5.1-2.11-5.1-5.48,0-3.56,2.33-5.65,5.28-5.65s5.13,2.22,5.13,5.48Zm-8.45.11c0,2.33,1.34,4.09,3.23,4.09s3.23-1.74,3.23-4.14c0-1.8-.9-4.09-3.19-4.09s-3.28,2.11-3.28,4.14Z"/>
      <path class="cls-1" d="m175.21,108.79v9.13h3.72v-9.13h1.89v9.13h3.72v-9.13h1.91v10.65h-13.14v-10.65h1.89Z"/>
      <path class="cls-1" d="m191.51,108.79v4.62h.46l4-4.62h2.35l-4.64,4.82c1.72.18,2.75,1.32,3.59,3.23.29.7.66,1.74,1.14,2.6h-2.02c-.29-.46-.66-1.3-.99-2.18-.73-1.72-1.72-2.51-3.52-2.51h-.37v4.69h-1.91v-10.65h1.91Z"/>
      <path class="cls-1" d="m209.64,114.02c0,3.94-2.73,5.65-5.3,5.65-2.88,0-5.1-2.11-5.1-5.48,0-3.56,2.33-5.65,5.28-5.65s5.13,2.22,5.13,5.48Zm-8.45.11c0,2.33,1.34,4.09,3.23,4.09s3.23-1.74,3.23-4.14c0-1.8-.9-4.09-3.19-4.09s-3.28,2.11-3.28,4.14Z"/>
      <path class="cls-1" d="m220.15,108.79v10.65h-1.91v-9.13h-3.65v2.77c0,2.99-.29,4.99-1.67,5.9-.53.42-1.12.66-2.11.66l-.2-1.52c.37-.07.79-.22,1.06-.44.99-.73,1.1-2.22,1.1-4.6v-4.29h7.39Z"/>
      <path class="cls-1" d="m225.19,108.79v3.61c.44-.09,1.19-.11,1.76-.11,2.4,0,4.93.75,4.93,3.59,0,1.1-.44,1.87-1.12,2.44-1.17.99-3.06,1.23-4.62,1.23-1.08,0-2.07-.07-2.86-.15v-10.61h1.91Zm0,9.31c.37.04.79.09,1.43.09,1.45,0,3.32-.48,3.32-2.27s-1.94-2.24-3.37-2.24c-.51,0-.95.04-1.39.11v4.31Z"/>
      <path class="cls-1" d="m236.14,108.79v4.29h5.06v-4.29h1.91v10.65h-1.91v-4.82h-5.06v4.82h-1.91v-10.65h1.91Z"/>
      <path class="cls-1" d="m255.92,114.02c0,3.94-2.73,5.65-5.3,5.65-2.88,0-5.1-2.11-5.1-5.48,0-3.56,2.33-5.65,5.28-5.65s5.13,2.22,5.13,5.48Zm-8.45.11c0,2.33,1.34,4.09,3.23,4.09s3.23-1.74,3.23-4.14c0-1.8-.9-4.09-3.19-4.09s-3.28,2.11-3.28,4.14Z"/>
      <path class="cls-1" d="m259.44,114.46c.04,2.62,1.72,3.7,3.65,3.7,1.39,0,2.22-.24,2.95-.55l.33,1.39c-.68.31-1.85.66-3.54.66-3.28,0-5.24-2.16-5.24-5.37s1.89-5.74,5-5.74c3.48,0,4.4,3.06,4.4,5.02,0,.4-.04.7-.07.9h-7.48Zm5.68-1.39c.02-1.23-.51-3.15-2.68-3.15-1.96,0-2.82,1.8-2.97,3.15h5.65Z"/>
      <path class="cls-1" d="m283.69,114.02c0,3.94-2.73,5.65-5.3,5.65-2.88,0-5.1-2.11-5.1-5.48,0-3.56,2.33-5.65,5.28-5.65s5.13,2.22,5.13,5.48Zm-8.45.11c0,2.33,1.34,4.09,3.23,4.09s3.23-1.74,3.23-4.14c0-1.8-.9-4.09-3.19-4.09s-3.28,2.11-3.28,4.14Z"/>
      <path class="cls-1" d="m294.18,105.18c-.55.2-1.52.37-2.22.48-1.72.26-2.97.84-3.78,2-.68.97-1.08,2.4-1.17,3.52h.07c.68-1.54,2.18-2.4,3.7-2.4,2.62,0,4.53,1.87,4.53,5.26s-1.8,5.63-4.93,5.63c-3.74,0-4.97-3.59-4.97-7.13,0-2.42.51-4.4,1.65-5.9,1.03-1.47,2.51-2.16,4.58-2.51.86-.13,1.91-.31,2.64-.57l-.09,1.61Zm-3.81,5.04c-1.14,0-1.96.59-2.4,1.45-.35.64-.53,1.41-.53,2.27,0,1.76.86,4.29,2.97,4.29s2.93-2.07,2.93-4.03c0-1.74-.68-3.98-2.97-3.98Z"/>
      <path class="cls-1" d="m297.74,112.26c0-1.36-.04-2.46-.09-3.48h1.74l.09,1.83h.04c.79-1.3,2.05-2.07,3.78-2.07,2.57,0,4.51,2.18,4.51,5.41,0,3.83-2.33,5.72-4.84,5.72-1.41,0-2.64-.62-3.28-1.67h-.04v5.79h-1.91v-11.53Zm1.91,2.84c0,.29.04.55.09.79.35,1.34,1.52,2.27,2.9,2.27,2.05,0,3.23-1.67,3.23-4.11,0-2.13-1.12-3.96-3.17-3.96-1.32,0-2.55.95-2.93,2.4-.07.24-.13.53-.13.79v1.83Z"/>
      <path class="cls-1" d="m316.16,119.44l-.15-1.34h-.07c-.59.84-1.74,1.58-3.26,1.58-2.16,0-3.26-1.52-3.26-3.06,0-2.57,2.29-3.98,6.4-3.96v-.22c0-.88-.24-2.46-2.42-2.46-.99,0-2.02.31-2.77.79l-.44-1.28c.88-.57,2.16-.95,3.5-.95,3.26,0,4.05,2.22,4.05,4.36v3.98c0,.92.04,1.83.18,2.55h-1.76Zm-.29-5.43c-2.11-.04-4.51.33-4.51,2.4,0,1.25.84,1.85,1.83,1.85,1.39,0,2.27-.88,2.57-1.78.07-.2.11-.42.11-.62v-1.85Z"/>
      <path class="cls-1" d="m321.75,113.25h.92c1.63,0,2.73-.75,2.73-1.74s-.86-1.54-2.07-1.54c-.86,0-1.83.29-2.57.75l-.48-1.19c1.08-.66,2.31-.97,3.54-.97,1.63,0,3.61.73,3.61,2.79,0,1.32-1.21,2.18-2.4,2.42v.04c1.58.13,2.9,1.1,2.9,2.66,0,2.31-2.35,3.17-4.6,3.17-1.25,0-2.51-.33-3.45-.86l.51-1.3c.77.42,1.8.73,2.82.73,1.61,0,2.62-.77,2.62-1.83,0-1.43-1.5-1.83-3.1-1.83h-.97v-1.32Z"/>
      <path class="cls-1" d="m339.98,114.02c0,3.94-2.73,5.65-5.3,5.65-2.88,0-5.1-2.11-5.1-5.48,0-3.56,2.33-5.65,5.28-5.65s5.13,2.22,5.13,5.48Zm-8.45.11c0,2.33,1.34,4.09,3.23,4.09s3.23-1.74,3.23-4.14c0-1.8-.9-4.09-3.19-4.09s-3.28,2.11-3.28,4.14Z"/>
      <path class="cls-1" d="m342.38,108.92c.75-.13,2.13-.24,3.39-.24,1.78,0,4.73.29,4.73,2.66,0,1.32-1.01,2.13-2.22,2.4v.04c1.56.22,2.71,1.1,2.71,2.64,0,2.79-3.52,3.15-5.61,3.15-1.19,0-2.42-.09-2.99-.13v-10.52Zm1.83,9.24c.55.07.95.09,1.56.09,1.3,0,3.23-.31,3.23-1.85s-1.54-1.87-3.39-1.87h-1.41v3.63Zm.02-4.91h1.45c1.43,0,2.9-.42,2.9-1.67,0-1.06-.92-1.56-2.86-1.56-.64,0-1.03.04-1.5.09v3.15Z"/>
      <path class="cls-1" d="m359.32,119.44l-.15-1.34h-.07c-.59.84-1.74,1.58-3.26,1.58-2.16,0-3.26-1.52-3.26-3.06,0-2.57,2.29-3.98,6.4-3.96v-.22c0-.88-.24-2.46-2.42-2.46-.99,0-2.02.31-2.77.79l-.44-1.28c.88-.57,2.16-.95,3.5-.95,3.26,0,4.05,2.22,4.05,4.36v3.98c0,.92.04,1.83.18,2.55h-1.76Zm-.29-5.43c-2.11-.04-4.51.33-4.51,2.4,0,1.25.84,1.85,1.83,1.85,1.39,0,2.27-.88,2.57-1.78.07-.2.11-.42.11-.62v-1.85Z"/>
      <path class="cls-1" d="m365.9,108.79v4.29h5.06v-4.29h1.91v10.65h-1.91v-4.82h-5.06v4.82h-1.91v-10.65h1.91Z"/>
      <path class="cls-1" d="m377.82,108.79v4.49c0,1.69-.02,2.75-.11,4.27l.07.02c.64-1.3,1.01-2.05,1.72-3.28l3.32-5.5h2.27v10.65h-1.85v-4.51c0-1.74.04-2.64.13-4.36h-.07c-.68,1.36-1.14,2.22-1.76,3.3-1.01,1.65-2.18,3.7-3.32,5.57h-2.22v-10.65h1.83Z"/>
      <path class="cls-1" d="m389.31,114.46c.04,2.62,1.72,3.7,3.65,3.7,1.39,0,2.22-.24,2.95-.55l.33,1.39c-.68.31-1.85.66-3.54.66-3.28,0-5.24-2.16-5.24-5.37s1.89-5.74,5-5.74c3.48,0,4.4,3.06,4.4,5.02,0,.4-.04.7-.07.9h-7.48Zm5.68-1.39c.02-1.23-.51-3.15-2.68-3.15-1.96,0-2.82,1.8-2.97,3.15h5.65Z"/>
      <path class="cls-1" d="m128.74,158.69c-.02-1.3,1.03-2.31,2.31-2.31s2.31,1.01,2.31,2.29-1.01,2.31-2.31,2.31-2.31-.99-2.31-2.29Z"/>
      <path class="cls-1" d="m158.33,149.61v14.83h-1.91v-13.22h-6.89v13.22h-1.91v-14.83h10.72Z"/>
      <path class="cls-1" d="m161.61,157.26c0-1.36-.04-2.46-.09-3.48h1.74l.09,1.83h.04c.79-1.3,2.05-2.07,3.78-2.07,2.57,0,4.51,2.18,4.51,5.41,0,3.83-2.33,5.72-4.84,5.72-1.41,0-2.64-.62-3.28-1.67h-.04v5.79h-1.91v-11.53Zm1.91,2.84c0,.29.04.55.09.79.35,1.34,1.52,2.27,2.9,2.27,2.05,0,3.23-1.67,3.23-4.11,0-2.13-1.12-3.96-3.17-3.96-1.32,0-2.55.95-2.93,2.4-.07.24-.13.53-.13.79v1.83Z"/>
      <path class="cls-1" d="m175.21,159.46c.04,2.62,1.72,3.7,3.65,3.7,1.39,0,2.22-.24,2.95-.55l.33,1.39c-.68.31-1.85.66-3.54.66-3.28,0-5.24-2.16-5.24-5.37s1.89-5.74,5-5.74c3.48,0,4.4,3.06,4.4,5.02,0,.4-.04.7-.07.9h-7.48Zm5.68-1.39c.02-1.23-.51-3.15-2.68-3.15-1.96,0-2.82,1.8-2.97,3.15h5.65Z"/>
      <path class="cls-1" d="m193.91,153.79v10.65h-1.94v-9.11h-4.95v9.11h-1.91v-10.65h8.8Z"/>
      <path class="cls-1" d="m206.69,159.02c0,3.94-2.73,5.65-5.3,5.65-2.88,0-5.1-2.11-5.1-5.48,0-3.56,2.33-5.65,5.28-5.65s5.13,2.22,5.13,5.48Zm-8.45.11c0,2.33,1.34,4.09,3.23,4.09s3.23-1.74,3.23-4.14c0-1.8-.9-4.09-3.19-4.09s-3.28,2.11-3.28,4.14Z"/>
      <path class="cls-1" d="m217.23,153.79v9.2l1.1.02-.11,4.82h-1.52l-.09-3.39h-7.37l-.09,3.39h-1.52l-.09-4.82.9-.02c.46-.68.81-1.41,1.06-2.18.42-1.32.62-2.75.62-4.25v-2.77h7.11Zm-5.39,3.23c0,1.41-.2,2.77-.55,3.96-.22.73-.53,1.39-.86,1.98h4.91v-7.7h-3.5v1.76Z"/>
      <path class="cls-1" d="m226.53,164.44l-.15-1.34h-.07c-.59.84-1.74,1.58-3.26,1.58-2.16,0-3.26-1.52-3.26-3.06,0-2.57,2.29-3.98,6.4-3.96v-.22c0-.88-.24-2.46-2.42-2.46-.99,0-2.02.31-2.77.79l-.44-1.28c.88-.57,2.16-.95,3.5-.95,3.26,0,4.05,2.22,4.05,4.36v3.98c0,.92.04,1.83.18,2.55h-1.76Zm-.29-5.43c-2.11-.04-4.51.33-4.51,2.4,0,1.25.84,1.85,1.83,1.85,1.39,0,2.27-.88,2.57-1.78.07-.2.11-.42.11-.62v-1.85Z"/>
      <path class="cls-1" d="m231.19,153.92c.75-.13,2.13-.24,3.39-.24,1.78,0,4.73.29,4.73,2.66,0,1.32-1.01,2.13-2.22,2.4v.04c1.56.22,2.71,1.1,2.71,2.64,0,2.79-3.52,3.15-5.61,3.15-1.19,0-2.42-.09-2.99-.13v-10.52Zm1.83,9.24c.55.07.95.09,1.56.09,1.3,0,3.23-.31,3.23-1.85s-1.54-1.87-3.39-1.87h-1.41v3.63Zm.02-4.91h1.45c1.43,0,2.9-.42,2.9-1.67,0-1.06-.92-1.56-2.86-1.56-.64,0-1.03.04-1.5.09v3.15Z"/>
      <path class="cls-1" d="m248.14,164.44l-.15-1.34h-.07c-.59.84-1.74,1.58-3.26,1.58-2.16,0-3.26-1.52-3.26-3.06,0-2.57,2.29-3.98,6.4-3.96v-.22c0-.88-.24-2.46-2.42-2.46-.99,0-2.02.31-2.77.79l-.44-1.28c.88-.57,2.16-.95,3.5-.95,3.26,0,4.05,2.22,4.05,4.36v3.98c0,.92.04,1.83.18,2.55h-1.76Zm-.29-5.43c-2.11-.04-4.51.33-4.51,2.4,0,1.25.84,1.85,1.83,1.85,1.39,0,2.27-.88,2.57-1.78.07-.2.11-.42.11-.62v-1.85Z"/>
      <path class="cls-1" d="m254.71,153.79v4.29h5.06v-4.29h1.91v10.65h-1.91v-4.82h-5.06v4.82h-1.91v-10.65h1.91Z"/>
      <path class="cls-1" d="m266.64,153.79v4.49c0,1.69-.02,2.75-.11,4.27l.07.02c.64-1.3,1.01-2.05,1.72-3.28l3.32-5.5h2.27v10.65h-1.85v-4.51c0-1.74.04-2.64.13-4.36h-.07c-.68,1.36-1.14,2.22-1.76,3.3-1.01,1.65-2.18,3.7-3.32,5.57h-2.22v-10.65h1.83Z"/>
      <path class="cls-1" d="m278.12,159.46c.04,2.62,1.72,3.7,3.65,3.7,1.39,0,2.22-.24,2.95-.55l.33,1.39c-.68.31-1.85.66-3.54.66-3.28,0-5.24-2.16-5.24-5.37s1.89-5.74,5-5.74c3.48,0,4.4,3.06,4.4,5.02,0,.4-.04.7-.07.9h-7.48Zm5.68-1.39c.02-1.23-.51-3.15-2.68-3.15-1.96,0-2.82,1.8-2.97,3.15h5.65Z"/>
      <path class="cls-1" d="m292.68,153.92c.75-.13,2.13-.24,3.39-.24,1.78,0,4.73.29,4.73,2.66,0,1.32-1.01,2.13-2.22,2.4v.04c1.56.22,2.71,1.1,2.71,2.64,0,2.79-3.52,3.15-5.61,3.15-1.19,0-2.42-.09-2.99-.13v-10.52Zm1.83,9.24c.55.07.95.09,1.56.09,1.3,0,3.23-.31,3.23-1.85s-1.54-1.87-3.39-1.87h-1.41v3.63Zm.02-4.91h1.45c1.43,0,2.9-.42,2.9-1.67,0-1.06-.92-1.56-2.86-1.56-.64,0-1.03.04-1.5.09v3.15Z"/>
      <path class="cls-1" d="m310.26,153.79v4.29h5.06v-4.29h1.91v10.65h-1.91v-4.82h-5.06v4.82h-1.91v-10.65h1.91Z"/>
      <path class="cls-1" d="m326.3,164.44l-.15-1.34h-.07c-.59.84-1.74,1.58-3.26,1.58-2.16,0-3.26-1.52-3.26-3.06,0-2.57,2.29-3.98,6.4-3.96v-.22c0-.88-.24-2.46-2.42-2.46-.99,0-2.02.31-2.77.79l-.44-1.28c.88-.57,2.16-.95,3.5-.95,3.26,0,4.05,2.22,4.05,4.36v3.98c0,.92.04,1.83.18,2.55h-1.76Zm-.29-5.43c-2.11-.04-4.51.33-4.51,2.4,0,1.25.84,1.85,1.83,1.85,1.39,0,2.27-.88,2.57-1.78.07-.2.11-.42.11-.62v-1.85Z"/>
      <path class="cls-1" d="m332.46,153.79v3.5c0,1.34.51,2.27,2.2,2.27.84,0,1.69-.31,2.29-.75v-5.02h1.91v10.65h-1.91v-4.27h-.04c-.73.48-1.87.81-2.88.81-2.02,0-3.5-1.03-3.5-3.48v-3.72h1.94Z"/>
      <path class="cls-1" d="m347.93,164.44l-.15-1.34h-.07c-.59.84-1.74,1.58-3.26,1.58-2.16,0-3.26-1.52-3.26-3.06,0-2.57,2.29-3.98,6.4-3.96v-.22c0-.88-.24-2.46-2.42-2.46-.99,0-2.02.31-2.77.79l-.44-1.28c.88-.57,2.16-.95,3.5-.95,3.26,0,4.05,2.22,4.05,4.36v3.98c0,.92.04,1.83.18,2.55h-1.76Zm-.29-5.43c-2.11-.04-4.51.33-4.51,2.4,0,1.25.84,1.85,1.83,1.85,1.39,0,2.27-.88,2.57-1.78.07-.2.11-.42.11-.62v-1.85Z"/>
      <path class="cls-1" d="m360.75,153.79v10.65h-1.91v-9.13h-3.65v2.77c0,2.99-.29,4.99-1.67,5.9-.53.42-1.12.66-2.11.66l-.2-1.52c.37-.07.79-.22,1.06-.44.99-.73,1.1-2.22,1.1-4.6v-4.29h7.39Z"/>
      <path class="cls-1" d="m365.79,153.79v3.61c.44-.09,1.19-.11,1.76-.11,2.4,0,4.93.75,4.93,3.59,0,1.1-.44,1.87-1.12,2.44-1.17.99-3.06,1.23-4.62,1.23-1.08,0-2.07-.07-2.86-.15v-10.61h1.91Zm0,9.31c.37.04.79.09,1.43.09,1.45,0,3.32-.48,3.32-2.27s-1.94-2.24-3.37-2.24c-.51,0-.95.04-1.39.11v4.31Z"/>
      <path class="cls-1" d="m376.74,153.79v4.29h5.06v-4.29h1.91v10.65h-1.91v-4.82h-5.06v4.82h-1.91v-10.65h1.91Z"/>
      <path class="cls-1" d="m388.76,153.79v3.63c.42-.09,1.03-.13,1.74-.13,2.29,0,4.6.95,4.6,3.56,0,1.12-.42,1.89-1.1,2.46-1.17.99-2.88,1.23-4.29,1.23-1.08,0-2.07-.07-2.86-.15v-10.61h1.91Zm0,9.31c.37.04.79.09,1.34.09,1.47,0,3.08-.62,3.08-2.27s-1.54-2.24-2.99-2.24c-.55,0-1.03.04-1.43.11v4.31Zm9.59-9.31v10.65h-1.91v-10.65h1.91Z"/>
      <path class="cls-1" d="m402.42,153.79l1.52,2.29c.4.59.73,1.14,1.08,1.74h.07c.35-.64.7-1.19,1.06-1.76l1.5-2.27h2.09l-3.63,5.15,3.74,5.5h-2.2l-1.56-2.4c-.42-.62-.77-1.21-1.14-1.85h-.04c-.35.64-.73,1.21-1.12,1.85l-1.54,2.4h-2.13l3.78-5.43-3.61-5.21h2.16Z"/>
      <path class="cls-1" d="m418.28,153.79v4.62h.46l4-4.62h2.35l-4.64,4.82c1.72.18,2.75,1.32,3.59,3.23.29.7.66,1.74,1.14,2.6h-2.02c-.29-.46-.66-1.3-.99-2.18-.73-1.72-1.72-2.51-3.52-2.51h-.37v4.69h-1.91v-10.65h1.91Z"/>
      <path class="cls-1" d="m435.48,153.79v10.65h-1.91v-9.13h-3.65v2.77c0,2.99-.29,4.99-1.67,5.9-.53.42-1.12.66-2.11.66l-.2-1.52c.37-.07.79-.22,1.06-.44.99-.73,1.1-2.22,1.1-4.6v-4.29h7.39Z"/>
      <path class="cls-1" d="m444.55,164.44l-.15-1.34h-.07c-.59.84-1.74,1.58-3.26,1.58-2.16,0-3.26-1.52-3.26-3.06,0-2.57,2.29-3.98,6.4-3.96v-.22c0-.88-.24-2.46-2.42-2.46-.99,0-2.02.31-2.77.79l-.44-1.28c.88-.57,2.16-.95,3.5-.95,3.26,0,4.05,2.22,4.05,4.36v3.98c0,.92.04,1.83.18,2.55h-1.76Zm-.29-5.43c-2.11-.04-4.51.33-4.51,2.4,0,1.25.84,1.85,1.83,1.85,1.39,0,2.27-.88,2.57-1.78.07-.2.11-.42.11-.62v-1.85Z"/>
      <path class="cls-1" d="m456.85,164.04c-.51.26-1.63.62-3.06.62-3.21,0-5.3-2.18-5.3-5.44s2.24-5.65,5.72-5.65c1.14,0,2.16.29,2.68.55l-.44,1.5c-.46-.26-1.19-.51-2.24-.51-2.44,0-3.76,1.8-3.76,4.03,0,2.46,1.58,3.98,3.7,3.98,1.1,0,1.83-.29,2.38-.53l.33,1.45Z"/>
      <path class="cls-1" d="m466.57,164.04c-.51.26-1.63.62-3.06.62-3.21,0-5.3-2.18-5.3-5.44s2.24-5.65,5.72-5.65c1.14,0,2.16.29,2.68.55l-.44,1.5c-.46-.26-1.19-.51-2.24-.51-2.44,0-3.76,1.8-3.76,4.03,0,2.46,1.58,3.98,3.7,3.98,1.1,0,1.83-.29,2.38-.53l.33,1.45Z"/>
      <path class="cls-1" d="m474.8,164.44l-.15-1.34h-.07c-.59.84-1.74,1.58-3.26,1.58-2.16,0-3.26-1.52-3.26-3.06,0-2.57,2.29-3.98,6.4-3.96v-.22c0-.88-.24-2.46-2.42-2.46-.99,0-2.02.31-2.77.79l-.44-1.28c.88-.57,2.16-.95,3.5-.95,3.26,0,4.05,2.22,4.05,4.36v3.98c0,.92.04,1.83.18,2.55h-1.76Zm-.29-5.43c-2.11-.04-4.51.33-4.51,2.4,0,1.25.84,1.85,1.83,1.85,1.39,0,2.27-.88,2.57-1.78.07-.2.11-.42.11-.62v-1.85Z"/>
      <path class="cls-1" d="m480.41,153.79l1.52,2.29c.4.59.73,1.14,1.08,1.74h.07c.35-.64.7-1.19,1.06-1.76l1.5-2.27h2.09l-3.63,5.15,3.74,5.5h-2.2l-1.56-2.4c-.42-.62-.77-1.21-1.14-1.85h-.04c-.35.64-.73,1.21-1.12,1.85l-1.54,2.4h-2.13l3.78-5.43-3.61-5.21h2.16Z"/>
      <path class="cls-1" d="m128.74,203.69c-.02-1.3,1.03-2.31,2.31-2.31s2.31,1.01,2.31,2.29-1.01,2.31-2.31,2.31-2.31-.99-2.31-2.29Z"/>
      <path class="cls-1" d="m158.33,194.61v14.83h-1.91v-13.22h-6.89v13.22h-1.91v-14.83h10.72Z"/>
      <path class="cls-1" d="m162.69,204.46c.04,2.62,1.72,3.7,3.65,3.7,1.39,0,2.22-.24,2.95-.55l.33,1.39c-.68.31-1.85.66-3.54.66-3.28,0-5.24-2.16-5.24-5.37s1.89-5.74,5-5.74c3.48,0,4.4,3.06,4.4,5.02,0,.4-.04.7-.07.9h-7.48Zm5.68-1.39c.02-1.23-.51-3.15-2.68-3.15-1.96,0-2.82,1.8-2.97,3.15h5.65Z"/>
      <path class="cls-1" d="m180.95,198.79v9.2l1.1.02-.11,4.82h-1.52l-.09-3.39h-7.37l-.09,3.39h-1.52l-.09-4.82.9-.02c.46-.68.81-1.41,1.06-2.18.42-1.32.62-2.75.62-4.25v-2.77h7.11Zm-5.39,3.23c0,1.41-.2,2.77-.55,3.96-.22.73-.53,1.39-.86,1.98h4.91v-7.7h-3.5v1.76Z"/>
      <path class="cls-1" d="m190.25,209.44l-.15-1.34h-.07c-.59.84-1.74,1.58-3.26,1.58-2.16,0-3.26-1.52-3.26-3.06,0-2.57,2.29-3.98,6.4-3.96v-.22c0-.88-.24-2.46-2.42-2.46-.99,0-2.02.31-2.77.79l-.44-1.28c.88-.57,2.16-.95,3.5-.95,3.26,0,4.05,2.22,4.05,4.36v3.98c0,.92.04,1.83.18,2.55h-1.76Zm-.29-5.43c-2.11-.04-4.51.33-4.51,2.4,0,1.25.84,1.85,1.83,1.85,1.39,0,2.27-.88,2.57-1.78.07-.2.11-.42.11-.62v-1.85Z"/>
      <path class="cls-1" d="m201.45,198.79v1.56h-4.62v9.09h-1.91v-10.65h6.54Z"/>
      <path class="cls-1" d="m212.63,204.02c0,3.94-2.73,5.65-5.3,5.65-2.88,0-5.1-2.11-5.1-5.48,0-3.56,2.33-5.65,5.28-5.65s5.13,2.22,5.13,5.48Zm-8.45.11c0,2.33,1.34,4.09,3.23,4.09s3.23-1.74,3.23-4.14c0-1.8-.9-4.09-3.19-4.09s-3.28,2.11-3.28,4.14Z"/>
      <path class="cls-1" d="m221.56,198.79v1.56h-4.62v9.09h-1.91v-10.65h6.54Z"/>
      <path class="cls-1" d="m225.17,198.79v4.49c0,1.69-.02,2.75-.11,4.27l.07.02c.64-1.3,1.01-2.05,1.72-3.28l3.32-5.5h2.27v10.65h-1.85v-4.51c0-1.74.04-2.64.13-4.36h-.07c-.68,1.36-1.14,2.22-1.76,3.3-1.01,1.65-2.18,3.7-3.32,5.57h-2.22v-10.65h1.83Z"/>
      <path class="cls-1" d="m237.49,198.79v4.62h.46l4-4.62h2.35l-4.64,4.82c1.72.18,2.75,1.32,3.59,3.23.29.7.66,1.74,1.14,2.6h-2.02c-.29-.46-.66-1.3-.99-2.18-.73-1.72-1.72-2.51-3.52-2.51h-.37v4.69h-1.91v-10.65h1.91Z"/>
      <path class="cls-1" d="m252.23,209.44l-.15-1.34h-.07c-.59.84-1.74,1.58-3.26,1.58-2.16,0-3.26-1.52-3.26-3.06,0-2.57,2.29-3.98,6.4-3.96v-.22c0-.88-.24-2.46-2.42-2.46-.99,0-2.02.31-2.77.79l-.44-1.28c.88-.57,2.16-.95,3.5-.95,3.26,0,4.05,2.22,4.05,4.36v3.98c0,.92.04,1.83.18,2.55h-1.76Zm-.29-5.43c-2.11-.04-4.51.33-4.51,2.4,0,1.25.84,1.85,1.83,1.85,1.39,0,2.27-.88,2.57-1.78.07-.2.11-.42.11-.62v-1.85Z"/>
      <path class="cls-1" d="m269.85,198.79v9.2l1.1.02-.11,4.82h-1.52l-.09-3.39h-7.37l-.09,3.39h-1.52l-.09-4.82.9-.02c.46-.68.81-1.41,1.06-2.18.42-1.32.62-2.75.62-4.25v-2.77h7.11Zm-5.39,3.23c0,1.41-.2,2.77-.55,3.96-.22.73-.53,1.39-.86,1.98h4.91v-7.7h-3.5v1.76Z"/>
      <path class="cls-1" d="m282.81,204.02c0,3.94-2.73,5.65-5.3,5.65-2.88,0-5.1-2.11-5.1-5.48,0-3.56,2.33-5.65,5.28-5.65s5.13,2.22,5.13,5.48Zm-8.45.11c0,2.33,1.34,4.09,3.23,4.09s3.23-1.74,3.23-4.14c0-1.8-.9-4.09-3.19-4.09s-3.28,2.11-3.28,4.14Z"/>
      <path class="cls-1" d="m294.01,198.79v10.65h-1.94v-9.11h-4.95v9.11h-1.91v-10.65h8.8Z"/>
      <path class="cls-1" d="m306.79,204.02c0,3.94-2.73,5.65-5.3,5.65-2.88,0-5.1-2.11-5.1-5.48,0-3.56,2.33-5.65,5.28-5.65s5.13,2.22,5.13,5.48Zm-8.45.11c0,2.33,1.34,4.09,3.23,4.09s3.23-1.74,3.23-4.14c0-1.8-.9-4.09-3.19-4.09s-3.28,2.11-3.28,4.14Z"/>
      <path class="cls-1" d="m317.3,198.79v10.65h-1.91v-9.13h-3.65v2.77c0,2.99-.29,4.99-1.67,5.9-.53.42-1.12.66-2.11.66l-.2-1.52c.37-.07.79-.22,1.06-.44.99-.73,1.1-2.22,1.1-4.6v-4.29h7.39Z"/>
      <path class="cls-1" d="m322.34,198.79v4.29h5.06v-4.29h1.91v10.65h-1.91v-4.82h-5.06v4.82h-1.91v-10.65h1.91Z"/>
      <path class="cls-1" d="m334.26,198.79v4.49c0,1.69-.02,2.75-.11,4.27l.07.02c.64-1.3,1.01-2.05,1.72-3.28l3.32-5.5h2.27v10.65h-1.85v-4.51c0-1.74.04-2.64.13-4.36h-.07c-.68,1.36-1.14,2.22-1.76,3.3-1.01,1.65-2.18,3.7-3.32,5.57h-2.22v-10.65h1.83Z"/>
      <path class="cls-1" d="m351.8,198.79v1.54h-3.32v9.11h-1.91v-9.11h-3.32v-1.54h8.56Z"/>
      <path class="cls-1" d="m354.28,204.46c.04,2.62,1.72,3.7,3.65,3.7,1.39,0,2.22-.24,2.95-.55l.33,1.39c-.68.31-1.85.66-3.54.66-3.28,0-5.24-2.16-5.24-5.37s1.89-5.74,5-5.74c3.48,0,4.4,3.06,4.4,5.02,0,.4-.04.7-.07.9h-7.48Zm5.68-1.39c.02-1.23-.51-3.15-2.68-3.15-1.96,0-2.82,1.8-2.97,3.15h5.65Z"/>
      <path class="cls-1" d="m372.32,198.79v10.65h-1.91v-9.13h-3.65v2.77c0,2.99-.29,4.99-1.67,5.9-.53.42-1.12.66-2.11.66l-.2-1.52c.37-.07.79-.22,1.06-.44.99-.73,1.1-2.22,1.1-4.6v-4.29h7.39Z"/>
      <path class="cls-1" d="m377.36,198.79v3.61c.44-.09,1.19-.11,1.76-.11,2.4,0,4.93.75,4.93,3.59,0,1.1-.44,1.87-1.12,2.44-1.17.99-3.06,1.23-4.62,1.23-1.08,0-2.07-.07-2.86-.15v-10.61h1.91Zm0,9.31c.37.04.79.09,1.43.09,1.45,0,3.32-.48,3.32-2.27s-1.94-2.24-3.37-2.24c-.51,0-.95.04-1.39.11v4.31Z"/>
      <path class="cls-1" d="m388.32,198.79v4.29h5.06v-4.29h1.91v10.65h-1.91v-4.82h-5.06v4.82h-1.91v-10.65h1.91Z"/>
      <path class="cls-1" d="m408.1,204.02c0,3.94-2.73,5.65-5.3,5.65-2.88,0-5.1-2.11-5.1-5.48,0-3.56,2.33-5.65,5.28-5.65s5.13,2.22,5.13,5.48Zm-8.45.11c0,2.33,1.34,4.09,3.23,4.09s3.23-1.74,3.23-4.14c0-1.8-.9-4.09-3.19-4.09s-3.28,2.11-3.28,4.14Z"/>
      <path class="cls-1" d="m417.03,198.79v1.56h-4.62v9.09h-1.91v-10.65h6.54Z"/>
      <path class="cls-1" d="m428.2,204.02c0,3.94-2.73,5.65-5.3,5.65-2.88,0-5.1-2.11-5.1-5.48,0-3.56,2.33-5.65,5.28-5.65s5.13,2.22,5.13,5.48Zm-8.45.11c0,2.33,1.34,4.09,3.23,4.09s3.23-1.74,3.23-4.14c0-1.8-.9-4.09-3.19-4.09s-3.28,2.11-3.28,4.14Z"/>
      <path class="cls-1" d="m444.95,204.02c0,3.94-2.73,5.65-5.3,5.65-2.88,0-5.1-2.11-5.1-5.48,0-3.56,2.33-5.65,5.28-5.65s5.13,2.22,5.13,5.48Zm-8.45.11c0,2.33,1.34,4.09,3.23,4.09s3.23-1.74,3.23-4.14c0-1.8-.9-4.09-3.19-4.09s-3.28,2.11-3.28,4.14Z"/>
      <path class="cls-1" d="m455.44,195.18c-.55.2-1.52.37-2.22.48-1.72.26-2.97.84-3.78,2-.68.97-1.08,2.4-1.17,3.52h.07c.68-1.54,2.18-2.4,3.7-2.4,2.62,0,4.53,1.87,4.53,5.26s-1.8,5.63-4.93,5.63c-3.74,0-4.97-3.59-4.97-7.13,0-2.42.51-4.4,1.65-5.9,1.03-1.47,2.51-2.16,4.58-2.51.86-.13,1.91-.31,2.64-.57l-.09,1.61Zm-3.81,5.04c-1.14,0-1.96.59-2.4,1.45-.35.64-.53,1.41-.53,2.27,0,1.76.86,4.29,2.97,4.29s2.93-2.07,2.93-4.03c0-1.74-.68-3.98-2.97-3.98Z"/>
      <path class="cls-1" d="m459,202.26c0-1.36-.04-2.46-.09-3.48h1.74l.09,1.83h.04c.79-1.3,2.05-2.07,3.78-2.07,2.57,0,4.51,2.18,4.51,5.41,0,3.83-2.33,5.72-4.84,5.72-1.41,0-2.64-.62-3.28-1.67h-.04v5.79h-1.91v-11.53Zm1.91,2.84c0,.29.04.55.09.79.35,1.34,1.52,2.27,2.9,2.27,2.05,0,3.23-1.67,3.23-4.11,0-2.13-1.12-3.96-3.17-3.96-1.32,0-2.55.95-2.93,2.4-.07.24-.13.53-.13.79v1.83Z"/>
      <path class="cls-1" d="m477.42,209.44l-.15-1.34h-.07c-.59.84-1.74,1.58-3.26,1.58-2.16,0-3.26-1.52-3.26-3.06,0-2.57,2.29-3.98,6.4-3.96v-.22c0-.88-.24-2.46-2.42-2.46-.99,0-2.02.31-2.77.79l-.44-1.28c.88-.57,2.16-.95,3.5-.95,3.26,0,4.05,2.22,4.05,4.36v3.98c0,.92.04,1.83.18,2.55h-1.76Zm-.29-5.43c-2.11-.04-4.51.33-4.51,2.4,0,1.25.84,1.85,1.83,1.85,1.39,0,2.27-.88,2.57-1.78.07-.2.11-.42.11-.62v-1.85Z"/>
      <path class="cls-1" d="m483,203.25h.92c1.63,0,2.73-.75,2.73-1.74s-.86-1.54-2.07-1.54c-.86,0-1.83.29-2.57.75l-.48-1.19c1.08-.66,2.31-.97,3.54-.97,1.63,0,3.61.73,3.61,2.79,0,1.32-1.21,2.18-2.4,2.42v.04c1.58.13,2.9,1.1,2.9,2.66,0,2.31-2.35,3.17-4.6,3.17-1.25,0-2.51-.33-3.45-.86l.51-1.3c.77.42,1.8.73,2.82.73,1.61,0,2.62-.77,2.62-1.83,0-1.43-1.5-1.83-3.1-1.83h-.97v-1.32Z"/>
      <path class="cls-1" d="m501.24,204.02c0,3.94-2.73,5.65-5.3,5.65-2.88,0-5.1-2.11-5.1-5.48,0-3.56,2.33-5.65,5.28-5.65s5.13,2.22,5.13,5.48Zm-8.45.11c0,2.33,1.34,4.09,3.23,4.09s3.23-1.74,3.23-4.14c0-1.8-.9-4.09-3.19-4.09s-3.28,2.11-3.28,4.14Z"/>
      <path class="cls-1" d="m503.64,198.92c.75-.13,2.13-.24,3.39-.24,1.78,0,4.73.29,4.73,2.66,0,1.32-1.01,2.13-2.22,2.4v.04c1.56.22,2.71,1.1,2.71,2.64,0,2.79-3.52,3.15-5.61,3.15-1.19,0-2.42-.09-2.99-.13v-10.52Zm1.83,9.24c.55.07.95.09,1.56.09,1.3,0,3.23-.31,3.23-1.85s-1.54-1.87-3.39-1.87h-1.41v3.63Zm.02-4.91h1.45c1.43,0,2.9-.42,2.9-1.67,0-1.06-.92-1.56-2.86-1.56-.64,0-1.03.04-1.5.09v3.15Z"/>
      <path class="cls-1" d="m520.58,209.44l-.15-1.34h-.07c-.59.84-1.74,1.58-3.26,1.58-2.16,0-3.26-1.52-3.26-3.06,0-2.57,2.29-3.98,6.4-3.96v-.22c0-.88-.24-2.46-2.42-2.46-.99,0-2.02.31-2.77.79l-.44-1.28c.88-.57,2.16-.95,3.5-.95,3.26,0,4.05,2.22,4.05,4.36v3.98c0,.92.04,1.83.18,2.55h-1.76Zm-.29-5.43c-2.11-.04-4.51.33-4.51,2.4,0,1.25.84,1.85,1.83,1.85,1.39,0,2.27-.88,2.57-1.78.07-.2.11-.42.11-.62v-1.85Z"/>
      <path class="cls-1" d="m527.16,198.79v4.29h5.06v-4.29h1.91v10.65h-1.91v-4.82h-5.06v4.82h-1.91v-10.65h1.91Z"/>
      <path class="cls-1" d="m539.08,198.79v4.49c0,1.69-.02,2.75-.11,4.27l.07.02c.64-1.3,1.01-2.05,1.72-3.28l3.32-5.5h2.27v10.65h-1.85v-4.51c0-1.74.04-2.64.13-4.36h-.07c-.68,1.36-1.14,2.22-1.76,3.3-1.01,1.65-2.18,3.7-3.32,5.57h-2.22v-10.65h1.83Z"/>
      <path class="cls-1" d="m557.34,209.44h-1.91v-4.47h-1.43c-.81,0-1.36.22-1.78.59-.79.64-1.08,1.96-1.5,2.99-.13.33-.29.62-.44.88h-2.07c.24-.35.46-.75.66-1.21.46-1.03.73-2.42,1.67-3.21.33-.29.73-.53,1.21-.62v-.07c-1.39-.15-2.82-1.01-2.82-2.64,0-1.1.59-1.85,1.41-2.31.88-.51,2.18-.73,3.56-.73,1.28,0,2.51.11,3.43.22v10.56Zm-1.91-9.37c-.48-.07-.92-.11-1.61-.11-1.32,0-2.88.37-2.88,1.85,0,1.36,1.69,1.85,2.84,1.85h1.65v-3.59Z"/>
      <path class="cls-1" d="m128.74,248.69c-.02-1.3,1.03-2.31,2.31-2.31s2.31,1.01,2.31,2.29-1.01,2.31-2.31,2.31-2.31-.99-2.31-2.29Z"/>
      <path class="cls-1" d="m157.98,253.95c-.7.35-2.11.7-3.92.7-4.18,0-7.33-2.64-7.33-7.5s3.15-7.79,7.75-7.79c1.85,0,3.01.4,3.52.66l-.46,1.56c-.73-.35-1.76-.62-2.99-.62-3.48,0-5.79,2.22-5.79,6.12,0,3.63,2.09,5.96,5.7,5.96,1.17,0,2.35-.24,3.12-.62l.4,1.52Z"/>
      <path class="cls-1" d="m169.07,243.79v10.65h-1.94v-9.11h-4.95v9.11h-1.91v-10.65h8.8Z"/>
      <path class="cls-1" d="m173.29,249.46c.04,2.62,1.72,3.7,3.65,3.7,1.39,0,2.22-.24,2.95-.55l.33,1.39c-.68.31-1.85.66-3.54.66-3.28,0-5.24-2.16-5.24-5.37s1.89-5.74,5-5.74c3.48,0,4.4,3.06,4.4,5.02,0,.4-.04.7-.07.9h-7.48Zm5.68-1.39c.02-1.23-.51-3.15-2.68-3.15-1.96,0-2.82,1.8-2.97,3.15h5.65Z"/>
      <path class="cls-1" d="m185.11,243.79v9.13h4.91v-9.13h1.91v9.2l1.1.02-.11,4.82h-1.5l-.09-3.39h-8.14v-10.65h1.91Z"/>
      <path class="cls-1" d="m197.12,243.79v4.49c0,1.69-.02,2.75-.11,4.27l.07.02c.64-1.3,1.01-2.05,1.72-3.28l3.32-5.5h2.27v10.65h-1.85v-4.51c0-1.74.04-2.64.13-4.36h-.07c-.68,1.36-1.14,2.22-1.76,3.3-1.01,1.65-2.18,3.7-3.32,5.57h-2.22v-10.65h1.83Z"/>
      <path class="cls-1" d="m213.42,254.44l-.15-1.34h-.07c-.59.84-1.74,1.58-3.26,1.58-2.16,0-3.26-1.52-3.26-3.06,0-2.57,2.29-3.98,6.4-3.96v-.22c0-.88-.24-2.46-2.42-2.46-.99,0-2.02.31-2.77.79l-.44-1.28c.88-.57,2.16-.95,3.5-.95,3.26,0,4.05,2.22,4.05,4.36v3.98c0,.92.04,1.83.18,2.55h-1.76Zm-.29-5.43c-2.11-.04-4.51.33-4.51,2.4,0,1.25.84,1.85,1.83,1.85,1.39,0,2.27-.88,2.57-1.78.07-.2.11-.42.11-.62v-1.85Z"/>
      <path class="cls-1" d="m226.25,243.79v10.65h-1.91v-9.13h-3.65v2.77c0,2.99-.29,4.99-1.67,5.9-.53.42-1.12.66-2.11.66l-.2-1.52c.37-.07.79-.22,1.06-.44.99-.73,1.1-2.22,1.1-4.6v-4.29h7.39Z"/>
      <path class="cls-1" d="m231.28,243.79v3.61c.44-.09,1.19-.11,1.76-.11,2.4,0,4.93.75,4.93,3.59,0,1.1-.44,1.87-1.12,2.44-1.17.99-3.06,1.23-4.62,1.23-1.08,0-2.07-.07-2.86-.15v-10.61h1.91Zm0,9.31c.37.04.79.09,1.43.09,1.45,0,3.32-.48,3.32-2.27s-1.94-2.24-3.37-2.24c-.51,0-.95.04-1.39.11v4.31Z"/>
      <path class="cls-1" d="m242.24,243.79v4.29h5.06v-4.29h1.91v10.65h-1.91v-4.82h-5.06v4.82h-1.91v-10.65h1.91Z"/>
      <path class="cls-1" d="m262.02,249.02c0,3.94-2.73,5.65-5.3,5.65-2.88,0-5.1-2.11-5.1-5.48,0-3.56,2.33-5.65,5.28-5.65s5.13,2.22,5.13,5.48Zm-8.45.11c0,2.33,1.34,4.09,3.23,4.09s3.23-1.74,3.23-4.14c0-1.8-.9-4.09-3.19-4.09s-3.28,2.11-3.28,4.14Z"/>
      <path class="cls-1" d="m265.54,249.46c.04,2.62,1.72,3.7,3.65,3.7,1.39,0,2.22-.24,2.95-.55l.33,1.39c-.68.31-1.85.66-3.54.66-3.28,0-5.24-2.16-5.24-5.37s1.89-5.74,5-5.74c3.48,0,4.4,3.06,4.4,5.02,0,.4-.04.7-.07.9h-7.48Zm5.68-1.39c.02-1.23-.51-3.15-2.68-3.15-1.96,0-2.82,1.8-2.97,3.15h5.65Z"/>
      <path class="cls-1" d="m288.39,243.79v9.2l1.1.02-.11,4.82h-1.52l-.09-3.39h-7.37l-.09,3.39h-1.52l-.09-4.82.9-.02c.46-.68.81-1.41,1.06-2.18.42-1.32.62-2.75.62-4.25v-2.77h7.11Zm-5.39,3.23c0,1.41-.2,2.77-.55,3.96-.22.73-.53,1.39-.86,1.98h4.91v-7.7h-3.5v1.76Z"/>
      <path class="cls-1" d="m301.35,249.02c0,3.94-2.73,5.65-5.3,5.65-2.88,0-5.1-2.11-5.1-5.48,0-3.56,2.33-5.65,5.28-5.65s5.13,2.22,5.13,5.48Zm-8.45.11c0,2.33,1.34,4.09,3.23,4.09s3.23-1.74,3.23-4.14c0-1.8-.9-4.09-3.19-4.09s-3.28,2.11-3.28,4.14Z"/>
      <path class="cls-1" d="m305.64,243.79v9.13h3.72v-9.13h1.89v9.13h3.72v-9.13h1.91v10.65h-13.14v-10.65h1.89Z"/>
      <path class="cls-1" d="m321.94,243.79v4.62h.46l4-4.62h2.35l-4.64,4.82c1.72.18,2.75,1.32,3.59,3.23.29.7.66,1.74,1.14,2.6h-2.02c-.29-.46-.66-1.3-.99-2.18-.73-1.72-1.72-2.51-3.52-2.51h-.37v4.69h-1.91v-10.65h1.91Z"/>
      <path class="cls-1" d="m340.07,249.02c0,3.94-2.73,5.65-5.3,5.65-2.88,0-5.1-2.11-5.1-5.48,0-3.56,2.33-5.65,5.28-5.65s5.13,2.22,5.13,5.48Zm-8.45.11c0,2.33,1.34,4.09,3.23,4.09s3.23-1.74,3.23-4.14c0-1.8-.9-4.09-3.19-4.09s-3.28,2.11-3.28,4.14Z"/>
      <path class="cls-1" d="m350.59,243.79v10.65h-1.91v-9.13h-3.65v2.77c0,2.99-.29,4.99-1.67,5.9-.53.42-1.12.66-2.11.66l-.2-1.52c.37-.07.79-.22,1.06-.44.99-.73,1.1-2.22,1.1-4.6v-4.29h7.39Z"/>
      <path class="cls-1" d="m355.62,243.79v3.61c.44-.09,1.19-.11,1.76-.11,2.4,0,4.93.75,4.93,3.59,0,1.1-.44,1.87-1.12,2.44-1.17.99-3.06,1.23-4.62,1.23-1.08,0-2.07-.07-2.86-.15v-10.61h1.91Zm0,9.31c.37.04.79.09,1.43.09,1.45,0,3.32-.48,3.32-2.27s-1.94-2.24-3.37-2.24c-.51,0-.95.04-1.39.11v4.31Z"/>
      <path class="cls-1" d="m366.58,243.79v4.29h5.06v-4.29h1.91v10.65h-1.91v-4.82h-5.06v4.82h-1.91v-10.65h1.91Z"/>
      <path class="cls-1" d="m386.36,249.02c0,3.94-2.73,5.65-5.3,5.65-2.88,0-5.1-2.11-5.1-5.48,0-3.56,2.33-5.65,5.28-5.65s5.13,2.22,5.13,5.48Zm-8.45.11c0,2.33,1.34,4.09,3.23,4.09s3.23-1.74,3.23-4.14c0-1.8-.9-4.09-3.19-4.09s-3.28,2.11-3.28,4.14Z"/>
      <path class="cls-1" d="m389.88,249.46c.04,2.62,1.72,3.7,3.65,3.7,1.39,0,2.22-.24,2.95-.55l.33,1.39c-.68.31-1.85.66-3.54.66-3.28,0-5.24-2.16-5.24-5.37s1.89-5.74,5-5.74c3.48,0,4.4,3.06,4.4,5.02,0,.4-.04.7-.07.9h-7.48Zm5.68-1.39c.02-1.23-.51-3.15-2.68-3.15-1.96,0-2.82,1.8-2.97,3.15h5.65Z"/>
      <path class="cls-1" d="m414.12,249.02c0,3.94-2.73,5.65-5.3,5.65-2.88,0-5.1-2.11-5.1-5.48,0-3.56,2.33-5.65,5.28-5.65s5.13,2.22,5.13,5.48Zm-8.45.11c0,2.33,1.34,4.09,3.23,4.09s3.23-1.74,3.23-4.14c0-1.8-.9-4.09-3.19-4.09s-3.28,2.11-3.28,4.14Z"/>
      <path class="cls-1" d="m424.62,240.18c-.55.2-1.52.37-2.22.48-1.72.26-2.97.84-3.78,2-.68.97-1.08,2.4-1.17,3.52h.07c.68-1.54,2.18-2.4,3.7-2.4,2.62,0,4.53,1.87,4.53,5.26s-1.8,5.63-4.93,5.63c-3.74,0-4.97-3.59-4.97-7.13,0-2.42.51-4.4,1.65-5.9,1.03-1.47,2.51-2.16,4.58-2.51.86-.13,1.91-.31,2.64-.57l-.09,1.61Zm-3.81,5.04c-1.14,0-1.96.59-2.4,1.45-.35.64-.53,1.41-.53,2.27,0,1.76.86,4.29,2.97,4.29s2.93-2.07,2.93-4.03c0-1.74-.68-3.98-2.97-3.98Z"/>
      <path class="cls-1" d="m428.18,247.26c0-1.36-.04-2.46-.09-3.48h1.74l.09,1.83h.04c.79-1.3,2.05-2.07,3.78-2.07,2.57,0,4.51,2.18,4.51,5.41,0,3.83-2.33,5.72-4.84,5.72-1.41,0-2.64-.62-3.28-1.67h-.04v5.79h-1.91v-11.53Zm1.91,2.84c0,.29.04.55.09.79.35,1.34,1.52,2.27,2.9,2.27,2.05,0,3.23-1.67,3.23-4.11,0-2.13-1.12-3.96-3.17-3.96-1.32,0-2.55.95-2.93,2.4-.07.24-.13.53-.13.79v1.83Z"/>
      <path class="cls-1" d="m446.59,254.44l-.15-1.34h-.07c-.59.84-1.74,1.58-3.26,1.58-2.16,0-3.26-1.52-3.26-3.06,0-2.57,2.29-3.98,6.4-3.96v-.22c0-.88-.24-2.46-2.42-2.46-.99,0-2.02.31-2.77.79l-.44-1.28c.88-.57,2.16-.95,3.5-.95,3.26,0,4.05,2.22,4.05,4.36v3.98c0,.92.04,1.83.18,2.55h-1.76Zm-.29-5.43c-2.11-.04-4.51.33-4.51,2.4,0,1.25.84,1.85,1.83,1.85,1.39,0,2.27-.88,2.57-1.78.07-.2.11-.42.11-.62v-1.85Z"/>
      <path class="cls-1" d="m452.18,248.25h.92c1.63,0,2.73-.75,2.73-1.74s-.86-1.54-2.07-1.54c-.86,0-1.83.29-2.57.75l-.48-1.19c1.08-.66,2.31-.97,3.54-.97,1.63,0,3.61.73,3.61,2.79,0,1.32-1.21,2.18-2.4,2.42v.04c1.58.13,2.9,1.1,2.9,2.66,0,2.31-2.35,3.17-4.6,3.17-1.25,0-2.51-.33-3.45-.86l.51-1.3c.77.42,1.8.73,2.82.73,1.61,0,2.62-.77,2.62-1.83,0-1.43-1.5-1.83-3.1-1.83h-.97v-1.32Z"/>
      <path class="cls-1" d="m470.42,249.02c0,3.94-2.73,5.65-5.3,5.65-2.88,0-5.1-2.11-5.1-5.48,0-3.56,2.33-5.65,5.28-5.65s5.13,2.22,5.13,5.48Zm-8.45.11c0,2.33,1.34,4.09,3.23,4.09s3.23-1.74,3.23-4.14c0-1.8-.9-4.09-3.19-4.09s-3.28,2.11-3.28,4.14Z"/>
      <path class="cls-1" d="m472.82,243.92c.75-.13,2.13-.24,3.39-.24,1.78,0,4.73.29,4.73,2.66,0,1.32-1.01,2.13-2.22,2.4v.04c1.56.22,2.71,1.1,2.71,2.64,0,2.79-3.52,3.15-5.61,3.15-1.19,0-2.42-.09-2.99-.13v-10.52Zm1.83,9.24c.55.07.95.09,1.56.09,1.3,0,3.23-.31,3.23-1.85s-1.54-1.87-3.39-1.87h-1.41v3.63Zm.02-4.91h1.45c1.43,0,2.9-.42,2.9-1.67,0-1.06-.92-1.56-2.86-1.56-.64,0-1.03.04-1.5.09v3.15Z"/>
      <path class="cls-1" d="m489.76,254.44l-.15-1.34h-.07c-.59.84-1.74,1.58-3.26,1.58-2.16,0-3.26-1.52-3.26-3.06,0-2.57,2.29-3.98,6.4-3.96v-.22c0-.88-.24-2.46-2.42-2.46-.99,0-2.02.31-2.77.79l-.44-1.28c.88-.57,2.16-.95,3.5-.95,3.26,0,4.05,2.22,4.05,4.36v3.98c0,.92.04,1.83.18,2.55h-1.76Zm-.29-5.43c-2.11-.04-4.51.33-4.51,2.4,0,1.25.84,1.85,1.83,1.85,1.39,0,2.27-.88,2.57-1.78.07-.2.11-.42.11-.62v-1.85Z"/>
      <path class="cls-1" d="m496.33,243.79v4.29h5.06v-4.29h1.91v10.65h-1.91v-4.82h-5.06v4.82h-1.91v-10.65h1.91Z"/>
      <path class="cls-1" d="m508.26,243.79v4.49c0,1.69-.02,2.75-.11,4.27l.07.02c.64-1.3,1.01-2.05,1.72-3.28l3.32-5.5h2.27v10.65h-1.85v-4.51c0-1.74.04-2.64.13-4.36h-.07c-.68,1.36-1.14,2.22-1.76,3.3-1.01,1.65-2.18,3.7-3.32,5.57h-2.22v-10.65h1.83Z"/>
      <path class="cls-1" d="m519.74,249.46c.04,2.62,1.72,3.7,3.65,3.7,1.39,0,2.22-.24,2.95-.55l.33,1.39c-.68.31-1.85.66-3.54.66-3.28,0-5.24-2.16-5.24-5.37s1.89-5.74,5-5.74c3.48,0,4.4,3.06,4.4,5.02,0,.4-.04.7-.07.9h-7.48Zm5.68-1.39c.02-1.23-.51-3.15-2.68-3.15-1.96,0-2.82,1.8-2.97,3.15h5.65Z"/>
      <path class="cls-1" d="m128.74,293.69c-.02-1.3,1.03-2.31,2.31-2.31s2.31,1.01,2.31,2.29-1.01,2.31-2.31,2.31-2.31-.99-2.31-2.29Z"/>
      <path class="cls-1" d="m149.51,284.61v6.58h.59l5.08-6.58h2.31l-5.61,6.8c2.44.33,3.39,1.83,4.16,3.83.55,1.52.97,2.88,1.63,4.2h-2.07c-.53-1.01-.95-2.33-1.34-3.5-.68-1.96-1.63-3.3-4.14-3.3h-.62v6.8h-1.89v-14.83h1.89Z"/>
      <path class="cls-1" d="m169.05,294.02c0,3.94-2.73,5.65-5.3,5.65-2.88,0-5.1-2.11-5.1-5.48,0-3.56,2.33-5.65,5.28-5.65s5.13,2.22,5.13,5.48Zm-8.45.11c0,2.33,1.34,4.09,3.23,4.09s3.23-1.74,3.23-4.14c0-1.8-.9-4.09-3.19-4.09s-3.28,2.11-3.28,4.14Z"/>
      <path class="cls-1" d="m171.49,292.26c0-1.36-.04-2.46-.09-3.48h1.74l.09,1.83h.04c.79-1.3,2.05-2.07,3.78-2.07,2.57,0,4.51,2.18,4.51,5.41,0,3.83-2.33,5.72-4.84,5.72-1.41,0-2.64-.62-3.28-1.67h-.04v5.79h-1.91v-11.53Zm1.91,2.84c0,.29.04.55.09.79.35,1.34,1.52,2.27,2.9,2.27,2.05,0,3.23-1.67,3.23-4.11,0-2.13-1.12-3.96-3.17-3.96-1.32,0-2.55.95-2.93,2.4-.07.24-.13.53-.13.79v1.83Z"/>
      <path class="cls-1" d="m184.01,292.26c0-1.36-.04-2.46-.09-3.48h1.74l.09,1.83h.04c.79-1.3,2.05-2.07,3.78-2.07,2.57,0,4.51,2.18,4.51,5.41,0,3.83-2.33,5.72-4.84,5.72-1.41,0-2.64-.62-3.28-1.67h-.04v5.79h-1.91v-11.53Zm1.91,2.84c0,.29.04.55.09.79.35,1.34,1.52,2.27,2.9,2.27,2.05,0,3.23-1.67,3.23-4.11,0-2.13-1.12-3.96-3.17-3.96-1.32,0-2.55.95-2.93,2.4-.07.24-.13.53-.13.79v1.83Z"/>
      <path class="cls-1" d="m197.6,294.46c.04,2.62,1.72,3.7,3.65,3.7,1.39,0,2.22-.24,2.95-.55l.33,1.39c-.68.31-1.85.66-3.54.66-3.28,0-5.24-2.16-5.24-5.37s1.89-5.74,5-5.74c3.48,0,4.4,3.06,4.4,5.02,0,.4-.04.7-.07.9h-7.48Zm5.68-1.39c.02-1.23-.51-3.15-2.68-3.15-1.96,0-2.82,1.8-2.97,3.15h5.65Z"/>
      <path class="cls-1" d="m209.46,288.79v4.62h.46l4-4.62h2.35l-4.64,4.82c1.72.18,2.75,1.32,3.59,3.23.29.7.66,1.74,1.14,2.6h-2.02c-.29-.46-.66-1.3-.99-2.18-.73-1.72-1.72-2.51-3.52-2.51h-.37v4.69h-1.91v-10.65h1.91Z"/>
      <path class="cls-1" d="m219.95,288.79v9.13h4.91v-9.13h1.91v9.2l1.1.02-.11,4.82h-1.5l-.09-3.39h-8.14v-10.65h1.91Z"/>
      <path class="cls-1" d="m231.96,288.79v4.49c0,1.69-.02,2.75-.11,4.27l.07.02c.64-1.3,1.01-2.05,1.72-3.28l3.32-5.5h2.27v10.65h-1.85v-4.51c0-1.74.04-2.64.13-4.36h-.07c-.68,1.36-1.14,2.22-1.76,3.3-1.01,1.65-2.18,3.7-3.32,5.57h-2.22v-10.65h1.83Z"/>
      <path class="cls-1" d="m252.01,294.02c0,3.94-2.73,5.65-5.3,5.65-2.88,0-5.1-2.11-5.1-5.48,0-3.56,2.33-5.65,5.28-5.65s5.13,2.22,5.13,5.48Zm-8.45.11c0,2.33,1.34,4.09,3.23,4.09s3.23-1.74,3.23-4.14c0-1.8-.9-4.09-3.19-4.09s-3.28,2.11-3.28,4.14Z"/>
      <path class="cls-1" d="m256.32,288.79v4.29h5.06v-4.29h1.91v10.65h-1.91v-4.82h-5.06v4.82h-1.91v-10.65h1.91Z"/>
      <path class="cls-1" d="m268.33,288.79v4.29h5.06v-4.29h1.91v10.65h-1.91v-4.82h-5.06v4.82h-1.91v-10.65h1.91Z"/>
      <path class="cls-1" d="m284.37,299.44l-.15-1.34h-.07c-.59.84-1.74,1.58-3.26,1.58-2.16,0-3.26-1.52-3.26-3.06,0-2.57,2.29-3.98,6.4-3.96v-.22c0-.88-.24-2.46-2.42-2.46-.99,0-2.02.31-2.77.79l-.44-1.28c.88-.57,2.16-.95,3.5-.95,3.26,0,4.05,2.22,4.05,4.36v3.98c0,.92.04,1.83.18,2.55h-1.76Zm-.29-5.43c-2.11-.04-4.51.33-4.51,2.4,0,1.25.84,1.85,1.83,1.85,1.39,0,2.27-.88,2.57-1.78.07-.2.11-.42.11-.62v-1.85Z"/>
      <path class="cls-1" d="m297,299.44h-1.91v-4.47h-1.43c-.81,0-1.36.22-1.78.59-.79.64-1.08,1.96-1.5,2.99-.13.33-.29.62-.44.88h-2.07c.24-.35.46-.75.66-1.21.46-1.03.73-2.42,1.67-3.21.33-.29.73-.53,1.21-.62v-.07c-1.39-.15-2.82-1.01-2.82-2.64,0-1.1.59-1.85,1.41-2.31.88-.51,2.18-.73,3.56-.73,1.28,0,2.51.11,3.43.22v10.56Zm-1.91-9.37c-.48-.07-.92-.11-1.61-.11-1.32,0-2.88.37-2.88,1.85,0,1.36,1.69,1.85,2.84,1.85h1.65v-3.59Z"/>
      <path class="cls-1" d="m313.56,288.79v10.65h-1.94v-9.11h-4.95v9.11h-1.91v-10.65h8.8Z"/>
      <path class="cls-1" d="m317.78,294.46c.04,2.62,1.72,3.7,3.65,3.7,1.39,0,2.22-.24,2.95-.55l.33,1.39c-.68.31-1.85.66-3.54.66-3.28,0-5.24-2.16-5.24-5.37s1.89-5.74,5-5.74c3.48,0,4.4,3.06,4.4,5.02,0,.4-.04.7-.07.9h-7.48Zm5.68-1.39c.02-1.23-.51-3.15-2.68-3.15-1.96,0-2.82,1.8-2.97,3.15h5.65Z"/>
      <path class="cls-1" d="m336.05,288.79v9.2l1.1.02-.11,4.82h-1.52l-.09-3.39h-7.37l-.09,3.39h-1.52l-.09-4.82.9-.02c.46-.68.81-1.41,1.06-2.18.42-1.32.62-2.75.62-4.25v-2.77h7.11Zm-5.39,3.23c0,1.41-.2,2.77-.55,3.96-.22.73-.53,1.39-.86,1.98h4.91v-7.7h-3.5v1.76Z"/>
      <path class="cls-1" d="m345.35,299.44l-.15-1.34h-.07c-.59.84-1.74,1.58-3.26,1.58-2.16,0-3.26-1.52-3.26-3.06,0-2.57,2.29-3.98,6.4-3.96v-.22c0-.88-.24-2.46-2.42-2.46-.99,0-2.02.31-2.77.79l-.44-1.28c.88-.57,2.16-.95,3.5-.95,3.26,0,4.05,2.22,4.05,4.36v3.98c0,.92.04,1.83.18,2.55h-1.76Zm-.29-5.43c-2.11-.04-4.51.33-4.51,2.4,0,1.25.84,1.85,1.83,1.85,1.39,0,2.27-.88,2.57-1.78.07-.2.11-.42.11-.62v-1.85Z"/>
      <path class="cls-1" d="m356.55,288.79v1.56h-4.62v9.09h-1.91v-10.65h6.54Z"/>
      <path class="cls-1" d="m367.73,294.02c0,3.94-2.73,5.65-5.3,5.65-2.88,0-5.1-2.11-5.1-5.48,0-3.56,2.33-5.65,5.28-5.65s5.13,2.22,5.13,5.48Zm-8.45.11c0,2.33,1.34,4.09,3.23,4.09s3.23-1.74,3.23-4.14c0-1.8-.9-4.09-3.19-4.09s-3.28,2.11-3.28,4.14Z"/>
      <path class="cls-1" d="m376.66,288.79v1.56h-4.62v9.09h-1.91v-10.65h6.54Z"/>
      <path class="cls-1" d="m380.26,288.79v4.49c0,1.69-.02,2.75-.11,4.27l.07.02c.64-1.3,1.01-2.05,1.72-3.28l3.32-5.5h2.27v10.65h-1.85v-4.51c0-1.74.04-2.64.13-4.36h-.07c-.68,1.36-1.14,2.22-1.76,3.3-1.01,1.65-2.18,3.7-3.32,5.57h-2.22v-10.65h1.83Z"/>
      <path class="cls-1" d="m392.58,288.79v4.62h.46l4-4.62h2.35l-4.64,4.82c1.72.18,2.75,1.32,3.59,3.23.29.7.66,1.74,1.14,2.6h-2.02c-.29-.46-.66-1.3-.99-2.18-.73-1.72-1.72-2.51-3.52-2.51h-.37v4.69h-1.91v-10.65h1.91Z"/>
      <path class="cls-1" d="m407.32,299.44l-.15-1.34h-.07c-.59.84-1.74,1.58-3.26,1.58-2.16,0-3.26-1.52-3.26-3.06,0-2.57,2.29-3.98,6.4-3.96v-.22c0-.88-.24-2.46-2.42-2.46-.99,0-2.02.31-2.77.79l-.44-1.28c.88-.57,2.16-.95,3.5-.95,3.26,0,4.05,2.22,4.05,4.36v3.98c0,.92.04,1.83.18,2.55h-1.76Zm-.29-5.43c-2.11-.04-4.51.33-4.51,2.4,0,1.25.84,1.85,1.83,1.85,1.39,0,2.27-.88,2.57-1.78.07-.2.11-.42.11-.62v-1.85Z"/>
      <path class="cls-1" d="m416.65,288.92c.75-.13,2.13-.24,3.39-.24,1.78,0,4.73.29,4.73,2.66,0,1.32-1.01,2.13-2.22,2.4v.04c1.56.22,2.71,1.1,2.71,2.64,0,2.79-3.52,3.15-5.61,3.15-1.19,0-2.42-.09-2.99-.13v-10.52Zm1.83,9.24c.55.07.95.09,1.56.09,1.3,0,3.23-.31,3.23-1.85s-1.54-1.87-3.39-1.87h-1.41v3.63Zm.02-4.91h1.45c1.43,0,2.9-.42,2.9-1.67,0-1.06-.92-1.56-2.86-1.56-.64,0-1.03.04-1.5.09v3.15Z"/>
      <path class="cls-1" d="m140.75,333.79v4.29h5.06v-4.29h1.91v10.65h-1.91v-4.82h-5.06v4.82h-1.91v-10.65h1.91Z"/>
      <path class="cls-1" d="m156.79,344.44l-.15-1.34h-.07c-.59.84-1.74,1.58-3.26,1.58-2.16,0-3.26-1.52-3.26-3.06,0-2.57,2.29-3.98,6.4-3.96v-.22c0-.88-.24-2.46-2.42-2.46-.99,0-2.02.31-2.77.79l-.44-1.28c.88-.57,2.16-.95,3.5-.95,3.26,0,4.05,2.22,4.05,4.36v3.98c0,.92.04,1.83.18,2.55h-1.76Zm-.29-5.43c-2.11-.04-4.51.33-4.51,2.4,0,1.25.84,1.85,1.83,1.85,1.39,0,2.27-.88,2.57-1.78.07-.2.11-.42.11-.62v-1.85Z"/>
      <path class="cls-1" d="m162.95,333.79v3.5c0,1.34.51,2.27,2.2,2.27.84,0,1.69-.31,2.29-.75v-5.02h1.91v10.65h-1.91v-4.27h-.04c-.73.48-1.87.81-2.88.81-2.02,0-3.5-1.03-3.5-3.48v-3.72h1.94Z"/>
      <path class="cls-1" d="m178.41,344.44l-.15-1.34h-.07c-.59.84-1.74,1.58-3.26,1.58-2.16,0-3.26-1.52-3.26-3.06,0-2.57,2.29-3.98,6.4-3.96v-.22c0-.88-.24-2.46-2.42-2.46-.99,0-2.02.31-2.77.79l-.44-1.28c.88-.57,2.16-.95,3.5-.95,3.26,0,4.05,2.22,4.05,4.36v3.98c0,.92.04,1.83.18,2.55h-1.76Zm-.29-5.43c-2.11-.04-4.51.33-4.51,2.4,0,1.25.84,1.85,1.83,1.85,1.39,0,2.27-.88,2.57-1.78.07-.2.11-.42.11-.62v-1.85Z"/>
      <path class="cls-1" d="m191.24,333.79v10.65h-1.91v-9.13h-3.65v2.77c0,2.99-.29,4.99-1.67,5.9-.53.42-1.12.66-2.11.66l-.2-1.52c.37-.07.79-.22,1.06-.44.99-.73,1.1-2.22,1.1-4.6v-4.29h7.39Z"/>
      <path class="cls-1" d="m196.28,333.79v3.61c.44-.09,1.19-.11,1.76-.11,2.4,0,4.93.75,4.93,3.59,0,1.1-.44,1.87-1.12,2.44-1.17.99-3.06,1.23-4.62,1.23-1.08,0-2.07-.07-2.86-.15v-10.61h1.91Zm0,9.31c.37.04.79.09,1.43.09,1.45,0,3.32-.48,3.32-2.27s-1.94-2.24-3.37-2.24c-.51,0-.95.04-1.39.11v4.31Z"/>
      <path class="cls-1" d="m207.23,333.79v4.29h5.06v-4.29h1.91v10.65h-1.91v-4.82h-5.06v4.82h-1.91v-10.65h1.91Z"/>
      <path class="cls-1" d="m227.01,339.02c0,3.94-2.73,5.65-5.3,5.65-2.88,0-5.1-2.11-5.1-5.48,0-3.56,2.33-5.65,5.28-5.65s5.13,2.22,5.13,5.48Zm-8.45.11c0,2.33,1.34,4.09,3.23,4.09s3.23-1.74,3.23-4.14c0-1.8-.9-4.09-3.19-4.09s-3.28,2.11-3.28,4.14Z"/>
      <path class="cls-1" d="m229.56,333.79h2.38l1.94,5.37c.26.79.73,2.09.97,2.93h.04c.24-.79.84-2.49,1.25-3.65l1.72-4.64h2.4l.75,10.65h-1.85l-.24-5.08c-.07-1.14-.15-2.51-.2-3.81h-.07c-.29.97-.57,1.83-1.17,3.45l-2.05,5.37h-1.41l-1.89-5.26c-.33-1.01-.79-2.55-1.06-3.54h-.09c-.04,1.25-.11,2.66-.18,3.83l-.26,5.04h-1.78l.79-10.65Z"/>
      <path class="cls-1" d="m257.81,339.02c0,3.94-2.73,5.65-5.3,5.65-2.88,0-5.1-2.11-5.1-5.48,0-3.56,2.33-5.65,5.28-5.65s5.13,2.22,5.13,5.48Zm-8.45.11c0,2.33,1.34,4.09,3.23,4.09s3.23-1.74,3.23-4.14c0-1.8-.9-4.09-3.19-4.09s-3.28,2.11-3.28,4.14Z"/>
      <path class="cls-1" d="m268.3,330.18c-.55.2-1.52.37-2.22.48-1.72.26-2.97.84-3.78,2-.68.97-1.08,2.4-1.17,3.52h.07c.68-1.54,2.18-2.4,3.7-2.4,2.62,0,4.53,1.87,4.53,5.26s-1.8,5.63-4.93,5.63c-3.74,0-4.97-3.59-4.97-7.13,0-2.42.51-4.4,1.65-5.9,1.03-1.47,2.51-2.16,4.58-2.51.86-.13,1.91-.31,2.64-.57l-.09,1.61Zm-3.81,5.04c-1.14,0-1.96.59-2.4,1.45-.35.64-.53,1.41-.53,2.27,0,1.76.86,4.29,2.97,4.29s2.93-2.07,2.93-4.03c0-1.74-.68-3.98-2.97-3.98Z"/>
      <path class="cls-1" d="m271.87,337.26c0-1.36-.04-2.46-.09-3.48h1.74l.09,1.83h.04c.79-1.3,2.05-2.07,3.78-2.07,2.57,0,4.51,2.18,4.51,5.41,0,3.83-2.33,5.72-4.84,5.72-1.41,0-2.64-.62-3.28-1.67h-.04v5.79h-1.91v-11.53Zm1.91,2.84c0,.29.04.55.09.79.35,1.34,1.52,2.27,2.9,2.27,2.05,0,3.23-1.67,3.23-4.11,0-2.13-1.12-3.96-3.17-3.96-1.32,0-2.55.95-2.93,2.4-.07.24-.13.53-.13.79v1.83Z"/>
      <path class="cls-1" d="m290.28,344.44l-.15-1.34h-.07c-.59.84-1.74,1.58-3.26,1.58-2.16,0-3.26-1.52-3.26-3.06,0-2.57,2.29-3.98,6.4-3.96v-.22c0-.88-.24-2.46-2.42-2.46-.99,0-2.02.31-2.77.79l-.44-1.28c.88-.57,2.16-.95,3.5-.95,3.26,0,4.05,2.22,4.05,4.36v3.98c0,.92.04,1.83.18,2.55h-1.76Zm-.29-5.43c-2.11-.04-4.51.33-4.51,2.4,0,1.25.84,1.85,1.83,1.85,1.39,0,2.27-.88,2.57-1.78.07-.2.11-.42.11-.62v-1.85Z"/>
      <path class="cls-1" d="m295.87,338.25h.92c1.63,0,2.73-.75,2.73-1.74s-.86-1.54-2.07-1.54c-.86,0-1.83.29-2.57.75l-.48-1.19c1.08-.66,2.31-.97,3.54-.97,1.63,0,3.61.73,3.61,2.79,0,1.32-1.21,2.18-2.4,2.42v.04c1.58.13,2.9,1.1,2.9,2.66,0,2.31-2.35,3.17-4.6,3.17-1.25,0-2.51-.33-3.45-.86l.51-1.3c.77.42,1.8.73,2.82.73,1.61,0,2.62-.77,2.62-1.83,0-1.43-1.5-1.83-3.1-1.83h-.97v-1.32Z"/>
      <path class="cls-1" d="m314.11,339.02c0,3.94-2.73,5.65-5.3,5.65-2.88,0-5.1-2.11-5.1-5.48,0-3.56,2.33-5.65,5.28-5.65s5.13,2.22,5.13,5.48Zm-8.45.11c0,2.33,1.34,4.09,3.23,4.09s3.23-1.74,3.23-4.14c0-1.8-.9-4.09-3.19-4.09s-3.28,2.11-3.28,4.14Z"/>
      <path class="cls-1" d="m316.51,333.92c.75-.13,2.13-.24,3.39-.24,1.78,0,4.73.29,4.73,2.66,0,1.32-1.01,2.13-2.22,2.4v.04c1.56.22,2.71,1.1,2.71,2.64,0,2.79-3.52,3.15-5.61,3.15-1.19,0-2.42-.09-2.99-.13v-10.52Zm1.83,9.24c.55.07.95.09,1.56.09,1.3,0,3.23-.31,3.23-1.85s-1.54-1.87-3.39-1.87h-1.41v3.63Zm.02-4.91h1.45c1.43,0,2.9-.42,2.9-1.67,0-1.06-.92-1.56-2.86-1.56-.64,0-1.03.04-1.5.09v3.15Z"/>
      <path class="cls-1" d="m333.45,344.44l-.15-1.34h-.07c-.59.84-1.74,1.58-3.26,1.58-2.16,0-3.26-1.52-3.26-3.06,0-2.57,2.29-3.98,6.4-3.96v-.22c0-.88-.24-2.46-2.42-2.46-.99,0-2.02.31-2.77.79l-.44-1.28c.88-.57,2.16-.95,3.5-.95,3.26,0,4.05,2.22,4.05,4.36v3.98c0,.92.04,1.83.18,2.55h-1.76Zm-.29-5.43c-2.11-.04-4.51.33-4.51,2.4,0,1.25.84,1.85,1.83,1.85,1.39,0,2.27-.88,2.57-1.78.07-.2.11-.42.11-.62v-1.85Z"/>
      <path class="cls-1" d="m340.02,333.79v4.29h5.06v-4.29h1.91v10.65h-1.91v-4.82h-5.06v4.82h-1.91v-10.65h1.91Z"/>
      <path class="cls-1" d="m351.95,333.79v4.49c0,1.69-.02,2.75-.11,4.27l.07.02c.64-1.3,1.01-2.05,1.72-3.28l3.32-5.5h2.27v10.65h-1.85v-4.51c0-1.74.04-2.64.13-4.36h-.07c-.68,1.36-1.14,2.22-1.76,3.3-1.01,1.65-2.18,3.7-3.32,5.57h-2.22v-10.65h1.83Z"/>
      <path class="cls-1" d="m364.13,333.79v4.49c0,1.69-.02,2.75-.11,4.27l.07.02c.64-1.3,1.01-2.05,1.72-3.28l3.32-5.5h2.27v10.65h-1.85v-4.51c0-1.74.04-2.64.13-4.36h-.07c-.68,1.36-1.14,2.22-1.76,3.3-1.01,1.65-2.18,3.7-3.32,5.57h-2.22v-10.65h1.83Z"/>
      <path class="cls-1" d="m128.74,383.69c-.02-1.3,1.03-2.31,2.31-2.31s2.31,1.01,2.31,2.29-1.01,2.31-2.31,2.31-2.31-.99-2.31-2.29Z"/>
      <path class="cls-1" d="m154.86,374.01v1.32c3.12.13,6.25,2.02,6.25,6.69s-3.12,6.45-6.27,6.62v1.39h-1.85v-1.39c-3.1-.2-6.25-1.85-6.25-6.54s3.43-6.6,6.29-6.78v-1.32h1.83Zm-1.85,2.71c-1.94.11-4.29,1.45-4.29,5.3,0,3.54,2.11,5.04,4.29,5.26v-10.56Zm1.83,10.56c2.13-.18,4.29-1.61,4.29-5.28s-2.16-5.17-4.29-5.28v10.56Z"/>
      <path class="cls-1" d="m165.28,378.79v4.49c0,1.69-.02,2.75-.11,4.27l.07.02c.64-1.3,1.01-2.05,1.72-3.28l3.32-5.5h2.27v10.65h-1.85v-4.51c0-1.74.04-2.64.13-4.36h-.07c-.68,1.36-1.14,2.22-1.76,3.3-1.01,1.65-2.18,3.7-3.32,5.57h-2.22v-10.65h1.83Z"/>
      <path class="cls-1" d="m176.57,383.25h.92c1.63,0,2.73-.75,2.73-1.74s-.86-1.54-2.07-1.54c-.86,0-1.83.29-2.57.75l-.48-1.19c1.08-.66,2.31-.97,3.54-.97,1.63,0,3.61.73,3.61,2.79,0,1.32-1.21,2.18-2.4,2.42v.04c1.58.13,2.9,1.1,2.9,2.66,0,2.31-2.35,3.17-4.6,3.17-1.25,0-2.51-.33-3.45-.86l.51-1.3c.77.42,1.8.73,2.82.73,1.61,0,2.62-.77,2.62-1.83,0-1.43-1.5-1.83-3.1-1.83h-.97v-1.32Z"/>
      <path class="cls-1" d="m186.95,378.79v4.49c0,1.69-.02,2.75-.11,4.27l.07.02c.64-1.3,1.01-2.05,1.72-3.28l3.32-5.5h2.27v10.65h-1.85v-4.51c0-1.74.04-2.64.13-4.36h-.07c-.68,1.36-1.14,2.22-1.76,3.3-1.01,1.65-2.18,3.7-3.32,5.57h-2.22v-10.65h1.83Z"/>
      <path class="cls-1" d="m198.88,378.79v3.5c0,1.34.51,2.27,2.2,2.27.84,0,1.69-.31,2.29-.75v-5.02h1.91v10.65h-1.91v-4.27h-.04c-.73.48-1.87.81-2.88.81-2.02,0-3.5-1.03-3.5-3.48v-3.72h1.94Z"/>
      <path class="cls-1" d="m209.53,384.46c.04,2.62,1.72,3.7,3.65,3.7,1.39,0,2.22-.24,2.95-.55l.33,1.39c-.68.31-1.85.66-3.54.66-3.28,0-5.24-2.16-5.24-5.37s1.89-5.74,5-5.74c3.48,0,4.4,3.06,4.4,5.02,0,.4-.04.7-.07.9h-7.48Zm5.68-1.39c.02-1.23-.51-3.15-2.68-3.15-1.96,0-2.82,1.8-2.97,3.15h5.65Z"/>
      <path class="cls-1" d="m227.06,389.04c-.51.26-1.63.62-3.06.62-3.21,0-5.3-2.18-5.3-5.44s2.24-5.65,5.72-5.65c1.14,0,2.16.29,2.68.55l-.44,1.5c-.46-.26-1.19-.51-2.24-.51-2.44,0-3.76,1.8-3.76,4.03,0,2.46,1.58,3.98,3.7,3.98,1.1,0,1.83-.29,2.38-.53l.33,1.45Z"/>
      <path class="cls-1" d="m231.24,378.79v4.62h.46l4-4.62h2.35l-4.64,4.82c1.72.18,2.75,1.32,3.59,3.23.29.7.66,1.74,1.14,2.6h-2.02c-.29-.46-.66-1.3-.99-2.18-.73-1.72-1.72-2.51-3.52-2.51h-.37v4.69h-1.91v-10.65h1.91Z"/>
      <path class="cls-1" d="m245.98,389.44l-.15-1.34h-.07c-.59.84-1.74,1.58-3.26,1.58-2.16,0-3.26-1.52-3.26-3.06,0-2.57,2.29-3.98,6.4-3.96v-.22c0-.88-.24-2.46-2.42-2.46-.99,0-2.02.31-2.77.79l-.44-1.28c.88-.57,2.16-.95,3.5-.95,3.26,0,4.05,2.22,4.05,4.36v3.98c0,.92.04,1.83.18,2.55h-1.76Zm-.29-5.43c-2.11-.04-4.51.33-4.51,2.4,0,1.25.84,1.85,1.83,1.85,1.39,0,2.27-.88,2.57-1.78.07-.2.11-.42.11-.62v-1.85Z"/>
      <path class="cls-1" d="m258.61,389.44h-1.91v-4.47h-1.43c-.81,0-1.36.22-1.78.59-.79.64-1.08,1.96-1.5,2.99-.13.33-.29.62-.44.88h-2.07c.24-.35.46-.75.66-1.21.46-1.03.73-2.42,1.67-3.21.33-.29.73-.53,1.21-.62v-.07c-1.39-.15-2.82-1.01-2.82-2.64,0-1.1.59-1.85,1.41-2.31.88-.51,2.18-.73,3.56-.73,1.28,0,2.51.11,3.43.22v10.56Zm-1.91-9.37c-.48-.07-.92-.11-1.61-.11-1.32,0-2.88.37-2.88,1.85,0,1.36,1.69,1.85,2.84,1.85h1.65v-3.59Z"/>
      <path class="cls-1" d="m268.33,378.79v4.62h.46l4-4.62h2.35l-4.64,4.82c1.72.18,2.75,1.32,3.59,3.23.29.7.66,1.74,1.14,2.6h-2.02c-.29-.46-.66-1.3-.99-2.18-.73-1.72-1.72-2.51-3.52-2.51h-.37v4.69h-1.91v-10.65h1.91Z"/>
      <path class="cls-1" d="m277.81,378.79l2.33,6.29c.24.7.51,1.54.68,2.18h.04c.2-.64.42-1.45.68-2.22l2.11-6.25h2.05l-2.9,7.59c-1.39,3.65-2.33,5.52-3.65,6.67-.95.84-1.89,1.17-2.38,1.25l-.48-1.63c.48-.15,1.12-.46,1.69-.95.53-.42,1.19-1.17,1.63-2.16.09-.2.15-.35.15-.46s-.04-.26-.13-.51l-3.94-9.81h2.11Z"/>
      <path class="cls-1" d="m295.37,378.79v10.65h-1.91v-9.13h-3.65v2.77c0,2.99-.29,4.99-1.67,5.9-.53.42-1.12.66-2.11.66l-.2-1.52c.37-.07.79-.22,1.06-.44.99-.73,1.1-2.22,1.1-4.6v-4.29h7.39Z"/>
      <path class="cls-1" d="m300.41,378.79v3.61c.44-.09,1.19-.11,1.76-.11,2.4,0,4.93.75,4.93,3.59,0,1.1-.44,1.87-1.12,2.44-1.17.99-3.06,1.23-4.62,1.23-1.08,0-2.07-.07-2.86-.15v-10.61h1.91Zm0,9.31c.37.04.79.09,1.43.09,1.45,0,3.32-.48,3.32-2.27s-1.94-2.24-3.37-2.24c-.51,0-.95.04-1.39.11v4.31Z"/>
      <path class="cls-1" d="m315.54,378.79v1.54h-3.32v9.11h-1.91v-9.11h-3.32v-1.54h8.56Z"/>
      <path class="cls-1" d="m318.4,378.79l2.33,6.29c.24.7.51,1.54.68,2.18h.04c.2-.64.42-1.45.68-2.22l2.11-6.25h2.05l-2.9,7.59c-1.39,3.65-2.33,5.52-3.65,6.67-.95.84-1.89,1.17-2.38,1.25l-.48-1.63c.48-.15,1.12-.46,1.69-.95.53-.42,1.19-1.17,1.63-2.16.09-.2.15-.35.15-.46s-.04-.26-.13-.51l-3.94-9.81h2.11Z"/>
      <path class="cls-1" d="m328.06,382.26c0-1.36-.04-2.46-.09-3.48h1.74l.09,1.83h.04c.79-1.3,2.05-2.07,3.78-2.07,2.57,0,4.51,2.18,4.51,5.41,0,3.83-2.33,5.72-4.84,5.72-1.41,0-2.64-.62-3.28-1.67h-.04v5.79h-1.91v-11.53Zm1.91,2.84c0,.29.04.55.09.79.35,1.34,1.52,2.27,2.9,2.27,2.05,0,3.23-1.67,3.23-4.11,0-2.13-1.12-3.96-3.17-3.96-1.32,0-2.55.95-2.93,2.4-.07.24-.13.53-.13.79v1.83Z"/>
      <path class="cls-1" d="m346.47,389.44l-.15-1.34h-.07c-.59.84-1.74,1.58-3.26,1.58-2.16,0-3.26-1.52-3.26-3.06,0-2.57,2.29-3.98,6.4-3.96v-.22c0-.88-.24-2.46-2.42-2.46-.99,0-2.02.31-2.77.79l-.44-1.28c.88-.57,2.16-.95,3.5-.95,3.26,0,4.05,2.22,4.05,4.36v3.98c0,.92.04,1.83.18,2.55h-1.76Zm-.29-5.43c-2.11-.04-4.51.33-4.51,2.4,0,1.25.84,1.85,1.83,1.85,1.39,0,2.27-.88,2.57-1.78.07-.2.11-.42.11-.62v-1.85Z"/>
    </g>
    <g>
      <path class="cls-2" d="m779.35,4.32c.06-.16.12-.33.18-.5,1.76.85,3.33,1.64,5.04,2.37.64.24,1.29.41,1.93.55.18.04.39.05.53.13.49.27,1,.38,1.51.43.51.07,1.01.05,1.5.07.31.01.62.06.93.08.55.05,1.11.14,1.65.12,1.84-.04,3.6-.32,5.26-.67l-.12.3-.08-.05c-.8-.51-1.51-1.08-2.31-1.57-.81-.48-1.58-.99-2.46-1.35-1.03-.5-2.01-1.04-3.09-1.45-1.35-.45-2.64-1.07-4.04-1.44-.06-.02-.12-.06-.17-.06-1.75-.05-3.52-.79-5.19-.44-.16.04-.38.03-.53-.02-.11-.04-.28-.08-.34-.1-.07-.02-.14-.04-.22-.05-.15-.01-.29,0-.41.03-.13.03-.24.07-.34.11l-.15.06-.05.16c-.05.14-.08.27-.11.4-.04.14-.02.19-.17.52-.24.52-.48,1.04-.82,1.52-.53.75-.78,1.57-1.25,2.32-.48.74-.87,1.51-1.3,2.28-.57,1.04-1.2,2.06-1.78,3.09-.25.43-.47.88-.75,1.3-.26.4-.6.77-.88,1.16l-1.63,2.3-1.81,2.3c-.34.44-.61.93-.93,1.39-.21.31-.4.63-.67.9-.48.49-.63,1.11-1.17,1.6-.89.8-1.61,1.74-2.49,2.55-.61.56-1.36,1.01-2.05,1.52-.23.17-.4.39-.63.56-.35.28-.69.68-1.24.52-.3-.09-.7-.32-.71-.52-.03-.44.2-.88.72-1.15.31-.16.63-.34.98-.42,1.21-.27,1.95-1.03,2.67-1.78,1-1.02,1.91-2.1,2.8-3.19.66-.79,1.22-1.64,1.85-2.44l1.17-1.46c.63-.83,1.22-1.69,1.81-2.55.39-.56.69-1.17,1.06-1.73,1.4-2.13,2.73-4.3,4.02-6.48l1.34-2.4c.23-.4.43-.81.64-1.21l.32-.61.2-.42c.12-.21.2-.48.36-.66.29-.05.6-.09.91-.12.22-.03.46-.05.7-.07.3-.02.62-.04.93-.04.63-.03,1.27,0,1.91.04.48.05.96.12,1.44.2.48.1.95.2,1.44.29,1.45.33,2.91.7,4.31,1.23,1.75.6,3.38,1.43,5,2.28.66.39,1.2.91,1.99,1.18.3.12.52.44.81.64l1.23.82,1.17.78-1.63.34c-.55.12-1.06.2-1.6.27-1.75.21-3.56.23-5.43.12-1.22-.06-2.46-.16-3.75-.37-1.28-.25-2.61-.58-3.91-1.12l-1.08-.46c-.34-.18-.69-.37-1.03-.57-.72-.37-1.33-.86-2.01-1.35Z"/>
      <path class="cls-2" d="m787.73,34.51c-.26-.5-.44-1-.37-1.5.08-.54.11-1.1.24-1.65.03-.12,0-.27.09-.37.52-.55.37-1.27.63-1.89.09-.23.11-.49.18-.74.11-.42.23-.84.39-1.25.19-.47.43-.92.65-1.38.03-.06.11-.13.08-.2-.24-.59.13-1.03.29-1.53.12-.37.38-.66.58-.98.21-.33.48-.68.26-1.15-.07-.15.07-.32.13-.47.26-.69.52-1.37.81-2.06.09-.22.24-.41.38-.61.04-.06.16-.1.16-.16.02-1,.61-1.84.85-2.78.06-.25.21-.47.31-.71.19-.49.35-1,.59-1.47.15-.29.41-.54.6-.82.12-.17.28-.35.27-.54-.02-.69.42-1.21.76-1.77.2-.32.24-.7.44-1.02.43-.69.95-1.32,1.13-2.15.07-.27.3-.48.66-.68.2-.11.58-.07.83.03.33.13.54.42.48.64-.12.43-.03.94-.45,1.31-.45.43-.76.94-1.41,1.26-.56.28-.64.81-.88,1.24-.48.86-.89,1.76-1.28,2.65-.57,1.3-1.09,2.61-1.61,3.93l-1.28,3.26c-.08.21-.2.43-.37.61-.42.44-.4,1-.55,1.52-.13.44-.34.85-.5,1.28l-.6,1.5-.73,2.04c-.22.67-.39,1.36-.6,2.03l-.31.86c-.15.47-.31.95-.24,1.47.07.46-.25.9-.3,1.34-.02.19-.02.39.05.58.07.17,0,.24-.37.33Z"/>
      <path class="cls-2" d="m757.94,26.79c-.41-.1-.71-.13-.97-.24-.54-.19-1.04-.23-1.59-.2-.78.04-1.63.06-2.41-.03-.68-.09-1.36-.09-2.02-.05-.33.01-.66.04-.99.07-.28.02-.49.05-.75.06-.5.03-.99.08-1.45.16-.23.04-.46.08-.69.12l-.08.02s-.06.01-.01.03l.17.08.34.15,1.63.71,3.44,1.44c.65.27,1.24.63,1.86.94.21.1.49.24.66.23.83-.06,1.5.4,2.2.69,1.27.48,2.49,1.07,3.78,1.49.97.32,1.87.7,2.81,1.05.8.3,1.64.52,2.46.79,1.64.57,3.34,1,5,1.53.78.25,1.54.55,2.32.8.13.04.3.12.4.1.65-.1,1.26.15,1.89.32,1.01.29,2.1.39,3.05.78.56.22,1.14.3,1.71.37.58.05,1.15.11,1.7.3.46.16.98.22,1.48.31.49.09,1,.13,1.5.18.32.03.68,0,.96.1,1.11.4,2.26.41,3.39.53.72.09,1.43.12,2.15.18.72.06,1.43.12,2.13.19,1.15.13,1.55.12,1.72-.02.01-.03.09-.02.2.01.22.06.46.09.61.08-.14-.13-.38-.3-.6-.41-.18-.1-.45-.23-.64-.33-.88-.53-1.87-1.23-2.87-1.78-.23-.14-.47-.28-.71-.39-.56-.26-1.14-.49-1.72-.73l-2.13-.84c-.53-.21-1.07-.43-1.6-.63-.39-.14-.22-.1-.39-.12l-.92-.09c-.76-.07-1.52-.15-2.28-.27-.75-.12-1.51-.21-2.26-.35-.18-.03-.37-.04-.54-.03-1.17.13-2.35-.21-3.51-.42-1.3-.25-2.58-.65-3.85-.99-.78-.2-1.59-.33-2.38-.51-.21-.05-.45-.05-.65-.12-1.49-.51-2.91-1.17-4.4-1.59-1.86-.54-3.28-1.54-4.99-2.23-.64-.26-1.21-.68-1.72-1.07-.4-.3-.34-.73-.04-.85.39-.16,1.07.02,1.46.39.83.78,1.81,1.48,3.06,2,.99.41,1.92.91,2.9,1.34.26.11.54.21.81.3.94.29,1.89.5,2.78.94.5.24,1.16.31,1.75.45l1.48.33c1.16.29,2.34.53,3.5.79,2.26.44,4.54.87,6.84,1.1.82.11,1.64.14,2.46.19l.59.03c.15,0,.24.04.46.11l1.13.41c.13.05.28.07.41.12,1.52.61,3,1.3,4.45,2.03.77.39,1.54.79,2.29,1.2l1.11.65.99.66.94.69.97.78c-1.26.09-2.96.04-4.46-.17-1.07-.14-2.16-.12-3.25-.23-1.23-.13-2.46-.3-3.7-.47-1.23-.21-2.46-.38-3.68-.61l-1.62-.27c-1.52-.26-3.01-.62-4.51-.97-.48-.12-.95-.31-1.53-.54-.42.19-.94-.06-1.52-.25-.99-.33-2.05-.5-3.05-.83l-4.12-1.34c-1.6-.55-3.21-1.06-4.82-1.59-.1-.03-.21-.05-.32-.09-1.85-.7-3.71-1.37-5.55-2.09-.16-.07-.35-.1-.51-.16l-1.98-.82c-.83-.34-1.68-.65-2.49-1l-1.44-.64-1.56-.67c-.58-.25-1.19-.52-1.73-.78-.5-.25-.97-.5-1.36-.73-.06-.03-.13-.07-.22-.11-.03-.02-.13-.04-.11-.05l.09-.03c.12-.04.23-.09.4-.12.44-.08.95-.14,1.42-.2.4-.05.85-.07,1.17-.15.38-.09.83-.17,1.33-.23.46-.05.8-.09,1.22-.1.8-.03,1.62.03,2.44.17.48.09,1.05.1,1.51.06.87-.08,1.73.2,2.58.39.39.09.4.12.56.57Z"/>
      <path class="cls-2" d="m797.63,40.8c0,.18.03.31-.02.42-.11.23-.04.45.07.7.08.18.15.37.19.56.03.21.02.44-.04.62-.03.08-.05.16-.07.25l-.02.13s0,.09-.08.08c-.22,0-.43,0-.65.02l-.68.03c-.19,0-.38.01-.57,0-.78-.04-1.55-.05-2.33-.07l-1.4-.03c-.75,0-1.51.02-2.26-.05-.4-.04-.8-.18-1.2-.26-.13-.03-.31-.06-.39,0-.4.34-.86.13-1.3.1-.77-.06-1.55-.25-2.32-.26-.58-.01-1.14-.14-1.7-.24-.48-.09-.98-.09-1.46-.14-.98-.11-1.97-.2-2.95-.35-.46-.08-.91-.25-1.36-.37-.08-.02-.18-.07-.23-.03-.36.21-.73.06-1.09,0-.59-.1-1.22-.09-1.76-.34-.64-.27-1.33-.02-1.95-.31-.26-.12-.56-.14-.84-.19-.28-.04-.57-.06-.86-.09-.19-.02-.4.03-.55-.05-.6-.33-1.27-.31-1.91-.45-.81-.16-1.64-.28-2.43-.52-.54-.18-1.08-.26-1.65-.29-.12,0-.25-.05-.36-.11-.87-.46-1.87-.53-2.83-.76-.69-.17-1.32-.49-1.97-.74-.15-.06-.3-.14-.46-.18l-1.08-.27c-.44-.12-.87-.26-1.3-.42-.64-.25-1.27-.5-1.89-.78l-2.25-1.13c-.09-.04-.2-.07-.3-.08-.74-.03-1.28-.43-1.87-.71-.66-.33-1.21-.81-1.84-1.18-.37-.25-.8-.43-1.21-.65-.11-.06-.26-.09-.34-.17-.16-.14-.32-.29-.47-.44-.16-.15-.25-.27-.58-.56l-.37-.36c-.06-.06-.13-.12-.18-.18l.02-.22.03-.44v-.22s0-.14,0-.14c-.04-.84.63-1.51.74-2.31.04-.3.3-.58.54-.84.18-.2.72-.23,1-.11.37.16.46.48.18.69-.59.44-1.02.92-1.17,1.5-.12.47-.36.88-.53,1.37-.05.15-.06.31-.07.47.13.23.49.41.7.6.2.17.4.33.55.55.16.25.55.36.84.53.24.14.49.27.72.41l1.71.97c1.13.58,2.25,1.17,3.43,1.67.83.38,1.7.68,2.57.99.08.03.17.03.24.05l1.31.51c.44.15.89.31,1.34.45.96.3,1.93.57,2.91.82,1.31.35,2.64.62,3.92,1.05.57.21,1.21.23,1.81.37,1.35.34,2.73.59,4.1.86.3.06.61.08.91.13.84.17,1.7.29,2.54.43.27.05.53.19.87.31.23-.25.53-.09.87,0,.57.15,1.17.17,1.75.28.8.14,1.6.29,2.41.4.95.13,1.9.21,2.84.32.06,0,.12,0,.18,0,1.11.14,2.22.2,3.33.3.1,0,.2-.03.3-.02l1.21.1c.5.04,1.01.05,1.51.1,1.19.13,2.37-.05,3.56.19.18.03.36-.05.54-.04.24,0,.48.04.71.05.2.01.41.05.6.01.22-.05.43-.08.65-.11.21-.03.31-.05.45-.06.13-.01.27,0,.4,0,.03-.09.08-.18.14-.28.08-.12.04-.29-.07-.53-.21-.4,0-.73-.01-1.09,0-.17.03-.16.55-.2Z"/>
      <g>
        <path class="cls-2" d="m754.51,58c-.4-.22-.32-.34-.25-.48l1.31-2.36,1.33-2.51c.11-.21.15-.44.22-.67.03-.1.04-.22.11-.31.96-1.25,1.23-2.75,2.03-4.07.42-.7.59-1.49.91-2.23.16-.37.39-.71.58-1.07.06-.11.11-.23.14-.35.05-.21.02-.46.14-.63.4-.55.5-1.19.76-1.79.37-.84.84-1.66,1.27-2.48.12-.22.26-.42.8-.25.45.14.62.31.5.57-.05.1-.14.18-.2.27-.4.54-.82,1.08-1.19,1.64-.17.26-.23.57-.37.85l-1.38,2.8-.25.55-.31.56c-.18.32-.5.61-.49.97.02.74-.51,1.25-.82,1.85-.12.24-.3.47-.4.71-.29.67-.42,1.41-.89,2-.7.89-.75,2.01-1.36,2.92-.13.2-.32.38-.49.56-.05.06-.16.09-.18.15-.16.41-.27.83-.45,1.23-.2.45-.44.89-.7,1.31-.06.1-.24.16-.37.24Z"/>
        <path class="cls-2" d="m762.82,57.86c-.21.27-.42.52-.62.78-.11.15-.23.3-.33.45-.28.42-.6.82-.8,1.26-.3.66-1,1.13-1.35,1.77-.28.53-.74.98-1.12,1.45-.49.61-.97,1.21-1.5,1.79l-1.48,1.56c-.24.27-.37.6-.59.88-.31.4-.66.78-.99,1.16-.59.68-1.13,1.38-1.78,2.02-.66.64-1.42,1.22-2.15,1.81-.1.08-.28.15-.46.14-.16,0-.39-.09-.53-.19-.06-.04-.03-.23.05-.29.4-.32.84-.61,1.26-.92.45-.33.65-.84,1.34-1.02-.1-.62.58-.87.86-1.31.33-.51.86-.92,1.29-1.38.31-.34.62-.68.9-1.03.48-.59.86-1.23,1.42-1.77.45-.43.82-.89,1.23-1.34.37-.41.64-.86.98-1.27.49-.62,1.06-1.2,1.56-1.82.35-.42.86-.76.96-1.3,0-.05.05-.1.1-.13.52-.32.84-.73,1.09-1.19.07-.13.22-.28.69-.13Z"/>
        <path class="cls-2" d="m773.92,41.51c-.46.58-.6,1.27-1.23,1.74-.22.16-.2.47-.33.69-.33.53-.69,1.05-1.04,1.58l-1.15,1.76c-.26.38-.58.74-.84,1.12-.15.21-.23.46-.33.69-.13.3-.26.58-.58.81-.31.23-.34.64-.51.96-.16.31-.3.63-.54.9-.31.34-.65.29-1.19-.12-.11-.08-.19-.18-.24-.24.58-.7,1.17-1.35,1.68-2.05.54-.74.98-1.52,1.49-2.27.42-.62.86-1.23,1.32-1.83.6-.79,1.19-1.59,1.85-2.34.38-.43.54-.96.99-1.36.13-.12.2-.28.66-.04Z"/>
        <path class="cls-2" d="m747.25,69.41c.46-.68.92-1.37,1.43-2.13.22,1.06-.83,1.5-1.15,2.24l-.28-.1Z"/>
        <path class="cls-2" d="m753.15,59.99c.09-.08.27-.15.24-.23-.2-.66.53-1.01.55-1.59,0-.03.13-.03.3-.06.03.24.18.49.07.63-.35.43-.53.96-1.17,1.24h0Z"/>
        <path class="cls-2" d="m753.15,59.98c-.05.36-.06.74-.17,1.08-.07.21-.28.38-.47.6-.37-.3-.31-.49-.18-.65.28-.34.55-.67.83-1.01h0Z"/>
        <path class="cls-2" d="m748.77,66.96l.7-.82.17.07c-.09.34-.1.71-.63.86l-.23-.12Z"/>
        <path class="cls-2" d="m749.66,65.6l.38-.85.18.07c-.1.29.26.75-.57.79Z"/>
        <path class="cls-2" d="m752.24,61.98c-.19.16-.38.33-.57.49q-.04-.38.57-.49Z"/>
        <path class="cls-2" d="m746.97,70.01l.03.4c-.08-.02-.23-.04-.23-.05-.03-.13-.04-.27-.05-.4l.25.05Z"/>
        <path class="cls-2" d="m745.87,71.62s.03-.1.06-.13c0,0,.09.02.14.03,0,.05,0,.1-.03.14,0,0-.09-.02-.17-.03Z"/>
        <polygon class="cls-2" points="750.65 64.07 750.55 64.3 750.51 64.28 750.64 64.06 750.65 64.07"/>
      </g>
    </g>
    <g>
      <g>
        <path class="cls-2" d="m104.6,100.44c-.94-3.27-2.03-5.99-3.38-8.65-1.49-2.97-3.5-5.7-5.89-8.23-.36-.37-.75-.71-1.15-1.07-.41-.33-.83-.66-1.25-.99-1.91-1.46-4.04-2.65-6.28-3.51-2.23-.86-4.57-1.4-6.89-1.66-2.52-.27-5.04-.23-7.48.04-2.18.24-4.24.67-6.33,1.18-1.94.48-3.85,1.07-5.72,1.79-1.87.73-3.7,1.58-5.46,2.57-3.69,2.06-7.11,4.74-9.86,8.05-1.93,2.34-3.54,4.97-4.68,7.8-.33.74-.57,1.52-.83,2.29-.22.78-.47,1.55-.63,2.35-.07.33-.17.67-.22.99-.38,2.5-.51,5.04-.39,7.55.13,2.52.5,4.98,1.08,7.39,1.09,4.49,2.93,8.83,5.5,12.72,1.66,2.5,3.64,4.81,5.95,6.77.2.17.39.35.58.53.2.17.4.34.61.51,1.66,1.31,3.47,2.44,5.39,3.36.55.26,1.1.5,1.67.71,2.49,1,5.13,1.67,7.8,1.92,2.33.24,4.67.22,6.98-.08.75-.13,1.53-.21,2.27-.39l1.12-.25c.37-.08.7-.18,1.06-.27,2.13-.52,4.25-1.11,6.37-1.77,1.46-.46,2.92-.98,4.36-1.52,2.04-.76,4.06-1.6,6.05-2.67.35-.2.75-.39,1.04-.59,1.89-1.34,3.9-2.67,5.44-4.64,1.01-1.03,1.92-2.32,2.61-3.72.7-1.4,1.2-2.86,1.63-4.24.11-.39.22-.8.32-1.22.08-.42.15-.84.21-1.25.06-.52.11-.99.17-1.45.05-.46.11-.89.18-1.32.06-.34.07-.77.09-1.16.14-2.86-.03-5.61-.22-8.29-.05-.72-.03-1.36-.05-2.36.14.5.27.79.3,1.06.13,1.19.25,2.44.28,3.61.05,1.97.13,3.98.11,6.11,0,.41,0,.86-.04,1.24-.15,1.46-.38,3.01-.73,4.58-.36,1.57-.85,3.18-1.61,4.67-.25.5-.54.98-.82,1.44-.32.45-.61.91-.96,1.34-.23.29-.54.64-.68.87-.73,1.08-1.65,1.91-2.57,2.68-1.35,1.16-2.78,2.17-4.24,3-1.46.84-2.93,1.57-4.4,2.15-2.54,1.04-5.07,1.97-7.61,2.71-1.25.37-2.5.71-3.76,1.05l-1.88.48c-.3.08-.65.16-.99.23l-1.02.22c-1.87.34-3.75.52-5.66.55-4.67.1-9.41-.96-13.58-3.08-1.53-.79-2.97-1.7-4.34-2.71-.32-.25-.65-.5-.97-.74-1.29-.97-2.54-2-3.52-3.28-.11-.14-.27-.3-.41-.45-2.26-2.51-4.12-5.34-5.62-8.3-.94-1.84-1.69-3.77-2.3-5.73-.6-1.97-1.05-3.97-1.43-6-.57-3.08-.69-6.41-.29-9.66.03-.27.06-.56.1-.83.04-.28.08-.54.11-.79.04-.35.07-.7.12-1.05.07-.35.13-.7.2-1.05.12-.71.35-1.4.54-2.09.45-1.38.98-2.74,1.61-4.03,1.29-2.75,3.02-5.27,5.04-7.51,1.16-1.26,2.4-2.45,3.73-3.51,1.33-1.06,2.72-2.05,4.17-2.92,2.9-1.74,5.98-3.12,9.15-4.15,2.44-.8,4.95-1.39,7.48-1.79,2.54-.4,5.19-.61,7.86-.5,4.01.16,8.17,1.06,11.94,3.02.38.2.76.41,1.12.64.36.24.73.47,1.09.71,1.3.88,2.54,1.84,3.66,2.91,1.11,1.08,2.17,2.22,3.08,3.44,1.74,2.26,3.09,4.72,4.19,7.24.3.69.56,1.39.78,2.07.2.69.39,1.35.47,1.99.06.4.14.82.22,1.3.07.48.15,1.01.25,1.61Z"/>
        <path class="cls-2" d="m101.69,124.44c-.03.24-.07.47-.12.69-.06.22-.13.43-.2.64-.13.43-.34.81-.52,1.21-.59,1.22-1.34,2.36-2.23,3.38-.15.18-.32.36-.47.54-.17.17-.34.33-.5.46-.81.69-1.66,1.21-2.5,2.03-.03.03-.1.08-.14.1-2.07,1.18-4.32,2.59-6.69,3.4-.82.27-1.75.73-2.65,1.04-.67.25-1.36.44-2.04.65-.52.16-1.06.3-1.57.46-.73.25-1.48.48-2.22.7-.74.22-1.49.43-2.24.62l-1.12.29-1.11.25c-.73.18-1.48.26-2.22.39-2.93.37-5.91.28-8.77-.3-2.49-.46-4.91-1.41-7.04-2.67-1.21-.75-2.4-1.51-3.49-2.39-1.11-.87-2.16-1.8-3.12-2.84-1.96-2.08-3.62-4.45-4.99-6.98-2.05-3.85-3.37-8.1-4.01-12.44-.39-2.64-.46-5.32-.18-7.97.29-2.64.99-5.24,2.07-7.69.9-2.02,2.1-3.92,3.48-5.66,1.08-1.37,2.28-2.64,3.57-3.81,1.44-1.3,2.96-2.5,4.64-3.5,2.98-1.79,6.24-3.12,9.61-4.05.35-.09.69-.2,1.03-.3.47-.13.94-.26,1.41-.37,2.38-.5,4.78-.89,7.2-1.04,2.41-.15,4.85-.03,7.24.46,1.1.21,2.17.56,3.22.9,2.04.71,3.98,1.71,5.75,2.96,3.09,2.19,5.6,5.16,7.46,8.49,2.09,3.75,3.51,7.64,4.62,11.56.26.9.54,1.9.58,3.05.02,1.02-.06,1.47-.37,1.31-.28-.15-.59-.92-.74-1.89-.44-2.67-1.16-5.17-2.08-7.58-.58-1.49-1.2-3.06-1.93-4.54-1.61-3.22-3.73-6.2-6.41-8.54-1.13-.98-2.36-1.89-3.65-2.58-3.54-1.9-7.61-2.93-11.67-2.9-3.15.02-6.38.42-9.5,1.17-2.64.63-5.21,1.5-7.66,2.64-.16.08-.33.16-.49.22-3.8,1.61-7.07,4.1-9.82,7.01-1.71,1.79-3.13,3.84-4.28,6.01-1.17,2.29-2.04,4.75-2.47,7.29-.32,1.84-.4,3.7-.34,5.57.01.64.07,1.28.11,1.92.08.64.13,1.28.23,1.92.2,1.28.43,2.56.76,3.8.49,1.94,1.15,3.82,1.95,5.64.63,1.44,1.39,2.81,2.18,4.16,2.25,3.76,5.24,7.07,8.85,9.46,1.98,1.3,4.14,2.3,6.38,3,1.41.42,2.84.78,4.31.97,1.6.18,3.21.22,4.83.1,1.62-.12,3.21-.43,4.82-.83,2.07-.55,4.1-1.06,6.11-1.68.73-.23,1.43-.45,2.13-.67.69-.23,1.37-.44,2.07-.64.59-.19,1.33-.54,1.98-.82,2.81-1.18,5.52-2.58,7.77-4.49.18-.15.37-.32.53-.45.97-.75,1.85-1.7,2.59-2.77.74-1.07,1.33-2.26,1.79-3.49.06-.19.15-.33.28-.6Z"/>
        <path class="cls-2" d="m44.32,108.78c-.02-.37-.03-.71-.02-1.05,0-.64.09-1.27.12-1.91.1-.63.16-1.26.32-1.88.53-2.47,1.25-4.8,2.62-7.04.68-1.08,1.43-2.13,2.23-3.16.83-1,1.72-1.97,2.69-2.86.35-.31.72-.61,1.08-.91.38-.29.75-.58,1.12-.86,1.21-.89,2.49-1.7,3.82-2.44,1.34-.73,2.73-1.36,4.16-1.94,3.13-1.22,6.47-2.08,9.83-2.53,1.76-.24,3.53-.35,5.23-.33,3.03.04,6.02.46,8.8,1.71,1.09.5,2.2,1.12,3.05,1.59.85.43,1.63,1.04,2.42,1.74.13.11.25.23.37.36.33.33.65.71.88,1.06.23.34.4.63.42.78.06.38-.37.25-.91-.14-.23-.16-.43-.36-.67-.56-.24-.2-.49-.43-.75-.69-1.52-1.39-3.21-2.53-5.02-3.34-1.97-.85-4.02-1.37-6.17-1.58-.82-.09-1.71-.22-2.57-.24-.4,0-.8.01-1.19.03-.4.04-.79.07-1.2.09-1.43.1-2.85.24-4.32.52-.73.11-1.45.29-2.17.43-.71.19-1.43.33-2.13.55-1.83.52-3.6,1.18-5.3,1.96-.44.22-.91.42-1.36.62-2.12.98-4.05,2.19-5.78,3.67-1.67,1.44-3.3,3.04-4.62,4.81-2.07,2.77-3.59,5.95-4.15,9.36-.06.46-.14.93-.22,1.4-.05.47-.13.95-.17,1.42-.05.75-.18,1.29-.41,1.38Z"/>
      </g>
      <g>
        <g>
          <path class="cls-2" d="m52.65,152.85c.19-.17.38-.34.56-.53.04-.04.1-.07.12-.13.23-.5.61-.86.93-1.3.47-.7.8-1.55.92-2.43.14-.98.08-2.05-.28-2.93-.38-.92-.74-1.92-1.52-2.69-.64-.62-1.32-1.28-2.21-1.71-.92-.44-2-.66-3.05-.58-.29.04-.58.07-.86.13-.28.08-.56.14-.82.25l-.39.16c-.13.06-.27.12-.35.16l-.58.31c-.65.38-1.26.81-1.9,1.38-.2.17-.41.38-.61.57-.2.24-.41.43-.59.72-.07.1-.13.21-.19.32-.06.11-.1.24-.15.36-.13.27-.2.57-.28.86-.05.29-.11.59-.11.86v.41s.02.38.02.38c.01.26.05.48.08.72.08.55.18,1.06.56,1.44.08.08.04.29-.04.4-.07.08-.3.12-.46.13-.18.01-.23-.11-.26-.24-.02-.09-.08-.18-.11-.27-.03-.12-.04-.25-.06-.37,0-.06,0-.12,0-.18-.11-.52-.23-1.07-.25-1.75-.03-.49.03-1.06.16-1.63.17-.63.44-1.27.8-1.75.53-.72,1.18-1.15,1.65-1.64.25-.26.54-.44.83-.61.28-.16.57-.33.81-.53.15-.12.32-.21.49-.3.07-.04.2-.09.32-.14l.36-.14c.33-.16.72-.26,1.08-.37.39-.07.77-.16,1.17-.14,1.01,0,2.06.18,2.89.71.32.22.68.39,1.01.56.23.11.44.26.61.43.18.17.35.34.5.52l.35.37c.11.13.21.26.31.39.37.5.62,1.05.88,1.59.27.65.52,1.25.66,1.96.02.08.02.16.03.24,0,.32-.01.63-.02.94-.03.32-.02.63-.08.94-.03.25-.03.51-.1.75-.05.25-.15.49-.35.67-.4.96-1.04,1.77-1.77,2.38-.16.13-.32.25-.48.36-.05.03-.13.03-.2.03l-.05-.08Z"/>
          <path class="cls-2" d="m50.36,154.36c-.17.1-.33.19-.48.29-.17.08-.34.16-.52.23-.55.19-1.16.33-1.81.29-.58-.02-1.16-.24-1.68-.49-.06-.03-.12-.07-.18-.09-.64-.25-1.2-.7-1.53-1.25-.17-.28-.4-.53-.54-.82-.13-.24-.2-.5-.29-.75l-.21-.53c-.07-.18-.07-.38-.08-.57-.01-.19-.03-.38-.1-.56-.03-.08-.08-.16-.08-.24,0-.05.07-.11.1-.17.07.02.18.03.19.07.08.23.14.48.22.71.07.24.15.48.24.72.04.12.09.24.14.36.14.35.3.7.51,1.03.24.41.56.78.92,1.12.03.03.08.06.12.08.6.35,1.25.78,2,.77.64-.02,1.26-.01,1.86-.15.07-.02.13-.08.2-.12.15-.09.29-.18.43-.26.24-.12.33-.06.57.32Z"/>
          <path class="cls-2" d="m46.18,150.01c-.04-.07-.06-.1-.08-.12l.06-.04s.05.02.06.04c0,.02-.01.04-.04.13Z"/>
        </g>
        <g>
          <path class="cls-2" d="m47.51,144.95c.06.2.03.21,0,.23-.2.08-.35.16-.53.25-.18.1-.35.21-.52.33-.04.03-.07.09-.1.14-.01.02-.02.06-.05.06-.35.11-.47.52-.67.81-.12.16-.08.39-.07.57,0,.09-.02.18-.02.27,0,.03,0,.05.02.08.03.05.1.09.09.13-.03.14.09.26.15.38.07.18.11.36.17.54.02.05.01.1-.23.18-.2.07-.31.08-.34.03,0-.02,0-.05,0-.07,0-.15.02-.3.01-.44,0-.07-.06-.13-.08-.19-.07-.22-.12-.47-.12-.74,0-.05-.01-.11,0-.16,0-.06.02-.11.04-.17.02-.1.13-.17.08-.29-.08-.25.12-.38.22-.52.04-.07.11-.1.15-.16.11-.16.18-.37.36-.43.26-.08.34-.41.58-.49.05-.02.11-.01.17-.01.02,0,.05.02.06.01.07-.07.13-.16.21-.21.09-.07.17-.11.31-.16.03-.01.08.03.12.05Z"/>
          <path class="cls-2" d="m48.72,150.35c.06,0,.12,0,.17,0,.03,0,.07-.01.1-.02.08-.03.18-.04.24-.11.1-.1.28-.02.38-.11.07-.08.2-.08.3-.13.13-.06.24-.14.37-.21.11-.07.24-.12.34-.22.05-.05.06-.12.09-.18.05-.08.12-.15.16-.23.09-.14.14-.3.22-.46.09-.15.22-.32.31-.51.01-.03.06-.06.13-.08.06-.02.17-.03.25-.04.03,0,.08.04.07.07-.05.12-.12.24-.2.35-.07.11-.03.26-.25.32.2.17-.03.24-.03.36-.03.14-.15.24-.25.34-.06.08-.13.15-.19.23-.1.13-.18.28-.33.35-.13.05-.22.13-.34.17-.11.04-.18.12-.29.15-.15.06-.32.07-.48.1-.11.02-.24-.04-.3.08,0,.01-.02.01-.03,0-.14-.08-.23-.06-.32-.02-.02.01-.07,0-.13-.21Z"/>
          <path class="cls-2" d="m46.56,148.66c.02.13.17.21.1.36-.02.06.08.07.1.11.06.09.09.2.15.28.06.1.13.19.19.28.04.06.06.13.11.19.03.03.08.03.12.04.05.02.1.02.09.1,0,.08.1.04.15.04.05.01.1,0,.13.05.03.05,0,.2-.15.48-.03.06-.06.1-.08.14-.14-.11-.24-.25-.35-.36-.12-.11-.25-.22-.35-.35-.08-.11-.15-.24-.2-.37-.07-.17-.12-.35-.13-.55,0-.11-.11-.18-.07-.3.01-.04-.01-.06.22-.13Z"/>
          <path class="cls-2" d="m50.49,145.85c-.11-.15-.24-.29-.41-.43.38-.16.35.23.5.33l-.09.1Z"/>
          <path class="cls-2" d="m48.11,144.87s-.07-.07-.09-.03c-.08.26-.28.08-.37.25,0,0-.03-.04-.08-.09.02-.08.03-.21.08-.21.15,0,.29-.09.45.09h0Z"/>
          <path class="cls-2" d="m48.11,144.88c.08-.07.16-.17.25-.21.06-.02.13.03.2.05-.04.22-.08.24-.13.23-.1-.03-.21-.05-.32-.07h0Z"/>
          <path class="cls-2" d="m50,145.41c-.05-.07-.11-.14-.17-.2l.04-.07c.1,0,.22-.03.2.17l-.07.1Z"/>
          <path class="cls-2" d="m49.69,145.2c-.07-.02-.15-.03-.22-.04l.03-.09c.08,0,.25-.21.2.13Z"/>
          <path class="cls-2" d="m48.67,144.75c.06.04.11.09.16.13-.09.1-.09.09-.16-.13Z"/>
          <path class="cls-2" d="m50.62,145.94h.13s-.07.07-.07.07c-.05,0-.09.01-.14.02l.08-.09Z"/>
          <path class="cls-2" d="m50.85,146.32s-.02-.01-.02-.02c0,0,.03-.03.05-.04.01,0,.03,0,.03.01,0,0-.03.03-.06.05Z"/>
          <polygon class="cls-2" points="49.29 145 49.35 145 49.35 145.02 49.29 145.01 49.29 145"/>
        </g>
      </g>
      <g>
        <g>
          <path class="cls-2" d="m45.67,157.64c.25.51.37,1.09.33,1.66,0,.12-.02.24.01.35.14.48.15.51-.02,1.05l-.29.94-.26.83-.3.81c-.18.48-.37.95-.55,1.42-.1.28-.25.55-.34.81-.42,1.21-.88,2.37-1.44,3.48-.28.56-.53,1.12-.83,1.67-.3.55-.59,1.1-.87,1.65l-.28.54-.31.53-.62,1.05c-.21.35-.41.7-.63,1.04-.22.34-.45.68-.67,1.02-.33.49-.61,1.03-.95,1.52-.45.66-.9,1.33-1.35,1.99-.47.65-.96,1.28-1.44,1.87-1.21,1.45-2.4,2.94-3.69,4.3-.41.46-.85.9-1.28,1.36-.43.45-.85.92-1.3,1.35-.93.88-1.84,1.77-2.81,2.59-1.17,1.06-2.42,2.04-3.64,3.02-1.24.96-2.46,1.87-3.53,2.92-1.26,1.24-2.3,2.75-2.7,4.38-.07.27-.12.54-.14.81-.03.27-.03.54-.04.85,0,.31-.01.65-.08,1.01-.07.37-.21.73-.41,1.06-.19.33-.45.61-.72.86-.28.23-.57.44-.87.6-.61.33-1.24.5-1.87.61-.48.08-.97.1-1.43.07-.46-.01-.92-.07-1.37-.15-.9-.15-1.77-.43-2.58-.79-1.37-.61-2.6-1.47-3.68-2.48-1.02-.95-1.92-2.08-2.41-3.48-.25-.69-.36-1.47-.27-2.26.08-.79.4-1.57.87-2.23.5-.7,1.14-1.26,1.79-1.74.65-.48,1.33-.9,1.99-1.34.72-.48,1.42-.99,2.02-1.61.84-.82,1.34-1.91,1.77-3.02.42-1.12.88-2.25,1.45-3.33.95-1.82,2.06-3.54,3.23-5.21.73-1.04,1.45-2.18,2.29-3.12.59-1.02,1.34-2,1.98-3.02.79-1.25,1.53-2.53,2.23-3.84.06-.11.12-.23.19-.33,1.15-1.91,2.16-3.93,3.47-5.77,1.98-2.79,4.58-5.13,7.47-6.83,1.67-.98,3.44-1.77,5.26-2.31.86-.25,1.73-.52,2.6-.63.64-.1,1.26-.05,1.9-.04.02.08.08.15.05.21-.06.14-.03.3-.29.41-.17.08-.77.06-1.18.14-.26.05-.53.09-.79.13-.26.05-.52.09-.78.14-.52.08-1.03.21-1.55.33-.35.09-.7.22-1.06.35-.35.13-.7.29-1.05.42-1.21.49-2.45,1.05-3.52,1.78-1.41.97-2.79,1.79-3.99,3.04-.68.74-1.4,1.5-2.03,2.3-.94,1.14-1.67,2.42-2.42,3.7-.76,1.31-1.44,2.66-2.18,4-.12.21-.25.43-.38.62-.6.88-.86,1.3-1.39,2.29-.2.15-.42.31-.66.49-.12.25-.22.48-.36.77-.38.42-.8.8-1.01,1.48-.08.25-.59.93-.92,1.41-.38.56-.76,1.12-1.15,1.67-.24.34-.51.65-.93,1.2-.15.31-.39.87-.9,1.44-.08.09-.23.35-.29.5-.19.45-.42.82-.73,1.22-.13.17-.31.47-.41.7-.17.37-.34.73-.5,1.1-.17.36-.33.73-.48,1.1-.32.73-.59,1.5-.94,2.27-.14.31-.3.63-.46.94-.45.92-1.19,1.7-1.97,2.31-.78.61-1.6,1.12-2.37,1.71-.06.05-.15.11-.2.13-.47.22-.92.53-1.34.89-.41.37-.77.79-1.08,1.23-.36.54-.61,1.15-.71,1.77-.1.62-.04,1.25.11,1.84.17.68.39,1.34.73,1.95.1.18.26.42.38.53.75.66,1.37,1.35,2.11,2.04.5.45,1.14.84,1.77,1.17.37.19.75.35,1.24.52-.1.06-.16.1-.22.14.05.04.1.08.16.1.67.26,1.32.45,2.07.47.67.02,1.61.18,2.45.11.95-.09,1.92-.33,2.77-.95.1-.07.2-.13.29-.21.42-.31.79-.83.95-1.41.16-.59.12-1.15.16-1.64.02-.21.02-.47.02-.67,0-1.12.56-2.17,1.22-3.06.23-.31.5-.63.73-.94.92-1.25,2.16-2.2,3.38-3.18.24-.19.46-.42.68-.64.56-.53,1.02-1.01,1.69-1.31.3-.14.95-.68,1.42-1.08.91-.8,1.86-1.57,2.73-2.43.22-.2.44-.42.64-.63.55-.58,1.08-1.16,1.62-1.71.28-.27.55-.54.82-.82.27-.27.53-.56.8-.84.57-.61,1.17-1.22,1.7-1.88.13-.15.24-.33.36-.5.14-.2.28-.42.43-.6.39-.45.75-.91,1.11-1.38.36-.47.72-.93,1.09-1.4.59-.83,1.18-1.67,1.76-2.51.51-.79,1.04-1.58,1.54-2.38.43-.74.85-1.48,1.28-2.21.49-.91.97-1.82,1.45-2.72.15-.3.3-.6.45-.91l.66-1.39c.21-.47.4-.94.6-1.42l.59-1.42.52-1.45c.46-1.32.59-2.34.64-3.75.02-.64.04-1.31-.23-1.9-.11-.24-.26-.47-.3-.73,0-.05,0-.1.01-.14.04-.08.15-.09.23-.06s.14.1.19.17c.11.15.21.31.29.48Z"/>
          <path class="cls-2" d="m31.95,158.95c-.37.37-.84.65-1.37,1-.65.41-1.27.89-1.87,1.4-.8.69-1.57,1.43-2.25,2.23-.7.79-1.33,1.63-1.93,2.54-.59.88-1.23,1.77-1.83,2.73-.32.51-.63,1.02-.93,1.5-.14.38-.25.79-.45,1.15-.22.39-.52.72-.8,1.1-.17.24-.36.49-.53.76-.59.95-1.21,1.77-1.84,2.45-.02.02-.02,0-.05,0,.72-1.04,1.43-2.11,2.07-3.2.26-.44.51-.9.75-1.34.21-.37.4-.78.61-1.1.59-.89,1.07-1.81,1.59-2.72.56-.99,1.2-1.9,1.86-2.77.21-.27.43-.55.61-.83.17-.26.37-.47.56-.7.1-.11.2-.22.3-.33.11-.11.23-.21.35-.32.28-.26.57-.53.87-.81.15-.14.3-.28.45-.42.15-.14.31-.26.46-.4.85-.73,1.76-1.38,2.7-1.97.94-.6,1.93-1.09,2.94-1.53.11-.04.21-.09.32-.12.51-.19.99-.19,1.03-.05.04.11-.37.43-.78.59-.97.33-1.9.9-2.84,1.19Z"/>
        </g>
        <g>
          <path class="cls-2" d="m40.38,163.01c.04.33.08.67.1,1,.02.29,0,.58,0,.87,0,.29-.02.57-.04.85l-.06.72c-.03.24-.06.47-.1.71-.15.91-.4,1.75-.67,2.56-.13.35-.23.7-.36,1.05-.29.72-.61,1.41-.95,2.06-.31.59-.62,1.15-.96,1.69-.44.7-.92,1.35-1.39,1.98-.2.27-.4.54-.61.8-.13.16-.29.29-.43.43-.05.05-.11.1-.14.17-.33.66-.85,1.18-1.32,1.73-.31.37-.6.74-.92,1.1-.4.45-.81.9-1.21,1.34-.23.26-.44.54-.66.8-.08.1-.18.18-.27.27l-.29.29-.46.46s-.05.02-.05.04c-.23.5-.7.79-1.05,1.18-.35.38-.71.76-1.08,1.12-.52.51-1.05,1-1.58,1.49-.24.23-.46.48-.72.7-.9.79-1.68,1.69-2.54,2.52-.31.31-.64.58-.97.87l-.79.7c-.82.74-1.65,1.48-2.51,2.18l-.45.37-.42.33c-.12.09-.21.17-.28.23l-.1.09s-.07.07-.1.11c0,0-.01.02-.02.03-.08.04-.28.01-.38-.06-.11-.08-.11-.18.02-.29.08-.07.2-.09.28-.13.17-.08.35-.19.58-.36.25-.19.49-.39.73-.61.38-.34.73-.74,1.17-.98.51-.28.86-.73,1.3-1.08.3-.24.55-.54.83-.79.21-.19.44-.36.66-.54l.78-.67c.05-.04.1-.1.13-.16.09-.24.3-.35.47-.52.36-.36.78-.65,1.09-1.08.15-.2.39-.35.61-.49.13-.08.21-.16.26-.29.02-.04.04-.08.08-.11.42-.38.85-.75,1.27-1.14.05-.05.13-.07.15-.13.23-.45.67-.68,1-1.03.12-.12.22-.26.33-.39.04-.04.06-.1.1-.14.6-.48,1.1-1.05,1.55-1.66.08-.11.2-.18.3-.28.12-.11.23-.23.34-.34.22-.23.42-.5.67-.69.36-.28.58-.66.86-1l.7-.86c.26-.31.52-.62.8-.92.21-.25.44-.48.67-.72.06-.06.13-.11.17-.18.21-.34.49-.67.75-1,.16-.21.29-.45.46-.66.58-.72,1.04-1.54,1.62-2.33.17-.25.29-.54.45-.8.09-.16.21-.31.3-.48.08-.15.14-.31.21-.47.12-.27.22-.55.38-.79.44-.75.72-1.6.98-2.49.05-.16.09-.33.14-.5l.11-.52.11-.52c.03-.17.07-.35.11-.53.14-.59.16-1.22.24-1.83.03-.33.03-.67.03-1.01,0-.34-.03-.67-.03-1.01,0-.1.03-.2.05-.3l.05.04Z"/>
          <path class="cls-2" d="m31.15,176.82c-.04.07-.07.15-.12.22-.48.62-.93,1.27-1.47,1.84-.18.2-.29.43-.46.63-.59.68-1.17,1.35-1.76,2.02-.6.68-1.19,1.36-1.82,2.01-.45.48-.94.92-1.4,1.39-.42.4-.81.83-1.23,1.23l-1.08,1c-.96.95-1.96,1.86-2.96,2.77-.94.84-1.86,1.71-2.84,2.5-.42.34-.95.79-1.35,1.35-.12.16-.19.36-.27.55-.07.16-.15.31-.2.48-.05.14-.09.28-.27.21-.1-.04-.22-.31-.18-.46.02-.09.06-.19.11-.26.21-.28.4-.54.6-.81.2-.26.44-.54.66-.76.36-.34.66-.56.98-.82.28-.23.57-.45.85-.7.37-.33.72-.69,1.09-1.02.18-.15.41-.24.5-.49.01-.03.04-.06.07-.07.61-.25.95-.83,1.45-1.22.08-.06.17-.09.24-.15.07-.06.15-.13.19-.21.16-.27.34-.48.64-.62.19-.09.32-.29.48-.43.34-.31.66-.62.99-.94.28-.27.56-.54.82-.83.19-.21.36-.43.61-.59.17-.11.32-.28.41-.46.14-.27.38-.42.6-.6.32-.26.62-.54.88-.87.18-.23.43-.41.63-.63.19-.21.36-.43.54-.65l1.06-1.17c.31-.35.65-.67.95-1.03.14-.17.22-.37.35-.56.1-.15.21-.3.41-.37.11-.04.19-.18.25-.29.23-.49.55-.9.98-1.24l.07.04Z"/>
          <path class="cls-2" d="m26.63,178.3c-.08.13-.14.28-.23.4-.29.37-.6.71-.9,1.07-.18.21-.35.42-.54.63-.21.23-.42.45-.63.67-.12.12-.27.2-.38.32-.14.15-.26.33-.4.49-.38.43-.78.83-1.16,1.25-.53.55-1.05,1.09-1.58,1.63-.53.54-1.07,1.07-1.6,1.61-.28.27-.52.58-.79.85-.85.84-1.72,1.67-2.61,2.47l-1.59,1.5c-.22.21-.47.45-.73.75-.26.3-.47.59-.67.9-.19.29-.33.61-.33.94,0,.26-.04.47-.22.61-.3-.22-.35-.24-.22-.66.15-.41.36-.82.62-1.19.13-.19.27-.37.42-.54.14-.17.33-.37.48-.52.13-.13.23-.28.34-.4.13-.13.25-.25.36-.35.09-.09.18-.17.27-.25.19-.16.38-.32.59-.46.34-.24.59-.61.88-.92.06-.07.1-.17.17-.23.12-.1.25-.18.38-.26.09-.06.23-.11.26-.2.08-.22.26-.32.41-.46.25-.25.49-.5.74-.75.12-.11.25-.22.38-.31.17-.12.32-.25.44-.42.14-.19.36-.31.56-.43.11-.07.22-.1.2-.28,0-.06.04-.15.09-.19.43-.43.85-.86,1.27-1.3.22-.22.42-.47.64-.69.23-.23.5-.43.73-.65.27-.26.52-.53.78-.8.18-.19.29-.44.54-.56.03-.01.05-.04.07-.06.33-.57.82-.97,1.31-1.39.13-.11.2-.26.32-.38.16-.16.27-.36.5-.47.15-.07.22-.27.32-.42.02-.03.03-.08.06-.11l.41-.44.03.02Z"/>
          <path class="cls-2" d="m15.53,187.66s-.05.09-.08.12l-.95.75s-.09.02-.1.06c-.18.41-.57.58-.84.88-.11.12-.35.35-.58.59-.24.24-.52.53-.82.88-.23.27-.44.57-.66.84-.09.11-.25.15-.37.24,0-.14,0-.28.04-.44.02-.08.11-.18.18-.26.2-.23.4-.45.6-.67.23-.24.45-.47.64-.65.38-.38.71-.68.85-.86.09-.11.21-.2.32-.29l1.25-1c.15-.12.29-.24.54-.2Z"/>
          <path class="cls-2" d="m35.17,171.05c-.11.21-.23.41-.35.61-.1.17-.18.34-.28.5l-.33.52c-.31.48-.64.96-.98,1.42-.26.34-.53.66-.78.99-.3.43-.57.87-.87,1.3-.06.09-.16.15-.28.2.05-.28.14-.53.38-.69.08-.05.16-.12.2-.2.22-.4.5-.74.8-1.09.06-.08.15-.15.17-.24.08-.27.27-.48.4-.72.01-.02.02-.04.03-.06.35-.27.47-.71.77-1.02.18-.19.36-.38.4-.64,0-.02.01-.05.03-.06.17-.16.26-.36.35-.58.04-.11.14-.2.22-.3l.09.05Z"/>
          <path class="cls-2" d="m15.83,187.35c-.05.05-.09.11-.16.18q0-.17.16-.18Z"/>
        </g>
        <g>
          <path class="cls-2" d="m6.46,198.62c.15-.02.17-.01.15.02-.03.05.02.08.02.11,0,.03-.03.06-.04.09,0,.02-.06.06.05.05.07,0,0,.04,0,.06,0,0-.04.03-.02.03.12-.01.06.04.02.1-.01.01.02.01.03.02.03.02.11.02,0,.12-.04.03-.03.05,0,.05.09,0,.18,0,.15.08-.02.04.04.04.06.07.02.04.03.09.05.13l.02.04.08.14s.03.03-.07.16c-.01.01-.03.03-.02.03.09-.06,0,.07.1.01.07-.04.1-.05.12-.05.03,0,.05.03.06.07,0,.02.01.05-.01.11-.06.15.09.03.11.07.02.05.05.1.07.14,0,0,.01,0,.02.01.01.01.04,0,.03.05-.02.08,0,.11.05.1.02,0,0,.05,0,.08,0,.05,0,.1.01.14,0,0,.03-.02.04-.04.12-.11.18-.08.12.07,0,.01-.03.05-.04.06.04,0,.08,0,.12,0,.05,0,.05,0-.08.25.03.02.06.02.08.06.02.06.15-.03.07.18-.01.03.01.02.02.03.03.05.08.08.1.15.02.06.03.16.04.24,0,.02,0,.07.01.06.09-.02.08.1.1.19.02.09.06.15.1.21,0,0,0,.01.01,0,.13-.12.06.08.06.18,0,.05-.07.2.01.11,0,0-.03.08-.08.17-.01-.05-.02-.11-.04-.16-.03-.07-.06-.13-.09-.19-.04-.08-.11-.12-.11-.26,0-.08-.06-.06-.07-.12,0-.06-.05-.08-.07-.12-.05-.11-.11-.23-.16-.34-.02-.05-.05-.08-.08-.12-.03-.04-.09-.04-.08-.13.01-.12-.08-.09-.09-.18-.02-.11-.09-.14-.14-.21-.02-.03-.02-.08-.02-.12,0-.02,0-.06-.02-.04-.1.08-.07-.02-.09-.06-.02-.04-.05-.07-.08-.1-.1-.1-.21-.19-.29-.29-.04-.05-.05-.13-.08-.19-.01-.03-.01-.06-.06-.06-.02,0-.03,0-.04-.01-.05-.04,0-.17-.06-.2-.08-.04-.07-.15-.1-.22-.02-.04-.06-.08-.08-.12-.02-.05-.02-.1-.03-.15,0-.05-.02-.1-.02-.16,0-.07-.05-.12-.06-.18,0-.05,0-.1-.03-.15-.05-.12-.05-.26-.07-.39,0-.07-.04-.13-.04-.21,0-.05-.04-.09-.07-.13-.03-.03.04-.08.05-.12,0-.03-.02-.06-.03-.09,0-.01,0-.03,0-.04,0-.01,0-.03,0-.04,0,0-.03-.02-.02-.02.15-.1-.04-.21.06-.31.05-.05,0-.12,0-.18,0-.03.04-.06.05-.09.02-.05.03-.1.04-.15,0-.03-.01-.08,0-.11.03-.07.08-.14.14-.2.03-.03.16,0,.27.06.13.07.25.16.23.18-.03.02,0,.07-.13.06-.08,0-.02.06-.03.09,0,.01,0,.03-.04.03-.1,0-.12.01-.08.06.05.05.04.07-.06.08-.08,0-.11.03-.04.07.13.07.1.12.09.17,0,.05.03.11-.04.16-.08.06.04.11.02.16-.02.05,0,.11-.01.16,0,.06-.02.12-.03.19,0,.02,0,.03.02.04.1.05.05.13,0,.21,0,0-.03.02-.02.02.14.01.03.07.04.11.02.05-.05.11-.06.17Z"/>
          <path class="cls-2" d="m3.69,201.01c-.17-.05.01-.28.02-.43-.05,0-.14-.02-.02-.13.03-.03.04-.07.01-.09-.14-.07-.03-.23,0-.36.02-.09,0-.17.01-.25.03-.18.06-.34.1-.51.01-.07,0-.13.01-.2,0,0,0-.01,0-.02.12-.2.07-.35.08-.51v-.28c.02-.11.03-.22.07-.33.04-.14.02-.29.03-.43.02-.27.1-.55.2-.81,0,0,0,0,0-.01,0-.18,0-.36.04-.54.02-.1.06-.19.09-.29.03-.09.16-.08.37,0,.27.16.29.24.22.33-.1.13-.12.29-.18.43-.04.1-.06.2-.19.28-.06.04-.06.11-.02.17.05.1,0,.17-.03.26-.05.1-.02.2-.03.3,0,.08-.03.16-.04.24,0,.03-.02.06,0,.09.05.08.04.16-.08.25-.02.01-.02.03,0,.04.02.05.07.09.07.14.01.08,0,.15,0,.24-.02.1-.08.21-.06.3,0,.04-.03.09-.08.14-.04.05-.03.09-.03.13,0,.02,0,.03.02.05,0,.01.04.02.02.03-.17.11-.06.16-.1.25-.04.09-.1.22-.18.35-.03.06.13.05,0,.13.08.1-.09.3-.03.42.04.08-.05.22-.08.34,0,.04-.03.09-.04.14-.02.04-.04.09-.06.13l-.09.04Z"/>
          <path class="cls-2" d="m7.92,198.15s.04-.09.05-.14c.01-.04,0-.09.02-.13,0-.02.05-.05.07-.08,0-.01.03-.03,0-.03-.1-.02-.04-.03-.01-.04.04-.02.06-.03.02-.04-.06-.02-.04-.03-.03-.04,0-.01-.02-.02-.01-.03,0,0,.06,0,.06-.01,0-.01-.01-.03-.04-.05-.03-.03,0-.04,0-.05,0-.02-.02-.04-.02-.06,0,0,0-.02.04,0,.02,0,.11.04.17.07.1.05.18.09.24.12.02.01.07.03.07.03-.02,0-.03,0-.05-.01-.04,0-.07-.01,0,0,.05.01,0,0-.12,0,.14.02.15.02.12.02-.04,0,0,0-.01,0,0,0,0,0-.01,0h-.02s-.01,0-.01,0h-.07s.01,0,.01,0c.05,0,0,0,.01,0,0,0,0,0,0,0,0,0,0,0-.04.01-.04,0-.05.02-.05.02,0,0,.01,0,0,.04,0,0-.02.01-.02.02-.05.04-.11.09-.06.11.07.03-.12.1-.14.14-.01.03-.1.07-.04.08.01,0-.04.02-.07.04h-.08Z"/>
        </g>
      </g>
    </g>
    <g>
      <path class="cls-2" d="m627.46,398.65c-.53-.05-.99-.18-1.42-.38-.48-.22-.95-.46-1.42-.69-.11-.05-.24-.08-.31-.17-.43-.5-1.08-.63-1.61-.96-.2-.13-.42-.22-.63-.33-.36-.2-.72-.38-1.06-.61-.39-.26-.77-.55-1.15-.82-.05-.04-.11-.1-.17-.11-.53-.02-.89-.38-1.31-.63-.31-.18-.54-.44-.8-.67-.27-.23-.55-.51-.98-.51-.14,0-.27-.15-.4-.23-.57-.38-1.15-.76-1.7-1.17-.18-.13-.33-.29-.49-.44-.05-.05-.07-.14-.13-.16-.86-.34-1.52-1-2.29-1.48-.2-.13-.38-.3-.57-.44-.4-.3-.8-.58-1.18-.9-.23-.2-.41-.46-.62-.68-.13-.14-.26-.31-.42-.37-.59-.23-.97-.71-1.39-1.14-.24-.24-.56-.41-.79-.66-.51-.54-.98-1.11-1.62-1.52-.2-.13-.36-.39-.45-.62-.05-.14.02-.38.12-.52.12-.2.37-.27.56-.15.37.23.79.36,1.06.78.29.46.68.84.86,1.38.15.47.59.71.92,1.02.65.64,1.36,1.21,2.06,1.79,1.03.82,2.08,1.62,3.15,2.39.88.64,1.78,1.26,2.67,1.87.18.12.35.26.49.42.34.41.83.57,1.26.82.37.21.71.48,1.07.71l1.25.82c.58.35,1.14.72,1.73,1.05.58.33,1.15.66,1.74.97.25.14.49.31.73.46.4.25.82.46,1.28.61.42.13.78.45,1.18.67.17.1.36.19.55.22.17.03.23.11.23.36Z"/>
      <path class="cls-2" d="m606.42,403.73c.04-.49.16-.91.36-1.3.22-.43.45-.85.69-1.27.05-.1.09-.22.17-.28.5-.35.64-.95.98-1.41.13-.17.22-.38.34-.56.2-.32.4-.64.62-.94.26-.34.55-.67.82-1,.04-.05.1-.09.11-.15.03-.5.38-.81.63-1.18.18-.28.43-.47.65-.71.22-.24.49-.49.48-.89,0-.13.13-.25.21-.36l1.03-1.57c.11-.17.25-.31.38-.46.04-.05.13-.07.14-.12.23-.82.78-1.45,1.1-2.22.08-.2.21-.38.31-.57.2-.4.37-.81.57-1.2.13-.24.32-.45.47-.68.09-.14.21-.29.22-.45.03-.57.32-1.01.54-1.5.12-.28.15-.59.26-.87.24-.6.52-1.2.5-1.87,0-.21.11-.44.26-.62.09-.11.32-.16.49-.17.23,0,.43.14.44.36,0,.2.05.41.05.61,0,.2-.03.41-.13.62-.24.45-.4.94-.81,1.29-.34.3-.39.75-.55,1.13-.32.77-.66,1.53-1.01,2.29-.51,1.1-1.07,2.18-1.68,3.23-.51.87-1.04,1.73-1.6,2.57-.11.17-.24.33-.39.45-.38.31-.53.76-.77,1.16-.2.34-.45.65-.69.96l-.82,1.12c-.36.51-.72,1.01-1.07,1.52-.34.5-.67,1.02-1,1.53-.15.22-.31.42-.47.64-.25.35-.47.72-.62,1.14-.13.38-.44.69-.66,1.04-.09.15-.18.32-.21.5-.03.16-.1.21-.35.19Z"/>
      <path class="cls-2" d="m637.8,390.33c-.22-.13-.33-.26-.37-.39-.04-.15-.09-.29-.13-.44,0-.03-.05-.07-.02-.1.21-.19-.03-.35-.03-.53,0-.07-.05-.13-.07-.2-.03-.11-.07-.23-.07-.34,0-.13.02-.27.03-.4,0-.02.03-.04,0-.06-.29-.12-.2-.26-.24-.4-.03-.1.04-.2.07-.3.03-.1.08-.21-.17-.3-.08-.03-.05-.08-.06-.13-.05-.19-.1-.38-.13-.58-.01-.06.02-.12.04-.19,0-.02.06-.04.04-.06-.29-.24-.2-.5-.35-.75-.04-.07-.02-.13-.04-.2-.04-.14-.11-.27-.12-.41,0-.09.06-.17.08-.26.01-.05.05-.11-.02-.16-.23-.16-.15-.33-.14-.5,0-.1-.09-.19-.09-.29.01-.21.09-.42-.11-.62-.06-.06,0-.15.1-.22.06-.04.27-.08.44-.1.22-.02.45,0,.51.06.11.12.33.22.23.36-.1.15-.1.31-.35.46-.22.13-.09.26-.08.39,0,.26.06.51.12.77.08.37.19.74.29,1.11.08.31.16.61.22.92.01.06,0,.12-.04.18-.12.15.05.28.11.42.05.12.04.24.06.36.02.14.03.28.05.42.03.19.05.38.09.57.03.19.09.37.12.56.01.08,0,.16,0,.25,0,.14.02.27.14.4.11.12,0,.26.01.39,0,.06.02.11.08.17.06.05.02.07-.2.11Z"/>
      <path class="cls-2" d="m642.57,386.18c-.18.22-.36.34-.55.38-.2.04-.41.09-.61.14-.05.01-.1.05-.14.02-.25-.2-.49.04-.73.04-.09,0-.18.05-.28.07-.16.03-.32.07-.48.08-.18,0-.37-.02-.55-.03-.03,0-.06-.03-.08,0-.17.29-.36.2-.55.25-.14.03-.27-.04-.41-.06-.14-.02-.29-.08-.42.17-.04.08-.12.05-.18.06-.27.05-.53.1-.8.14-.08.01-.17-.02-.26-.04-.03,0-.06-.06-.08-.04-.33.29-.7.2-1.04.36-.09.04-.19.02-.28.04-.19.04-.38.11-.57.13-.12.01-.24-.06-.36-.08-.07-.01-.16-.05-.22.02-.22.24-.46.16-.69.15-.13,0-.26.1-.4.09-.29,0-.58-.08-.86.12-.09.06-.2,0-.3-.09-.06-.06-.11-.27-.13-.44-.03-.22,0-.45.09-.51.16-.11.31-.33.5-.24.21.1.43.09.63.35.18.22.36.08.54.08.36-.01.71-.07,1.06-.13.51-.09,1.02-.2,1.53-.3.42-.08.85-.17,1.27-.24.08-.01.17-.01.26.04.21.12.39-.05.59-.11.16-.05.33-.05.5-.06.2-.02.39-.04.59-.06.26-.03.53-.06.79-.1.26-.04.52-.09.78-.13.11-.01.23,0,.34,0,.19,0,.37-.03.55-.14.17-.11.36,0,.53-.02.08,0,.16-.02.23-.08.06-.06.1-.02.16.2Z"/>
      <path class="cls-2" d="m657.89,387.02c-.38-.06-.69-.18-.94-.38l-.85-.63c-.06-.05-.16-.08-.18-.15-.16-.44-.62-.56-.91-.85-.11-.11-.26-.19-.38-.29-.21-.17-.43-.33-.63-.52-.22-.22-.42-.46-.63-.69-.03-.03-.05-.09-.1-.09-.42-.01-.58-.31-.83-.52-.19-.15-.29-.37-.43-.55-.14-.19-.28-.42-.62-.41-.11,0-.17-.11-.25-.18-.34-.3-.69-.61-1.02-.92-.1-.1-.18-.23-.26-.35-.03-.04-.02-.11-.05-.13-.6-.25-.94-.77-1.44-1.12-.13-.09-.23-.23-.34-.34-.24-.22-.5-.43-.73-.67-.14-.15-.22-.35-.33-.52-.07-.1-.13-.23-.25-.28-.43-.15-.62-.51-.86-.83-.14-.18-.36-.29-.5-.48-.3-.39-.54-.82-1-1.09-.14-.08-.21-.28-.23-.46-.01-.11.11-.31.22-.43.15-.17.38-.25.51-.17.26.15.59.22.71.54.14.34.37.62.38,1.05,0,.37.31.53.51.76.39.47.82.9,1.25,1.32.63.62,1.28,1.21,1.92,1.8l1.61,1.46c.11.1.2.21.26.34.15.33.49.46.76.66.23.17.42.39.63.58l.73.68c.34.3.67.61,1.01.9l1.02.85c.15.12.27.27.41.41.23.22.47.42.78.55.28.12.44.41.67.61.1.09.21.17.34.21.12.03.14.1.05.32Z"/>
      <path class="cls-2" d="m649.3,403.35c.23-.58.51-1.07.86-1.53.38-.5.76-1.01,1.13-1.52.08-.12.15-.26.26-.34.64-.46.91-1.2,1.34-1.8.17-.23.29-.49.43-.74.24-.43.47-.86.73-1.27.27-.49.57-.97.86-1.45.04-.07.1-.15.1-.21-.03-.62.34-1.09.53-1.64.15-.4.37-.74.56-1.11.18-.38.4-.8.31-1.27-.03-.15.09-.35.14-.52.22-.78.44-1.56.63-2.35.06-.25.17-.49.26-.73.03-.07.1-.14.1-.21,0-.54.09-1.06.18-1.59.09-.53.2-1.05.24-1.58.02-.28.09-.56.13-.84.08-.57.12-1.15.21-1.73.06-.35.19-.69.27-1.05.05-.22.12-.45.09-.66-.11-.72.06-1.4.18-2.1.06-.4.02-.81.08-1.21.13-.86.32-1.71.24-2.6-.03-.28.08-.62.21-.87.08-.16.31-.27.48-.3.23-.04.44.12.46.39.05.51.2,1,.03,1.56-.19.62-.26,1.27-.6,1.83-.29.48-.23,1.07-.31,1.6-.15,1.07-.27,2.15-.4,3.22-.19,1.56-.42,3.11-.69,4.66-.25,1.28-.52,2.56-.88,3.82-.07.25-.16.5-.29.73-.31.55-.39,1.15-.55,1.74-.15.49-.37.97-.56,1.45-.23.56-.51,1.11-.75,1.66-.18.37-.38.73-.56,1.1-.1.18-.19.37-.29.55l-.31.53c-.21.35-.4.71-.61,1.06-.21.35-.43.69-.66,1.02-.2.29-.43.56-.65.83-.36.45-.7.9-.99,1.42-.26.47-.71.84-1.07,1.25-.16.18-.31.38-.42.59-.09.19-.19.24-.46.2Z"/>
      <path class="cls-2" d="m693.77,375.6c-.38.16-.74.27-1.12.34l-1.25.24c-.09.02-.2.05-.28.05-.52-.03-1,.16-1.5.23-.19.03-.37.08-.56.12-.32.06-.65.13-.97.18-.37.06-.75.11-1.13.16-.05,0-.12,0-.16.03-.34.2-.74.22-1.13.31-.29.06-.56.07-.83.11-.28.04-.6.06-.85.23-.08.05-.23.06-.36.09l-1.62.35c-.17.04-.35.05-.52.07-.05,0-.12-.01-.16,0-.67.27-1.41.36-2.1.57-.18.05-.38.08-.56.13-.38.09-.76.2-1.15.29-.24.05-.49.06-.73.1-.15.02-.32.04-.44.1-.44.21-.92.27-1.39.36-.27.05-.53.16-.79.21-.58.12-1.16.2-1.72.43-.17.07-.41.09-.6.08-.12,0-.23-.09-.28-.16-.07-.1,0-.23.16-.3.32-.13.61-.3,1-.34.43-.04.87-.14,1.29-.1.37.03.73-.11,1.09-.19.72-.16,1.43-.33,2.14-.5l3.1-.74c.86-.2,1.72-.4,2.58-.58.17-.04.35-.07.52-.07.42-.01.8-.16,1.19-.26.34-.08.68-.14,1.02-.2l1.2-.22,1.62-.3,1.59-.3c.23-.04.47-.06.7-.1.38-.06.76-.12,1.13-.23.34-.1.73-.1,1.09-.16.16-.02.33-.05.47-.1.13-.05.21-.04.32.06Z"/>
      <path class="cls-2" d="m691.6,380.1c-.3.18-.58.31-.89.4l-1.01.31c-.08.02-.16.07-.23.06-.43,0-.81.22-1.21.32-.15.04-.3.1-.45.15-.26.08-.52.17-.78.24-.3.08-.61.15-.92.22-.04.01-.1.01-.13.04-.25.22-.59.26-.9.37-.23.08-.45.1-.68.15-.23.05-.49.09-.68.27-.06.06-.19.08-.28.11l-1.3.44c-.14.05-.28.07-.42.1-.04,0-.1,0-.13.01-.52.3-1.12.43-1.67.67-.14.06-.3.1-.45.16-.31.11-.61.24-.92.34-.19.06-.4.09-.59.14-.12.03-.26.06-.35.12-.34.23-.73.31-1.11.43-.22.07-.42.18-.63.25-.47.15-.94.26-1.37.51-.14.08-.33.11-.49.11-.1,0-.21-.08-.26-.15-.07-.09-.04-.23.1-.3.25-.14.46-.33.79-.38.36-.06.7-.18,1.07-.16.31.01.59-.14.88-.24.58-.19,1.15-.39,1.72-.6l2.48-.9c.69-.24,1.38-.48,2.07-.71.14-.05.28-.08.42-.1.35-.04.64-.2.96-.32.27-.1.55-.17.82-.25l.97-.29,1.3-.39,1.28-.39c.19-.05.38-.09.57-.14.31-.08.61-.16.91-.29.27-.12.59-.15.89-.22.13-.03.26-.07.38-.13.1-.05.17-.05.27.04Z"/>
      <path class="cls-2" d="m723.69,385.46c.1.11.21.23.31.34-1.26.57-2.62.94-4.13,1.13-.55.07-1.08.21-1.62.31-.15.03-.32.09-.45.07-.96-.08-1.76.22-2.62.39-.27.05-.55.08-.82.12-.49.06-1,.08-1.48.16-1.69.28-3.37.61-5.07.86-.46.07-.92.13-1.38.18l-.69.08-.76.08c-.56.06-1.11.12-1.67.18-.58.05-1.16.1-1.73.15l-.28.02h-.07s-.03,0-.03,0c0,0,0-.02,0-.03l.02-.12.08-.49c.05-.33.13-.66.2-1,.16-.67.33-1.35.55-2.05.07-.22.14-.44.22-.66l.22-.55c.15-.34.3-.68.47-1.01.33-.66.71-1.3,1.08-1.93.03-.05.09-.11.11-.16.59-1.68,1.93-3.06,2.54-4.68.06-.16.17-.36.29-.47.77-.71,1.09-1.67,1.59-2.53.68-1.18,1.3-2.42,2.07-3.52.61-.87,1.02-1.79,1.56-2.66.54-.86,1-1.76,1.46-2.65.16-.3.31-.6.46-.91l.23-.46.11-.23.05-.11s.02-.05.02-.05h0c.04-.17.07-.3.07-.4,0-.09-.05-.13-.05-.18,0-.02.01-.04.03-.07l.03-.05s.03-.04,0-.03c-.02,0-.03,0-.06.01-.18.05-.34.13-.46.17-.03,0-.06.02-.09.02l-.5.11c-.54.13-1.07.25-1.61.4-.62.16-1.21.39-1.82.58-.4.13-.81.28-1.22.37-.74.17-1.36.54-2.13.71-1.27.27-2.52.72-3.78,1.05-.87.23-1.75.36-2.63.56-.29.07-.58.18-.87.26-.46.12-1,.34-1.27.08-.15-.14-.28-.41-.14-.57.3-.34.81-.64,1.4-.71.35-.04.73-.09,1.03-.06,1.08.12,2.21-.24,3.32-.55,1.53-.45,3.06-.9,4.59-1.35,1.12-.32,2.24-.68,3.37-.98.69-.19,1.38-.33,2.07-.5l1.41-.4c.18-.05.39-.12.62-.19.07-.03.04.01.04.04l-.02.09c-.02.06-.03.13-.06.2-.1.28-.21.59-.34.9-.06.16-.14.32-.21.49l-.11.25-.03.06-.06.12-.12.25c-.67,1.31-1.39,2.59-2.14,3.87-1.09,1.86-2.23,3.72-3.36,5.58-.45.74-.91,1.48-1.34,2.23-.62,1.08-1.19,2.18-1.81,3.26-.47.81-.99,1.59-1.45,2.41-.7,1.25-1.34,2.54-1.83,3.89-.31.84-.57,1.68-.73,2.47-.04.2-.08.39-.1.59l-.04.29-.02.14v.07s-.02.05.02.04c.44-.05.87-.1,1.31-.16.35-.05.68-.06,1.02-.08.34-.03.67-.08.98-.19.28-.09.68-.04,1.01-.08.95-.13,1.9-.29,2.85-.42,1.6-.21,3.2-.39,4.79-.62,1.04-.15,2.05-.36,3.07-.55,1.02-.2,2.04-.39,3.06-.59,1.12-.22,2.25-.43,3.43-.66Z"/>
    </g>
    <g>
      <path class="cls-2" d="m336.46,462.49c-.37-.32-.65-.43-.76-.66-.33-.67-.66-1.36-.96-2.06-.88-1.9-1.76-3.84-3.05-5.49-1.75-2.3-3.82-4.4-6.31-5.8-2.47-1.42-5.34-2.02-8.15-1.81-1.57.11-3.11.43-4.62.89l-.98.27-.97.34c-.65.22-1.29.46-1.93.71-4.94,1.96-9.57,4.62-14.11,7.45-4.21,2.63-8.4,5.46-12.71,8.06-3.46,2.14-7.1,4.19-10.97,5.85-2.99,1.25-6.13,2.35-9.68,2.55-.48.04-.98-.08-1.47-.08-1.12-.09-2.28-.35-3.41-.82-1.38-.55-2.58-1.67-2.84-2.96-.1-.68.09-.86.46-.85.2,0,.37.13.51.3.17.16.32.37.46.58.71,1.02,1.78,1.84,3,2.24.71.22,1.47.32,2.2.36.51.04,1.01.06,1.51.07.27.02.55.07.8.02,4.06-.91,7.92-2.13,11.52-3.99,1.74-.92,3.41-1.94,5.08-2.96.74-.45,1.5-.87,2.25-1.29.14-.08.3-.12.43-.21,2.25-1.38,4.48-2.81,6.69-4.23,1.4-.9,2.78-1.82,4.2-2.7,1.97-1.21,3.98-2.35,5.99-3.48,1.91-1.09,3.82-2.17,5.82-3.11,1.21-.58,2.5-1.01,3.74-1.51,1.79-.75,3.63-1.35,5.52-1.85.94-.25,1.92-.34,2.89-.52l1.48-.05c.49-.02.99-.04,1.48.03.82.1,1.67.15,2.46.43l1.21.35,1.15.51c.83.32,1.59.78,2.37,1.21.4.21.72.52,1.07.81.33.3.68.59.93.97.27.39.84.67,1.24,1.06,2.59,2.77,4.42,6.11,5.9,9.52.22.48.31,1.01.53,1.84Z"/>
      <path class="cls-2" d="m382.99,497.89c-.26-.33-.55-.64-.76-1-1.69-2.76-3.75-5.29-5.97-7.66-.43-.48-.85-.99-1.31-1.45-3.97-3.83-8.5-7.11-13.47-9.61-3.05-1.54-6.28-2.81-9.67-3.51-3.25-.68-6.63-.94-9.97-.54-3.34.38-6.63,1.39-9.54,3.07-1.01.54-1.93,1.21-2.87,1.87-.87.76-1.76,1.36-2.6,2.34-.41.49-.8,1.08-.98,1.81-.19.71-.13,1.59.25,2.26.77,1.37,2.13,1.95,3.43,2.08.58.05,1.18-.01,1.75-.21.54-.2,1.01-.46,1.45-.75.87-.6,1.59-1.32,2.24-2.08,1.28-1.54,2.27-3.25,3-5.08.26-.67.5-1.36.69-2.06.19-.62.27-1.27.27-1.9-.03-.62-.11-1.22-.23-1.81-.25-1.17-.65-2.28-1.08-3.36-.52-1.27-.53-2.45-.39-3.59.09-.7.59-1.05.99-.75.46.35.61.92.71,1.65.23,1.72.54,3.46.89,5.27.13.67.16,1.38.18,2.07.02.52,0,1.25-.1,1.84-.08.62-.23,1.19-.4,1.75-.34,1.12-.78,2.18-1.31,3.19-1.08,2.01-2.38,3.92-4.41,5.48-.21.18-.47.33-.73.48-.25.16-.52.3-.82.42-.29.13-.58.25-.97.34-.36.09-.73.14-1.09.15-1.37.04-2.67-.32-3.82-1.24-.56-.46-1.09-1.11-1.38-1.92-.29-.81-.31-1.73-.1-2.49.45-1.57,1.39-2.44,2.14-3.14.77-.62,1.48-1.27,2.28-1.83,2.32-1.7,4.94-3.07,7.72-3.88,2.58-.77,5.27-1.05,7.91-1.03.86.04,1.73-.04,2.58.08,3.07.32,6.03,1.08,8.87,2.08,1.49.52,2.96,1.07,4.39,1.72.75.35,1.48.77,2.2,1.16.39.23.78.55,1.15.66,1.59.49,2.73,1.66,4.07,2.52.65.42,1.26.9,1.87,1.37l1.78,1.48c.48.41.98.8,1.47,1.2.48.41.96.83,1.42,1.26,2.56,2.49,4.86,5.23,6.83,8.19.27.42.57.81.83,1.23.31.55.59,1.12.87,1.68l-.28.18Z"/>
      <path class="cls-2" d="m251.96,461.48v-.81s.06-.81.06-.81c.06-.54.09-1.09.23-1.6.33-1.73,1.03-3.32,1.72-4.87,1.06-2.21,2.33-4.25,3.63-6.2,1.29-1.94,2.63-3.78,3.75-5.69.25-.41.47-.82.68-1.23.22-.41.44-.82.6-1.24l.53-1.25.38-1.26c.43-1.68.51-3.37,0-4.82-.11-.51-.43-.91-.64-1.37-.34-.39-.6-.83-1.03-1.16-.74-.74-1.74-1.28-2.79-1.72-2.14-.83-4.58-1.13-7.02-1.04-4.7.23-9.37,1.32-13.75,3-2.55.96-5.09,2.02-7.49,3.35-2.22,1.23-4.33,2.65-6.33,4.22-.57.44-1.17.85-1.74,1.24-.98.64-1.48.44-1.28-.51.04-.2,0-.38,0-.44.73-.49,1.41-.89,2.08-1.26.65-.38,1.27-.73,1.9-1.09.55-.34,1.1-.71,1.66-1.07.55-.37,1.1-.75,1.68-1.08,2.72-1.62,5.62-2.9,8.57-4,1.82-.64,3.62-1.41,5.5-1.93.25-.07.52-.19.77-.2,2.27-.18,4.5-.78,6.78-.85.57,0,1.16-.15,1.72-.15.45,0,.91.02,1.36.03.56.06,1.11.12,1.67.15.8.12,1.62.13,2.4.35,2,.47,3.91,1.35,5.26,2.77.78.9,1.25,1.98,1.54,3.1.24,1.24.32,2.56.06,3.89-.05.58-.19,1.2-.61,1.6-.11.09-.16.34-.24.52-.71,2.04-1.78,4.04-2.99,5.97-.59.94-1.37,1.78-1.93,2.73-.91,1.56-2.03,2.94-2.97,4.5-1.43,2.36-2.66,4.97-3.19,7.82-.1.8-.34,1.58-.35,2.39h-.19Z"/>
    </g>
  </g>
</svg>