<?xml version="1.0" encoding="UTF-8"?>
<svg id="_Слой_2" data-name="Слой 2" xmlns="http://www.w3.org/2000/svg" viewBox="0 0 669.61 511.2">
  <defs>
    <style>
      .cls-1 {
        fill: #6e1b28;
      }

      .cls-1, .cls-2, .cls-3 {
        stroke-width: 0px;
      }

      .cls-2 {
        fill: #4c0c1e;
      }

      .cls-3 {
        fill: #ffffe3;
      }
    </style>
  </defs>
  <g id="_Слой_1-2" data-name="Слой 1">
    <g>
      <rect class="cls-1" x="31.48" y="144.39" width="638.13" height="366.81"/>
      <rect class="cls-1" y="97.2" width="638.13" height="359.29"/>
      <path class="cls-3" d="m496.13,110.31c-52.19,1.44-107.42,3.58-159.53,4.85-108.86,2.68-217.73,1.14-326.57-2.11-1.97,61.98-4.39,129.04-5.09,190.87-.56,57.65-2.23,140.17-2.41,197.21,8.05.17,27.3.05,35.28.26,205.96.94,413.8-5.33,618.86-13.13,6.37-121.7,11.06-245.42,11.62-367.74l.06-11.71c-57.4-.59-114.84-.05-172.21,1.51Z"/>
    </g>
    <g>
      <path class="cls-1" d="m32.2,162.64c-.02-1.18.94-2.1,2.1-2.1s2.1.92,2.1,2.08-.92,2.1-2.1,2.1-2.1-.9-2.1-2.08Z"/>
      <path class="cls-1" d="m62.36,161.94c-.1-1.88-.22-4.14-.2-5.82h-.06c-.46,1.58-1.02,3.26-1.7,5.12l-2.38,6.54h-1.32l-2.18-6.42c-.64-1.9-1.18-3.64-1.56-5.24h-.04c-.04,1.68-.14,3.94-.26,5.96l-.36,5.78h-1.66l.94-13.48h2.22l2.3,6.52c.56,1.66,1.02,3.14,1.36,4.54h.06c.34-1.36.82-2.84,1.42-4.54l2.4-6.52h2.22l.84,13.48h-1.7l-.34-5.92Z"/>
      <path class="cls-1" d="m75.78,162.94c0,3.58-2.48,5.14-4.82,5.14-2.62,0-4.64-1.92-4.64-4.98,0-3.24,2.12-5.14,4.8-5.14s4.66,2.02,4.66,4.98Zm-7.68.1c0,2.12,1.22,3.72,2.94,3.72s2.94-1.58,2.94-3.76c0-1.64-.82-3.72-2.9-3.72s-2.98,1.92-2.98,3.76Z"/>
      <path class="cls-1" d="m79.7,158.18v3.9h4.6v-3.9h1.74v9.68h-1.74v-4.38h-4.6v4.38h-1.74v-9.68h1.74Z"/>
      <path class="cls-1" d="m95.4,158.18v1.4h-3.02v8.28h-1.74v-8.28h-3.02v-1.4h7.78Z"/>
      <path class="cls-1" d="m102.16,167.86l-.14-1.22h-.06c-.54.76-1.58,1.44-2.96,1.44-1.96,0-2.96-1.38-2.96-2.78,0-2.34,2.08-3.62,5.82-3.6v-.2c0-.8-.22-2.24-2.2-2.24-.9,0-1.84.28-2.52.72l-.4-1.16c.8-.52,1.96-.86,3.18-.86,2.96,0,3.68,2.02,3.68,3.96v3.62c0,.84.04,1.66.16,2.32h-1.6Zm-.26-4.94c-1.92-.04-4.1.3-4.1,2.18,0,1.14.76,1.68,1.66,1.68,1.26,0,2.06-.8,2.34-1.62.06-.18.1-.38.1-.56v-1.68Z"/>
      <path class="cls-1" d="m107.26,158.18l3.2,4.22h.36v-4.22h1.68v4.22h.34l3.2-4.22h2.02l-3.82,4.4c1.46.16,2.32,1.02,2.9,2.56.34.94.66,1.96,1.06,2.72h-1.76c-.32-.58-.6-1.38-.88-2.22-.6-1.58-1.5-2.06-2.76-2.06h-.3v4.28h-1.68v-4.28h-.32c-1.36,0-2.18.5-2.78,2.08-.32.84-.58,1.6-.92,2.2h-1.7c.4-.78.72-1.8,1.06-2.7.6-1.56,1.46-2.42,2.92-2.58l-3.84-4.4h2.02Z"/>
      <path class="cls-1" d="m118.64,170.32c.44-1.18.98-3.32,1.2-4.78l1.96-.2c-.46,1.7-1.34,3.92-1.9,4.86l-1.26.12Z"/>
      <path class="cls-1" d="m134.7,158.18v1.4h-3.02v8.28h-1.74v-8.28h-3.02v-1.4h7.78Z"/>
      <path class="cls-1" d="m136.96,163.34c.04,2.38,1.56,3.36,3.32,3.36,1.26,0,2.02-.22,2.68-.5l.3,1.26c-.62.28-1.68.6-3.22.6-2.98,0-4.76-1.96-4.76-4.88s1.72-5.22,4.54-5.22c3.16,0,4,2.78,4,4.56,0,.36-.04.64-.06.82h-6.8Zm5.16-1.26c.02-1.12-.46-2.86-2.44-2.86-1.78,0-2.56,1.64-2.7,2.86h5.14Z"/>
      <path class="cls-1" d="m146.74,158.18l1.38,2.08c.36.54.66,1.04.98,1.58h.06c.32-.58.64-1.08.96-1.6l1.36-2.06h1.9l-3.3,4.68,3.4,5h-2l-1.42-2.18c-.38-.56-.7-1.1-1.04-1.68h-.04c-.32.58-.66,1.1-1.02,1.68l-1.4,2.18h-1.94l3.44-4.94-3.28-4.74h1.96Z"/>
      <path class="cls-1" d="m156.88,158.18v3.9h4.6v-3.9h1.74v9.68h-1.74v-4.38h-4.6v4.38h-1.74v-9.68h1.74Z"/>
      <path class="cls-1" d="m167.72,158.18v4.08c0,1.54-.02,2.5-.1,3.88l.06.02c.58-1.18.92-1.86,1.56-2.98l3.02-5h2.06v9.68h-1.68v-4.1c0-1.58.04-2.4.12-3.96h-.06c-.62,1.24-1.04,2.02-1.6,3-.92,1.5-1.98,3.36-3.02,5.06h-2.02v-9.68h1.66Z"/>
      <path class="cls-1" d="m178.56,158.18v3.18c0,1.22.46,2.06,2,2.06.76,0,1.54-.28,2.08-.68v-4.56h1.74v9.68h-1.74v-3.88h-.04c-.66.44-1.7.74-2.62.74-1.84,0-3.18-.94-3.18-3.16v-3.38h1.76Z"/>
      <path class="cls-1" d="m188.24,163.34c.04,2.38,1.56,3.36,3.32,3.36,1.26,0,2.02-.22,2.68-.5l.3,1.26c-.62.28-1.68.6-3.22.6-2.98,0-4.76-1.96-4.76-4.88s1.72-5.22,4.54-5.22c3.16,0,4,2.78,4,4.56,0,.36-.04.64-.06.82h-6.8Zm5.16-1.26c.02-1.12-.46-2.86-2.44-2.86-1.78,0-2.56,1.64-2.7,2.86h5.14Z"/>
      <path class="cls-1" d="m204.18,167.5c-.46.24-1.48.56-2.78.56-2.92,0-4.82-1.98-4.82-4.94s2.04-5.14,5.2-5.14c1.04,0,1.96.26,2.44.5l-.4,1.36c-.42-.24-1.08-.46-2.04-.46-2.22,0-3.42,1.64-3.42,3.66,0,2.24,1.44,3.62,3.36,3.62,1,0,1.66-.26,2.16-.48l.3,1.32Z"/>
      <path class="cls-1" d="m207.98,158.18v4.2h.42l3.64-4.2h2.14l-4.22,4.38c1.56.16,2.5,1.2,3.26,2.94.26.64.6,1.58,1.04,2.36h-1.84c-.26-.42-.6-1.18-.9-1.98-.66-1.56-1.56-2.28-3.2-2.28h-.34v4.26h-1.74v-9.68h1.74Z"/>
      <path class="cls-1" d="m224.46,162.94c0,3.58-2.48,5.14-4.82,5.14-2.62,0-4.64-1.92-4.64-4.98,0-3.24,2.12-5.14,4.8-5.14s4.66,2.02,4.66,4.98Zm-7.68.1c0,2.12,1.22,3.72,2.94,3.72s2.94-1.58,2.94-3.76c0-1.64-.82-3.72-2.9-3.72s-2.98,1.92-2.98,3.76Z"/>
      <path class="cls-1" d="m227.66,163.34c.04,2.38,1.56,3.36,3.32,3.36,1.26,0,2.02-.22,2.68-.5l.3,1.26c-.62.28-1.68.6-3.22.6-2.98,0-4.76-1.96-4.76-4.88s1.72-5.22,4.54-5.22c3.16,0,4,2.78,4,4.56,0,.36-.04.64-.06.82h-6.8Zm5.16-1.26c.02-1.12-.46-2.86-2.44-2.86-1.78,0-2.56,1.64-2.7,2.86h5.14Z"/>
      <path class="cls-1" d="m249.7,162.94c0,3.58-2.48,5.14-4.82,5.14-2.62,0-4.64-1.92-4.64-4.98,0-3.24,2.12-5.14,4.8-5.14s4.66,2.02,4.66,4.98Zm-7.68.1c0,2.12,1.22,3.72,2.94,3.72s2.94-1.58,2.94-3.76c0-1.64-.82-3.72-2.9-3.72s-2.98,1.92-2.98,3.76Z"/>
      <path class="cls-1" d="m259.24,154.9c-.5.18-1.38.34-2.02.44-1.56.24-2.7.76-3.44,1.82-.62.88-.98,2.18-1.06,3.2h.06c.62-1.4,1.98-2.18,3.36-2.18,2.38,0,4.12,1.7,4.12,4.78s-1.64,5.12-4.48,5.12c-3.4,0-4.52-3.26-4.52-6.48,0-2.2.46-4,1.5-5.36.94-1.34,2.28-1.96,4.16-2.28.78-.12,1.74-.28,2.4-.52l-.08,1.46Zm-3.46,4.58c-1.04,0-1.78.54-2.18,1.32-.32.58-.48,1.28-.48,2.06,0,1.6.78,3.9,2.7,3.9s2.66-1.88,2.66-3.66c0-1.58-.62-3.62-2.7-3.62Z"/>
      <path class="cls-1" d="m269.38,167.5c-.46.24-1.48.56-2.78.56-2.92,0-4.82-1.98-4.82-4.94s2.04-5.14,5.2-5.14c1.04,0,1.96.26,2.44.5l-.4,1.36c-.42-.24-1.08-.46-2.04-.46-2.22,0-3.42,1.64-3.42,3.66,0,2.24,1.44,3.62,3.36,3.62,1,0,1.66-.26,2.16-.48l.3,1.32Z"/>
      <path class="cls-1" d="m279.12,158.18v9.68h-1.74v-8.3h-3.32v2.52c0,2.72-.26,4.54-1.52,5.36-.48.38-1.02.6-1.92.6l-.18-1.38c.34-.06.72-.2.96-.4.9-.66,1-2.02,1-4.18v-3.9h6.72Z"/>
      <path class="cls-1" d="m282.56,158.18l2.12,5.72c.22.64.46,1.4.62,1.98h.04c.18-.58.38-1.32.62-2.02l1.92-5.68h1.86l-2.64,6.9c-1.26,3.32-2.12,5.02-3.32,6.06-.86.76-1.72,1.06-2.16,1.14l-.44-1.48c.44-.14,1.02-.42,1.54-.86.48-.38,1.08-1.06,1.48-1.96.08-.18.14-.32.14-.42s-.04-.24-.12-.46l-3.58-8.92h1.92Z"/>
      <path class="cls-1" d="m292.36,158.18l3.2,4.22h.36v-4.22h1.68v4.22h.34l3.2-4.22h2.02l-3.82,4.4c1.46.16,2.32,1.02,2.9,2.56.34.94.66,1.96,1.06,2.72h-1.76c-.32-.58-.6-1.38-.88-2.22-.6-1.58-1.5-2.06-2.76-2.06h-.3v4.28h-1.68v-4.28h-.32c-1.36,0-2.18.5-2.78,2.08-.32.84-.58,1.6-.92,2.2h-1.7c.4-.78.72-1.8,1.06-2.7.6-1.56,1.46-2.42,2.92-2.58l-3.84-4.4h2.02Z"/>
      <path class="cls-1" d="m306.49,158.18v4.08c0,1.54-.02,2.5-.1,3.88l.06.02c.58-1.18.92-1.86,1.56-2.98l3.02-5h2.06v9.68h-1.68v-4.1c0-1.58.04-2.4.12-3.96h-.06c-.62,1.24-1.04,2.02-1.6,3-.92,1.5-1.98,3.36-3.02,5.06h-2.02v-9.68h1.66Z"/>
      <path class="cls-1" d="m315.91,158.3c.68-.12,1.94-.22,3.08-.22,1.62,0,4.3.26,4.3,2.42,0,1.2-.92,1.94-2.02,2.18v.04c1.42.2,2.46,1,2.46,2.4,0,2.54-3.2,2.86-5.1,2.86-1.08,0-2.2-.08-2.72-.12v-9.56Zm1.66,8.4c.5.06.86.08,1.42.08,1.18,0,2.94-.28,2.94-1.68s-1.4-1.7-3.08-1.7h-1.28v3.3Zm.02-4.46h1.32c1.3,0,2.64-.38,2.64-1.52,0-.96-.84-1.42-2.6-1.42-.58,0-.94.04-1.36.08v2.86Z"/>
      <path class="cls-1" d="m331.32,167.86l-.14-1.22h-.06c-.54.76-1.58,1.44-2.96,1.44-1.96,0-2.96-1.38-2.96-2.78,0-2.34,2.08-3.62,5.82-3.6v-.2c0-.8-.22-2.24-2.2-2.24-.9,0-1.84.28-2.52.72l-.4-1.16c.8-.52,1.96-.86,3.18-.86,2.96,0,3.68,2.02,3.68,3.96v3.62c0,.84.04,1.66.16,2.32h-1.6Zm-.26-4.94c-1.92-.04-4.1.3-4.1,2.18,0,1.14.76,1.68,1.66,1.68,1.26,0,2.06-.8,2.34-1.62.06-.18.1-.38.1-.56v-1.68Z"/>
      <path class="cls-1" d="m337.29,158.18v3.9h4.6v-3.9h1.74v9.68h-1.74v-4.38h-4.6v4.38h-1.74v-9.68h1.74Z"/>
      <path class="cls-1" d="m348.13,158.18v4.08c0,1.54-.02,2.5-.1,3.88l.06.02c.58-1.18.92-1.86,1.56-2.98l3.02-5h2.06v9.68h-1.68v-4.1c0-1.58.04-2.4.12-3.96h-.06c-.62,1.24-1.04,2.02-1.6,3-.92,1.5-1.98,3.36-3.02,5.06h-2.02v-9.68h1.66Z"/>
      <path class="cls-1" d="m358.57,163.34c.04,2.38,1.56,3.36,3.32,3.36,1.26,0,2.02-.22,2.68-.5l.3,1.26c-.62.28-1.68.6-3.22.6-2.98,0-4.76-1.96-4.76-4.88s1.72-5.22,4.54-5.22c3.16,0,4,2.78,4,4.56,0,.36-.04.64-.06.82h-6.8Zm5.16-1.26c.02-1.12-.46-2.86-2.44-2.86-1.78,0-2.56,1.64-2.7,2.86h5.14Z"/>
      <path class="cls-1" d="m373.47,158.18v4.08c0,1.54-.02,2.5-.1,3.88l.06.02c.58-1.18.92-1.86,1.56-2.98l3.02-5h2.06v9.68h-1.68v-4.1c0-1.58.04-2.4.12-3.96h-.06c-.62,1.24-1.04,2.02-1.6,3-.92,1.5-1.98,3.36-3.02,5.06h-2.02v-9.68h1.66Z"/>
      <path class="cls-1" d="m41.42,194.34c0-1.24-.04-2.24-.08-3.16h1.58l.08,1.66h.04c.72-1.18,1.86-1.88,3.44-1.88,2.34,0,4.1,1.98,4.1,4.92,0,3.48-2.12,5.2-4.4,5.2-1.28,0-2.4-.56-2.98-1.52h-.04v5.26h-1.74v-10.48Zm1.74,2.58c0,.26.04.5.08.72.32,1.22,1.38,2.06,2.64,2.06,1.86,0,2.94-1.52,2.94-3.74,0-1.94-1.02-3.6-2.88-3.6-1.2,0-2.32.86-2.66,2.18-.06.22-.12.48-.12.72v1.66Z"/>
      <path class="cls-1" d="m53.78,196.34c.04,2.38,1.56,3.36,3.32,3.36,1.26,0,2.02-.22,2.68-.5l.3,1.26c-.62.28-1.68.6-3.22.6-2.98,0-4.76-1.96-4.76-4.88s1.72-5.22,4.54-5.22c3.16,0,4,2.78,4,4.56,0,.36-.04.64-.06.82h-6.8Zm5.16-1.26c.02-1.12-.46-2.86-2.44-2.86-1.78,0-2.56,1.64-2.7,2.86h5.14Z"/>
      <path class="cls-1" d="m62.92,191.18h2.16l1.76,4.88c.24.72.66,1.9.88,2.66h.04c.22-.72.76-2.26,1.14-3.32l1.56-4.22h2.18l.68,9.68h-1.68l-.22-4.62c-.06-1.04-.14-2.28-.18-3.46h-.06c-.26.88-.52,1.66-1.06,3.14l-1.86,4.88h-1.28l-1.72-4.78c-.3-.92-.72-2.32-.96-3.22h-.08c-.04,1.14-.1,2.42-.16,3.48l-.24,4.58h-1.62l.72-9.68Z"/>
      <path class="cls-1" d="m84.36,195.94c0,3.58-2.48,5.14-4.82,5.14-2.62,0-4.64-1.92-4.64-4.98,0-3.24,2.12-5.14,4.8-5.14s4.66,2.02,4.66,4.98Zm-7.68.1c0,2.12,1.22,3.72,2.94,3.72s2.94-1.58,2.94-3.76c0-1.64-.82-3.72-2.9-3.72s-2.98,1.92-2.98,3.76Z"/>
      <path class="cls-1" d="m88.28,191.18v3.9h4.6v-3.9h1.74v9.68h-1.74v-4.38h-4.6v4.38h-1.74v-9.68h1.74Z"/>
      <path class="cls-1" d="m103.98,191.18v1.4h-3.02v8.28h-1.74v-8.28h-3.02v-1.4h7.78Z"/>
      <path class="cls-1" d="m117.86,191.18v9.68h-1.76v-8.28h-4.5v8.28h-1.74v-9.68h8Z"/>
      <path class="cls-1" d="m120.72,194.34c0-1.24-.04-2.24-.08-3.16h1.58l.08,1.66h.04c.72-1.18,1.86-1.88,3.44-1.88,2.34,0,4.1,1.98,4.1,4.92,0,3.48-2.12,5.2-4.4,5.2-1.28,0-2.4-.56-2.98-1.52h-.04v5.26h-1.74v-10.48Zm1.74,2.58c0,.26.04.5.08.72.32,1.22,1.38,2.06,2.64,2.06,1.86,0,2.94-1.52,2.94-3.74,0-1.94-1.02-3.6-2.88-3.6-1.2,0-2.32.86-2.66,2.18-.06.22-.12.48-.12.72v1.66Z"/>
      <path class="cls-1" d="m140.86,195.94c0,3.58-2.48,5.14-4.82,5.14-2.62,0-4.64-1.92-4.64-4.98,0-3.24,2.12-5.14,4.8-5.14s4.66,2.02,4.66,4.98Zm-7.68.1c0,2.12,1.22,3.72,2.94,3.72s2.94-1.58,2.94-3.76c0-1.64-.82-3.72-2.9-3.72s-2.98,1.92-2.98,3.76Z"/>
      <path class="cls-1" d="m143.18,191.18h2.16l1.76,4.88c.24.72.66,1.9.88,2.66h.04c.22-.72.76-2.26,1.14-3.32l1.56-4.22h2.18l.68,9.68h-1.68l-.22-4.62c-.06-1.04-.14-2.28-.18-3.46h-.06c-.26.88-.52,1.66-1.06,3.14l-1.86,4.88h-1.28l-1.72-4.78c-.3-.92-.72-2.32-.96-3.22h-.08c-.04,1.14-.1,2.42-.16,3.48l-.24,4.58h-1.62l.72-9.68Z"/>
      <path class="cls-1" d="m157.56,191.18v3.3c.38-.08.94-.12,1.58-.12,2.08,0,4.18.86,4.18,3.24,0,1.02-.38,1.72-1,2.24-1.06.9-2.62,1.12-3.9,1.12-.98,0-1.88-.06-2.6-.14v-9.64h1.74Zm0,8.46c.34.04.72.08,1.22.08,1.34,0,2.8-.56,2.8-2.06s-1.4-2.04-2.72-2.04c-.5,0-.94.04-1.3.1v3.92Zm8.72-8.46v9.68h-1.74v-9.68h1.74Z"/>
      <path class="cls-1" d="m170.84,191.18v8.3h3.38v-8.3h1.72v8.3h3.38v-8.3h1.74v9.68h-11.94v-9.68h1.72Z"/>
      <path class="cls-1" d="m191.26,191.18v9.68h-1.74v-8.3h-3.32v2.52c0,2.72-.26,4.54-1.52,5.36-.48.38-1.02.6-1.92.6l-.18-1.38c.34-.06.72-.2.96-.4.9-.66,1-2.02,1-4.18v-3.9h6.72Z"/>
      <path class="cls-1" d="m195.11,196.34c.04,2.38,1.56,3.36,3.32,3.36,1.26,0,2.02-.22,2.68-.5l.3,1.26c-.62.28-1.68.6-3.22.6-2.98,0-4.76-1.96-4.76-4.88s1.72-5.22,4.54-5.22c3.16,0,4,2.78,4,4.56,0,.36-.04.64-.06.82h-6.8Zm5.16-1.26c.02-1.12-.46-2.86-2.44-2.86-1.78,0-2.56,1.64-2.7,2.86h5.14Z"/>
      <path class="cls-1" d="m205.86,191.18v3.9h4.6v-3.9h1.74v9.68h-1.74v-4.38h-4.6v4.38h-1.74v-9.68h1.74Z"/>
      <path class="cls-1" d="m216.78,191.18v3.9h4.6v-3.9h1.74v9.68h-1.74v-4.38h-4.6v4.38h-1.74v-9.68h1.74Z"/>
      <path class="cls-1" d="m234.76,195.94c0,3.58-2.48,5.14-4.82,5.14-2.62,0-4.64-1.92-4.64-4.98,0-3.24,2.12-5.14,4.8-5.14s4.66,2.02,4.66,4.98Zm-7.68.1c0,2.12,1.22,3.72,2.94,3.72s2.94-1.58,2.94-3.76c0-1.64-.82-3.72-2.9-3.72s-2.98,1.92-2.98,3.76Z"/>
      <path class="cls-1" d="m242.88,191.18v1.42h-4.2v8.26h-1.74v-9.68h5.94Z"/>
      <path class="cls-1" d="m253.04,195.94c0,3.58-2.48,5.14-4.82,5.14-2.62,0-4.64-1.92-4.64-4.98,0-3.24,2.12-5.14,4.8-5.14s4.66,2.02,4.66,4.98Zm-7.68.1c0,2.12,1.22,3.72,2.94,3.72s2.94-1.58,2.94-3.76c0-1.64-.82-3.72-2.9-3.72s-2.98,1.92-2.98,3.76Z"/>
      <path class="cls-1" d="m268.26,195.94c0,3.58-2.48,5.14-4.82,5.14-2.62,0-4.64-1.92-4.64-4.98,0-3.24,2.12-5.14,4.8-5.14s4.66,2.02,4.66,4.98Zm-7.68.1c0,2.12,1.22,3.72,2.94,3.72s2.94-1.58,2.94-3.76c0-1.64-.82-3.72-2.9-3.72s-2.98,1.92-2.98,3.76Z"/>
      <path class="cls-1" d="m277.8,187.9c-.5.18-1.38.34-2.02.44-1.56.24-2.7.76-3.44,1.82-.62.88-.98,2.18-1.06,3.2h.06c.62-1.4,1.98-2.18,3.36-2.18,2.38,0,4.12,1.7,4.12,4.78s-1.64,5.12-4.48,5.12c-3.4,0-4.52-3.26-4.52-6.48,0-2.2.46-4,1.5-5.36.94-1.34,2.28-1.96,4.16-2.28.78-.12,1.74-.28,2.4-.52l-.08,1.46Zm-3.46,4.58c-1.04,0-1.78.54-2.18,1.32-.32.58-.48,1.28-.48,2.06,0,1.6.78,3.9,2.7,3.9s2.66-1.88,2.66-3.66c0-1.58-.62-3.62-2.7-3.62Z"/>
      <path class="cls-1" d="m289.8,195.94c0,3.58-2.48,5.14-4.82,5.14-2.62,0-4.64-1.92-4.64-4.98,0-3.24,2.12-5.14,4.8-5.14s4.66,2.02,4.66,4.98Zm-7.68.1c0,2.12,1.22,3.72,2.94,3.72s2.94-1.58,2.94-3.76c0-1.64-.82-3.72-2.9-3.72s-2.98,1.92-2.98,3.76Z"/>
      <path class="cls-1" d="m292.01,194.34c0-1.24-.04-2.24-.08-3.16h1.58l.08,1.66h.04c.72-1.18,1.86-1.88,3.44-1.88,2.34,0,4.1,1.98,4.1,4.92,0,3.48-2.12,5.2-4.4,5.2-1.28,0-2.4-.56-2.98-1.52h-.04v5.26h-1.74v-10.48Zm1.74,2.58c0,.26.04.5.08.72.32,1.22,1.38,2.06,2.64,2.06,1.86,0,2.94-1.52,2.94-3.74,0-1.94-1.02-3.6-2.88-3.6-1.2,0-2.32.86-2.66,2.18-.06.22-.12.48-.12.72v1.66Z"/>
      <path class="cls-1" d="m303.83,191.18l2.12,5.72c.22.64.46,1.4.62,1.98h.04c.18-.58.38-1.32.62-2.02l1.92-5.68h1.86l-2.64,6.9c-1.26,3.32-2.12,5.02-3.32,6.06-.86.76-1.72,1.06-2.16,1.14l-.44-1.48c.44-.14,1.02-.42,1.54-.86.48-.38,1.08-1.06,1.48-1.96.08-.18.14-.32.14-.42s-.04-.24-.12-.46l-3.58-8.92h1.92Z"/>
      <path class="cls-1" d="m319.72,191.18v8.36l1,.02-.1,4.38h-1.38l-.08-3.08h-6.7l-.08,3.08h-1.38l-.08-4.38.82-.02c.42-.62.74-1.28.96-1.98.38-1.2.56-2.5.56-3.86v-2.52h6.46Zm-4.9,2.94c0,1.28-.18,2.52-.5,3.6-.2.66-.48,1.26-.78,1.8h4.46v-7h-3.18v1.6Z"/>
      <path class="cls-1" d="m331.5,195.94c0,3.58-2.48,5.14-4.82,5.14-2.62,0-4.64-1.92-4.64-4.98,0-3.24,2.12-5.14,4.8-5.14s4.66,2.02,4.66,4.98Zm-7.68.1c0,2.12,1.22,3.72,2.94,3.72s2.94-1.58,2.94-3.76c0-1.64-.82-3.72-2.9-3.72s-2.98,1.92-2.98,3.76Z"/>
      <path class="cls-1" d="m333.67,191.3c.68-.12,1.94-.22,3.08-.22,1.62,0,4.3.26,4.3,2.42,0,1.2-.92,1.94-2.02,2.18v.04c1.42.2,2.46,1,2.46,2.4,0,2.54-3.2,2.86-5.1,2.86-1.08,0-2.2-.08-2.72-.12v-9.56Zm1.66,8.4c.5.06.86.08,1.42.08,1.18,0,2.94-.28,2.94-1.68s-1.4-1.7-3.08-1.7h-1.28v3.3Zm.02-4.46h1.32c1.3,0,2.64-.38,2.64-1.52,0-.96-.84-1.42-2.6-1.42-.58,0-.94.04-1.36.08v2.86Z"/>
      <path class="cls-1" d="m349.07,200.86l-.14-1.22h-.06c-.54.76-1.58,1.44-2.96,1.44-1.96,0-2.96-1.38-2.96-2.78,0-2.34,2.08-3.62,5.82-3.6v-.2c0-.8-.22-2.24-2.2-2.24-.9,0-1.84.28-2.52.72l-.4-1.16c.8-.52,1.96-.86,3.18-.86,2.96,0,3.68,2.02,3.68,3.96v3.62c0,.84.04,1.66.16,2.32h-1.6Zm-.26-4.94c-1.92-.04-4.1.3-4.1,2.18,0,1.14.76,1.68,1.66,1.68,1.26,0,2.06-.8,2.34-1.62.06-.18.1-.38.1-.56v-1.68Z"/>
      <path class="cls-1" d="m355.05,191.18v3.9h4.6v-3.9h1.74v9.68h-1.74v-4.38h-4.6v4.38h-1.74v-9.68h1.74Z"/>
      <path class="cls-1" d="m365.89,191.18v4.08c0,1.54-.02,2.5-.1,3.88l.06.02c.58-1.18.92-1.86,1.56-2.98l3.02-5h2.06v9.68h-1.68v-4.1c0-1.58.04-2.4.12-3.96h-.06c-.62,1.24-1.04,2.02-1.6,3-.92,1.5-1.98,3.36-3.02,5.06h-2.02v-9.68h1.66Z"/>
      <path class="cls-1" d="m382.49,200.86h-1.74v-4.06h-1.3c-.74,0-1.24.2-1.62.54-.72.58-.98,1.78-1.36,2.72-.12.3-.26.56-.4.8h-1.88c.22-.32.42-.68.6-1.1.42-.94.66-2.2,1.52-2.92.3-.26.66-.48,1.1-.56v-.06c-1.26-.14-2.56-.92-2.56-2.4,0-1,.54-1.68,1.28-2.1.8-.46,1.98-.66,3.24-.66,1.16,0,2.28.1,3.12.2v9.6Zm-1.74-8.52c-.44-.06-.84-.1-1.46-.1-1.2,0-2.62.34-2.62,1.68,0,1.24,1.54,1.68,2.58,1.68h1.5v-3.26Z"/>
      <path class="cls-1" d="m32.2,234.64c-.02-1.18.94-2.1,2.1-2.1s2.1.92,2.1,2.08-.92,2.1-2.1,2.1-2.1-.9-2.1-2.08Z"/>
      <path class="cls-1" d="m62.36,233.94c-.1-1.88-.22-4.14-.2-5.82h-.06c-.46,1.58-1.02,3.26-1.7,5.12l-2.38,6.54h-1.32l-2.18-6.42c-.64-1.9-1.18-3.64-1.56-5.24h-.04c-.04,1.68-.14,3.94-.26,5.96l-.36,5.78h-1.66l.94-13.48h2.22l2.3,6.52c.56,1.66,1.02,3.14,1.36,4.54h.06c.34-1.36.82-2.84,1.42-4.54l2.4-6.52h2.22l.84,13.48h-1.7l-.34-5.92Z"/>
      <path class="cls-1" d="m75.78,234.94c0,3.58-2.48,5.14-4.82,5.14-2.62,0-4.64-1.92-4.64-4.98,0-3.24,2.12-5.14,4.8-5.14s4.66,2.02,4.66,4.98Zm-7.68.1c0,2.12,1.22,3.72,2.94,3.72s2.94-1.58,2.94-3.76c0-1.64-.82-3.72-2.9-3.72s-2.98,1.92-2.98,3.76Z"/>
      <path class="cls-1" d="m79.7,230.18v3.9h4.6v-3.9h1.74v9.68h-1.74v-4.38h-4.6v4.38h-1.74v-9.68h1.74Z"/>
      <path class="cls-1" d="m95.4,230.18v1.4h-3.02v8.28h-1.74v-8.28h-3.02v-1.4h7.78Z"/>
      <path class="cls-1" d="m102.16,239.86l-.14-1.22h-.06c-.54.76-1.58,1.44-2.96,1.44-1.96,0-2.96-1.38-2.96-2.78,0-2.34,2.08-3.62,5.82-3.6v-.2c0-.8-.22-2.24-2.2-2.24-.9,0-1.84.28-2.52.72l-.4-1.16c.8-.52,1.96-.86,3.18-.86,2.96,0,3.68,2.02,3.68,3.96v3.62c0,.84.04,1.66.16,2.32h-1.6Zm-.26-4.94c-1.92-.04-4.1.3-4.1,2.18,0,1.14.76,1.68,1.66,1.68,1.26,0,2.06-.8,2.34-1.62.06-.18.1-.38.1-.56v-1.68Z"/>
      <path class="cls-1" d="m107.26,230.18l3.2,4.22h.36v-4.22h1.68v4.22h.34l3.2-4.22h2.02l-3.82,4.4c1.46.16,2.32,1.02,2.9,2.56.34.94.66,1.96,1.06,2.72h-1.76c-.32-.58-.6-1.38-.88-2.22-.6-1.58-1.5-2.06-2.76-2.06h-.3v4.28h-1.68v-4.28h-.32c-1.36,0-2.18.5-2.78,2.08-.32.84-.58,1.6-.92,2.2h-1.7c.4-.78.72-1.8,1.06-2.7.6-1.56,1.46-2.42,2.92-2.58l-3.84-4.4h2.02Z"/>
      <path class="cls-1" d="m118.64,242.32c.44-1.18.98-3.32,1.2-4.78l1.96-.2c-.46,1.7-1.34,3.92-1.9,4.86l-1.26.12Z"/>
      <path class="cls-1" d="m134.7,230.18v1.4h-3.02v8.28h-1.74v-8.28h-3.02v-1.4h7.78Z"/>
      <path class="cls-1" d="m136.96,235.34c.04,2.38,1.56,3.36,3.32,3.36,1.26,0,2.02-.22,2.68-.5l.3,1.26c-.62.28-1.68.6-3.22.6-2.98,0-4.76-1.96-4.76-4.88s1.72-5.22,4.54-5.22c3.16,0,4,2.78,4,4.56,0,.36-.04.64-.06.82h-6.8Zm5.16-1.26c.02-1.12-.46-2.86-2.44-2.86-1.78,0-2.56,1.64-2.7,2.86h5.14Z"/>
      <path class="cls-1" d="m146.74,230.18l1.38,2.08c.36.54.66,1.04.98,1.58h.06c.32-.58.64-1.08.96-1.6l1.36-2.06h1.9l-3.3,4.68,3.4,5h-2l-1.42-2.18c-.38-.56-.7-1.1-1.04-1.68h-.04c-.32.58-.66,1.1-1.02,1.68l-1.4,2.18h-1.94l3.44-4.94-3.28-4.74h1.96Z"/>
      <path class="cls-1" d="m156.88,230.18v3.9h4.6v-3.9h1.74v9.68h-1.74v-4.38h-4.6v4.38h-1.74v-9.68h1.74Z"/>
      <path class="cls-1" d="m167.72,230.18v4.08c0,1.54-.02,2.5-.1,3.88l.06.02c.58-1.18.92-1.86,1.56-2.98l3.02-5h2.06v9.68h-1.68v-4.1c0-1.58.04-2.4.12-3.96h-.06c-.62,1.24-1.04,2.02-1.6,3-.92,1.5-1.98,3.36-3.02,5.06h-2.02v-9.68h1.66Z"/>
      <path class="cls-1" d="m178.56,230.18v3.18c0,1.22.46,2.06,2,2.06.76,0,1.54-.28,2.08-.68v-4.56h1.74v9.68h-1.74v-3.88h-.04c-.66.44-1.7.74-2.62.74-1.84,0-3.18-.94-3.18-3.16v-3.38h1.76Z"/>
      <path class="cls-1" d="m188.24,235.34c.04,2.38,1.56,3.36,3.32,3.36,1.26,0,2.02-.22,2.68-.5l.3,1.26c-.62.28-1.68.6-3.22.6-2.98,0-4.76-1.96-4.76-4.88s1.72-5.22,4.54-5.22c3.16,0,4,2.78,4,4.56,0,.36-.04.64-.06.82h-6.8Zm5.16-1.26c.02-1.12-.46-2.86-2.44-2.86-1.78,0-2.56,1.64-2.7,2.86h5.14Z"/>
      <path class="cls-1" d="m204.18,239.5c-.46.24-1.48.56-2.78.56-2.92,0-4.82-1.98-4.82-4.94s2.04-5.14,5.2-5.14c1.04,0,1.96.26,2.44.5l-.4,1.36c-.42-.24-1.08-.46-2.04-.46-2.22,0-3.42,1.64-3.42,3.66,0,2.24,1.44,3.62,3.36,3.62,1,0,1.66-.26,2.16-.48l.3,1.32Z"/>
      <path class="cls-1" d="m207.98,230.18v4.2h.42l3.64-4.2h2.14l-4.22,4.38c1.56.16,2.5,1.2,3.26,2.94.26.64.6,1.58,1.04,2.36h-1.84c-.26-.42-.6-1.18-.9-1.98-.66-1.56-1.56-2.28-3.2-2.28h-.34v4.26h-1.74v-9.68h1.74Z"/>
      <path class="cls-1" d="m224.46,234.94c0,3.58-2.48,5.14-4.82,5.14-2.62,0-4.64-1.92-4.64-4.98,0-3.24,2.12-5.14,4.8-5.14s4.66,2.02,4.66,4.98Zm-7.68.1c0,2.12,1.22,3.72,2.94,3.72s2.94-1.58,2.94-3.76c0-1.64-.82-3.72-2.9-3.72s-2.98,1.92-2.98,3.76Z"/>
      <path class="cls-1" d="m227.66,235.34c.04,2.38,1.56,3.36,3.32,3.36,1.26,0,2.02-.22,2.68-.5l.3,1.26c-.62.28-1.68.6-3.22.6-2.98,0-4.76-1.96-4.76-4.88s1.72-5.22,4.54-5.22c3.16,0,4,2.78,4,4.56,0,.36-.04.64-.06.82h-6.8Zm5.16-1.26c.02-1.12-.46-2.86-2.44-2.86-1.78,0-2.56,1.64-2.7,2.86h5.14Z"/>
      <path class="cls-1" d="m249.7,234.94c0,3.58-2.48,5.14-4.82,5.14-2.62,0-4.64-1.92-4.64-4.98,0-3.24,2.12-5.14,4.8-5.14s4.66,2.02,4.66,4.98Zm-7.68.1c0,2.12,1.22,3.72,2.94,3.72s2.94-1.58,2.94-3.76c0-1.64-.82-3.72-2.9-3.72s-2.98,1.92-2.98,3.76Z"/>
      <path class="cls-1" d="m259.24,226.9c-.5.18-1.38.34-2.02.44-1.56.24-2.7.76-3.44,1.82-.62.88-.98,2.18-1.06,3.2h.06c.62-1.4,1.98-2.18,3.36-2.18,2.38,0,4.12,1.7,4.12,4.78s-1.64,5.12-4.48,5.12c-3.4,0-4.52-3.26-4.52-6.48,0-2.2.46-4,1.5-5.36.94-1.34,2.28-1.96,4.16-2.28.78-.12,1.74-.28,2.4-.52l-.08,1.46Zm-3.46,4.58c-1.04,0-1.78.54-2.18,1.32-.32.58-.48,1.28-.48,2.06,0,1.6.78,3.9,2.7,3.9s2.66-1.88,2.66-3.66c0-1.58-.62-3.62-2.7-3.62Z"/>
      <path class="cls-1" d="m269.38,239.5c-.46.24-1.48.56-2.78.56-2.92,0-4.82-1.98-4.82-4.94s2.04-5.14,5.2-5.14c1.04,0,1.96.26,2.44.5l-.4,1.36c-.42-.24-1.08-.46-2.04-.46-2.22,0-3.42,1.64-3.42,3.66,0,2.24,1.44,3.62,3.36,3.62,1,0,1.66-.26,2.16-.48l.3,1.32Z"/>
      <path class="cls-1" d="m279.12,230.18v9.68h-1.74v-8.3h-3.32v2.52c0,2.72-.26,4.54-1.52,5.36-.48.38-1.02.6-1.92.6l-.18-1.38c.34-.06.72-.2.96-.4.9-.66,1-2.02,1-4.18v-3.9h6.72Z"/>
      <path class="cls-1" d="m282.56,230.18l2.12,5.72c.22.64.46,1.4.62,1.98h.04c.18-.58.38-1.32.62-2.02l1.92-5.68h1.86l-2.64,6.9c-1.26,3.32-2.12,5.02-3.32,6.06-.86.76-1.72,1.06-2.16,1.14l-.44-1.48c.44-.14,1.02-.42,1.54-.86.48-.38,1.08-1.06,1.48-1.96.08-.18.14-.32.14-.42s-.04-.24-.12-.46l-3.58-8.92h1.92Z"/>
      <path class="cls-1" d="m292.36,230.18l3.2,4.22h.36v-4.22h1.68v4.22h.34l3.2-4.22h2.02l-3.82,4.4c1.46.16,2.32,1.02,2.9,2.56.34.94.66,1.96,1.06,2.72h-1.76c-.32-.58-.6-1.38-.88-2.22-.6-1.58-1.5-2.06-2.76-2.06h-.3v4.28h-1.68v-4.28h-.32c-1.36,0-2.18.5-2.78,2.08-.32.84-.58,1.6-.92,2.2h-1.7c.4-.78.72-1.8,1.06-2.7.6-1.56,1.46-2.42,2.92-2.58l-3.84-4.4h2.02Z"/>
      <path class="cls-1" d="m306.49,230.18v4.08c0,1.54-.02,2.5-.1,3.88l.06.02c.58-1.18.92-1.86,1.56-2.98l3.02-5h2.06v9.68h-1.68v-4.1c0-1.58.04-2.4.12-3.96h-.06c-.62,1.24-1.04,2.02-1.6,3-.92,1.5-1.98,3.36-3.02,5.06h-2.02v-9.68h1.66Z"/>
      <path class="cls-1" d="m315.91,230.3c.68-.12,1.94-.22,3.08-.22,1.62,0,4.3.26,4.3,2.42,0,1.2-.92,1.94-2.02,2.18v.04c1.42.2,2.46,1,2.46,2.4,0,2.54-3.2,2.86-5.1,2.86-1.08,0-2.2-.08-2.72-.12v-9.56Zm1.66,8.4c.5.06.86.08,1.42.08,1.18,0,2.94-.28,2.94-1.68s-1.4-1.7-3.08-1.7h-1.28v3.3Zm.02-4.46h1.32c1.3,0,2.64-.38,2.64-1.52,0-.96-.84-1.42-2.6-1.42-.58,0-.94.04-1.36.08v2.86Z"/>
      <path class="cls-1" d="m331.32,239.86l-.14-1.22h-.06c-.54.76-1.58,1.44-2.96,1.44-1.96,0-2.96-1.38-2.96-2.78,0-2.34,2.08-3.62,5.82-3.6v-.2c0-.8-.22-2.24-2.2-2.24-.9,0-1.84.28-2.52.72l-.4-1.16c.8-.52,1.96-.86,3.18-.86,2.96,0,3.68,2.02,3.68,3.96v3.62c0,.84.04,1.66.16,2.32h-1.6Zm-.26-4.94c-1.92-.04-4.1.3-4.1,2.18,0,1.14.76,1.68,1.66,1.68,1.26,0,2.06-.8,2.34-1.62.06-.18.1-.38.1-.56v-1.68Z"/>
      <path class="cls-1" d="m337.29,230.18v3.9h4.6v-3.9h1.74v9.68h-1.74v-4.38h-4.6v4.38h-1.74v-9.68h1.74Z"/>
      <path class="cls-1" d="m348.13,230.18v4.08c0,1.54-.02,2.5-.1,3.88l.06.02c.58-1.18.92-1.86,1.56-2.98l3.02-5h2.06v9.68h-1.68v-4.1c0-1.58.04-2.4.12-3.96h-.06c-.62,1.24-1.04,2.02-1.6,3-.92,1.5-1.98,3.36-3.02,5.06h-2.02v-9.68h1.66Z"/>
      <path class="cls-1" d="m358.57,235.34c.04,2.38,1.56,3.36,3.32,3.36,1.26,0,2.02-.22,2.68-.5l.3,1.26c-.62.28-1.68.6-3.22.6-2.98,0-4.76-1.96-4.76-4.88s1.72-5.22,4.54-5.22c3.16,0,4,2.78,4,4.56,0,.36-.04.64-.06.82h-6.8Zm5.16-1.26c.02-1.12-.46-2.86-2.44-2.86-1.78,0-2.56,1.64-2.7,2.86h5.14Z"/>
      <path class="cls-1" d="m366.47,242.32c.44-1.18.98-3.32,1.2-4.78l1.96-.2c-.46,1.7-1.34,3.92-1.9,4.86l-1.26.12Z"/>
      <path class="cls-1" d="m41.82,267.34h4.88c-.16-1.66-1.18-3.02-3.34-3.02-1.02,0-1.8.3-2.32.54l-.38-1.14c.84-.48,1.96-.76,2.98-.76,1.4,0,2.66.48,3.52,1.38.82.86,1.32,2.14,1.32,3.72,0,2.82-1.86,5.02-5.14,5.02-1.04,0-2.04-.26-2.82-.66l.34-1.26c.46.2,1.28.52,2.42.52,1.94,0,3.24-1.22,3.4-3.14h-4.86v-1.2Z"/>
      <path class="cls-1" d="m52.44,263.18v4.2h.42l3.64-4.2h2.14l-4.22,4.38c1.56.16,2.5,1.2,3.26,2.94.26.64.6,1.58,1.04,2.36h-1.84c-.26-.42-.6-1.18-.9-1.98-.66-1.56-1.56-2.28-3.2-2.28h-.34v4.26h-1.74v-9.68h1.74Z"/>
      <path class="cls-1" d="m67.06,272.5c-.46.24-1.48.56-2.78.56-2.92,0-4.82-1.98-4.82-4.94s2.04-5.14,5.2-5.14c1.04,0,1.96.26,2.44.5l-.4,1.36c-.42-.24-1.08-.46-2.04-.46-2.22,0-3.42,1.64-3.42,3.66,0,2.24,1.44,3.62,3.36,3.62,1,0,1.66-.26,2.16-.48l.3,1.32Z"/>
      <path class="cls-1" d="m77.08,263.18v9.68h-1.76v-8.28h-4.5v8.28h-1.74v-9.68h8Z"/>
      <path class="cls-1" d="m87.28,263.18v9.68h-1.74v-8.3h-3.32v2.52c0,2.72-.26,4.54-1.52,5.36-.48.38-1.02.6-1.92.6l-.18-1.38c.34-.06.72-.2.96-.4.9-.66,1-2.02,1-4.18v-3.9h6.72Z"/>
      <path class="cls-1" d="m90.72,263.18l2.12,5.72c.22.64.46,1.4.62,1.98h.04c.18-.58.38-1.32.62-2.02l1.92-5.68h1.86l-2.64,6.9c-1.26,3.32-2.12,5.02-3.32,6.06-.86.76-1.72,1.06-2.16,1.14l-.44-1.48c.44-.14,1.02-.42,1.54-.86.48-.38,1.08-1.06,1.48-1.96.08-.18.14-.32.14-.42s-.04-.24-.12-.46l-3.58-8.92h1.92Z"/>
      <path class="cls-1" d="m104.72,272.86l-.14-1.22h-.06c-.54.76-1.58,1.44-2.96,1.44-1.96,0-2.96-1.38-2.96-2.78,0-2.34,2.08-3.62,5.82-3.6v-.2c0-.8-.22-2.24-2.2-2.24-.9,0-1.84.28-2.52.72l-.4-1.16c.8-.52,1.96-.86,3.18-.86,2.96,0,3.68,2.02,3.68,3.96v3.62c0,.84.04,1.66.16,2.32h-1.6Zm-.26-4.94c-1.92-.04-4.1.3-4.1,2.18,0,1.14.76,1.68,1.66,1.68,1.26,0,2.06-.8,2.34-1.62.06-.18.1-.38.1-.56v-1.68Z"/>
      <path class="cls-1" d="m115.4,263.18v1.4h-3.02v8.28h-1.74v-8.28h-3.02v-1.4h7.78Z"/>
      <path class="cls-1" d="m122.16,272.86l-.14-1.22h-.06c-.54.76-1.58,1.44-2.96,1.44-1.96,0-2.96-1.38-2.96-2.78,0-2.34,2.08-3.62,5.82-3.6v-.2c0-.8-.22-2.24-2.2-2.24-.9,0-1.84.28-2.52.72l-.4-1.16c.8-.52,1.96-.86,3.18-.86,2.96,0,3.68,2.02,3.68,3.96v3.62c0,.84.04,1.66.16,2.32h-1.6Zm-.26-4.94c-1.92-.04-4.1.3-4.1,2.18,0,1.14.76,1.68,1.66,1.68,1.26,0,2.06-.8,2.34-1.62.06-.18.1-.38.1-.56v-1.68Z"/>
      <path class="cls-1" d="m128.14,263.18v8.3h4.46v-8.3h1.74v8.36l1,.02-.1,4.38h-1.36l-.08-3.08h-7.4v-9.68h1.74Z"/>
      <path class="cls-1" d="m139.06,263.18v4.08c0,1.54-.02,2.5-.1,3.88l.06.02c.58-1.18.92-1.86,1.56-2.98l3.02-5h2.06v9.68h-1.68v-4.1c0-1.58.04-2.4.12-3.96h-.06c-.62,1.24-1.04,2.02-1.6,3-.92,1.5-1.98,3.36-3.02,5.06h-2.02v-9.68h1.66Z"/>
      <path class="cls-1" d="m155.66,272.86h-1.74v-4.06h-1.3c-.74,0-1.24.2-1.62.54-.72.58-.98,1.78-1.36,2.72-.12.3-.26.56-.4.8h-1.88c.22-.32.42-.68.6-1.1.42-.94.66-2.2,1.52-2.92.3-.26.66-.48,1.1-.56v-.06c-1.26-.14-2.56-.92-2.56-2.4,0-1,.54-1.68,1.28-2.1.8-.46,1.98-.66,3.24-.66,1.16,0,2.28.1,3.12.2v9.6Zm-1.74-8.52c-.44-.06-.84-.1-1.46-.1-1.2,0-2.62.34-2.62,1.68,0,1.24,1.54,1.68,2.58,1.68h1.5v-3.26Z"/>
      <path class="cls-1" d="m164.38,263.18v4.08c0,1.54-.02,2.5-.1,3.88l.06.02c.58-1.18.92-1.86,1.56-2.98l3.02-5h2.06v9.68h-1.68v-4.1c0-1.58.04-2.4.12-3.96h-.06c-.62,1.24-1.04,2.02-1.6,3-.92,1.5-1.98,3.36-3.02,5.06h-2.02v-9.68h1.66Z"/>
      <path class="cls-1" d="m178.07,266.34c0-1.24-.04-2.24-.08-3.16h1.58l.08,1.66h.04c.72-1.18,1.86-1.88,3.44-1.88,2.34,0,4.1,1.98,4.1,4.92,0,3.48-2.12,5.2-4.4,5.2-1.28,0-2.4-.56-2.98-1.52h-.04v5.26h-1.74v-10.48Zm1.74,2.58c0,.26.04.5.08.72.32,1.22,1.38,2.06,2.64,2.06,1.86,0,2.94-1.52,2.94-3.74,0-1.94-1.02-3.6-2.88-3.6-1.2,0-2.32.86-2.66,2.18-.06.22-.12.48-.12.72v1.66Z"/>
      <path class="cls-1" d="m190.44,268.34c.04,2.38,1.56,3.36,3.32,3.36,1.26,0,2.02-.22,2.68-.5l.3,1.26c-.62.28-1.68.6-3.22.6-2.98,0-4.76-1.96-4.76-4.88s1.72-5.22,4.54-5.22c3.16,0,4,2.78,4,4.56,0,.36-.04.64-.06.82h-6.8Zm5.16-1.26c.02-1.12-.46-2.86-2.44-2.86-1.78,0-2.56,1.64-2.7,2.86h5.14Z"/>
      <path class="cls-1" d="m199.57,263.18h2.16l1.76,4.88c.24.72.66,1.9.88,2.66h.04c.22-.72.76-2.26,1.14-3.32l1.56-4.22h2.18l.68,9.68h-1.68l-.22-4.62c-.06-1.04-.14-2.28-.18-3.46h-.06c-.26.88-.52,1.66-1.06,3.14l-1.86,4.88h-1.28l-1.72-4.78c-.3-.92-.72-2.32-.96-3.22h-.08c-.04,1.14-.1,2.42-.16,3.48l-.24,4.58h-1.62l.72-9.68Z"/>
      <path class="cls-1" d="m221.02,267.94c0,3.58-2.48,5.14-4.82,5.14-2.62,0-4.64-1.92-4.64-4.98,0-3.24,2.12-5.14,4.8-5.14s4.66,2.02,4.66,4.98Zm-7.68.1c0,2.12,1.22,3.72,2.94,3.72s2.94-1.58,2.94-3.76c0-1.64-.82-3.72-2.9-3.72s-2.98,1.92-2.98,3.76Z"/>
      <path class="cls-1" d="m224.93,263.18v3.9h4.6v-3.9h1.74v9.68h-1.74v-4.38h-4.6v4.38h-1.74v-9.68h1.74Z"/>
      <path class="cls-1" d="m240.64,263.18v1.4h-3.02v8.28h-1.74v-8.28h-3.02v-1.4h7.78Z"/>
      <path class="cls-1" d="m49.38,296.18v9.68h-1.76v-8.28h-4.5v8.28h-1.74v-9.68h8Z"/>
      <path class="cls-1" d="m52.24,299.34c0-1.24-.04-2.24-.08-3.16h1.58l.08,1.66h.04c.72-1.18,1.86-1.88,3.44-1.88,2.34,0,4.1,1.98,4.1,4.92,0,3.48-2.12,5.2-4.4,5.2-1.28,0-2.4-.56-2.98-1.52h-.04v5.26h-1.74v-10.48Zm1.74,2.58c0,.26.04.5.08.72.32,1.22,1.38,2.06,2.64,2.06,1.86,0,2.94-1.52,2.94-3.74,0-1.94-1.02-3.6-2.88-3.6-1.2,0-2.32.86-2.66,2.18-.06.22-.12.48-.12.72v1.66Z"/>
      <path class="cls-1" d="m72.38,300.94c0,3.58-2.48,5.14-4.82,5.14-2.62,0-4.64-1.92-4.64-4.98,0-3.24,2.12-5.14,4.8-5.14s4.66,2.02,4.66,4.98Zm-7.68.1c0,2.12,1.22,3.72,2.94,3.72s2.94-1.58,2.94-3.76c0-1.64-.82-3.72-2.9-3.72s-2.98,1.92-2.98,3.76Z"/>
      <path class="cls-1" d="m74.7,296.18h2.16l1.76,4.88c.24.72.66,1.9.88,2.66h.04c.22-.72.76-2.26,1.14-3.32l1.56-4.22h2.18l.68,9.68h-1.68l-.22-4.62c-.06-1.04-.14-2.28-.18-3.46h-.06c-.26.88-.52,1.66-1.06,3.14l-1.86,4.88h-1.28l-1.72-4.78c-.3-.92-.72-2.32-.96-3.22h-.08c-.04,1.14-.1,2.42-.16,3.48l-.24,4.58h-1.62l.72-9.68Z"/>
      <path class="cls-1" d="m89.08,296.18v3.3c.38-.08.94-.12,1.58-.12,2.08,0,4.18.86,4.18,3.24,0,1.02-.38,1.72-1,2.24-1.06.9-2.62,1.12-3.9,1.12-.98,0-1.88-.06-2.6-.14v-9.64h1.74Zm0,8.46c.34.04.72.08,1.22.08,1.34,0,2.8-.56,2.8-2.06s-1.4-2.04-2.72-2.04c-.5,0-.94.04-1.3.1v3.92Zm8.72-8.46v9.68h-1.74v-9.68h1.74Z"/>
      <path class="cls-1" d="m102.36,296.18v8.3h3.38v-8.3h1.72v8.3h3.38v-8.3h1.74v9.68h-11.94v-9.68h1.72Z"/>
      <path class="cls-1" d="m122.78,296.18v9.68h-1.74v-8.3h-3.32v2.52c0,2.72-.26,4.54-1.52,5.36-.48.38-1.02.6-1.92.6l-.18-1.38c.34-.06.72-.2.96-.4.9-.66,1-2.02,1-4.18v-3.9h6.72Z"/>
      <path class="cls-1" d="m126.64,301.34c.04,2.38,1.56,3.36,3.32,3.36,1.26,0,2.02-.22,2.68-.5l.3,1.26c-.62.28-1.68.6-3.22.6-2.98,0-4.76-1.96-4.76-4.88s1.72-5.22,4.54-5.22c3.16,0,4,2.78,4,4.56,0,.36-.04.64-.06.82h-6.8Zm5.16-1.26c.02-1.12-.46-2.86-2.44-2.86-1.78,0-2.56,1.64-2.7,2.86h5.14Z"/>
      <path class="cls-1" d="m137.38,296.18v3.9h4.6v-3.9h1.74v9.68h-1.74v-4.38h-4.6v4.38h-1.74v-9.68h1.74Z"/>
      <path class="cls-1" d="m148.3,296.18v3.9h4.6v-3.9h1.74v9.68h-1.74v-4.38h-4.6v4.38h-1.74v-9.68h1.74Z"/>
      <path class="cls-1" d="m166.28,300.94c0,3.58-2.48,5.14-4.82,5.14-2.62,0-4.64-1.92-4.64-4.98,0-3.24,2.12-5.14,4.8-5.14s4.66,2.02,4.66,4.98Zm-7.68.1c0,2.12,1.22,3.72,2.94,3.72s2.94-1.58,2.94-3.76c0-1.64-.82-3.72-2.9-3.72s-2.98,1.92-2.98,3.76Z"/>
      <path class="cls-1" d="m174.4,296.18v1.42h-4.2v8.26h-1.74v-9.68h5.94Z"/>
      <path class="cls-1" d="m184.56,300.94c0,3.58-2.48,5.14-4.82,5.14-2.62,0-4.64-1.92-4.64-4.98,0-3.24,2.12-5.14,4.8-5.14s4.66,2.02,4.66,4.98Zm-7.68.1c0,2.12,1.22,3.72,2.94,3.72s2.94-1.58,2.94-3.76c0-1.64-.82-3.72-2.9-3.72s-2.98,1.92-2.98,3.76Z"/>
      <path class="cls-1" d="m199.78,300.94c0,3.58-2.48,5.14-4.82,5.14-2.62,0-4.64-1.92-4.64-4.98,0-3.24,2.12-5.14,4.8-5.14s4.66,2.02,4.66,4.98Zm-7.68.1c0,2.12,1.22,3.72,2.94,3.72s2.94-1.58,2.94-3.76c0-1.64-.82-3.72-2.9-3.72s-2.98,1.92-2.98,3.76Z"/>
      <path class="cls-1" d="m209.32,292.9c-.5.18-1.38.34-2.02.44-1.56.24-2.7.76-3.44,1.82-.62.88-.98,2.18-1.06,3.2h.06c.62-1.4,1.98-2.18,3.36-2.18,2.38,0,4.12,1.7,4.12,4.78s-1.64,5.12-4.48,5.12c-3.4,0-4.52-3.26-4.52-6.48,0-2.2.46-4,1.5-5.36.94-1.34,2.28-1.96,4.16-2.28.78-.12,1.74-.28,2.4-.52l-.08,1.46Zm-3.46,4.58c-1.04,0-1.78.54-2.18,1.32-.32.58-.48,1.28-.48,2.06,0,1.6.78,3.9,2.7,3.9s2.66-1.88,2.66-3.66c0-1.58-.62-3.62-2.7-3.62Z"/>
      <path class="cls-1" d="m221.32,300.94c0,3.58-2.48,5.14-4.82,5.14-2.62,0-4.64-1.92-4.64-4.98,0-3.24,2.12-5.14,4.8-5.14s4.66,2.02,4.66,4.98Zm-7.68.1c0,2.12,1.22,3.72,2.94,3.72s2.94-1.58,2.94-3.76c0-1.64-.82-3.72-2.9-3.72s-2.98,1.92-2.98,3.76Z"/>
      <path class="cls-1" d="m223.53,299.34c0-1.24-.04-2.24-.08-3.16h1.58l.08,1.66h.04c.72-1.18,1.86-1.88,3.44-1.88,2.34,0,4.1,1.98,4.1,4.92,0,3.48-2.12,5.2-4.4,5.2-1.28,0-2.4-.56-2.98-1.52h-.04v5.26h-1.74v-10.48Zm1.74,2.58c0,.26.04.5.08.72.32,1.22,1.38,2.06,2.64,2.06,1.86,0,2.94-1.52,2.94-3.74,0-1.94-1.02-3.6-2.88-3.6-1.2,0-2.32.86-2.66,2.18-.06.22-.12.48-.12.72v1.66Z"/>
      <path class="cls-1" d="m235.36,296.18l2.12,5.72c.22.64.46,1.4.62,1.98h.04c.18-.58.38-1.32.62-2.02l1.92-5.68h1.86l-2.64,6.9c-1.26,3.32-2.12,5.02-3.32,6.06-.86.76-1.72,1.06-2.16,1.14l-.44-1.48c.44-.14,1.02-.42,1.54-.86.48-.38,1.08-1.06,1.48-1.96.08-.18.14-.32.14-.42s-.04-.24-.12-.46l-3.58-8.92h1.92Z"/>
      <path class="cls-1" d="m251.24,296.18v8.36l1,.02-.1,4.38h-1.38l-.08-3.08h-6.7l-.08,3.08h-1.38l-.08-4.38.82-.02c.42-.62.74-1.28.96-1.98.38-1.2.56-2.5.56-3.86v-2.52h6.46Zm-4.9,2.94c0,1.28-.18,2.52-.5,3.6-.2.66-.48,1.26-.78,1.8h4.46v-7h-3.18v1.6Z"/>
      <path class="cls-1" d="m263.02,300.94c0,3.58-2.48,5.14-4.82,5.14-2.62,0-4.64-1.92-4.64-4.98,0-3.24,2.12-5.14,4.8-5.14s4.66,2.02,4.66,4.98Zm-7.68.1c0,2.12,1.22,3.72,2.94,3.72s2.94-1.58,2.94-3.76c0-1.64-.82-3.72-2.9-3.72s-2.98,1.92-2.98,3.76Z"/>
      <path class="cls-1" d="m265.2,296.3c.68-.12,1.94-.22,3.08-.22,1.62,0,4.3.26,4.3,2.42,0,1.2-.92,1.94-2.02,2.18v.04c1.42.2,2.46,1,2.46,2.4,0,2.54-3.2,2.86-5.1,2.86-1.08,0-2.2-.08-2.72-.12v-9.56Zm1.66,8.4c.5.06.86.08,1.42.08,1.18,0,2.94-.28,2.94-1.68s-1.4-1.7-3.08-1.7h-1.28v3.3Zm.02-4.46h1.32c1.3,0,2.64-.38,2.64-1.52,0-.96-.84-1.42-2.6-1.42-.58,0-.94.04-1.36.08v2.86Z"/>
      <path class="cls-1" d="m280.6,305.86l-.14-1.22h-.06c-.54.76-1.58,1.44-2.96,1.44-1.96,0-2.96-1.38-2.96-2.78,0-2.34,2.08-3.62,5.82-3.6v-.2c0-.8-.22-2.24-2.2-2.24-.9,0-1.84.28-2.52.72l-.4-1.16c.8-.52,1.96-.86,3.18-.86,2.96,0,3.68,2.02,3.68,3.96v3.62c0,.84.04,1.66.16,2.32h-1.6Zm-.26-4.94c-1.92-.04-4.1.3-4.1,2.18,0,1.14.76,1.68,1.66,1.68,1.26,0,2.06-.8,2.34-1.62.06-.18.1-.38.1-.56v-1.68Z"/>
      <path class="cls-1" d="m286.57,296.18v3.9h4.6v-3.9h1.74v9.68h-1.74v-4.38h-4.6v4.38h-1.74v-9.68h1.74Z"/>
      <path class="cls-1" d="m297.41,296.18v4.08c0,1.54-.02,2.5-.1,3.88l.06.02c.58-1.18.92-1.86,1.56-2.98l3.02-5h2.06v9.68h-1.68v-4.1c0-1.58.04-2.4.12-3.96h-.06c-.62,1.24-1.04,2.02-1.6,3-.92,1.5-1.98,3.36-3.02,5.06h-2.02v-9.68h1.66Z"/>
      <path class="cls-1" d="m314.02,305.86h-1.74v-4.06h-1.3c-.74,0-1.24.2-1.62.54-.72.58-.98,1.78-1.36,2.72-.12.3-.26.56-.4.8h-1.88c.22-.32.42-.68.6-1.1.42-.94.66-2.2,1.52-2.92.3-.26.66-.48,1.1-.56v-.06c-1.26-.14-2.56-.92-2.56-2.4,0-1,.54-1.68,1.28-2.1.8-.46,1.98-.66,3.24-.66,1.16,0,2.28.1,3.12.2v9.6Zm-1.74-8.52c-.44-.06-.84-.1-1.46-.1-1.2,0-2.62.34-2.62,1.68,0,1.24,1.54,1.68,2.58,1.68h1.5v-3.26Z"/>
      <path class="cls-1" d="m32.2,339.64c-.02-1.18.94-2.1,2.1-2.1s2.1.92,2.1,2.08-.92,2.1-2.1,2.1-2.1-.9-2.1-2.08Z"/>
      <path class="cls-1" d="m53.56,332.86h-4.1v-1.48h9.98v1.48h-4.12v12h-1.76v-12Z"/>
      <path class="cls-1" d="m60.02,340.34c.04,2.38,1.56,3.36,3.32,3.36,1.26,0,2.02-.22,2.68-.5l.3,1.26c-.62.28-1.68.6-3.22.6-2.98,0-4.76-1.96-4.76-4.88s1.72-5.22,4.54-5.22c3.16,0,4,2.78,4,4.56,0,.36-.04.64-.06.82h-6.8Zm5.16-1.26c.02-1.12-.46-2.86-2.44-2.86-1.78,0-2.56,1.64-2.7,2.86h5.14Z"/>
      <path class="cls-1" d="m69.8,335.18l1.38,2.08c.36.54.66,1.04.98,1.58h.06c.32-.58.64-1.08.96-1.6l1.36-2.06h1.9l-3.3,4.68,3.4,5h-2l-1.42-2.18c-.38-.56-.7-1.1-1.04-1.68h-.04c-.32.58-.66,1.1-1.02,1.68l-1.4,2.18h-1.94l3.44-4.94-3.28-4.74h1.96Z"/>
      <path class="cls-1" d="m79.94,335.18v3.9h4.6v-3.9h1.74v9.68h-1.74v-4.38h-4.6v4.38h-1.74v-9.68h1.74Z"/>
      <path class="cls-1" d="m90.78,335.18v4.08c0,1.54-.02,2.5-.1,3.88l.06.02c.58-1.18.92-1.86,1.56-2.98l3.02-5h2.06v9.68h-1.68v-4.1c0-1.58.04-2.4.12-3.96h-.06c-.62,1.24-1.04,2.02-1.6,3-.92,1.5-1.98,3.36-3.02,5.06h-2.02v-9.68h1.66Z"/>
      <path class="cls-1" d="m101.62,335.18v3.18c0,1.22.46,2.06,2,2.06.76,0,1.54-.28,2.08-.68v-4.56h1.74v9.68h-1.74v-3.88h-.04c-.66.44-1.7.74-2.62.74-1.84,0-3.18-.94-3.18-3.16v-3.38h1.76Z"/>
      <path class="cls-1" d="m111.3,340.34c.04,2.38,1.56,3.36,3.32,3.36,1.26,0,2.02-.22,2.68-.5l.3,1.26c-.62.28-1.68.6-3.22.6-2.98,0-4.76-1.96-4.76-4.88s1.72-5.22,4.54-5.22c3.16,0,4,2.78,4,4.56,0,.36-.04.64-.06.82h-6.8Zm5.16-1.26c.02-1.12-.46-2.86-2.44-2.86-1.78,0-2.56,1.64-2.7,2.86h5.14Z"/>
      <path class="cls-1" d="m127.24,344.5c-.46.24-1.48.56-2.78.56-2.92,0-4.82-1.98-4.82-4.94s2.04-5.14,5.2-5.14c1.04,0,1.96.26,2.44.5l-.4,1.36c-.42-.24-1.08-.46-2.04-.46-2.22,0-3.42,1.64-3.42,3.66,0,2.24,1.44,3.62,3.36,3.62,1,0,1.66-.26,2.16-.48l.3,1.32Z"/>
      <path class="cls-1" d="m131.04,335.18v4.2h.42l3.64-4.2h2.14l-4.22,4.38c1.56.16,2.5,1.2,3.26,2.94.26.64.6,1.58,1.04,2.36h-1.84c-.26-.42-.6-1.18-.9-1.98-.66-1.56-1.56-2.28-3.2-2.28h-.34v4.26h-1.74v-9.68h1.74Z"/>
      <path class="cls-1" d="m147.52,339.94c0,3.58-2.48,5.14-4.82,5.14-2.62,0-4.64-1.92-4.64-4.98,0-3.24,2.12-5.14,4.8-5.14s4.66,2.02,4.66,4.98Zm-7.68.1c0,2.12,1.22,3.72,2.94,3.72s2.94-1.58,2.94-3.76c0-1.64-.82-3.72-2.9-3.72s-2.98,1.92-2.98,3.76Z"/>
      <path class="cls-1" d="m150.72,340.34c.04,2.38,1.56,3.36,3.32,3.36,1.26,0,2.02-.22,2.68-.5l.3,1.26c-.62.28-1.68.6-3.22.6-2.98,0-4.76-1.96-4.76-4.88s1.72-5.22,4.54-5.22c3.16,0,4,2.78,4,4.56,0,.36-.04.64-.06.82h-6.8Zm5.16-1.26c.02-1.12-.46-2.86-2.44-2.86-1.78,0-2.56,1.64-2.7,2.86h5.14Z"/>
      <path class="cls-1" d="m172.76,339.94c0,3.58-2.48,5.14-4.82,5.14-2.62,0-4.64-1.92-4.64-4.98,0-3.24,2.12-5.14,4.8-5.14s4.66,2.02,4.66,4.98Zm-7.68.1c0,2.12,1.22,3.72,2.94,3.72s2.94-1.58,2.94-3.76c0-1.64-.82-3.72-2.9-3.72s-2.98,1.92-2.98,3.76Z"/>
      <path class="cls-1" d="m182.3,331.9c-.5.18-1.38.34-2.02.44-1.56.24-2.7.76-3.44,1.82-.62.88-.98,2.18-1.06,3.2h.06c.62-1.4,1.98-2.18,3.36-2.18,2.38,0,4.12,1.7,4.12,4.78s-1.64,5.12-4.48,5.12c-3.4,0-4.52-3.26-4.52-6.48,0-2.2.46-4,1.5-5.36.94-1.34,2.28-1.96,4.16-2.28.78-.12,1.74-.28,2.4-.52l-.08,1.46Zm-3.46,4.58c-1.04,0-1.78.54-2.18,1.32-.32.58-.48,1.28-.48,2.06,0,1.6.78,3.9,2.7,3.9s2.66-1.88,2.66-3.66c0-1.58-.62-3.62-2.7-3.62Z"/>
      <path class="cls-1" d="m192.44,344.5c-.46.24-1.48.56-2.78.56-2.92,0-4.82-1.98-4.82-4.94s2.04-5.14,5.2-5.14c1.04,0,1.96.26,2.44.5l-.4,1.36c-.42-.24-1.08-.46-2.04-.46-2.22,0-3.42,1.64-3.42,3.66,0,2.24,1.44,3.62,3.36,3.62,1,0,1.66-.26,2.16-.48l.3,1.32Z"/>
      <path class="cls-1" d="m202.18,335.18v9.68h-1.74v-8.3h-3.32v2.52c0,2.72-.26,4.54-1.52,5.36-.48.38-1.02.6-1.92.6l-.18-1.38c.34-.06.72-.2.96-.4.9-.66,1-2.02,1-4.18v-3.9h6.72Z"/>
      <path class="cls-1" d="m205.62,335.18l2.12,5.72c.22.64.46,1.4.62,1.98h.04c.18-.58.38-1.32.62-2.02l1.92-5.68h1.86l-2.64,6.9c-1.26,3.32-2.12,5.02-3.32,6.06-.86.76-1.72,1.06-2.16,1.14l-.44-1.48c.44-.14,1.02-.42,1.54-.86.48-.38,1.08-1.06,1.48-1.96.08-.18.14-.32.14-.42s-.04-.24-.12-.46l-3.58-8.92h1.92Z"/>
      <path class="cls-1" d="m215.42,335.18l3.2,4.22h.36v-4.22h1.68v4.22h.34l3.2-4.22h2.02l-3.82,4.4c1.46.16,2.32,1.02,2.9,2.56.34.94.66,1.96,1.06,2.72h-1.76c-.32-.58-.6-1.38-.88-2.22-.6-1.58-1.5-2.06-2.76-2.06h-.3v4.28h-1.68v-4.28h-.32c-1.36,0-2.18.5-2.78,2.08-.32.84-.58,1.6-.92,2.2h-1.7c.4-.78.72-1.8,1.06-2.7.6-1.56,1.46-2.42,2.92-2.58l-3.84-4.4h2.02Z"/>
      <path class="cls-1" d="m229.56,335.18v4.08c0,1.54-.02,2.5-.1,3.88l.06.02c.58-1.18.92-1.86,1.56-2.98l3.02-5h2.06v9.68h-1.68v-4.1c0-1.58.04-2.4.12-3.96h-.06c-.62,1.24-1.04,2.02-1.6,3-.92,1.5-1.98,3.36-3.02,5.06h-2.02v-9.68h1.66Z"/>
      <path class="cls-1" d="m238.98,335.3c.68-.12,1.94-.22,3.08-.22,1.62,0,4.3.26,4.3,2.42,0,1.2-.92,1.94-2.02,2.18v.04c1.42.2,2.46,1,2.46,2.4,0,2.54-3.2,2.86-5.1,2.86-1.08,0-2.2-.08-2.72-.12v-9.56Zm1.66,8.4c.5.06.86.08,1.42.08,1.18,0,2.94-.28,2.94-1.68s-1.4-1.7-3.08-1.7h-1.28v3.3Zm.02-4.46h1.32c1.3,0,2.64-.38,2.64-1.52,0-.96-.84-1.42-2.6-1.42-.58,0-.94.04-1.36.08v2.86Z"/>
      <path class="cls-1" d="m254.38,344.86l-.14-1.22h-.06c-.54.76-1.58,1.44-2.96,1.44-1.96,0-2.96-1.38-2.96-2.78,0-2.34,2.08-3.62,5.82-3.6v-.2c0-.8-.22-2.24-2.2-2.24-.9,0-1.84.28-2.52.72l-.4-1.16c.8-.52,1.96-.86,3.18-.86,2.96,0,3.68,2.02,3.68,3.96v3.62c0,.84.04,1.66.16,2.32h-1.6Zm-.26-4.94c-1.92-.04-4.1.3-4.1,2.18,0,1.14.76,1.68,1.66,1.68,1.26,0,2.06-.8,2.34-1.62.06-.18.1-.38.1-.56v-1.68Z"/>
      <path class="cls-1" d="m260.36,335.18v3.9h4.6v-3.9h1.74v9.68h-1.74v-4.38h-4.6v4.38h-1.74v-9.68h1.74Z"/>
      <path class="cls-1" d="m271.2,335.18v4.08c0,1.54-.02,2.5-.1,3.88l.06.02c.58-1.18.92-1.86,1.56-2.98l3.02-5h2.06v9.68h-1.68v-4.1c0-1.58.04-2.4.12-3.96h-.06c-.62,1.24-1.04,2.02-1.6,3-.92,1.5-1.98,3.36-3.02,5.06h-2.02v-9.68h1.66Z"/>
      <path class="cls-1" d="m281.64,340.34c.04,2.38,1.56,3.36,3.32,3.36,1.26,0,2.02-.22,2.68-.5l.3,1.26c-.62.28-1.68.6-3.22.6-2.98,0-4.76-1.96-4.76-4.88s1.72-5.22,4.54-5.22c3.16,0,4,2.78,4,4.56,0,.36-.04.64-.06.82h-6.8Zm5.16-1.26c.02-1.12-.46-2.86-2.44-2.86-1.78,0-2.56,1.64-2.7,2.86h5.14Z"/>
      <path class="cls-1" d="m296.53,335.18v4.08c0,1.54-.02,2.5-.1,3.88l.06.02c.58-1.18.92-1.86,1.56-2.98l3.02-5h2.06v9.68h-1.68v-4.1c0-1.58.04-2.4.12-3.96h-.06c-.62,1.24-1.04,2.02-1.6,3-.92,1.5-1.98,3.36-3.02,5.06h-2.02v-9.68h1.66Z"/>
      <path class="cls-1" d="m310.23,338.34c0-1.24-.04-2.24-.08-3.16h1.58l.08,1.66h.04c.72-1.18,1.86-1.88,3.44-1.88,2.34,0,4.1,1.98,4.1,4.92,0,3.48-2.12,5.2-4.4,5.2-1.28,0-2.4-.56-2.98-1.52h-.04v5.26h-1.74v-10.48Zm1.74,2.58c0,.26.04.5.08.72.32,1.22,1.38,2.06,2.64,2.06,1.86,0,2.94-1.52,2.94-3.74,0-1.94-1.02-3.6-2.88-3.6-1.2,0-2.32.86-2.66,2.18-.06.22-.12.48-.12.72v1.66Z"/>
      <path class="cls-1" d="m322.59,340.34c.04,2.38,1.56,3.36,3.32,3.36,1.26,0,2.02-.22,2.68-.5l.3,1.26c-.62.28-1.68.6-3.22.6-2.98,0-4.76-1.96-4.76-4.88s1.72-5.22,4.54-5.22c3.16,0,4,2.78,4,4.56,0,.36-.04.64-.06.82h-6.8Zm5.16-1.26c.02-1.12-.46-2.86-2.44-2.86-1.78,0-2.56,1.64-2.7,2.86h5.14Z"/>
      <path class="cls-1" d="m331.73,335.18h2.16l1.76,4.88c.24.72.66,1.9.88,2.66h.04c.22-.72.76-2.26,1.14-3.32l1.56-4.22h2.18l.68,9.68h-1.68l-.22-4.62c-.06-1.04-.14-2.28-.18-3.46h-.06c-.26.88-.52,1.66-1.06,3.14l-1.86,4.88h-1.28l-1.72-4.78c-.3-.92-.72-2.32-.96-3.22h-.08c-.04,1.14-.1,2.42-.16,3.48l-.24,4.58h-1.62l.72-9.68Z"/>
      <path class="cls-1" d="m353.18,339.94c0,3.58-2.48,5.14-4.82,5.14-2.62,0-4.64-1.92-4.64-4.98,0-3.24,2.12-5.14,4.8-5.14s4.66,2.02,4.66,4.98Zm-7.68.1c0,2.12,1.22,3.72,2.94,3.72s2.94-1.58,2.94-3.76c0-1.64-.82-3.72-2.9-3.72s-2.98,1.92-2.98,3.76Z"/>
      <path class="cls-1" d="m357.09,335.18v3.9h4.6v-3.9h1.74v9.68h-1.74v-4.38h-4.6v4.38h-1.74v-9.68h1.74Z"/>
      <path class="cls-1" d="m372.79,335.18v1.4h-3.02v8.28h-1.74v-8.28h-3.02v-1.4h7.78Z"/>
      <path class="cls-1" d="m48.92,368.18v8.36l1,.02-.1,4.38h-1.38l-.08-3.08h-6.7l-.08,3.08h-1.38l-.08-4.38.82-.02c.42-.62.74-1.28.96-1.98.38-1.2.56-2.5.56-3.86v-2.52h6.46Zm-4.9,2.94c0,1.28-.18,2.52-.5,3.6-.2.66-.48,1.26-.78,1.8h4.46v-7h-3.18v1.6Z"/>
      <path class="cls-1" d="m51.98,368.3c.68-.12,1.94-.22,3.08-.22,1.62,0,4.3.26,4.3,2.42,0,1.2-.92,1.94-2.02,2.18v.04c1.42.2,2.46,1,2.46,2.4,0,2.54-3.2,2.86-5.1,2.86-1.08,0-2.2-.08-2.72-.12v-9.56Zm1.66,8.4c.5.06.86.08,1.42.08,1.18,0,2.94-.28,2.94-1.68s-1.4-1.7-3.08-1.7h-1.28v3.3Zm.02-4.46h1.32c1.3,0,2.64-.38,2.64-1.52,0-.96-.84-1.42-2.6-1.42-.58,0-.94.04-1.36.08v2.86Z"/>
      <path class="cls-1" d="m63.64,368.18v4.08c0,1.54-.02,2.5-.1,3.88l.06.02c.58-1.18.92-1.86,1.56-2.98l3.02-5h2.06v9.68h-1.68v-4.1c0-1.58.04-2.4.12-3.96h-.06c-.62,1.24-1.04,2.02-1.6,3-.92,1.5-1.98,3.36-3.02,5.06h-2.02v-9.68h1.66Z"/>
      <path class="cls-1" d="m79,368.18v1.42h-4.2v8.26h-1.74v-9.68h5.94Z"/>
      <path class="cls-1" d="m85.88,377.86l-.14-1.22h-.06c-.54.76-1.58,1.44-2.96,1.44-1.96,0-2.96-1.38-2.96-2.78,0-2.34,2.08-3.62,5.82-3.6v-.2c0-.8-.22-2.24-2.2-2.24-.9,0-1.84.28-2.52.72l-.4-1.16c.8-.52,1.96-.86,3.18-.86,2.96,0,3.68,2.02,3.68,3.96v3.62c0,.84.04,1.66.16,2.32h-1.6Zm-.26-4.94c-1.92-.04-4.1.3-4.1,2.18,0,1.14.76,1.68,1.66,1.68,1.26,0,2.06-.8,2.34-1.62.06-.18.1-.38.1-.56v-1.68Z"/>
      <path class="cls-1" d="m96.56,368.18v1.4h-3.02v8.28h-1.74v-8.28h-3.02v-1.4h7.78Z"/>
      <path class="cls-1" d="m98.82,373.34c.04,2.38,1.56,3.36,3.32,3.36,1.26,0,2.02-.22,2.68-.5l.3,1.26c-.62.28-1.68.6-3.22.6-2.98,0-4.76-1.96-4.76-4.88s1.72-5.22,4.54-5.22c3.16,0,4,2.78,4,4.56,0,.36-.04.64-.06.82h-6.8Zm5.16-1.26c.02-1.12-.46-2.86-2.44-2.86-1.78,0-2.56,1.64-2.7,2.86h5.14Z"/>
      <path class="cls-1" d="m115.22,368.18v9.68h-1.74v-8.3h-3.32v2.52c0,2.72-.26,4.54-1.52,5.36-.48.38-1.02.6-1.92.6l-.18-1.38c.34-.06.72-.2.96-.4.9-.66,1-2.02,1-4.18v-3.9h6.72Z"/>
      <path class="cls-1" d="m119.08,373.34c.04,2.38,1.56,3.36,3.32,3.36,1.26,0,2.02-.22,2.68-.5l.3,1.26c-.62.28-1.68.6-3.22.6-2.98,0-4.76-1.96-4.76-4.88s1.72-5.22,4.54-5.22c3.16,0,4,2.78,4,4.56,0,.36-.04.64-.06.82h-6.8Zm5.16-1.26c.02-1.12-.46-2.86-2.44-2.86-1.78,0-2.56,1.64-2.7,2.86h5.14Z"/>
      <path class="cls-1" d="m129.74,368.18v4.08c0,1.54-.02,2.5-.1,3.88l.06.02c.58-1.18.92-1.86,1.56-2.98l3.02-5h2.06v9.68h-1.68v-4.1c0-1.58.04-2.4.12-3.96h-.06c-.62,1.24-1.04,2.02-1.6,3-.92,1.5-1.98,3.36-3.02,5.06h-2.02v-9.68h1.66Zm1.14-3.94c.06.86.48,1.52,1.28,1.52.86,0,1.26-.64,1.36-1.52h1.26c-.08,1.64-1.12,2.48-2.66,2.48-1.76,0-2.44-1.1-2.52-2.48h1.28Z"/>
      <path class="cls-1" d="m138.06,380.32c.44-1.18.98-3.32,1.2-4.78l1.96-.2c-.46,1.7-1.34,3.92-1.9,4.86l-1.26.12Z"/>
      <path class="cls-1" d="m154.48,377.5c-.46.24-1.48.56-2.78.56-2.92,0-4.82-1.98-4.82-4.94s2.04-5.14,5.2-5.14c1.04,0,1.96.26,2.44.5l-.4,1.36c-.42-.24-1.08-.46-2.04-.46-2.22,0-3.42,1.64-3.42,3.66,0,2.24,1.44,3.62,3.36,3.62,1,0,1.66-.26,2.16-.48l.3,1.32Z"/>
      <path class="cls-1" d="m158.16,368.18v4.08c0,1.54-.02,2.5-.1,3.88l.06.02c.58-1.18.92-1.86,1.56-2.98l3.02-5h2.06v9.68h-1.68v-4.1c0-1.58.04-2.4.12-3.96h-.06c-.62,1.24-1.04,2.02-1.6,3-.92,1.5-1.98,3.36-3.02,5.06h-2.02v-9.68h1.66Z"/>
      <path class="cls-1" d="m174.52,377.5c-.46.24-1.48.56-2.78.56-2.92,0-4.82-1.98-4.82-4.94s2.04-5.14,5.2-5.14c1.04,0,1.96.26,2.44.5l-.4,1.36c-.42-.24-1.08-.46-2.04-.46-2.22,0-3.42,1.64-3.42,3.66,0,2.24,1.44,3.62,3.36,3.62,1,0,1.66-.26,2.16-.48l.3,1.32Z"/>
      <path class="cls-1" d="m183.44,368.18v1.4h-3.02v8.28h-1.74v-8.28h-3.02v-1.4h7.78Z"/>
      <path class="cls-1" d="m185.7,373.34c.04,2.38,1.56,3.36,3.32,3.36,1.26,0,2.02-.22,2.68-.5l.3,1.26c-.62.28-1.68.6-3.22.6-2.98,0-4.76-1.96-4.76-4.88s1.72-5.22,4.54-5.22c3.16,0,4,2.78,4,4.56,0,.36-.04.64-.06.82h-6.8Zm5.16-1.26c.02-1.12-.46-2.86-2.44-2.86-1.78,0-2.56,1.64-2.7,2.86h5.14Z"/>
      <path class="cls-1" d="m194.84,368.18h2.16l1.76,4.88c.24.72.66,1.9.88,2.66h.04c.22-.72.76-2.26,1.14-3.32l1.56-4.22h2.18l.68,9.68h-1.68l-.22-4.62c-.06-1.04-.14-2.28-.18-3.46h-.06c-.26.88-.52,1.66-1.06,3.14l-1.86,4.88h-1.28l-1.72-4.78c-.3-.92-.72-2.32-.96-3.22h-.08c-.04,1.14-.1,2.42-.16,3.48l-.24,4.58h-1.62l.72-9.68Z"/>
      <path class="cls-1" d="m213.37,368.18v4.08c0,1.54-.02,2.5-.1,3.88l.06.02c.58-1.18.92-1.86,1.56-2.98l3.02-5h2.06v9.68h-1.68v-4.1c0-1.58.04-2.4.12-3.96h-.06c-.62,1.24-1.04,2.02-1.6,3-.92,1.5-1.98,3.36-3.02,5.06h-2.02v-9.68h1.66Z"/>
      <path class="cls-1" d="m232.44,377.86l-.14-1.22h-.06c-.54.76-1.58,1.44-2.96,1.44-1.96,0-2.96-1.38-2.96-2.78,0-2.34,2.08-3.62,5.82-3.6v-.2c0-.8-.22-2.24-2.2-2.24-.9,0-1.84.28-2.52.72l-.4-1.16c.8-.52,1.96-.86,3.18-.86,2.96,0,3.68,2.02,3.68,3.96v3.62c0,.84.04,1.66.16,2.32h-1.6Zm-.26-4.94c-1.92-.04-4.1.3-4.1,2.18,0,1.14.76,1.68,1.66,1.68,1.26,0,2.06-.8,2.34-1.62.06-.18.1-.38.1-.56v-1.68Z"/>
      <path class="cls-1" d="m242.62,368.18v1.42h-4.2v8.26h-1.74v-9.68h5.94Z"/>
      <path class="cls-1" d="m244.27,371.34c0-1.24-.04-2.24-.08-3.16h1.58l.08,1.66h.04c.72-1.18,1.86-1.88,3.44-1.88,2.34,0,4.1,1.98,4.1,4.92,0,3.48-2.12,5.2-4.4,5.2-1.28,0-2.4-.56-2.98-1.52h-.04v5.26h-1.74v-10.48Zm1.74,2.58c0,.26.04.5.08.72.32,1.22,1.38,2.06,2.64,2.06,1.86,0,2.94-1.52,2.94-3.74,0-1.94-1.02-3.6-2.88-3.6-1.2,0-2.32.86-2.66,2.18-.06.22-.12.48-.12.72v1.66Z"/>
      <path class="cls-1" d="m256.63,373.34c.04,2.38,1.56,3.36,3.32,3.36,1.26,0,2.02-.22,2.68-.5l.3,1.26c-.62.28-1.68.6-3.22.6-2.98,0-4.76-1.96-4.76-4.88s1.72-5.22,4.54-5.22c3.16,0,4,2.78,4,4.56,0,.36-.04.64-.06.82h-6.8Zm5.16-1.26c.02-1.12-.46-2.86-2.44-2.86-1.78,0-2.56,1.64-2.7,2.86h5.14Z"/>
      <path class="cls-1" d="m271.58,368.18v1.42h-4.2v8.26h-1.74v-9.68h5.94Z"/>
      <path class="cls-1" d="m278.45,377.86l-.14-1.22h-.06c-.54.76-1.58,1.44-2.96,1.44-1.96,0-2.96-1.38-2.96-2.78,0-2.34,2.08-3.62,5.82-3.6v-.2c0-.8-.22-2.24-2.2-2.24-.9,0-1.84.28-2.52.72l-.4-1.16c.8-.52,1.96-.86,3.18-.86,2.96,0,3.68,2.02,3.68,3.96v3.62c0,.84.04,1.66.16,2.32h-1.6Zm-.26-4.94c-1.92-.04-4.1.3-4.1,2.18,0,1.14.76,1.68,1.66,1.68,1.26,0,2.06-.8,2.34-1.62.06-.18.1-.38.1-.56v-1.68Z"/>
      <path class="cls-1" d="m289.14,368.18v1.4h-3.02v8.28h-1.74v-8.28h-3.02v-1.4h7.78Z"/>
      <path class="cls-1" d="m299.18,372.94c0,3.58-2.48,5.14-4.82,5.14-2.62,0-4.64-1.92-4.64-4.98,0-3.24,2.12-5.14,4.8-5.14s4.66,2.02,4.66,4.98Zm-7.68.1c0,2.12,1.22,3.72,2.94,3.72s2.94-1.58,2.94-3.76c0-1.64-.82-3.72-2.9-3.72s-2.98,1.92-2.98,3.76Z"/>
      <path class="cls-1" d="m301.35,368.3c.68-.12,1.94-.22,3.08-.22,1.62,0,4.3.26,4.3,2.42,0,1.2-.92,1.94-2.02,2.18v.04c1.42.2,2.46,1,2.46,2.4,0,2.54-3.2,2.86-5.1,2.86-1.08,0-2.2-.08-2.72-.12v-9.56Zm1.66,8.4c.5.06.86.08,1.42.08,1.18,0,2.94-.28,2.94-1.68s-1.4-1.7-3.08-1.7h-1.28v3.3Zm.02-4.46h1.32c1.3,0,2.64-.38,2.64-1.52,0-.96-.84-1.42-2.6-1.42-.58,0-.94.04-1.36.08v2.86Z"/>
      <path class="cls-1" d="m320.99,377.86l-.14-1.22h-.06c-.54.76-1.58,1.44-2.96,1.44-1.96,0-2.96-1.38-2.96-2.78,0-2.34,2.08-3.62,5.82-3.6v-.2c0-.8-.22-2.24-2.2-2.24-.9,0-1.84.28-2.52.72l-.4-1.16c.8-.52,1.96-.86,3.18-.86,2.96,0,3.68,2.02,3.68,3.96v3.62c0,.84.04,1.66.16,2.32h-1.6Zm-.26-4.94c-1.92-.04-4.1.3-4.1,2.18,0,1.14.76,1.68,1.66,1.68,1.26,0,2.06-.8,2.34-1.62.06-.18.1-.38.1-.56v-1.68Z"/>
      <path class="cls-1" d="m325.23,368.3c.68-.12,1.94-.22,3.08-.22,1.62,0,4.3.26,4.3,2.42,0,1.2-.92,1.94-2.02,2.18v.04c1.42.2,2.46,1,2.46,2.4,0,2.54-3.2,2.86-5.1,2.86-1.08,0-2.2-.08-2.72-.12v-9.56Zm1.66,8.4c.5.06.86.08,1.42.08,1.18,0,2.94-.28,2.94-1.68s-1.4-1.7-3.08-1.7h-1.28v3.3Zm.02-4.46h1.32c1.3,0,2.64-.38,2.64-1.52,0-.96-.84-1.42-2.6-1.42-.58,0-.94.04-1.36.08v2.86Z"/>
      <path class="cls-1" d="m341.62,368.18v1.4h-3.02v8.28h-1.74v-8.28h-3.02v-1.4h7.78Z"/>
      <path class="cls-1" d="m351.66,372.94c0,3.58-2.48,5.14-4.82,5.14-2.62,0-4.64-1.92-4.64-4.98,0-3.24,2.12-5.14,4.8-5.14s4.66,2.02,4.66,4.98Zm-7.68.1c0,2.12,1.22,3.72,2.94,3.72s2.94-1.58,2.94-3.76c0-1.64-.82-3.72-2.9-3.72s-2.98,1.92-2.98,3.76Z"/>
      <path class="cls-1" d="m353.97,368.18h2.16l1.76,4.88c.24.72.66,1.9.88,2.66h.04c.22-.72.76-2.26,1.14-3.32l1.56-4.22h2.18l.68,9.68h-1.68l-.22-4.62c-.06-1.04-.14-2.28-.18-3.46h-.06c-.26.88-.52,1.66-1.06,3.14l-1.86,4.88h-1.28l-1.72-4.78c-.3-.92-.72-2.32-.96-3.22h-.08c-.04,1.14-.1,2.42-.16,3.48l-.24,4.58h-1.62l.72-9.68Z"/>
      <path class="cls-1" d="m375.42,372.94c0,3.58-2.48,5.14-4.82,5.14-2.62,0-4.64-1.92-4.64-4.98,0-3.24,2.12-5.14,4.8-5.14s4.66,2.02,4.66,4.98Zm-7.68.1c0,2.12,1.22,3.72,2.94,3.72s2.94-1.58,2.94-3.76c0-1.64-.82-3.72-2.9-3.72s-2.98,1.92-2.98,3.76Z"/>
      <path class="cls-1" d="m384.95,364.9c-.5.18-1.38.34-2.02.44-1.56.24-2.7.76-3.44,1.82-.62.88-.98,2.18-1.06,3.2h.06c.62-1.4,1.98-2.18,3.36-2.18,2.38,0,4.12,1.7,4.12,4.78s-1.64,5.12-4.48,5.12c-3.4,0-4.52-3.26-4.52-6.48,0-2.2.46-4,1.5-5.36.94-1.34,2.28-1.96,4.16-2.28.78-.12,1.74-.28,2.4-.52l-.08,1.46Zm-3.46,4.58c-1.04,0-1.78.54-2.18,1.32-.32.58-.48,1.28-.48,2.06,0,1.6.78,3.9,2.7,3.9s2.66-1.88,2.66-3.66c0-1.58-.62-3.62-2.7-3.62Z"/>
      <path class="cls-1" d="m389.81,368.18v4.08c0,1.54-.02,2.5-.1,3.88l.06.02c.58-1.18.92-1.86,1.56-2.98l3.02-5h2.06v9.68h-1.68v-4.1c0-1.58.04-2.4.12-3.96h-.06c-.62,1.24-1.04,2.02-1.6,3-.92,1.5-1.98,3.36-3.02,5.06h-2.02v-9.68h1.66Z"/>
      <path class="cls-1" d="m406.61,368.18v9.68h-1.74v-8.3h-3.32v2.52c0,2.72-.26,4.54-1.52,5.36-.48.38-1.02.6-1.92.6l-.18-1.38c.34-.06.72-.2.96-.4.9-.66,1-2.02,1-4.18v-3.9h6.72Z"/>
      <path class="cls-1" d="m410.47,373.34c.04,2.38,1.56,3.36,3.32,3.36,1.26,0,2.02-.22,2.68-.5l.3,1.26c-.62.28-1.68.6-3.22.6-2.98,0-4.76-1.96-4.76-4.88s1.72-5.22,4.54-5.22c3.16,0,4,2.78,4,4.56,0,.36-.04.64-.06.82h-6.8Zm5.16-1.26c.02-1.12-.46-2.86-2.44-2.86-1.78,0-2.56,1.64-2.7,2.86h5.14Z"/>
      <path class="cls-1" d="m421.13,368.18v4.08c0,1.54-.02,2.5-.1,3.88l.06.02c.58-1.18.92-1.86,1.56-2.98l3.02-5h2.06v9.68h-1.68v-4.1c0-1.58.04-2.4.12-3.96h-.06c-.62,1.24-1.04,2.02-1.6,3-.92,1.5-1.98,3.36-3.02,5.06h-2.02v-9.68h1.66Zm1.14-3.94c.06.86.48,1.52,1.28,1.52.86,0,1.26-.64,1.36-1.52h1.26c-.08,1.64-1.12,2.48-2.66,2.48-1.76,0-2.44-1.1-2.52-2.48h1.28Z"/>
      <path class="cls-1" d="m32.2,411.64c-.02-1.18.94-2.1,2.1-2.1s2.1.92,2.1,2.08-.92,2.1-2.1,2.1-2.1-.9-2.1-2.08Z"/>
      <path class="cls-1" d="m52.64,403.38v5.68c0,2.14-.04,3.9-.16,5.7l.04.02c.68-1.4,1.52-2.86,2.5-4.46l4.36-6.94h1.74v13.48h-1.64v-5.74c0-2.18.02-3.78.16-5.48l-.06-.02c-.66,1.48-1.58,3.04-2.5,4.54l-4.22,6.7h-1.86v-13.48h1.64Z"/>
      <path class="cls-1" d="m65.52,407.18v3.9h4.6v-3.9h1.74v9.68h-1.74v-4.38h-4.6v4.38h-1.74v-9.68h1.74Z"/>
      <path class="cls-1" d="m80.22,402.66v4.34c2.82.2,4.86,1.98,4.86,5,0,3.18-2.16,4.86-4.86,5.04v3.78h-1.6v-3.76c-2.8-.18-4.86-1.94-4.86-4.96,0-3.2,2.14-4.88,4.86-5.1v-4.34h1.6Zm-1.6,5.54c-1.96.26-3.12,1.86-3.12,3.84s1.2,3.56,3.12,3.8v-7.64Zm1.6,7.64c1.94-.26,3.12-1.86,3.12-3.84s-1.18-3.52-3.12-3.8v7.64Z"/>
      <path class="cls-1" d="m95.76,411.94c0,3.58-2.48,5.14-4.82,5.14-2.62,0-4.64-1.92-4.64-4.98,0-3.24,2.12-5.14,4.8-5.14s4.66,2.02,4.66,4.98Zm-7.68.1c0,2.12,1.22,3.72,2.94,3.72s2.94-1.58,2.94-3.76c0-1.64-.82-3.72-2.9-3.72s-2.98,1.92-2.98,3.76Z"/>
      <path class="cls-1" d="m97.7,410.34c0-1.24-.04-2.24-.08-3.16h1.58l.08,1.66h.04c.72-1.18,1.86-1.88,3.44-1.88,2.34,0,4.1,1.98,4.1,4.92,0,3.48-2.12,5.2-4.4,5.2-1.28,0-2.4-.56-2.98-1.52h-.04v5.26h-1.74v-10.48Zm1.74,2.58c0,.26.04.5.08.72.32,1.22,1.38,2.06,2.64,2.06,1.86,0,2.94-1.52,2.94-3.74,0-1.94-1.02-3.6-2.88-3.6-1.2,0-2.32.86-2.66,2.18-.06.22-.12.48-.12.72v1.66Z"/>
      <path class="cls-1" d="m108.9,407.18h2.16l1.76,4.88c.24.72.66,1.9.88,2.66h.04c.22-.72.76-2.26,1.14-3.32l1.56-4.22h2.18l.68,9.68h-1.68l-.22-4.62c-.06-1.04-.14-2.28-.18-3.46h-.06c-.26.88-.52,1.66-1.06,3.14l-1.86,4.88h-1.28l-1.72-4.78c-.3-.92-.72-2.32-.96-3.22h-.08c-.04,1.14-.1,2.42-.16,3.48l-.24,4.58h-1.62l.72-9.68Z"/>
      <path class="cls-1" d="m126.66,416.86l-.14-1.22h-.06c-.54.76-1.58,1.44-2.96,1.44-1.96,0-2.96-1.38-2.96-2.78,0-2.34,2.08-3.62,5.82-3.6v-.2c0-.8-.22-2.24-2.2-2.24-.9,0-1.84.28-2.52.72l-.4-1.16c.8-.52,1.96-.86,3.18-.86,2.96,0,3.68,2.02,3.68,3.96v3.62c0,.84.04,1.66.16,2.32h-1.6Zm-.26-4.94c-1.92-.04-4.1.3-4.1,2.18,0,1.14.76,1.68,1.66,1.68,1.26,0,2.06-.8,2.34-1.62.06-.18.1-.38.1-.56v-1.68Z"/>
      <path class="cls-1" d="m132.36,407.18v8.3h4.46v-8.3h1.74v8.36l1,.02-.1,4.38h-1.36l-.08-3.08h-7.4v-9.68h1.74Z"/>
      <path class="cls-1" d="m143,407.18v4.08c0,1.54-.02,2.5-.1,3.88l.06.02c.58-1.18.92-1.86,1.56-2.98l3.02-5h2.06v9.68h-1.68v-4.1c0-1.58.04-2.4.12-3.96h-.06c-.62,1.24-1.04,2.02-1.6,3-.92,1.5-1.98,3.36-3.02,5.06h-2.02v-9.68h1.66Z"/>
      <path class="cls-1" d="m160.94,411.94c0,3.58-2.48,5.14-4.82,5.14-2.62,0-4.64-1.92-4.64-4.98,0-3.24,2.12-5.14,4.8-5.14s4.66,2.02,4.66,4.98Zm-7.68.1c0,2.12,1.22,3.72,2.94,3.72s2.94-1.58,2.94-3.76c0-1.64-.82-3.72-2.9-3.72s-2.98,1.92-2.98,3.76Z"/>
      <path class="cls-1" d="m164.58,407.18v3.9h4.6v-3.9h1.74v9.68h-1.74v-4.38h-4.6v4.38h-1.74v-9.68h1.74Z"/>
      <path class="cls-1" d="m175.22,407.18v3.9h4.6v-3.9h1.74v9.68h-1.74v-4.38h-4.6v4.38h-1.74v-9.68h1.74Z"/>
      <path class="cls-1" d="m185.86,407.18v3.3c.38-.08.94-.12,1.58-.12,2.08,0,4.18.86,4.18,3.24,0,1.02-.38,1.72-1,2.24-1.06.9-2.62,1.12-3.9,1.12-.98,0-1.88-.06-2.6-.14v-9.64h1.74Zm0,8.46c.34.04.72.08,1.22.08,1.34,0,2.8-.56,2.8-2.06s-1.4-2.04-2.72-2.04c-.5,0-.94.04-1.3.1v3.92Zm8.72-8.46v9.68h-1.74v-9.68h1.74Z"/>
      <path class="cls-1" d="m198.16,412.34c.04,2.38,1.56,3.36,3.32,3.36,1.26,0,2.02-.22,2.68-.5l.3,1.26c-.62.28-1.68.6-3.22.6-2.98,0-4.76-1.96-4.76-4.88s1.72-5.22,4.54-5.22c3.16,0,4,2.78,4,4.56,0,.36-.04.64-.06.82h-6.8Zm5.16-1.26c.02-1.12-.46-2.86-2.44-2.86-1.78,0-2.56,1.64-2.7,2.86h5.14Z"/>
      <path class="cls-1" d="m217.78,416.5c-.46.24-1.48.56-2.78.56-2.92,0-4.82-1.98-4.82-4.94s2.04-5.14,5.2-5.14c1.04,0,1.96.26,2.44.5l-.4,1.36c-.42-.24-1.08-.46-2.04-.46-2.22,0-3.42,1.64-3.42,3.66,0,2.24,1.44,3.62,3.36,3.62,1,0,1.66-.26,2.16-.48l.3,1.32Z"/>
      <path class="cls-1" d="m221.18,407.18v4.08c0,1.54-.02,2.5-.1,3.88l.06.02c.58-1.18.92-1.86,1.56-2.98l3.02-5h2.06v9.68h-1.68v-4.1c0-1.58.04-2.4.12-3.96h-.06c-.62,1.24-1.04,2.02-1.6,3-.92,1.5-1.98,3.36-3.02,5.06h-2.02v-9.68h1.66Z"/>
      <path class="cls-1" d="m237.26,416.5c-.46.24-1.48.56-2.78.56-2.92,0-4.82-1.98-4.82-4.94s2.04-5.14,5.2-5.14c1.04,0,1.96.26,2.44.5l-.4,1.36c-.42-.24-1.08-.46-2.04-.46-2.22,0-3.42,1.64-3.42,3.66,0,2.24,1.44,3.62,3.36,3.62,1,0,1.66-.26,2.16-.48l.3,1.32Z"/>
      <path class="cls-1" d="m245.9,407.18v1.4h-3.02v8.28h-1.74v-8.28h-3.02v-1.4h7.78Z"/>
      <path class="cls-1" d="m247.87,412.34c.04,2.38,1.56,3.36,3.32,3.36,1.26,0,2.02-.22,2.68-.5l.3,1.26c-.62.28-1.68.6-3.22.6-2.98,0-4.76-1.96-4.76-4.88s1.72-5.22,4.54-5.22c3.16,0,4,2.78,4,4.56,0,.36-.04.64-.06.82h-6.8Zm5.16-1.26c.02-1.12-.46-2.86-2.44-2.86-1.78,0-2.56,1.64-2.7,2.86h5.14Z"/>
      <path class="cls-1" d="m256.74,407.18h2.16l1.76,4.88c.24.72.66,1.9.88,2.66h.04c.22-.72.76-2.26,1.14-3.32l1.56-4.22h2.18l.68,9.68h-1.68l-.22-4.62c-.06-1.04-.14-2.28-.18-3.46h-.06c-.26.88-.52,1.66-1.06,3.14l-1.86,4.88h-1.28l-1.72-4.78c-.3-.92-.72-2.32-.96-3.22h-.08c-.04,1.14-.1,2.42-.16,3.48l-.24,4.58h-1.62l.72-9.68Z"/>
      <path class="cls-1" d="m270.83,407.18v3.3c.38-.08.94-.12,1.58-.12,2.08,0,4.18.86,4.18,3.24,0,1.02-.38,1.72-1,2.24-1.06.9-2.62,1.12-3.9,1.12-.98,0-1.88-.06-2.6-.14v-9.64h1.74Zm0,8.46c.34.04.72.08,1.22.08,1.34,0,2.8-.56,2.8-2.06s-1.4-2.04-2.72-2.04c-.5,0-.94.04-1.3.1v3.92Zm8.72-8.46v9.68h-1.74v-9.68h1.74Z"/>
      <path class="cls-1" d="m287.73,407.18v4.08c0,1.54-.02,2.5-.1,3.88l.06.02c.58-1.18.92-1.86,1.56-2.98l3.02-5h2.06v9.68h-1.68v-4.1c0-1.58.04-2.4.12-3.96h-.06c-.62,1.24-1.04,2.02-1.6,3-.92,1.5-1.98,3.36-3.02,5.06h-2.02v-9.68h1.66Z"/>
      <path class="cls-1" d="m308.83,407.18v9.68h-1.76v-8.28h-4.5v8.28h-1.74v-9.68h8Z"/>
      <path class="cls-1" d="m311.41,410.34c0-1.24-.04-2.24-.08-3.16h1.58l.08,1.66h.04c.72-1.18,1.86-1.88,3.44-1.88,2.34,0,4.1,1.98,4.1,4.92,0,3.48-2.12,5.2-4.4,5.2-1.28,0-2.4-.56-2.98-1.52h-.04v5.26h-1.74v-10.48Zm1.74,2.58c0,.26.04.5.08.72.32,1.22,1.38,2.06,2.64,2.06,1.86,0,2.94-1.52,2.94-3.74,0-1.94-1.02-3.6-2.88-3.6-1.2,0-2.32.86-2.66,2.18-.06.22-.12.48-.12.72v1.66Z"/>
      <path class="cls-1" d="m331.28,411.94c0,3.58-2.48,5.14-4.82,5.14-2.62,0-4.64-1.92-4.64-4.98,0-3.24,2.12-5.14,4.8-5.14s4.66,2.02,4.66,4.98Zm-7.68.1c0,2.12,1.22,3.72,2.94,3.72s2.94-1.58,2.94-3.76c0-1.64-.82-3.72-2.9-3.72s-2.98,1.92-2.98,3.76Z"/>
      <path class="cls-1" d="m339.11,407.18v1.42h-4.2v8.26h-1.74v-9.68h5.94Z"/>
      <path class="cls-1" d="m340.49,410.34c0-1.24-.04-2.24-.08-3.16h1.58l.08,1.66h.04c.72-1.18,1.86-1.88,3.44-1.88,2.34,0,4.1,1.98,4.1,4.92,0,3.48-2.12,5.2-4.4,5.2-1.28,0-2.4-.56-2.98-1.52h-.04v5.26h-1.74v-10.48Zm1.74,2.58c0,.26.04.5.08.72.32,1.22,1.38,2.06,2.64,2.06,1.86,0,2.94-1.52,2.94-3.74,0-1.94-1.02-3.6-2.88-3.6-1.2,0-2.32.86-2.66,2.18-.06.22-.12.48-.12.72v1.66Z"/>
      <path class="cls-1" d="m356.95,416.86l-.14-1.22h-.06c-.54.76-1.58,1.44-2.96,1.44-1.96,0-2.96-1.38-2.96-2.78,0-2.34,2.08-3.62,5.82-3.6v-.2c0-.8-.22-2.24-2.2-2.24-.9,0-1.84.28-2.52.72l-.4-1.16c.8-.52,1.96-.86,3.18-.86,2.96,0,3.68,2.02,3.68,3.96v3.62c0,.84.04,1.66.16,2.32h-1.6Zm-.26-4.94c-1.92-.04-4.1.3-4.1,2.18,0,1.14.76,1.68,1.66,1.68,1.26,0,2.06-.8,2.34-1.62.06-.18.1-.38.1-.56v-1.68Z"/>
      <path class="cls-1" d="m361.05,407.18h2.16l1.76,4.88c.24.72.66,1.9.88,2.66h.04c.22-.72.76-2.26,1.14-3.32l1.56-4.22h2.18l.68,9.68h-1.68l-.22-4.62c-.06-1.04-.14-2.28-.18-3.46h-.06c-.26.88-.52,1.66-1.06,3.14l-1.86,4.88h-1.28l-1.72-4.78c-.3-.92-.72-2.32-.96-3.22h-.08c-.04,1.14-.1,2.42-.16,3.48l-.24,4.58h-1.62l.72-9.68Z"/>
      <path class="cls-1" d="m373.55,407.18h2.16l1.76,4.88c.24.72.66,1.9.88,2.66h.04c.22-.72.76-2.26,1.14-3.32l1.56-4.22h2.18l.68,9.68h-1.68l-.22-4.62c-.06-1.04-.14-2.28-.18-3.46h-.06c-.26.88-.52,1.66-1.06,3.14l-1.86,4.88h-1.28l-1.72-4.78c-.3-.92-.72-2.32-.96-3.22h-.08c-.04,1.14-.1,2.42-.16,3.48l-.24,4.58h-1.62l.72-9.68Z"/>
      <path class="cls-1" d="m387.57,407.18v4.08c0,1.54-.02,2.5-.1,3.88l.06.02c.58-1.18.92-1.86,1.56-2.98l3.02-5h2.06v9.68h-1.68v-4.1c0-1.58.04-2.4.12-3.96h-.06c-.62,1.24-1.04,2.02-1.6,3-.92,1.5-1.98,3.36-3.02,5.06h-2.02v-9.68h1.66Z"/>
      <path class="cls-1" d="m396.75,410.34c0-1.24-.04-2.24-.08-3.16h1.58l.08,1.66h.04c.72-1.18,1.86-1.88,3.44-1.88,2.34,0,4.1,1.98,4.1,4.92,0,3.48-2.12,5.2-4.4,5.2-1.28,0-2.4-.56-2.98-1.52h-.04v5.26h-1.74v-10.48Zm1.74,2.58c0,.26.04.5.08.72.32,1.22,1.38,2.06,2.64,2.06,1.86,0,2.94-1.52,2.94-3.74,0-1.94-1.02-3.6-2.88-3.6-1.2,0-2.32.86-2.66,2.18-.06.22-.12.48-.12.72v1.66Z"/>
      <path class="cls-1" d="m416.61,411.94c0,3.58-2.48,5.14-4.82,5.14-2.62,0-4.64-1.92-4.64-4.98,0-3.24,2.12-5.14,4.8-5.14s4.66,2.02,4.66,4.98Zm-7.68.1c0,2.12,1.22,3.72,2.94,3.72s2.94-1.58,2.94-3.76c0-1.64-.82-3.72-2.9-3.72s-2.98,1.92-2.98,3.76Z"/>
      <path class="cls-1" d="m418.51,407.3c.68-.12,1.94-.22,3.08-.22,1.62,0,4.3.26,4.3,2.42,0,1.2-.92,1.94-2.02,2.18v.04c1.42.2,2.46,1,2.46,2.4,0,2.54-3.2,2.86-5.1,2.86-1.08,0-2.2-.08-2.72-.12v-9.56Zm1.66,8.4c.5.06.86.08,1.42.08,1.18,0,2.94-.28,2.94-1.68s-1.4-1.7-3.08-1.7h-1.28v3.3Zm.02-4.46h1.32c1.3,0,2.64-.38,2.64-1.52,0-.96-.84-1.42-2.6-1.42-.58,0-.94.04-1.36.08v2.86Z"/>
      <path class="cls-1" d="m433.63,416.86l-.14-1.22h-.06c-.54.76-1.58,1.44-2.96,1.44-1.96,0-2.96-1.38-2.96-2.78,0-2.34,2.08-3.62,5.82-3.6v-.2c0-.8-.22-2.24-2.2-2.24-.9,0-1.84.28-2.52.72l-.4-1.16c.8-.52,1.96-.86,3.18-.86,2.96,0,3.68,2.02,3.68,3.96v3.62c0,.84.04,1.66.16,2.32h-1.6Zm-.26-4.94c-1.92-.04-4.1.3-4.1,2.18,0,1.14.76,1.68,1.66,1.68,1.26,0,2.06-.8,2.34-1.62.06-.18.1-.38.1-.56v-1.68Z"/>
      <path class="cls-1" d="m439.33,407.18v3.9h4.6v-3.9h1.74v9.68h-1.74v-4.38h-4.6v4.38h-1.74v-9.68h1.74Z"/>
      <path class="cls-1" d="m449.89,407.18v4.08c0,1.54-.02,2.5-.1,3.88l.06.02c.58-1.18.92-1.86,1.56-2.98l3.02-5h2.06v9.68h-1.68v-4.1c0-1.58.04-2.4.12-3.96h-.06c-.62,1.24-1.04,2.02-1.6,3-.92,1.5-1.98,3.36-3.02,5.06h-2.02v-9.68h1.66Z"/>
      <path class="cls-1" d="m460.05,412.34c.04,2.38,1.56,3.36,3.32,3.36,1.26,0,2.02-.22,2.68-.5l.3,1.26c-.62.28-1.68.6-3.22.6-2.98,0-4.76-1.96-4.76-4.88s1.72-5.22,4.54-5.22c3.16,0,4,2.78,4,4.56,0,.36-.04.64-.06.82h-6.8Zm5.16-1.26c.02-1.12-.46-2.86-2.44-2.86-1.78,0-2.56,1.64-2.7,2.86h5.14Z"/>
      <path class="cls-1" d="m32.2,449.64c-.02-1.18.94-2.1,2.1-2.1s2.1.92,2.1,2.08-.92,2.1-2.1,2.1-2.1-.9-2.1-2.08Z"/>
      <path class="cls-1" d="m62.52,447.98c0,4.64-2.82,7.1-6.26,7.1s-6.06-2.76-6.06-6.84c0-4.28,2.66-7.08,6.26-7.08s6.06,2.82,6.06,6.82Zm-10.46.22c0,2.88,1.56,5.46,4.3,5.46s4.32-2.54,4.32-5.6c0-2.68-1.4-5.48-4.3-5.48s-4.32,2.66-4.32,5.62Z"/>
      <path class="cls-1" d="m72.68,445.18v9.68h-1.76v-8.28h-4.5v8.28h-1.74v-9.68h8Z"/>
      <path class="cls-1" d="m76.52,450.34c.04,2.38,1.56,3.36,3.32,3.36,1.26,0,2.02-.22,2.68-.5l.3,1.26c-.62.28-1.68.6-3.22.6-2.98,0-4.76-1.96-4.76-4.88s1.72-5.22,4.54-5.22c3.16,0,4,2.78,4,4.56,0,.36-.04.64-.06.82h-6.8Zm5.16-1.26c.02-1.12-.46-2.86-2.44-2.86-1.78,0-2.56,1.64-2.7,2.86h5.14Z"/>
      <path class="cls-1" d="m85.56,448.34c0-1.24-.04-2.24-.08-3.16h1.58l.08,1.66h.04c.72-1.18,1.86-1.88,3.44-1.88,2.34,0,4.1,1.98,4.1,4.92,0,3.48-2.12,5.2-4.4,5.2-1.28,0-2.4-.56-2.98-1.52h-.04v5.26h-1.74v-10.48Zm1.74,2.58c0,.26.04.5.08.72.32,1.22,1.38,2.06,2.64,2.06,1.86,0,2.94-1.52,2.94-3.74,0-1.94-1.02-3.6-2.88-3.6-1.2,0-2.32.86-2.66,2.18-.06.22-.12.48-.12.72v1.66Z"/>
      <path class="cls-1" d="m102.3,454.86l-.14-1.22h-.06c-.54.76-1.58,1.44-2.96,1.44-1.96,0-2.96-1.38-2.96-2.78,0-2.34,2.08-3.62,5.82-3.6v-.2c0-.8-.22-2.24-2.2-2.24-.9,0-1.84.28-2.52.72l-.4-1.16c.8-.52,1.96-.86,3.18-.86,2.96,0,3.68,2.02,3.68,3.96v3.62c0,.84.04,1.66.16,2.32h-1.6Zm-.26-4.94c-1.92-.04-4.1.3-4.1,2.18,0,1.14.76,1.68,1.66,1.68,1.26,0,2.06-.8,2.34-1.62.06-.18.1-.38.1-.56v-1.68Z"/>
      <path class="cls-1" d="m108.28,445.18v8.3h4.46v-8.3h1.74v8.36l1,.02-.1,4.38h-1.36l-.08-3.08h-7.4v-9.68h1.74Z"/>
      <path class="cls-1" d="m119.2,445.18v4.08c0,1.54-.02,2.5-.1,3.88l.06.02c.58-1.18.92-1.86,1.56-2.98l3.02-5h2.06v9.68h-1.68v-4.1c0-1.58.04-2.4.12-3.96h-.06c-.62,1.24-1.04,2.02-1.6,3-.92,1.5-1.98,3.36-3.02,5.06h-2.02v-9.68h1.66Z"/>
      <path class="cls-1" d="m137.42,449.94c0,3.58-2.48,5.14-4.82,5.14-2.62,0-4.64-1.92-4.64-4.98,0-3.24,2.12-5.14,4.8-5.14s4.66,2.02,4.66,4.98Zm-7.68.1c0,2.12,1.22,3.72,2.94,3.72s2.94-1.58,2.94-3.76c0-1.64-.82-3.72-2.9-3.72s-2.98,1.92-2.98,3.76Z"/>
      <path class="cls-1" d="m141.34,445.18v3.9h4.6v-3.9h1.74v9.68h-1.74v-4.38h-4.6v4.38h-1.74v-9.68h1.74Z"/>
      <path class="cls-1" d="m152.26,445.18v3.9h4.6v-3.9h1.74v9.68h-1.74v-4.38h-4.6v4.38h-1.74v-9.68h1.74Z"/>
      <path class="cls-1" d="m166.84,454.86l-.14-1.22h-.06c-.54.76-1.58,1.44-2.96,1.44-1.96,0-2.96-1.38-2.96-2.78,0-2.34,2.08-3.62,5.82-3.6v-.2c0-.8-.22-2.24-2.2-2.24-.9,0-1.84.28-2.52.72l-.4-1.16c.8-.52,1.96-.86,3.18-.86,2.96,0,3.68,2.02,3.68,3.96v3.62c0,.84.04,1.66.16,2.32h-1.6Zm-.26-4.94c-1.92-.04-4.1.3-4.1,2.18,0,1.14.76,1.68,1.66,1.68,1.26,0,2.06-.8,2.34-1.62.06-.18.1-.38.1-.56v-1.68Z"/>
      <path class="cls-1" d="m178.32,454.86h-1.74v-4.06h-1.3c-.74,0-1.24.2-1.62.54-.72.58-.98,1.78-1.36,2.72-.12.3-.26.56-.4.8h-1.88c.22-.32.42-.68.6-1.1.42-.94.66-2.2,1.52-2.92.3-.26.66-.48,1.1-.56v-.06c-1.26-.14-2.56-.92-2.56-2.4,0-1,.54-1.68,1.28-2.1.8-.46,1.98-.66,3.24-.66,1.16,0,2.28.1,3.12.2v9.6Zm-1.74-8.52c-.44-.06-.84-.1-1.46-.1-1.2,0-2.62.34-2.62,1.68,0,1.24,1.54,1.68,2.58,1.68h1.5v-3.26Z"/>
      <path class="cls-1" d="m192.92,445.18v8.36l1,.02-.1,4.38h-1.38l-.08-3.08h-6.7l-.08,3.08h-1.38l-.08-4.38.82-.02c.42-.62.74-1.28.96-1.98.38-1.2.56-2.5.56-3.86v-2.52h6.46Zm-4.9,2.94c0,1.28-.18,2.52-.5,3.6-.2.66-.48,1.26-.78,1.8h4.46v-7h-3.18v1.6Z"/>
      <path class="cls-1" d="m196.91,450.34c.04,2.38,1.56,3.36,3.32,3.36,1.26,0,2.02-.22,2.68-.5l.3,1.26c-.62.28-1.68.6-3.22.6-2.98,0-4.76-1.96-4.76-4.88s1.72-5.22,4.54-5.22c3.16,0,4,2.78,4,4.56,0,.36-.04.64-.06.82h-6.8Zm5.16-1.26c.02-1.12-.46-2.86-2.44-2.86-1.78,0-2.56,1.64-2.7,2.86h5.14Z"/>
      <path class="cls-1" d="m213.14,454.86h-1.74v-4.06h-1.3c-.74,0-1.24.2-1.62.54-.72.58-.98,1.78-1.36,2.72-.12.3-.26.56-.4.8h-1.88c.22-.32.42-.68.6-1.1.42-.94.66-2.2,1.52-2.92.3-.26.66-.48,1.1-.56v-.06c-1.26-.14-2.56-.92-2.56-2.4,0-1,.54-1.68,1.28-2.1.8-.46,1.98-.66,3.24-.66,1.16,0,2.28.1,3.12.2v9.6Zm-1.74-8.52c-.44-.06-.84-.1-1.46-.1-1.2,0-2.62.34-2.62,1.68,0,1.24,1.54,1.68,2.58,1.68h1.5v-3.26Z"/>
      <path class="cls-1" d="m222.48,445.18v1.4h-3.02v8.28h-1.74v-8.28h-3.02v-1.4h7.78Z"/>
      <path class="cls-1" d="m224.74,450.34c.04,2.38,1.56,3.36,3.32,3.36,1.26,0,2.02-.22,2.68-.5l.3,1.26c-.62.28-1.68.6-3.22.6-2.98,0-4.76-1.96-4.76-4.88s1.72-5.22,4.54-5.22c3.16,0,4,2.78,4,4.56,0,.36-.04.64-.06.82h-6.8Zm5.16-1.26c.02-1.12-.46-2.86-2.44-2.86-1.78,0-2.56,1.64-2.7,2.86h5.14Z"/>
      <path class="cls-1" d="m241.14,445.18v9.68h-1.74v-8.3h-3.32v2.52c0,2.72-.26,4.54-1.52,5.36-.48.38-1.02.6-1.92.6l-.18-1.38c.34-.06.72-.2.96-.4.9-.66,1-2.02,1-4.18v-3.9h6.72Z"/>
      <path class="cls-1" d="m245.71,445.18v3.28c.4-.08,1.08-.1,1.6-.1,2.18,0,4.48.68,4.48,3.26,0,1-.4,1.7-1.02,2.22-1.06.9-2.78,1.12-4.2,1.12-.98,0-1.88-.06-2.6-.14v-9.64h1.74Zm0,8.46c.34.04.72.08,1.3.08,1.32,0,3.02-.44,3.02-2.06s-1.76-2.04-3.06-2.04c-.46,0-.86.04-1.26.1v3.92Z"/>
      <path class="cls-1" d="m255.67,445.18v3.9h4.6v-3.9h1.74v9.68h-1.74v-4.38h-4.6v4.38h-1.74v-9.68h1.74Z"/>
      <path class="cls-1" d="m273.66,449.94c0,3.58-2.48,5.14-4.82,5.14-2.62,0-4.64-1.92-4.64-4.98,0-3.24,2.12-5.14,4.8-5.14s4.66,2.02,4.66,4.98Zm-7.68.1c0,2.12,1.22,3.72,2.94,3.72s2.94-1.58,2.94-3.76c0-1.64-.82-3.72-2.9-3.72s-2.98,1.92-2.98,3.76Z"/>
      <path class="cls-1" d="m282.78,454.5c-.46.24-1.48.56-2.78.56-2.92,0-4.82-1.98-4.82-4.94s2.04-5.14,5.2-5.14c1.04,0,1.96.26,2.44.5l-.4,1.36c-.42-.24-1.08-.46-2.04-.46-2.22,0-3.42,1.64-3.42,3.66,0,2.24,1.44,3.62,3.36,3.62,1,0,1.66-.26,2.16-.48l.3,1.32Z"/>
      <path class="cls-1" d="m291.7,445.18v1.4h-3.02v8.28h-1.74v-8.28h-3.02v-1.4h7.78Z"/>
      <path class="cls-1" d="m294.93,445.18v3.28c.4-.08,1.08-.1,1.6-.1,2.18,0,4.48.68,4.48,3.26,0,1-.4,1.7-1.02,2.22-1.06.9-2.78,1.12-4.2,1.12-.98,0-1.88-.06-2.6-.14v-9.64h1.74Zm0,8.46c.34.04.72.08,1.3.08,1.32,0,3.02-.44,3.02-2.06s-1.76-2.04-3.06-2.04c-.46,0-.86.04-1.26.1v3.92Z"/>
      <path class="cls-1" d="m307.39,445.3c.68-.12,1.94-.22,3.08-.22,1.62,0,4.3.26,4.3,2.42,0,1.2-.92,1.94-2.02,2.18v.04c1.42.2,2.46,1,2.46,2.4,0,2.54-3.2,2.86-5.1,2.86-1.08,0-2.2-.08-2.72-.12v-9.56Zm1.66,8.4c.5.06.86.08,1.42.08,1.18,0,2.94-.28,2.94-1.68s-1.4-1.7-3.08-1.7h-1.28v3.3Zm.02-4.46h1.32c1.3,0,2.64-.38,2.64-1.52,0-.96-.84-1.42-2.6-1.42-.58,0-.94.04-1.36.08v2.86Z"/>
      <path class="cls-1" d="m328.93,445.18v9.68h-1.74v-8.3h-3.32v2.52c0,2.72-.26,4.54-1.52,5.36-.48.38-1.02.6-1.92.6l-.18-1.38c.34-.06.72-.2.96-.4.9-.66,1-2.02,1-4.18v-3.9h6.72Z"/>
      <path class="cls-1" d="m340.57,449.94c0,3.58-2.48,5.14-4.82,5.14-2.62,0-4.64-1.92-4.64-4.98,0-3.24,2.12-5.14,4.8-5.14s4.66,2.02,4.66,4.98Zm-7.68.1c0,2.12,1.22,3.72,2.94,3.72s2.94-1.58,2.94-3.76c0-1.64-.82-3.72-2.9-3.72s-2.98,1.92-2.98,3.76Z"/>
      <path class="cls-1" d="m348.69,445.18v1.42h-4.2v8.26h-1.74v-9.68h5.94Z"/>
      <path class="cls-1" d="m351.97,445.18v4.08c0,1.54-.02,2.5-.1,3.88l.06.02c.58-1.18.92-1.86,1.56-2.98l3.02-5h2.06v9.68h-1.68v-4.1c0-1.58.04-2.4.12-3.96h-.06c-.62,1.24-1.04,2.02-1.6,3-.92,1.5-1.98,3.36-3.02,5.06h-2.02v-9.68h1.66Z"/>
      <path class="cls-1" d="m368.33,454.5c-.46.24-1.48.56-2.78.56-2.92,0-4.82-1.98-4.82-4.94s2.04-5.14,5.2-5.14c1.04,0,1.96.26,2.44.5l-.4,1.36c-.42-.24-1.08-.46-2.04-.46-2.22,0-3.42,1.64-3.42,3.66,0,2.24,1.44,3.62,3.36,3.62,1,0,1.66-.26,2.16-.48l.3,1.32Z"/>
      <path class="cls-1" d="m377.25,445.18v1.4h-3.02v8.28h-1.74v-8.28h-3.02v-1.4h7.78Z"/>
      <path class="cls-1" d="m380.41,445.18v4.08c0,1.54-.02,2.5-.1,3.88l.06.02c.58-1.18.92-1.86,1.56-2.98l3.02-5h2.06v9.68h-1.68v-4.1c0-1.58.04-2.4.12-3.96h-.06c-.62,1.24-1.04,2.02-1.6,3-.92,1.5-1.98,3.36-3.02,5.06h-2.02v-9.68h1.66Z"/>
      <path class="cls-1" d="m391.61,445.18v4.2h.42l3.64-4.2h2.14l-4.22,4.38c1.56.16,2.5,1.2,3.26,2.94.26.64.6,1.58,1.04,2.36h-1.84c-.26-.42-.6-1.18-.9-1.98-.66-1.56-1.56-2.28-3.2-2.28h-.34v4.26h-1.74v-9.68h1.74Z"/>
      <path class="cls-1" d="m400.31,450.34c.04,2.38,1.56,3.36,3.32,3.36,1.26,0,2.02-.22,2.68-.5l.3,1.26c-.62.28-1.68.6-3.22.6-2.98,0-4.76-1.96-4.76-4.88s1.72-5.22,4.54-5.22c3.16,0,4,2.78,4,4.56,0,.36-.04.64-.06.82h-6.8Zm5.16-1.26c.02-1.12-.46-2.86-2.44-2.86-1.78,0-2.56,1.64-2.7,2.86h5.14Z"/>
    </g>
    <g>
      <path class="cls-2" d="m193.65,15.81c-3.25-.56-6.29-1.01-9.48-1.4l-10.46-1.29c-.79-.1-1.65-.23-2.36-.28-4.19-.29-8.3-.97-12.45-1.43-1.57-.18-3.13-.4-4.7-.59-2.7-.33-5.41-.65-8.11-.98l-9.36-1.02c-.44-.05-.99-.09-1.31-.15-1.48-.3-3.05-.52-4.66-.72-1.55-.18-3.13-.37-4.69-.55-.79-.1-1.57-.18-2.39-.27-1.54-.15-3.03-.3-4.56-.46h-.08c.66-.06,1.34-.12,2.02-.18.71-.06,1.42-.11,2.23-.16,1.07-.06,2.2-.1,3.11-.08.37,0,.75-.01,1.16-.04.52-.04,1.08-.08,1.58-.12,4.55-.31,9.11-.61,13.66-.92,1.44-.1,2.9-.24,4.34-.36.44-.04.93-.12,1.29-.14,5.86-.19,11.98-.73,17.93-1.05,1.57-.08,3.18-.22,4.77-.32,3.26-.21,6.52-.42,9.79-.63,2.02-.14,4.03-.36,6.06-.53,1.24-.1,2.62-.24,3.72-.27,3.92-.09,7.87-.46,11.85-.77,1.13-.09,2.26-.15,3.39-.22.5-.03,1.36-.08,1.21-.06.07,0,.12,0,.19,0h0s-.15.15-.15.15l-1.05,1.04-2.61,2.57c-1.74,1.71-3.5,3.4-5.31,5.05-1.14,1.04-2.48,2.44-3.51,3.57-.62.68-1.05,1.37-1.15,1.67-.13.41.56.01,1.65-.99,2.09-1.91,4.08-3.6,6.33-5.92,2.48-2.56,5.09-5.12,7.35-7.66.1-.11.19-.22.3-.33-2.61.35-5.65.47-8.49.68-6.05.45-12.1.86-18.15,1.26-8.76.58-17.52,1.15-26.28,1.73-7.25.48-14.51.96-21.76,1.44-1.43.1-2.93.21-4.31.36-.59.06-1.18.11-1.76.17-.7.05-1.39.1-2.09.16-1.69.11-3.37.21-5.04.32-.7.11-1.31.24-1.83.38-.2.06-.4.11-.61.17.66.22,1.28.45,1.9.68,1.51.17,3.03.35,4.55.53l10.8,1.26c4.49.53,8.99,1.07,13.48,1.6,4.42.53,8.84,1.07,13.27,1.6,1.92.21,3.85.43,5.78.64,3.18.36,6.27.73,9.44,1.19,2.86.42,6.03.69,9.07,1.03,1.32.15,2.7.32,3.94.51,1.12.18,1.7.21,2.54.1Z"/>
      <path class="cls-2" d="m189.22,21.69c-.41,2.62-1.26,5.11-1.95,7.64-.2.71-.34,1.45-.55,2.15-.5,1.64-1,3.27-1.5,4.91-.15.5-.27,1-.41,1.51-.03.09-.03.2-.07.28-.6,1.55-.78,3.28-1.43,4.8-.02.06-.05.12-.06.18-.23,1.57-.85,3.01-1.27,4.51l-.28.98c-.13-.11-.27-.23-.36-.35l-.03-.05-.02-.02s-.07-.05-.09-.08l-.46-.35c-.31-.23-.62-.46-.93-.69-.63-.46-1.25-.92-1.84-1.42-.07-.06-.16-.14-.24-.17-.65-.21-1.12-.69-1.66-1.1-.43-.33-.91-.6-1.36-.91-.43-.29-.84-.61-1.26-.91l-2.43-1.72c-.21-.15-.44-.28-.63-.44-.9-.79-1.83-1.47-2.92-2.01-.45-.22-.87-.65-1.32-.96-.52-.37-.99-.78-1.61-1.02-.35-.14-.76-.48-1.09-.76-.81-.71-1.68-1.28-2.63-1.8-.64-.35-1.25-.82-1.87-1.23-.35-.23-.68-.53-1.04-.71-1.14-.58-2.18-1.35-3.25-2.07-.21-.14-.45-.24-.67-.38-.31-.2-.62-.43-.92-.65-.19-.13-.37-.29-.56-.38-1.01-.5-1.88-1.2-2.79-1.87-.91-.67-1.88-1.26-2.82-1.89l-2.59-1.72-.82-.52c-1.47-.93-3.01-1.79-4.38-2.82-1.31-.99-2.69-1.77-4.03-2.66-1.19-.79-2.35-1.63-3.51-2.44-.83-.58-1.64-1.14-2.54-1.61-.6-.31-1.17-.8-1.75-1.21-.19-.13-.37-.27-.57-.38-.21-.11-.41-.23-.61-.35l-.53-.32c-.29-.18-.57-.38-.84-.57-.54-.39-.98-.76-1.35-1.07-.2-.17-.52-.37-.93-.61-.44-.26-.87-.52-1.31-.78-.14-.08-.28-.16-.42-.24.03,0,.08,0,.18.03.7.2,1.07.26,1.42.31.35.04.67.06,1.09.12.56.08,1.21.2,1.85.32l2.06.41,1.25.22,1.71.34,1.44.27c.53.09,1.07.18,1.6.26.83.12,1.66.21,2.49.35,1.05.17,2.09.37,3.14.55l3.52.6c.38.07.76.17,1.14.23l4.9.83,3.81.72,4.61.81c.73.13,1.44.33,2.17.46l5.95,1.07c1.53.27,3.06.52,4.58.81,1.89.36,3.78.78,5.67,1.1,1.24.21,2.46.54,3.72.63.71.05,1.45.28,2.18.4l5.54.91c.15.03.33.05.46.03.62-.09,1.24.08,1.87.24.12.03.24.09.36.11.38.06.65-.04.66-.22,0-.11-.23-.31-.44-.4-.2-.09-.5-.11-.75-.15l-4.81-.77c-1.09-.17-2.18-.32-3.26-.5-1.3-.24-2.6-.48-3.9-.72-2.43-.43-4.87-.83-7.3-1.29-1.88-.35-3.78-.6-5.62-1.16-.33-.1-.7-.14-1.05-.2l-3.33-.6-4.89-.86-2.38-.47c-1.98-.37-3.96-.76-5.94-1.1l-9.13-1.55-4.41-.77-1.9-.31c-2.1-.35-3.9-.62-6.58-1.11-2.16-.41-4.31-.82-6.47-1.23l-.48-.09,3.99,2.65,2.85,1.93,2.28,1.52,2.46,1.69,3.18,2.08c1.62,1.08,3.25,2.15,4.89,3.19,2.27,1.44,4.48,2.99,6.73,4.46,1.19.78,2.42,1.51,3.62,2.29.95.62,1.89,1.27,2.83,1.9l2.27,1.51c1.78,1.19,3.54,2.39,5.33,3.56,1.27.83,2.58,1.58,3.85,2.41,1.36.88,2.7,1.81,4.06,2.7.64.42,1.31.79,1.95,1.22.7.47,1.37.97,2.05,1.46l7.7,5.49,3.56,2.55c.06.04.11.1.17.15l.73.58.37-1.15.95-3.23c.37-1.3.66-2.66,1.1-3.91.39-1.1.65-2.23,1.01-3.32.99-3.06,1.88-6.18,2.78-9.28l1.75-6.07c.08-.28.15-.57.21-.85.11-.57.04-.87-.19-.91-.25-.05-.56.32-.69.83-.02.06-.02.13-.04.19Z"/>
      <path class="cls-2" d="m190.87,36.03s0-.11-.04-.15c-.25-.19-.51-.36-.77-.53-.03-.02-.08-.07-.11-.05-.43.14-.66-.23-1-.31-.28-.07-.55-.15-.84-.2-.2-.04-.4-.04-.57-.2-.2-.18-.89.02-1.13.28.21.22.49.29.77.36.66.17,1.33.32,1.99.49.24.06.45.19.68.29.53.24,1.06.46,1.58.72.44.22.85.5,1.29.72.87.45,1.74.9,2.62,1.32.35.17.7.33,1.05.49l.26.12c.08.04.09.03.14.05l.22.08c.21.08.3,0,.54.22.14.13.26.2.35.24-.07-.31-.21-.61-.1-.76.03-.05-.03-.14-.04-.21l-.2-1.43c-.1-.73-.07-1.48-.25-2.21-.14-.54-.1-1.12-.14-1.69-.05-.81-.08-1.63-.13-2.44l-.24-2.97c-.02-.27-.01-.55-.01-.82,0-.34,0-.69,0-1.03-.02-.61-.04-1.22-.08-1.82l-.19-2.48c-.01-.22.02-.44.01-.66l-.05-1.45c0-.22.01-.44.02-.66l.07-1.96c0-.18.03-.35.27-.49.1-.06.16-.2.16-.3,0-.1-.06-.23-.15-.27-.09-.03-.29,0-.38.07-.37.25-.43.38-.32.66.05.13.05.27.05.4,0,.31.01.62.02,1.02-.2.16-.33.42-.17.73.04.08.05.2.02.29-.3.76.06,1.47.03,2.21-.02.46.07.9.09,1.35,0,.07-.07.15-.1.23-.03.08-.1.19-.06.24.24.27,0,.59.06.88.07.3.02.63.1.93.09.35.21.69.11,1.06-.2.7.08,1.36.08,2.05,0,.07.05.14.02.2-.28.63.05,1.2.08,1.79,0,.05.05.11.03.16-.27.55-.11,1.06.03,1.58.06.21.08.44.02.66-.06.25-.03.46.03.69.11.44.26.86.18,1.33-.05.31.03.63.12.93.06.22.11.42.01.65-.11.25-.1.5,0,.74.09.23.13.47.24.7.08.17.09.33.08.5-.02.14-.04.42-.11.36-.09.01-.09-.01,0,.03.1.05.11.09.16.16.04.05.1.13-.04.01-.14-.13-.07-.05-.05-.02l.02.05s.02.06.01.08c0,.03-.02.08-.06.06-.03-.01-.08-.06-.11-.12-.02-.04-.04-.06-.05-.07,0,0-.02,0-.03,0-.01,0,0,0-.03-.01l-.11-.05c-.15-.07-.29-.15-.43-.23-.29-.19-.58-.37-.93-.44-.03,0-.06,0-.08-.03-.32-.47-.9-.45-1.32-.75-.24-.17-.55-.22-.83-.33-.08-.03-.17-.07-.2-.14-.16-.38-.51-.42-.83-.48-.29-.06-.57-.11-.78-.34-.1-.11-.33-.07-.54-.1Z"/>
    </g>
    <g>
      <path class="cls-2" d="m227.34,29.79c-.17.16-.29.24-.37.24h-.27s-.06.03-.05,0c.02-.23-.18-.06-.26-.11-.03-.02-.09,0-.13,0-.07,0-.14,0-.2-.02-.06-.03-.11-.09-.17-.13,0,0,0-.03-.03,0-.21.23-.23.11-.31.12-.06,0-.07-.09-.1-.14-.03-.05-.05-.13-.23.07-.06.07-.06.02-.09.02-.11,0-.23-.01-.33-.03-.03,0-.05-.05-.06-.08,0,0,.01-.07,0-.05-.26.2-.33.05-.53.12-.05.02-.07-.01-.11-.01-.08,0-.18.03-.25,0-.04-.01-.05-.1-.08-.14-.02-.02-.03-.07-.08-.02-.2.17-.23.05-.31,0-.04-.03-.14.04-.18,0-.09-.06-.14-.18-.34-.06-.06.04-.07-.04-.05-.14.01-.06.11-.27.19-.42.11-.21.24-.4.3-.44.11-.07.28-.24.29-.12.01.13.09.16.02.43-.06.23.07.14.13.17.12.06.27.07.42.08.21.02.44.02.66.02.18,0,.36.01.54.03.03,0,.06.02.06.08,0,.14.15.03.25.01.08-.01.13.02.2.04l.22.06c.1.02.2.05.31.06.1.02.22.02.32.04.04,0,.07.05.11.07.06.03.13.05.25-.02.11-.07.12.06.18.09.03.01.06.01.12-.03.05-.04.04,0-.05.21Z"/>
      <path class="cls-2" d="m242.4,36c-.23.15-.4.2-.54.18l-.48-.06s-.09.02-.1-.03c-.08-.27-.35-.11-.51-.19-.06-.03-.15,0-.22-.02-.12-.02-.25-.03-.36-.07-.13-.05-.24-.13-.36-.2-.02,0-.03-.04-.05-.02-.25.22-.34.08-.49.06-.11-.01-.17-.12-.25-.18-.08-.07-.16-.17-.37.03-.07.06-.1,0-.15,0-.2-.04-.41-.07-.6-.12-.06-.02-.11-.07-.16-.11-.02-.01,0-.07-.03-.06-.36.17-.57-.03-.88,0-.08,0-.14-.03-.21-.04-.15-.02-.31-.02-.45-.06-.09-.03-.13-.13-.21-.18-.04-.03-.08-.09-.16-.05-.26.15-.39,0-.54-.07-.09-.04-.23,0-.31-.04-.19-.1-.35-.25-.64-.15-.09.03-.14-.06-.15-.18,0-.07.06-.28.13-.45.09-.21.23-.41.31-.44.17-.06.37-.21.45-.07.09.16.24.21.26.51.01.25.2.19.33.24.25.1.51.15.78.2.39.07.79.13,1.18.19.33.05.65.11.97.17.06.01.12.04.15.11.08.17.29.07.45.08.14,0,.25.06.37.09l.42.13c.19.05.38.11.58.15.19.04.39.07.58.12.08.02.15.07.23.11.13.06.26.09.44.04.16-.05.24.1.37.15.05.02.11.03.19,0,.07-.03.08.01.01.24Z"/>
      <path class="cls-2" d="m257.91,41.22c-.21.16-.38.23-.53.22l-.48-.03s-.09.03-.1-.02c-.1-.26-.36-.09-.53-.16-.06-.03-.15,0-.22,0-.12-.01-.25-.02-.36-.05-.13-.04-.25-.11-.37-.17-.02,0-.03-.04-.06-.01-.23.24-.34.1-.48.09-.11,0-.18-.11-.26-.17-.09-.06-.17-.16-.36.05-.06.07-.1.02-.15.01-.21-.02-.41-.04-.61-.08-.06-.01-.11-.06-.16-.1-.02-.01-.02-.07-.04-.06-.35.19-.57.01-.87.07-.08.01-.14-.03-.21-.03-.15-.01-.31,0-.45-.03-.09-.02-.14-.12-.22-.17-.05-.03-.09-.09-.16-.04-.25.17-.39.03-.55-.04-.09-.04-.22.02-.32-.02-.2-.08-.37-.23-.65-.11-.09.04-.14-.05-.17-.17-.02-.07.04-.29.09-.45.07-.22.19-.43.28-.46.16-.07.35-.23.45-.1.11.15.26.2.3.49.03.25.22.17.34.21.25.08.52.12.8.15.39.05.8.08,1.19.11.33.03.66.06.98.11.06,0,.12.03.16.1.1.16.29.05.45.05.13,0,.25.04.37.07l.43.1c.2.04.39.08.59.11.2.03.4.05.59.08.08.02.16.06.24.09.13.05.27.07.44,0,.16-.06.25.08.38.12.06.02.12.02.19-.02.07-.04.08,0,.03.23Z"/>
      <path class="cls-2" d="m273.81,45.41c-.2.18-.36.25-.51.25h-.48s-.09.03-.11-.01c-.12-.26-.36-.07-.54-.12-.07-.02-.15,0-.22,0-.12,0-.25,0-.37-.03-.13-.03-.26-.1-.39-.15-.02,0-.03-.04-.06-.01-.21.25-.33.12-.48.12-.11,0-.18-.1-.27-.15-.09-.05-.18-.14-.36.08-.05.07-.1.02-.15.02-.21,0-.41-.02-.62-.04-.06,0-.12-.06-.17-.09-.02-.01-.02-.07-.04-.06-.33.21-.57.05-.86.12-.08.02-.14-.02-.22-.02-.15,0-.31.02-.45,0-.09-.01-.15-.11-.23-.15-.05-.03-.1-.08-.16-.03-.24.18-.38.06-.55,0-.09-.03-.22.04-.32,0-.2-.07-.39-.2-.66-.07-.09.04-.15-.04-.18-.16-.02-.07.01-.29.06-.46.06-.22.16-.44.24-.48.16-.08.33-.26.44-.13.12.14.27.18.34.47.05.25.23.16.36.19.26.06.53.08.81.1.4.02.8.02,1.2.04.33.01.66.02.99.04.06,0,.13.03.17.09.11.16.3.03.46.02.13-.01.25.03.38.05l.44.07c.2.03.4.05.6.07.2.02.4.02.6.04.09,0,.16.05.24.08.13.04.27.05.44-.02.15-.07.26.07.39.1.06.01.12.02.19-.03.06-.04.08,0,.05.23Z"/>
      <path class="cls-2" d="m289.98,48.75c-.19.18-.35.27-.5.27l-.48.02s-.08.03-.11,0c-.13-.25-.37-.05-.54-.1-.07-.02-.15.02-.22.02-.12,0-.25.01-.37-.01-.14-.03-.26-.09-.39-.13-.02,0-.04-.04-.06,0-.2.26-.32.14-.47.14-.11,0-.19-.09-.28-.14-.1-.05-.19-.14-.35.09-.05.07-.1.03-.14.03-.21,0-.41,0-.62-.01-.06,0-.12-.05-.18-.08-.02-.01-.03-.07-.05-.06-.32.23-.56.07-.85.16-.08.02-.14-.01-.22,0-.15,0-.31.04-.45.02-.09-.01-.16-.1-.24-.14-.05-.02-.1-.07-.16-.02-.23.19-.38.07-.54.02-.1-.03-.22.05-.31.02-.21-.06-.4-.19-.66-.04-.08.05-.15-.04-.19-.15-.03-.07,0-.29.02-.46.04-.23.13-.45.21-.49.15-.08.31-.27.43-.14.13.14.29.17.37.46.07.25.24.15.37.18.26.05.54.06.81.06.4,0,.8-.01,1.2-.01.33,0,.66,0,.99,0,.06,0,.13.02.18.08.12.15.3.02.46,0,.13-.02.26.02.38.03l.44.05c.2.02.4.04.6.05.2.01.4,0,.6.02.09,0,.16.05.25.07.14.03.28.04.44-.04.15-.08.26.06.39.08.06.01.12.01.19-.04.06-.05.08,0,.06.23Z"/>
      <path class="cls-2" d="m306.27,51.19c-.17.2-.31.3-.46.33l-.48.07s-.08.04-.11,0c-.16-.23-.37-.01-.55-.04-.07-.01-.14.03-.22.04-.12.01-.25.04-.37.02-.14-.01-.27-.06-.41-.09-.02,0-.04-.03-.06,0-.17.28-.3.16-.45.18-.11.01-.2-.07-.29-.11-.1-.04-.2-.12-.34.12-.04.08-.09.03-.14.04-.21.01-.41.03-.62.03-.06,0-.12-.04-.18-.07-.02,0-.03-.07-.05-.05-.3.25-.56.11-.84.22-.08.03-.14,0-.22,0-.15.02-.3.06-.45.05-.09,0-.17-.09-.25-.13-.05-.02-.11-.07-.17-.01-.21.21-.37.09-.54.05-.1-.02-.22.06-.31.04-.21-.05-.41-.17-.66,0-.08.05-.15-.03-.2-.14-.03-.07-.02-.29,0-.46.03-.23.1-.45.18-.5.14-.09.3-.29.42-.16.13.13.29.15.39.44.09.24.25.14.38.16.27.04.54.03.81.02.4-.02.8-.06,1.19-.09.33-.02.66-.05.98-.07.06,0,.13.01.18.07.13.14.3,0,.45-.04.13-.03.25,0,.38,0h.44c.2.01.4.01.6,0,.2-.01.4-.03.6-.04.09,0,.17.03.25.04.14.02.28.01.43-.09.14-.09.26.03.4.04.06,0,.12,0,.18-.06.06-.05.08,0,.09.22Z"/>
      <path class="cls-2" d="m322.57,50.64c-.09.24-.19.37-.32.43l-.43.19s-.06.06-.1.03c-.23-.18-.36.08-.54.1-.07,0-.13.06-.19.09-.11.04-.23.1-.34.11-.14.02-.28,0-.42,0-.02,0-.05-.02-.06.01-.08.31-.25.23-.38.28-.1.04-.21-.03-.32-.04-.11-.02-.23-.07-.3.2-.02.08-.08.05-.13.07-.2.06-.39.12-.59.17-.06.01-.13-.01-.2-.03-.02,0-.05-.06-.06-.04-.23.3-.51.23-.77.39-.07.04-.14.03-.21.05-.14.04-.28.12-.43.14-.09.01-.19-.06-.28-.08-.06-.01-.12-.05-.17.02-.16.24-.35.16-.53.15-.1,0-.2.1-.3.09-.22-.01-.44-.09-.66.11-.07.06-.16,0-.23-.1-.04-.06-.09-.28-.1-.45-.02-.23,0-.46.07-.52.12-.11.23-.33.37-.24.16.11.32.1.48.36.14.22.27.09.41.08.27-.01.53-.07.8-.14.38-.1.76-.22,1.14-.33.31-.09.62-.19.93-.28.06-.02.13-.02.19.03.17.11.29-.07.43-.14.12-.06.24-.06.36-.09l.43-.09c.19-.05.38-.09.57-.15.18-.06.37-.12.55-.19.08-.02.17-.01.25-.02.14-.02.27-.06.38-.19.1-.12.26-.04.39-.07.06-.01.11-.03.15-.1.03-.06.07-.03.16.19Z"/>
      <path class="cls-2" d="m336,43.52c.15.2.19.36.15.48-.04.13-.09.27-.14.4-.01.03,0,.08-.05.08-.3,0-.2.27-.33.39-.05.04-.05.12-.08.18-.06.1-.11.2-.19.28-.09.09-.22.16-.33.23-.02.01-.05,0-.04.04.13.29-.06.32-.13.43-.06.09-.19.09-.29.13-.1.04-.23.06-.13.31.03.08-.04.09-.06.12-.13.15-.25.3-.4.44-.04.04-.12.05-.19.07-.02,0-.08-.03-.08,0-.01.37-.3.44-.43.7-.03.07-.11.09-.15.14-.1.11-.18.24-.3.32-.07.05-.2.04-.29.07-.06.02-.13.02-.13.1,0,.28-.22.3-.38.37-.09.04-.12.18-.22.22-.2.09-.44.12-.53.39-.03.08-.14.07-.26,0-.07-.03-.22-.21-.32-.36-.14-.19-.23-.41-.21-.49.05-.15.03-.39.2-.37.2.03.33-.05.61.11.24.14.29-.05.4-.11.23-.13.43-.3.62-.48.28-.26.53-.54.78-.82l.61-.69s.09-.08.18-.07c.2,0,.19-.2.26-.33.06-.11.16-.17.24-.26.1-.1.2-.19.28-.29.12-.13.23-.27.34-.41.1-.14.18-.3.27-.44.04-.06.11-.1.16-.16.08-.09.14-.19.11-.35-.03-.14.13-.17.19-.27.02-.04.04-.09,0-.15-.03-.06.01-.06.25.03Z"/>
      <path class="cls-2" d="m326.69,41.92c-.1-.22-.11-.38-.05-.49l.2-.38s0-.08.06-.08c.3.03.22-.26.35-.37.05-.05.06-.12.1-.17.07-.09.13-.19.22-.26.11-.08.23-.13.36-.19.02,0,.05,0,.04-.03-.09-.31.1-.31.2-.41.07-.08.2-.06.31-.08.11-.02.24-.02.19-.29-.02-.09.05-.08.09-.11.16-.12.33-.25.51-.35.06-.03.13-.03.2-.03.02,0,.07.05.08.02.13-.36.45-.35.67-.56.06-.05.14-.05.21-.09.14-.07.28-.16.44-.2.1-.03.21.03.31.04.06,0,.13.04.18-.04.15-.26.37-.18.57-.19.11,0,.22-.1.34-.09.25,0,.49.11.75-.07.09-.05.18.02.24.13.04.06.05.29.03.46-.02.23-.09.45-.16.51-.14.1-.26.3-.38.2-.14-.11-.29-.12-.45-.38-.14-.22-.28-.09-.41-.08-.27.02-.54.1-.79.2-.37.14-.71.33-1.03.52-.27.16-.52.33-.76.51-.05.03-.11.05-.18.03-.2-.05-.23.16-.32.27-.08.09-.18.14-.27.21-.11.08-.21.16-.31.24-.14.12-.26.24-.38.37-.11.13-.21.27-.31.41-.04.06-.12.1-.17.15-.09.08-.16.18-.15.34,0,.15-.17.16-.25.25-.03.04-.06.08-.04.15.02.07-.03.06-.25-.06Z"/>
      <path class="cls-2" d="m323.63,55.54c-.27-.05-.43-.12-.5-.23-.08-.12-.17-.24-.24-.36-.02-.03-.07-.05-.04-.09.2-.21-.1-.31-.12-.48,0-.06-.07-.11-.1-.17-.05-.1-.1-.2-.12-.31-.02-.12,0-.25.01-.38,0-.02.03-.04,0-.05-.34-.1-.24-.24-.28-.37-.03-.1.04-.19.07-.28.03-.1.1-.2-.18-.29-.09-.03-.05-.08-.06-.12-.04-.19-.08-.37-.1-.56,0-.06.04-.12.06-.18,0-.02.07-.03.06-.05-.3-.26-.16-.5-.29-.76-.03-.07,0-.13-.01-.2-.02-.14-.07-.28-.06-.42,0-.08.1-.16.14-.24.02-.05.08-.1.01-.15-.23-.2-.1-.35-.05-.5.03-.09-.06-.2-.03-.29.07-.19.2-.37.04-.61-.05-.08.04-.14.17-.18.07-.02.32,0,.51.02.25.04.49.12.54.19.09.13.3.28.16.38-.15.11-.18.26-.5.34-.27.07-.16.22-.18.34-.05.24-.04.49-.03.73.02.36.08.72.14,1.07.05.29.11.58.16.86.01.06,0,.11-.06.17-.14.13.04.26.1.39.05.11.05.22.07.33.02.13.04.25.07.38.04.17.08.34.14.5.05.16.14.32.2.47.02.07.02.14.03.21.02.12.07.23.23.31.14.07.06.21.1.32.02.05.05.09.13.11.07.02.04.05-.19.15Z"/>
      <path class="cls-2" d="m336.12,63.09c-.18.19-.34.28-.48.29l-.48.04s-.08.04-.1,0c-.13-.24-.36-.04-.54-.09-.07-.02-.15.02-.22.02-.12,0-.25.01-.37-.01-.13-.03-.26-.09-.39-.14-.02,0-.03-.04-.06,0-.21.25-.33.12-.48.12-.11,0-.18-.1-.27-.15-.09-.06-.18-.15-.36.07-.06.07-.1.02-.15.01-.21-.02-.42-.04-.62-.07-.06-.01-.11-.06-.17-.1-.02-.01-.01-.07-.04-.06-.36.18-.58,0-.89.04-.08.01-.14-.03-.22-.04-.15-.02-.32-.02-.46-.06-.09-.03-.14-.13-.21-.19-.05-.03-.08-.09-.16-.06-.27.14-.4-.01-.55-.1-.09-.05-.23,0-.32-.06-.19-.12-.34-.29-.65-.23-.1.02-.14-.08-.14-.2,0-.07.09-.28.18-.43.12-.2.28-.38.37-.41.17-.04.39-.17.45-.02.07.16.21.23.2.53,0,.26.19.2.31.26.24.11.51.18.77.23.39.08.79.12,1.17.17.32.04.65.07.97.11.06,0,.12.03.16.1.1.16.29.05.45.03.13-.01.25.03.37.05l.43.07c.19.02.39.05.59.06.19,0,.39,0,.58.01.08,0,.16.05.24.06.13.03.27.03.43-.06.14-.08.26.04.39.06.06,0,.12,0,.19-.05.06-.05.08,0,.07.23Z"/>
      <path class="cls-2" d="m352.53,64.45c-.15.21-.29.33-.43.36l-.47.11s-.08.05-.11.01c-.18-.22-.37.01-.55,0-.07,0-.14.04-.21.05-.12.02-.24.05-.36.05-.14,0-.28-.04-.41-.06-.02,0-.04-.03-.06,0-.15.29-.29.18-.43.21-.11.02-.2-.06-.3-.09-.1-.03-.21-.1-.33.15-.04.08-.09.04-.14.05-.2.03-.41.06-.61.08-.06,0-.13-.03-.19-.06-.02,0-.04-.07-.05-.05-.28.27-.54.15-.82.28-.07.03-.14,0-.22.02-.15.03-.3.08-.44.08-.09,0-.17-.08-.26-.11-.05-.02-.11-.06-.17,0-.19.22-.36.12-.54.09-.1-.02-.21.07-.31.06-.22-.03-.42-.14-.66.04-.07.06-.15-.02-.21-.12-.03-.06-.05-.29-.04-.46,0-.23.06-.46.13-.51.14-.1.27-.31.4-.19.15.12.31.13.43.41.11.24.26.12.39.13.27.02.54,0,.81-.04.39-.05.79-.12,1.18-.18.33-.05.65-.1.97-.15.06,0,.13,0,.19.05.14.13.3-.02.45-.07.13-.04.25-.02.38-.03l.44-.02c.2-.01.4-.03.6-.05.2-.03.4-.06.59-.08.09,0,.17.02.26.02.14,0,.28,0,.42-.12.13-.1.27,0,.4,0,.06,0,.12,0,.18-.07.05-.06.08-.02.11.21Z"/>
      <path class="cls-2" d="m368.99,63.56c-.11.23-.23.36-.36.41l-.45.17s-.07.06-.1.03c-.21-.2-.36.06-.55.07-.07,0-.13.06-.2.08-.12.04-.23.09-.35.1-.14.01-.28,0-.42,0-.02,0-.05-.02-.06,0-.1.3-.26.22-.39.27-.1.04-.21-.03-.31-.05-.11-.02-.23-.07-.3.19-.02.08-.08.05-.13.07-.2.06-.39.12-.59.16-.06.01-.13-.02-.2-.03-.02,0-.05-.06-.06-.04-.23.3-.51.23-.76.39-.07.04-.14.03-.21.05-.14.05-.28.12-.43.14-.09.01-.19-.06-.28-.07-.06-.01-.12-.05-.16.02-.15.24-.34.17-.52.16-.1,0-.2.1-.3.1-.22,0-.44-.08-.65.13-.06.06-.16,0-.23-.09-.05-.06-.09-.28-.12-.45-.03-.23-.01-.46.05-.52.12-.12.22-.34.37-.25.16.1.33.09.5.35.15.22.28.08.41.07.27-.02.53-.08.8-.15.38-.1.76-.22,1.14-.34.31-.09.63-.18.94-.28.06-.02.13-.02.19.03.17.11.29-.06.43-.13.12-.06.25-.06.37-.08l.44-.08c.2-.04.39-.08.58-.13.19-.05.38-.11.57-.16.08-.02.17,0,.26-.01.14,0,.27-.04.4-.17.11-.12.26-.03.4-.05.06,0,.12-.03.16-.09.04-.06.07-.03.14.2Z"/>
      <path class="cls-2" d="m385.1,60.44c-.07.24-.17.39-.29.46l-.41.23s-.06.07-.1.04c-.24-.16-.35.11-.53.15-.07.01-.12.08-.18.11-.11.05-.21.12-.33.15-.13.03-.28.03-.42.05-.02,0-.05-.02-.06.02-.04.31-.22.25-.34.32-.1.05-.21,0-.32,0-.11,0-.24-.04-.27.23,0,.09-.07.06-.12.08-.19.08-.37.17-.56.24-.06.02-.13,0-.2,0-.02,0-.06-.05-.07-.03-.18.33-.47.29-.69.49-.06.05-.13.05-.2.08-.13.06-.26.16-.4.2-.09.03-.19-.03-.29-.03-.06,0-.13-.03-.16.05-.11.26-.31.21-.48.23-.1.01-.18.13-.28.14-.22.02-.45-.02-.62.21-.05.07-.15.02-.24-.06-.05-.05-.14-.26-.19-.43-.07-.22-.09-.45-.04-.52.1-.13.16-.36.32-.29.18.08.34.04.55.28.18.2.29.04.42.02.26-.05.51-.15.76-.26.36-.15.71-.32,1.07-.49.29-.13.59-.27.88-.4.06-.03.12-.03.2,0,.18.09.28-.1.4-.19.11-.07.23-.09.35-.13l.42-.14c.19-.07.37-.13.56-.21.18-.08.36-.16.54-.24.08-.03.17-.03.25-.05.14-.03.26-.08.36-.23.09-.13.26-.06.38-.1.06-.02.11-.04.14-.12.03-.07.07-.03.17.18Z"/>
      <path class="cls-2" d="m400.55,55.2c-.04.25-.11.4-.23.48l-.38.27s-.05.07-.09.05c-.27-.14-.33.15-.51.2-.07.02-.11.09-.17.13-.1.06-.2.14-.31.18-.13.05-.27.07-.41.1-.02,0-.05-.01-.05.02,0,.32-.18.28-.29.36-.09.06-.21.02-.32.03-.11,0-.24-.01-.23.26,0,.09-.06.07-.1.1-.17.11-.34.22-.52.31-.06.03-.13.02-.2.02-.02,0-.07-.05-.07-.02-.12.35-.42.35-.6.58-.05.06-.12.07-.18.11-.12.08-.23.19-.36.25-.08.04-.19,0-.29,0-.06,0-.13,0-.15.07-.07.28-.27.26-.44.3-.1.03-.15.15-.25.18-.21.06-.44.05-.57.31-.04.08-.15.05-.25-.02-.06-.04-.18-.24-.26-.39-.11-.21-.16-.44-.13-.51.07-.15.09-.39.26-.34.19.05.34,0,.58.19.21.17.29,0,.41-.05.25-.09.48-.23.71-.37.33-.2.65-.42.97-.63.27-.17.54-.35.81-.51.05-.03.12-.05.2-.02.19.06.26-.14.37-.24.1-.09.22-.12.33-.17l.39-.19c.18-.09.35-.18.52-.27.17-.09.33-.2.5-.29.07-.04.16-.05.24-.07.13-.04.25-.11.33-.26.07-.14.25-.09.37-.14.05-.02.11-.05.13-.13.02-.07.06-.04.2.16Z"/>
      <path class="cls-2" d="m415.32,48.48c-.01.25-.07.41-.18.5l-.35.3s-.04.08-.09.06c-.28-.11-.31.18-.48.24-.06.03-.1.1-.15.14-.09.07-.18.16-.29.21-.12.06-.26.09-.39.13-.02,0-.05,0-.05.03.04.31-.15.29-.25.38-.08.07-.21.04-.31.06-.11.02-.24.01-.2.28.01.09-.05.08-.09.1-.16.12-.31.24-.48.35-.05.03-.13.03-.2.04-.02,0-.07-.04-.08-.02-.08.36-.38.39-.54.63-.04.06-.12.08-.17.12-.11.09-.21.21-.33.28-.08.04-.19.02-.29.03-.06.01-.13,0-.14.08-.03.28-.24.28-.4.34-.09.03-.13.16-.23.2-.2.08-.44.09-.53.36-.03.08-.14.06-.25,0-.07-.04-.21-.22-.31-.37-.13-.2-.22-.42-.19-.5.05-.15.05-.39.22-.36.19.03.34-.04.6.14.23.15.29-.03.41-.08.24-.11.45-.27.66-.43.31-.23.6-.48.9-.72.25-.2.5-.39.75-.58.05-.04.11-.06.19-.04.2.05.24-.16.35-.27.09-.09.2-.14.31-.2l.37-.22c.17-.1.33-.21.49-.32.16-.11.31-.23.47-.34.07-.05.16-.06.24-.09.13-.05.24-.13.3-.29.06-.14.24-.11.36-.17.05-.03.1-.06.11-.14.01-.07.06-.05.21.14Z"/>
      <path class="cls-2" d="m430.91,42.88c-.1.24-.21.37-.34.43l-.43.2s-.06.06-.1.03c-.23-.18-.36.09-.54.12-.07.01-.13.07-.19.1-.11.05-.22.11-.34.14-.14.03-.28.03-.42.04-.02,0-.05-.02-.06.02-.05.31-.22.25-.35.32-.1.05-.21,0-.32,0-.11,0-.24-.04-.26.23,0,.09-.07.07-.11.08-.18.09-.36.18-.54.26-.06.02-.13,0-.2,0-.02,0-.06-.05-.07-.03-.15.34-.44.31-.64.52-.05.05-.13.06-.19.09-.12.07-.24.17-.37.23-.08.03-.19-.01-.28,0-.06,0-.13-.02-.15.06-.07.27-.27.24-.44.28-.1.02-.15.14-.25.17-.21.05-.44.04-.56.29-.04.08-.14.04-.25-.03-.06-.04-.18-.24-.27-.39-.11-.21-.17-.43-.14-.51.07-.14.09-.38.27-.34.19.05.35,0,.59.2.21.17.29,0,.42-.03.25-.08.49-.21.72-.33.34-.19.68-.38,1.03-.57.29-.15.58-.3.87-.44.06-.03.13-.04.2,0,.19.08.28-.11.41-.2.11-.07.24-.1.36-.14l.43-.14.57-.2c.19-.07.37-.16.56-.22.08-.03.17-.02.26-.04.14-.02.27-.07.39-.21.1-.13.27-.05.4-.07.06-.01.12-.03.16-.11.04-.06.07-.03.16.19Z"/>
      <path class="cls-2" d="m447.63,41.84c-.15.21-.29.32-.43.36l-.47.11s-.07.05-.11.01c-.18-.22-.37.02-.56,0-.07,0-.14.04-.21.06-.12.02-.24.06-.36.06-.14,0-.28-.03-.42-.05-.02,0-.04-.03-.06,0-.13.29-.28.19-.43.23-.11.03-.2-.05-.31-.08-.1-.03-.22-.09-.32.16-.03.08-.09.05-.13.05-.2.04-.4.09-.6.12-.06,0-.13-.02-.19-.04-.02,0-.04-.06-.06-.05-.25.29-.53.19-.78.34-.07.04-.14.02-.21.04-.14.04-.28.1-.43.12-.09,0-.18-.06-.27-.08-.06-.01-.12-.05-.16.02-.16.24-.34.16-.51.15-.1,0-.19.1-.29.09-.21,0-.43-.09-.64.12-.06.06-.15,0-.23-.1-.04-.06-.09-.28-.12-.45-.03-.23-.01-.46.05-.52.12-.12.22-.34.37-.24.16.1.33.09.49.35.14.22.27.09.41.08.27-.01.53-.07.8-.12.38-.09.77-.19,1.16-.28.32-.07.64-.15.97-.21.06-.01.13,0,.19.04.15.12.3-.04.45-.09.13-.05.25-.04.38-.05l.45-.04.6-.07c.2-.03.4-.07.6-.09.09,0,.17.02.26.02.14,0,.28,0,.43-.12.13-.1.27,0,.41,0,.06,0,.12,0,.18-.07.05-.06.08-.01.11.21Z"/>
      <path class="cls-2" d="m464.27,43.83c-.21.17-.38.24-.53.24h-.49s-.09.02-.11-.02c-.12-.26-.37-.07-.54-.12-.07-.02-.15.01-.22,0-.12,0-.25,0-.37-.02-.14-.03-.26-.09-.39-.14-.02,0-.04-.04-.06,0-.2.26-.32.13-.47.14-.11,0-.19-.09-.28-.14-.1-.05-.19-.13-.35.1-.05.07-.1.03-.14.03-.21,0-.41,0-.61,0-.06,0-.12-.05-.18-.08-.02,0-.03-.07-.05-.06-.31.24-.55.09-.84.19-.07.03-.14,0-.21,0-.15.01-.3.05-.44.05-.09,0-.16-.09-.25-.13-.05-.02-.1-.07-.16,0-.21.21-.36.1-.53.06-.1-.02-.21.06-.31.04-.21-.04-.41-.15-.65.01-.07.05-.15-.02-.2-.13-.03-.06-.04-.29-.03-.46.01-.23.08-.45.15-.51.14-.1.28-.3.41-.18.14.13.3.15.41.43.09.24.25.13.39.15.27.03.54.02.81.01.4-.02.8-.05,1.2-.07.33-.02.67-.03,1-.03.07,0,.13.02.18.08.12.15.3.02.46,0,.14-.02.26.01.39.03l.45.05.61.06c.2.02.41.02.61.04.09.01.17.05.25.08.14.04.28.06.45-.02.16-.07.26.07.4.11.06.01.12.02.2-.02.07-.04.08,0,.04.23Z"/>
      <path class="cls-2" d="m475.4,49.59c-.22.11-.36.14-.44.12l-.26-.07s-.07.01-.05-.02c.1-.22-.16-.1-.22-.17-.02-.03-.09-.01-.12-.02-.07-.02-.14-.03-.18-.07-.05-.04-.08-.11-.12-.17,0,0,0-.03-.03-.02-.27.18-.25.06-.33.05-.06-.01-.04-.1-.06-.15-.02-.05-.02-.14-.24.03-.07.05-.07,0-.09,0-.11-.03-.22-.05-.31-.09-.03-.01-.03-.06-.04-.09,0-.01.03-.06,0-.05-.3.15-.33,0-.54.03-.05.01-.07-.02-.11-.03-.08-.01-.18,0-.24-.03-.04-.02-.03-.1-.05-.15-.01-.03-.01-.07-.07-.03-.22.14-.23.03-.29-.03-.03-.03-.14.02-.17-.01-.08-.07-.11-.2-.32-.09-.07.03-.06-.04-.02-.14.02-.06.14-.25.25-.4.13-.19.29-.38.36-.41.12-.06.31-.21.31-.09,0,.13.07.18-.04.43-.09.22.05.15.11.19.11.07.25.11.4.14.21.04.43.09.65.13.18.04.36.08.53.13.03.01.06.04.05.09-.03.14.15.06.24.06.08,0,.13.05.19.08l.2.11c.09.05.19.09.29.14.1.04.21.07.31.12.04.02.06.07.09.1.05.05.12.08.26.05.13-.03.1.09.15.14.02.02.06.03.12,0,.06-.02.04.01-.12.19Z"/>
    </g>
  </g>
</svg>