<?xml version="1.0" encoding="UTF-8"?>
<svg id="_Слой_2" data-name="Слой 2" xmlns="http://www.w3.org/2000/svg" viewBox="0 0 763.96 362.3">
  <defs>
    <style>
      .cls-1 {
        font-family: TrebuchetMS, 'Trebuchet MS';
        font-size: 22px;
      }

      .cls-1, .cls-2 {
        fill: #6e1b28;
      }

      .cls-2, .cls-3, .cls-4 {
        stroke-width: 0px;
      }

      .cls-3 {
        fill: #4c0c1e;
      }

      .cls-4 {
        fill: #ffffe3;
      }
    </style>
  </defs>
  <g id="_Слой_1-2" data-name="Слой 1">
    <g>
      <rect class="cls-4" x="91.86" y="62.09" width="672.1" height="273.44"/>
      <g>
        <path class="cls-2" d="m639.83,74.85c-1.38.27-5.05.27-9,.27h-68.23c-24,.01-47.99.02-71.99.03-5.95.03-11.88.05-17.82.08-2.79.01-5.64.04-8.38.03-38.53-.15-76.8.14-115.33.1-20.4-.02-40.89.12-61.37.16-10.23,0-20.53,0-30.79,0-3.18,0-6.39.02-9.54.03-5.47.03-11,.12-16.31.11-16.71-.06-33.01.08-49.5.11-23.52,0-47.11.02-70.67.03-6.27,0-12.34-.02-13.24-.36-.75-.28,1.72-.42,8.9-.43,2.76.01,5.54.02,8.32.03,16.63.06,33.25.11,49.91.17,7.83.02,15.76-.04,23.65-.05,26.45-.02,52.91-.05,79.36-.07,5.12,0,10.24-.02,15.37-.03,5.41,0,10.82,0,16.22,0,9.21,0,19.17.09,27.48-.02,17.25-.22,34.34-.09,51.5-.1,6.91,0,13.84,0,20.73,0,18.59-.04,37.42-.19,55.67-.11,27.7.12,54.5-.19,81.83-.13,5.96.03,11.88.06,17.81.09,1.81.01,3.61.06,5.34.05,11.08-.04,22.12-.08,33.21-.12,12.53,0,25.1-.01,37.64-.02,3.01,0,5.99.08,9.24.12Z"/>
        <path class="cls-2" d="m179.04,321.36c8.44.02,16.44.04,24.45.05,4.6,0,9.2.01,13.8.02,12.53,0,25.16.03,37.58-.01,18.48-.07,36.45.13,54.91.09,14.79-.03,29.73.05,44.6.08,18.95.03,37.91.07,56.85.1,17.24.05,34.42.1,51.67.15,8.77-.01,17.62-.03,26.43-.04,12.44.01,24.87.03,37.31.04,21.89.03,43.86.06,65.66.09,21.88.12,43.6.23,65.35.34,3.07.02,6.58.08,8.6.17,1.8.08,2.63.22,2.23.33-.17.05-4.71.11-7,.09-11.82-.08-23.53-.17-35.31-.25-12.74-.09-26.29,0-38.28-.26-12.65.29-26.2.05-39.28.09-15.11.04-30.43-.07-45.67-.1-11.12-.02-22.27-.04-33.41-.05-18.66-.01-37.49.04-55.92-.05-14.72-.04-29.36-.09-43.98-.13-13.28-.02-26.48-.04-39.67-.06-19.4-.06-38.73-.13-58.13-.19-13.26-.04-26.45-.18-39.88-.05-1.31.01-2.89,0-4.18,0-12.63-.16-25.52-.18-38.68-.16-3.76,0-8.73-.02-10.06-.31Z"/>
        <path class="cls-2" d="m98.96,75.71c-.06,10.92.2,21.25-.08,31.69-.09,3.57.1,7.69.1,11.56,0,9.45,0,18.9,0,28.35,0,10.51,0,21.02,0,31.52-.03,6.92-.06,13.84-.09,20.76.04,3.87.07,7.76.11,11.62.06,4.94.1,9.59-.04,14.78-.14,5.07.07,10.9.1,16.41.03,5.26.1,10.59.04,15.79-.07,6.62-.39,8.03-1.08,5.72-.14-.47-.26-1.36-.34-1.78.1-13.23.19-25.93.28-38.67,0-13.53,0-27.1,0-40.64.03-11.15.06-22.29.1-33.43.09-14.65.18-29.33.27-43.93.08-8.34-.08-16.66.08-24.95.05-2.51.02-5.14.54-4.81Z"/>
        <path class="cls-2" d="m757.67,207.98c.06-12.25.11-24.51.18-38.23.73,13.66.03,25.86.12,38.07l-.3.16Z"/>
        <path class="cls-2" d="m699.88,74.97c-2.63-.02-5.99-.1-7.76-.06-13.71.3-28.84.02-42.82.18-.69,0-1.95-.06-4.24-.14,5.32-.09,9.96-.24,14.13-.22,13.55.06,27.69,0,40.47.25h.21Z"/>
        <path class="cls-2" d="m699.67,74.98c9.01-.08,17.95-.19,27.07-.23,5.66-.03,11.6.04,18.64.07-3.67.28-8.5.31-13.67.29-10.58-.05-21.14-.09-31.77-.14-.06,0-.27,0-.27,0Z"/>
        <path class="cls-2" d="m757.76,164.7l.2-15.5.18.06c.09,5.29.28,10.61-.12,15.78l-.27-.33Z"/>
        <path class="cls-2" d="m757.85,140.52l-.09-14.19.2-.12c.06,4.72.6,9.02-.1,14.31Z"/>
        <path class="cls-2" d="m755.57,74.87h2.73s-.24,10.02-.24,10.02c-.11-2.4-.16-3.68-.15-4.87,0-.6.04-1.17.09-1.85.05-.77.12-1.11.22-3.25-.73-.02-1.66-.03-2.66-.06Z"/>
        <path class="cls-2" d="m757.72,217.97l.23,5.4c-.08.23-.22.75-.23.66-.08-1.72-.17-3.5-.25-5.28l.25-.78Z"/>
        <path class="cls-2" d="m757.59,247.01c0-.79,0-1.53-.01-2.24,0-.18.09-.27.13-.4l.04,2.09c0,.16-.09.32-.16.55Z"/>
        <polygon class="cls-2" points="757.96 113.24 757.99 117.07 757.94 117.08 757.94 113.25 757.96 113.24"/>
      </g>
      <text class="cls-1" transform="translate(114.9 112.95)"><tspan x="0" y="0">Мы обучаем техническим специальностям, понимая, что </tspan><tspan x="0" y="26.4">современный мир требует от специалистов высокой </tspan><tspan x="0" y="52.8">квалификации. Мы используем современное оборудование </tspan><tspan x="0" y="79.2">и программное обеспечение, что дает нашим студентам </tspan><tspan x="0" y="105.6">возможность ознакомляться с актуальными инструментами. </tspan><tspan x="0" y="132">Сочетание теории и практики подготавливает выпускников </tspan><tspan x="0" y="158.4">к успешной карьере и позволяет им легко адаптироваться к </tspan><tspan x="0" y="184.8">требованиям работодателей.</tspan></text>
    </g>
    <g>
      <path class="cls-3" d="m40.41,317.96c.32.34.56.48.65.71.24.67.48,1.36.68,2.05.62,1.89,1.24,3.83,2.28,5.53,1.4,2.38,3.13,4.59,5.33,6.19,2.18,1.61,4.84,2.51,7.51,2.62,1.5.07,2.99-.06,4.47-.33l.95-.15.96-.21c.64-.13,1.27-.29,1.91-.46,4.9-1.3,9.57-3.31,14.18-5.49,4.28-2.02,8.55-4.24,12.93-6.22,3.51-1.64,7.18-3.18,11.03-4.32,2.97-.85,6.06-1.55,9.45-1.34.46.01.92.18,1.38.24,1.05.21,2.12.59,3.14,1.15,1.25.67,2.25,1.87,2.36,3.12.02.66-.18.81-.53.75-.19-.03-.34-.16-.45-.34-.14-.17-.26-.39-.37-.6-.56-1.04-1.48-1.94-2.59-2.46-.65-.29-1.36-.47-2.05-.58-.47-.09-.95-.17-1.42-.23-.26-.04-.52-.12-.76-.11-3.94.42-7.73,1.14-11.34,2.5-1.75.68-3.45,1.46-5.14,2.24-.75.34-1.52.65-2.27.97-.14.06-.3.08-.43.15-2.28,1.06-4.55,2.16-6.8,3.26-1.43.7-2.84,1.42-4.27,2.09-2,.93-4.03,1.78-6.06,2.64-1.93.82-3.86,1.63-5.85,2.3-1.21.41-2.48.68-3.71,1.01-1.78.51-3.58.88-5.43,1.14-.92.13-1.86.11-2.79.17l-1.41-.12c-.47-.04-.94-.07-1.4-.2-.77-.18-1.56-.33-2.28-.68l-1.11-.46-1.03-.61c-.75-.39-1.42-.91-2.11-1.41-.36-.24-.62-.58-.92-.88-.28-.32-.58-.63-.78-1.02-.21-.4-.72-.73-1.06-1.14-2.15-2.91-3.5-6.28-4.53-9.67-.16-.48-.18-.99-.3-1.8Z"/>
      <path class="cls-3" d="m.29,279.3c.21.34.45.67.61,1.03,1.3,2.8,2.96,5.42,4.8,7.91.36.51.69,1.03,1.08,1.51,3.33,4.06,7.26,7.67,11.69,10.59,2.72,1.79,5.63,3.35,8.76,4.39,3,1.01,6.17,1.63,9.37,1.61,3.2.01,6.43-.58,9.37-1.85,1.02-.4,1.96-.93,2.92-1.45.91-.62,1.82-1.09,2.72-1.93.44-.42.87-.93,1.13-1.6.26-.66.3-1.49.02-2.17-.58-1.38-1.8-2.08-3.02-2.34-.54-.11-1.12-.12-1.68,0-.53.13-1.01.32-1.45.55-.89.47-1.65,1.07-2.35,1.72-1.38,1.32-2.51,2.83-3.4,4.47-.32.61-.62,1.23-.88,1.87-.25.56-.39,1.17-.46,1.77-.04.59-.03,1.17.02,1.73.1,1.14.36,2.23.65,3.3.35,1.26.23,2.38-.03,3.44-.16.65-.68.93-1.02.6-.4-.38-.47-.94-.49-1.64-.02-1.66-.13-3.34-.26-5.09-.05-.65,0-1.32.06-1.98.04-.5.13-1.19.3-1.73.15-.57.35-1.1.57-1.61.45-1.02.98-1.98,1.59-2.88,1.25-1.79,2.68-3.45,4.78-4.7.22-.14.48-.26.74-.37.25-.12.52-.23.82-.31.28-.09.58-.17.96-.22.35-.04.71-.05,1.05-.02,1.3.11,2.49.6,3.48,1.6.48.5.91,1.17,1.1,1.97.19.8.1,1.67-.18,2.37-.6,1.43-1.59,2.15-2.37,2.74-.79.5-1.54,1.04-2.36,1.48-2.39,1.35-5.01,2.36-7.74,2.82-2.53.44-5.1.41-7.6.1-.81-.13-1.64-.15-2.43-.36-2.87-.64-5.59-1.69-8.16-2.95-1.35-.65-2.68-1.34-3.97-2.11-.67-.42-1.31-.89-1.96-1.35-.34-.26-.68-.61-1.02-.76-1.45-.64-2.4-1.88-3.58-2.83-.57-.47-1.09-.99-1.62-1.5l-1.52-1.6c-.41-.44-.84-.87-1.26-1.3-.41-.44-.82-.89-1.2-1.35-2.14-2.64-4.02-5.49-5.56-8.51-.21-.42-.45-.83-.65-1.26-.23-.56-.43-1.12-.64-1.68l.29-.14Z"/>
      <path class="cls-3" d="m120.29,328.27l-.08.77-.16.76c-.11.5-.2,1.02-.4,1.49-.51,1.6-1.34,3.03-2.17,4.42-1.25,1.98-2.68,3.77-4.12,5.47-1.44,1.69-2.91,3.29-4.18,4.98-.28.36-.53.72-.78,1.09-.25.36-.51.73-.71,1.11l-.64,1.12-.5,1.15c-.6,1.54-.85,3.14-.54,4.56.05.49.3.91.46,1.37.28.4.47.85.84,1.21.62.78,1.51,1.4,2.45,1.93,1.93,1.03,4.21,1.58,6.53,1.76,4.47.3,9.01-.21,13.34-1.32,2.52-.63,5.04-1.35,7.46-2.34,2.23-.92,4.39-2.03,6.45-3.29.59-.35,1.2-.67,1.79-.98,1-.5,1.45-.25,1.16.63-.06.19-.05.36-.05.42-.75.38-1.44.69-2.11.96-.66.28-1.28.55-1.92.83-.56.27-1.12.55-1.69.83-.56.29-1.13.59-1.71.83-2.76,1.23-5.64,2.13-8.55,2.84-1.8.41-3.58.93-5.42,1.22-.25.04-.51.12-.75.11-2.17-.08-4.34.24-6.51.06-.54-.06-1.11.02-1.65-.05-.43-.04-.86-.12-1.28-.18-.52-.11-1.04-.24-1.56-.33-.74-.2-1.52-.31-2.23-.6-1.84-.67-3.55-1.71-4.68-3.2-.64-.94-.97-2.02-1.11-3.11-.09-1.2-.02-2.46.37-3.69.11-.55.31-1.11.76-1.45.11-.07.19-.31.28-.47.89-1.85,2.13-3.63,3.49-5.33.66-.82,1.49-1.53,2.12-2.37,1.03-1.38,2.25-2.56,3.31-3.93,1.61-2.08,3.07-4.41,3.89-7.05.19-.74.49-1.45.59-2.23h.18Z"/>
    </g>
    <g>
      <g>
        <path class="cls-3" d="m732.87,32.09c-.97-3.96-2.36-7.15-3.99-10.21-1.85-3.4-4.22-6.43-6.89-9.27-.38-.43-.82-.82-1.26-1.21-.43-.4-.89-.78-1.34-1.16-4.08-3.46-8.84-6.11-13.93-7.72-2.76-.88-5.62-1.47-8.49-1.72-2.55-.22-5.1-.17-7.64.08-4.71.47-9.36,1.74-13.62,3.81-4.47,2.15-8.54,5.13-11.92,8.74-2.41,2.54-4.42,5.42-6.09,8.49-.86,1.65-1.64,3.34-2.28,5.09-.15.36-.27.74-.38,1.1-1.69,5.56-2.39,11.52-1.69,17.33.63,5.41,2.4,10.69,5.11,15.41.42.77.91,1.5,1.38,2.24.25.36.5.72.76,1.07.25.36.51.71.79,1.05,1.05,1.4,2.25,2.68,3.48,3.93.44.41.85.87,1.29,1.29,1.8,1.65,3.76,3.12,5.84,4.4.59.37,1.21.68,1.81,1.03,2.7,1.48,5.57,2.63,8.53,3.47,2.58.73,5.21,1.23,7.89,1.44.44.05.88.06,1.33.08l1.33.05,1.33-.02h.67s.66-.05.66-.05c2.69-.14,5.38-.54,8-1.22,1.81-.45,3.58-1.1,5.3-1.79,2.42-.99,4.75-2.18,6.94-3.6.38-.26.82-.51,1.14-.76,2.07-1.68,4.16-3.27,5.89-5.3,2.23-2.15,4.17-5.05,5.83-7.74.44-.77.95-1.62,1.31-2.48.49-1.06.87-2,1.33-2.91.16-.36.33-.84.49-1.27,1.15-3.16,1.84-6.49,2.18-9.83.11-.89.2-1.69.33-2.95.06.65.14,1.03.12,1.38-.05,1.52-.22,3.08-.48,4.5-.46,2.39-1.04,4.77-1.82,7.15-.16.46-.3.97-.48,1.37-1.37,3.13-2.97,6.36-5.06,9.15-.68.95-1.43,1.79-2.19,2.65-.26.28-.61.63-.78.86-.4.56-.86,1.03-1.33,1.5-.46.47-.96.89-1.44,1.34-1.43,1.3-2.94,2.54-4.55,3.62-1.6,1.09-3.26,2.08-4.98,2.88-1.48.72-3.01,1.33-4.55,1.9-1.56.53-3.13,1.01-4.73,1.33-3.14.66-6.38,1.01-9.59.91-2.18-.04-4.33-.33-6.47-.7-5.25-.93-10.31-2.9-14.79-5.78-1.65-1.05-3.2-2.24-4.67-3.52-.34-.31-.72-.6-1.05-.92-1.4-1.22-2.71-2.53-3.81-4.03-.11-.17-.28-.37-.43-.55-1.23-1.52-2.32-3.14-3.3-4.83-1-1.68-1.85-3.44-2.59-5.24-.93-2.24-1.61-4.57-2.09-6.94-.47-2.38-.72-4.79-.81-7.22-.06-.92-.01-1.85,0-2.79.02-.47.06-.93.1-1.4l.05-.7.09-.7c.2-1.87.61-3.72,1.06-5.54.17-.6.36-1.26.49-1.81.78-3.1,2.25-6.19,3.92-8.98,1.79-2.94,3.9-5.71,6.38-8.12,5.6-5.54,12.9-9.37,20.65-10.94,5.98-1.21,12.25-1.06,18.21.45,4.48,1.12,8.76,3,12.64,5.53.77.53,1.55,1.1,2.28,1.69,2.74,2.08,5.21,4.5,7.35,7.21,2,2.5,3.69,5.26,5.03,8.19.75,1.6,1.3,3.27,1.6,4.76.15.94.4,2.01.57,3.47Z"/>
        <path class="cls-3" d="m724.96,59.31c-.22.52-.47,1.01-.77,1.46-.29.45-.57.89-.89,1.31-.94,1.34-2,2.59-3.09,3.81-.4.41-.82.86-1.19,1.2-.49.41-.97.8-1.45,1.22-.5.39-.97.83-1.46,1.33-.04.04-.12.1-.16.13-2.35,1.6-4.88,3.46-7.61,4.53-.47.18-.97.42-1.49.64-.53.21-1.06.44-1.58.63-.8.26-1.59.5-2.4.69-.31.08-.62.15-.93.23-.31.06-.62.13-.93.2-.87.23-1.76.37-2.64.53-.89.1-1.78.24-2.68.28-1.79.14-3.58.1-5.37-.03-1.76-.11-3.5-.42-5.22-.78-1.72-.37-3.4-.9-5.06-1.48-2.85-1.06-5.62-2.45-8-4.22-1.39-.99-2.68-2.07-3.94-3.19-1.24-1.13-2.4-2.34-3.48-3.63-1.07-1.32-2.07-2.7-2.97-4.14-.88-1.45-1.7-2.95-2.38-4.51-2.11-4.71-3.13-9.9-3.11-15.06.02-3.16.39-6.32,1.21-9.38.38-1.54.92-3.03,1.49-4.51.32-.72.61-1.47.98-2.17.18-.36.35-.71.53-1.07l.58-1.04c1.3-2.29,2.88-4.44,4.65-6.39,1.38-1.55,2.88-2.97,4.49-4.27,1.78-1.44,3.66-2.75,5.7-3.82,1.81-.95,3.71-1.77,5.67-2.39,1.96-.62,3.97-1.09,6-1.39.42-.06.84-.13,1.25-.19.57-.08,1.14-.13,1.71-.18,5.72-.37,11.48.44,16.81,2.58.61.25,1.2.53,1.81.8.59.3,1.18.59,1.76.88,2.26,1.18,4.4,2.57,6.38,4.17,3.47,2.76,6.45,6.14,8.75,10,2.58,4.33,4.32,8.93,5.25,13.68.22,1.09.43,2.32.37,3.68-.08,1.21-.21,1.73-.48,1.49-.25-.21-.44-1.17-.51-2.32-.22-3.19-.9-6.19-1.97-9.04-.65-1.77-1.43-3.6-2.34-5.33-1.97-3.77-4.62-7.16-7.72-10.03-1.3-1.22-2.71-2.37-4.16-3.34-3.98-2.67-8.49-4.76-13.2-5.74-.91-.21-1.84-.34-2.77-.5-.94-.1-1.87-.24-2.81-.28-.94-.09-1.89-.08-2.83-.1-.94.04-1.89.04-2.82.15-1.59.12-3.16.4-4.72.73-.77.2-1.55.36-2.31.61-.38.12-.76.22-1.14.35l-1.12.4c-.2.07-.4.14-.59.22-4.61,1.6-8.62,4.35-12.08,7.64-2.13,2.05-4.04,4.33-5.61,6.82l-.62.98-.57,1.01c-.4.66-.71,1.37-1.07,2.06-.64,1.41-1.25,2.83-1.69,4.31-.68,2.13-1.11,4.32-1.39,6.53-.36,3.02-.41,6.11,0,9.13.3,2.34.84,4.63,1.59,6.85.58,1.77,1.36,3.46,2.19,5.11,1.18,2.32,2.61,4.51,4.26,6.53,1.65,2.02,3.53,3.84,5.57,5.46,1.11.9,2.31,1.68,3.51,2.45,1.23.72,2.48,1.42,3.78,2,.81.39,1.63.72,2.46,1.07.84.3,1.67.63,2.54.87,3.72,1.13,7.64,1.61,11.55,1.46,2.45-.1,4.83-.39,7.19-.94,1.71-.43,3.29-.9,4.88-1.44.35-.1.73-.28,1.12-.46.39-.19.8-.36,1.17-.56,3.22-1.53,6.24-3.53,8.89-5.94.21-.19.43-.41.62-.57,2.31-1.91,4.39-4.5,6.13-7.13.13-.2.26-.35.48-.63Z"/>
        <path class="cls-3" d="m659.39,35.02c.06-.45.08-.86.17-1.28.28-1.54.69-3.05,1.2-4.53,1.09-2.93,2.29-5.7,4.21-8.31.94-1.27,1.92-2.52,3.01-3.68.52-.6,1.11-1.14,1.67-1.71.6-.53,1.17-1.09,1.8-1.58l.66-.53c.23-.17.46-.33.69-.5l.69-.5.71-.47c2.99-2.01,6.32-3.51,9.79-4.51,1.9-.53,3.85-.9,5.82-1.11.49-.04.99-.11,1.48-.13l1.49-.07h1.49c.5,0,.99.05,1.49.07,2.09.13,4.19.47,6.19.91,1.8.38,3.55.94,5.26,1.59.86.32,1.7.71,2.54,1.09.41.21.82.43,1.24.64.42.21.81.46,1.22.7.65.36,1.26.81,1.88,1.19.59.42,1.16.8,1.67,1.12.48.33.97.66,1.43,1.04.46.4.94.79,1.4,1.24.15.14.29.29.44.44.2.2.4.41.58.63.18.22.35.44.49.64.29.4.51.74.56.91.11.42-.34.24-.98-.27-.26-.21-.52-.45-.8-.71-.29-.26-.59-.54-.92-.87-1.83-1.78-3.85-3.34-6-4.62-2.32-1.38-4.75-2.45-7.29-3.27-.49-.14-1-.31-1.5-.48-.51-.16-1.03-.3-1.53-.43-.96-.21-1.88-.34-2.85-.47-.84-.15-1.7-.21-2.55-.31-.86-.04-1.71-.12-2.57-.1-.86-.03-1.71.04-2.57.07-.85.09-1.71.13-2.55.28-2.2.32-4.34.87-6.41,1.6-.55.2-1.11.39-1.66.61-2.59.97-4.98,2.29-7.15,3.97-.26.2-.53.41-.8.61-.26.21-.52.43-.78.65-.54.42-1.03.9-1.55,1.34-1,.94-1.98,1.91-2.86,2.97-2.79,3.27-5.06,7.05-6.34,11.14-.17.55-.36,1.11-.51,1.68l-.25.85c-.07.29-.14.57-.21.86-.23.89-.41,1.54-.65,1.62Z"/>
      </g>
      <g>
        <path class="cls-3" d="m716.92,53.17c-.13-.19.03-.44.16-.73.82-1.62,1.48-3.32,1.95-5.07.5-1.85.8-3.75.89-5.66.02-.47.01-.95-.02-1.42,0-.22-.03-.45-.02-.67.03-3.08-.76-6.07-1.8-8.93-.56-1.52-1.35-2.95-2.21-4.31-.43-.68-.85-1.37-1.34-2.03-.15-.2-.3-.41-.46-.59-.29-.32-.6-.63-.87-.95-.82-1.03-1.8-1.87-2.78-2.71-1.41-1.19-2.91-2.27-4.52-3.17-.43-.23-.84-.48-.79-.73.04-.21.26-.21.77.06.19.1.38.23.57.34,1.12.72,2.2,1.49,3.22,2.34.24.2.49.39.73.59.25.19.5.39.72.6,1.57,1.41,2.97,3,4.17,4.74l.68,1.02.65,1.12c.34.65.65,1.38.99,1.96.71,1.2,1.11,2.52,1.48,3.84.16.53.26,1.08.4,1.61.34,1.45.64,2.94.66,4.41.03,2.22.1,4.39-.37,6.56-.1.47-.23.93-.38,1.38-.04.14-.11.27-.14.41-.2.87-.43,1.73-.73,2.57-.33.95-.74,1.88-1.2,2.78-.1.22-.27.4-.43.62Z"/>
        <path class="cls-3" d="m671.07,25.42c-.39.52-.7,1.05-1.04,1.57l-.52.93c-.24.42-.43.87-.65,1.3-.21.44-.38.89-.55,1.34-.47,1.34-1.01,2.63-1.3,4.04-.22,1.12-.45,2.26-.57,3.41-.14,1.46-.16,2.94-.07,4.41.07,1.34.25,2.67.53,3.99.14.67.38,1.32.58,1.98.31.92.63,1.84,1.02,2.73.68,1.57,1.54,3.07,2.47,4.49.94,1.43,1.98,2.8,3.15,4.06.17.18.34.4.41.56.07.14.04.26-.03.3-.03.02-.33-.2-.46-.33-.34-.34-.64-.7-.95-1.06-.31-.35-.59-.73-.88-1.11-.62-.8-1.32-1.63-1.71-2.52-.73-.72-1.16-1.73-1.65-2.64-.6-1.04-1-2.2-1.4-3.34-.28-.83-.53-1.68-.75-2.53-.37-1.43-.65-2.9-.72-4.35-.04-.58-.03-1.16-.05-1.74.01-.58,0-1.15.06-1.73.04-.52.06-1.04.13-1.56.03-.26.05-.52.09-.77l.13-.77c.27-1.5.7-2.96,1.22-4.39.37-.97.84-1.89,1.21-2.87.04-.1.09-.21.15-.29.53-.84,1.04-1.7,1.57-2.57.14-.26.39-.56.62-.53Z"/>
        <path class="cls-3" d="m704.74,16.93c-1.25-.66-2.51-1.06-3.74-1.6-.43-.17-.95-.26-1.44-.38-1.17-.31-2.36-.54-3.56-.7-1.34-.16-2.69-.21-4.04-.18-.89.03-1.78.07-2.66.19-.49.07-.98.17-1.46.29-.62.13-1.19.31-1.85.4-.64.12-1.34.42-1.99.68-.32.11-.63.25-.94.38-.31.13-.62.26-.93.39-.78.32-1.01.28-.87-.12.03-.08.11-.18.15-.23,1.59-.7,3.18-1.2,4.79-1.59,1.71-.42,3.47-.71,5.23-.8,1.45-.07,2.91-.02,4.35.17,1.89.24,3.76.68,5.53,1.36.5.21,1.02.36,1.51.58l.75.31c.24.11.48.24.72.37.28.16.6.3.45.48Z"/>
        <path class="cls-3" d="m695.1,67.21c1.62-.12,3.24-.37,5.01-.83-1.68.8-3.37.78-4.98.96l-.03-.13Z"/>
        <path class="cls-3" d="m714.21,57.15c.14-.16.35-.34.41-.47.49-1,1.31-1.9,1.78-2.93.02-.05.11-.11.25-.25-.14.41-.25.78-.43,1.06-.59.92-1.23,1.87-2,2.56v.02Z"/>
        <path class="cls-3" d="m714.22,57.13c-.19.31-.41.59-.62.89-.21.3-.43.59-.67.86-.29.35-.66.66-1.08,1.04.07-.36.34-.63.62-.92.61-.59,1.18-1.2,1.74-1.85,0,0,0-.02,0-.02Z"/>
        <path class="cls-3" d="m700.75,66.15c.34-.08.66-.18.99-.28.33-.1.66-.2.99-.32l.02.08c-.32.16-.65.3-.98.42-.33.12-.67.22-1.03.23v-.12Z"/>
        <path class="cls-3" d="m703.78,65.06l.85-.41c.28-.14.55-.3.83-.45l.05.07c-.27.15-.51.36-.78.51-.27.15-.57.27-.96.28Z"/>
        <path class="cls-3" d="m711.24,60.46c-.37.27-.73.55-1.1.8.47-.52.45-.52,1.1-.8Z"/>
        <path class="cls-3" d="m693.78,67.31c-.24.05-.48.09-.72.12-.03-.03-.1-.1-.09-.1.23-.04.46-.07.7-.12l.11.1Z"/>
        <path class="cls-3" d="m689.93,67.12c.1,0,.2.01.3.02.02,0,.03.04.05.06-.09,0-.19,0-.28,0-.02,0-.04-.04-.07-.08Z"/>
        <polygon class="cls-3" points="707.03 63.42 706.6 63.69 706.58 63.67 707.03 63.42 707.03 63.42"/>
      </g>
      <g>
        <path class="cls-3" d="m698.09,40.96c.02-.23.09-.47.08-.71,0-.13.01-.27,0-.41-.01-.14-.02-.27-.03-.41,0-.13,0-.25-.01-.38,0-.07.02-.16-.01-.22-.3-.54-.39-1.18-.76-1.73-.24-.34-.46-.73-.77-1.04-.11-.11-.25-.2-.38-.3-.34-.26-.73-.46-1.09-.71-.22-.15-.46-.28-.71-.35-.25-.1-.51-.16-.77-.24-.17-.06-.35-.08-.53-.1-.18-.02-.36-.04-.54-.04-.18,0-.37-.03-.56-.02l-.56.03c-.93.1-1.86.4-2.69.9-.24.16-.49.31-.7.51-.11.1-.23.18-.33.29l-.31.31c-.54.56-1.01,1.21-1.35,1.93-.11.28-.25.56-.32.86-.04.15-.09.29-.13.44l-.08.45c-.09.51-.14,1.03-.11,1.55.05.98.31,1.94.74,2.83.1.24.25.46.36.7.13.23.29.44.43.67.19.22.37.46.58.66.56.58,1.25,1.01,1.95,1.4.59.34,1.26.52,1.92.65.21.03.43.05.64.06.22,0,.43.03.64.13.2-.06.4-.1.6-.11.2,0,.4-.02.6-.07.24-.05.49-.09.72-.16.24-.06.48-.12.71-.22.04-.01.08-.03.12-.04.74-.16,1.38-.59,1.96-1.06.89-.7,1.63-1.58,2.12-2.59l.21-.44c.06-.15.11-.31.16-.46.12-.3.17-.62.24-.94.05-.3.03-.61.07-.91.02-.22.14-.43.22-.65.1,0,.17-.03.24-.02.15.02.33,0,.42.11.06.07,0,.31,0,.47.02.21-.02.42-.07.62-.05.2-.1.4-.17.6-.11.26-.1.57-.21.84-.09.23-.19.47-.31.69-.12.22-.23.44-.32.67-.26.6-.79.95-1.15,1.45-.2.31-.49.57-.78.81-.21.17-.43.33-.63.5-.21.17-.44.31-.67.45-.24.13-.49.25-.73.38-.25.11-.51.21-.77.31-.08.03-.18.04-.26.04-.4,0-.56.04-.94.19-.1-.09-.2-.19-.31-.3-.09.06-.17.12-.28.18-.21-.08-.4-.23-.63.05-.09.11-.39.05-.6.06-.24.02-.49,0-.73-.05-.15-.03-.29-.08-.52-.19-.13.02-.38.11-.6-.11-.03-.03-.14-.05-.21-.04-.19.02-.35-.03-.48-.18-.06-.06-.17-.11-.26-.14-.28-.08-.57-.18-.82-.34-.26-.15-.5-.32-.71-.53-.09-.08-.18-.17-.28-.23-.57-.42-.9-1.05-1.4-1.54-.02-.02-.04-.05-.05-.07-.03-.21-.11-.39-.21-.56-.1-.17-.24-.32-.32-.5-.22-.42-.41-.87-.53-1.33-.05-.27-.02-.55-.02-.81,0-.08,0-.19-.04-.24-.12-.17-.19-.35-.19-.54,0-.19.04-.38.07-.57.04-.26.05-.54.05-.81,0-.16,0-.32.02-.51.09.04.16.06.22.09.02-.02.04-.04.05-.06.02-.13.04-.25.04-.38.02-.13.02-.25,0-.4-.02-.13,0-.28.06-.43.06-.15.14-.29.2-.43.07-.16.16-.3.26-.44.1-.14.19-.28.29-.41.03-.03.07-.05.1-.07.16-.09.28-.22.38-.36.11-.14.23-.27.35-.39.06-.05.1-.14.12-.22.14-.4.48-.62.83-.78.12-.06.24-.13.34-.21.37-.37.85-.57,1.31-.77.09-.04.16-.13.23-.2.18-.19.38-.32.67-.17.13.06.38-.02.57-.04.37-.06.75-.06,1.12-.07.09,0,.19.01.27,0,.12-.03.24-.04.36-.05.12,0,.24.02.35.04.12.02.23.05.34.08l.33.12.36.12.35.15c.05.02.12.01.18.02.07,0,.16,0,.22.03l.46.25.43.29c.13.07.24.17.35.26.11.09.23.17.34.28.19.2.38.37.54.58l.23.27c.07.09.14.19.2.29.17.23.28.49.41.73.05.08.05.18.08.26.22.49.33,1.02.42,1.53,0,.26.04.5.05.76.01.11-.08.23-.09.34-.02.12,0,.25-.01.37-.01.08-.07.16-.11.24l-.12-.03Z"/>
        <path class="cls-3" d="m701.85,45.43c.02.14,0,.28-.05.42-.05.13-.13.26-.22.39-.11.16-.22.33-.32.49l-.35.48c-.64.84-1.39,1.62-2.29,2.2-.44.27-.94.45-1.43.59-.26.08-.51.17-.76.21-.14.12-.27.3-.44.36-.18.07-.4,0-.61-.02-.13,0-.27-.02-.39,0-.45.08-.89.05-1.28-.08,0,0,0-.02-.02-.05.51-.04,1.03-.08,1.52-.21.2-.05.41-.1.61-.18.17-.06.34-.15.5-.17.23-.02.44-.11.65-.2.2-.1.41-.19.6-.33.21-.13.43-.25.65-.38.21-.14.42-.27.62-.42.13-.09.24-.21.34-.34.17-.23.37-.39.6-.58.28-.22.53-.53.73-.84.6-.84,1.07-1.78,1.35-2.77.02-.05.03-.1.06-.15.1-.23.3-.41.47-.38.13.03.28.32.21.54-.2.49-.3,1.06-.74,1.4Z"/>
      </g>
    </g>
  </g>
</svg>