<?xml version="1.0" encoding="UTF-8"?>
<svg id="_Слой_2" data-name="Слой 2" xmlns="http://www.w3.org/2000/svg" viewBox="0 0 954.78 1200">
  <defs>
    <style>
      .cls-1 {
        fill: #ffe2d0;
      }

      .cls-1, .cls-2, .cls-3, .cls-4, .cls-5, .cls-6, .cls-7, .cls-8, .cls-9 {
        stroke-width: 0px;
      }

      .cls-2 {
        fill: #ad1b28;
      }

      .cls-3 {
        fill: #d7c6d7;
      }

      .cls-4 {
        fill: #ffe9a0;
      }

      .cls-5 {
        fill: #ffffd5;
      }

      .cls-6 {
        fill: #6e1b28;
      }

      .cls-7 {
        fill: #fff;
      }

      .cls-8 {
        fill: #f8edd7;
      }

      .cls-9 {
        fill: #4c0c1e;
      }
    </style>
  </defs>
  <g id="_Слой_1-2" data-name="Слой 1">
    <g>
      <path class="cls-8" d="m796.28,123.04H154.92c-.55,0-1-.45-1-1s.45-1,1-1h641.36c.55,0,1,.45,1,1s-.45,1-1,1Z"/>
      <path class="cls-8" d="m796.28,196.57H154.92c-.55,0-1-.45-1-1s.45-1,1-1h641.36c.55,0,1,.45,1,1s-.45,1-1,1Z"/>
      <path class="cls-8" d="m796.28,270.11H154.92c-.55,0-1-.45-1-1s.45-1,1-1h641.36c.55,0,1,.45,1,1s-.45,1-1,1Z"/>
      <path class="cls-8" d="m796.28,343.64H154.92c-.55,0-1-.45-1-1s.45-1,1-1h641.36c.55,0,1,.45,1,1s-.45,1-1,1Z"/>
      <path class="cls-8" d="m796.28,417.17H154.92c-.55,0-1-.45-1-1s.45-1,1-1h641.36c.55,0,1,.45,1,1s-.45,1-1,1Z"/>
      <path class="cls-8" d="m796.28,490.7H154.92c-.55,0-1-.45-1-1s.45-1,1-1h641.36c.55,0,1,.45,1,1s-.45,1-1,1Z"/>
      <path class="cls-8" d="m796.28,564.23H154.92c-.55,0-1-.45-1-1s.45-1,1-1h641.36c.55,0,1,.45,1,1s-.45,1-1,1Z"/>
      <path class="cls-8" d="m796.28,637.77H154.92c-.55,0-1-.45-1-1s.45-1,1-1h641.36c.55,0,1,.45,1,1s-.45,1-1,1Z"/>
      <path class="cls-8" d="m796.28,711.3H154.92c-.55,0-1-.45-1-1s.45-1,1-1h641.36c.55,0,1,.45,1,1s-.45,1-1,1Z"/>
      <path class="cls-8" d="m796.28,784.83H154.92c-.55,0-1-.45-1-1s.45-1,1-1h641.36c.55,0,1,.45,1,1s-.45,1-1,1Z"/>
      <path class="cls-8" d="m796.28,858.36H154.92c-.55,0-1-.45-1-1s.45-1,1-1h641.36c.55,0,1,.45,1,1s-.45,1-1,1Z"/>
      <path class="cls-8" d="m796.28,931.89H154.92c-.55,0-1-.45-1-1s.45-1,1-1h641.36c.55,0,1,.45,1,1s-.45,1-1,1Z"/>
      <path class="cls-8" d="m796.28,1005.43H154.92c-.55,0-1-.45-1-1s.45-1,1-1h641.36c.55,0,1,.45,1,1s-.45,1-1,1Z"/>
      <path class="cls-8" d="m796.28,1078.96H154.92c-.55,0-1-.45-1-1s.45-1,1-1h641.36c.55,0,1,.45,1,1s-.45,1-1,1Z"/>
    </g>
    <g>
      <path class="cls-3" d="m875.65,388.79c-1.66,0-3-1.34-3-3v-75.06c0-1.66,1.34-3,3-3s3,1.34,3,3v75.06c0,1.66-1.34,3-3,3Z"/>
      <path class="cls-3" d="m875.56,892.28c-1.66,0-3-1.34-3-3v-75.06c0-1.66,1.34-3,3-3s3,1.34,3,3v75.06c0,1.66-1.34,3-3,3Z"/>
    </g>
    <g>
      <path class="cls-9" d="m117.24,1121.66c-.83-1.94-.82-4.08-.83-6.12,0-.58-.06-1.16-.03-1.74.14-1.34.37-2.65.69-3.92.1-.39.14-.78.23-1.17.02-.07.01-.15.04-.22.3-.58.39-1.21.59-1.81.09-.3.18-.61.29-.9.13-.29.29-.56.49-.81.03-.04.06-.08.07-.12.2-1.19,1.07-2.06,1.69-2.98l1.01-1.41c.39-.43.73-.9,1.21-1.23.85-.66,1.64-1.47,2.65-1.92.06-.03.14-.06.16-.12.2-.52.71-.61,1.14-.81.34-.17.65-.43.99-.6.32-.18.68-.28,1.02-.43.66-.25,1.31-.51,1.99-.69.18-.05.34-.15.52-.15.86-.03,1.65-.14,2.46-.53.34-.15.77-.05,1.16-.06.45-.03.89.07,1.35-.18.27-.13.65-.07.96.03.76.2,1.49.25,2.29.19.54-.03,1.08.12,1.61.23.3.06.59.22.9.21.97,0,1.87.37,2.76.68.18.07.38.06.57.12.27.09.51.23.77.35.16.07.3.18.46.21.87.13,1.56.65,2.26,1.12.7.48,1.47.86,2.19,1.33.65.43,1.29.89,1.9,1.38.19.15.39.29.59.44,1.04.8,2.16,1.6,2.9,2.68.7,1.03,1.55,1.89,2.21,2.94.58.92,1.01,1.93,1.39,2.94.26.72.49,1.42.87,2.12.26.47.26,1.05.34,1.59.03.17.04.35.1.51.5,1.38.37,2.87.12,4.27-.13.76-.06,1.57-.15,2.37-.01.18.02.37-.05.52-.38.86-.5,1.75-.8,2.64-.41,1.16-1.13,2.2-1.89,3.17-.19.27-.41.52-.62.77-.3.34-.64.64-.96.96-.29.25-.56.52-.85.76-.32.28-.64.56-.97.83-.5.43-1.01.88-1.56,1.25-.7.48-1.46.86-2.21,1.27-.84.44-1.7.87-2.57,1.25-.28.13-.59.19-.88.32-1.22.52-2.45,1.03-3.7,1.48-.98.35-1.98.61-2.99.89-1.21.33-2.44.66-3.69.86-.59.09-1.2.07-1.8.12-1.63.14-3.3.14-4.95-.06-1.27-.16-2.54-.41-3.76-.85-1.52-.55-2.92-1.38-4.24-2.32-.87-.61-1.55-1.43-2.42-2.08-.5-.36-.8-.96-1.18-1.46-.97-1.25-1.78-2.61-2.46-4.04-.06-.12-.13-.25-.23-.33-.48-.36-.6-.9-.7-1.44-.02-.11,0-.23-.04-.32-.12-.3-.39-.44-.64-.35-.16.06-.3.35-.32.56-.02.2.11.44.19.65.52,1.33,1.15,2.62,1.91,3.85.52.83,1.12,1.61,1.73,2.38.73.92,1.51,1.83,2.43,2.6,1.7,1.47,3.71,2.47,5.75,3.2,1.59.57,3.24.74,4.85,1.22.29.08.62.06.93.08.98.05,1.96.02,2.91-.06,1.41-.12,2.79-.37,4.13-.67.66-.14,1.32-.26,1.97-.43,1.61-.42,3.19-.92,4.72-1.51,2.33-.9,4.66-1.93,6.87-3.23,1.07-.63,2.11-1.31,3.08-2.09.41-.35.82-.69,1.2-1.08,1.25-1.21,2.3-2.61,3.12-4.12.74-1.34,1.34-2.76,1.69-4.24.26-1.14.38-2.3.4-3.45.03-.81.02-1.63-.03-2.44-.06-.7-.18-1.4-.29-2.09-.14-.79-.28-1.58-.52-2.35-.3-.98-.74-1.9-1.17-2.82-.68-1.41-1.52-2.72-2.51-3.91-1.35-1.64-2.81-3.21-4.48-4.52-.89-.69-1.87-1.25-2.82-1.81-.77-.44-1.51-.92-2.3-1.33-.63-.32-1.27-.62-1.92-.89-1.52-.64-3.09-1.19-4.7-1.5-1.14-.22-2.3-.24-3.44-.28-1.22-.04-2.44-.06-3.63.09-.57.07-1.11.25-1.67.36-.6.12-1.22.19-1.82.33-2.26.52-4.44,1.46-6.36,2.77-.91.62-1.78,1.31-2.54,2.1-.09.08-.19.15-.28.23-.38.35-.71.75-1.07,1.12-.35.38-.64.81-.98,1.21-.27.33-.49.7-.74,1.05-.26.35-.47.72-.67,1.11-.25.45-.47.93-.65,1.43-.2.48-.41.96-.63,1.43-.44.81-.59,1.71-.89,2.58-.77,2.44-1.04,5.06-1.02,7.67,0,1.71.15,3.42.43,5.12.04.24.09.47.17.7.15.45.43.61.76.5.37-.12.58-.52.5-.93-.01-.05-.03-.1-.05-.15Z"/>
      <path class="cls-9" d="m129.5,1111.6c.48,1.29,2.07,1.72,3.36,1.24s1.92-1.46,1.44-2.75-2.1-1.94-3.4-1.46c-1.29.48-1.89,1.69-1.41,2.98Z"/>
      <path class="cls-9" d="m142.58,1107.44c.48,1.29,2.07,1.72,3.36,1.24,1.29-.48,1.92-1.46,1.44-2.75s-2.1-1.94-3.4-1.46c-1.29.48-1.89,1.69-1.41,2.98Z"/>
      <path class="cls-9" d="m126.33,1119.17c.29.49.64.87,1.08,1.13.47.3.95.57,1.45.82.11.06.22.16.34.15.72-.03,1.23.47,1.87.64.24.07.47.19.71.27.41.14.83.27,1.25.35.49.08.99.12,1.49.15.07,0,.16-.02.21.03.44.44.99.33,1.51.39.39.03.75-.05,1.11-.11.38-.06.78-.15,1.18.13.13.09.33.03.5.02.74-.04,1.49-.11,2.23-.25.23-.05.45-.15.67-.23.07-.03.12-.12.19-.12,1.03.11,1.94-.37,2.92-.59.26-.06.5-.19.74-.3.51-.2,1.03-.4,1.52-.67.29-.18.53-.46.79-.68.16-.14.31-.33.51-.38.72-.18,1.16-.76,1.61-1.29.25-.31.6-.55.83-.89.47-.76.78-1.57,1.29-2.35.19-.24.16-.63.1-.92-.04-.18-.29-.37-.51-.46-.28-.11-.61-.04-.74.17-.12.2-.27.38-.4.56-.14.18-.25.37-.27.62-.08.55-.34,1.04-.35,1.68-.02.55-.48.88-.82,1.23-.67.72-1.48,1.3-2.33,1.77-1.23.69-2.56,1.16-3.9,1.5-1.11.29-2.24.48-3.37.6-.22.02-.45.06-.66.16-.52.22-1.05.07-1.57.01-.44-.03-.89-.03-1.33-.04-.52-.04-1.03-.07-1.55-.15-.69-.09-1.38-.23-2.05-.41-.66-.18-1.31-.41-1.95-.64-.28-.11-.57-.17-.85-.27-.46-.17-.9-.36-1.28-.7-.35-.29-.83-.39-1.25-.6-.18-.1-.35-.22-.48-.38-.11-.15-.21-.15-.48.05Z"/>
    </g>
    <path class="cls-4" d="m753.72,925.77c-.17-3.6-.57-7.16-1.13-10.71l-.18-1.11c-.96-5.82-2.29-11.6-3.61-17.38-1.28-5.64-2.55-11.29-3.43-16.98-1.04-6.71-.99-11.07-2.01-14.73-.95-3.45-2.87-6.27-7.56-9.86-10.46-8.01-30.4-11.26-42.78-16.19-28.35-11.28-56.31-23.81-82.43-39.69-54.04-32.87-82.76-80.98-121.92-127.93-11.48-13.76-24.04-26.94-38.38-37.74-.49-.38-.98-.75-1.48-1.12-.5-.38-1.01-.76-1.53-1.13-1.62-1.18-3.3-2.34-5.02-3.48-8.4-5.57-17.38-10.32-26.9-13.69-12.39-4.38-15.69-4.25-26.24,3.27-13.28,9.46-26.57,18.94-40.52,27.2-.27.17-.54.33-.82.49l-.68.4c-12.36,7.22-25.25,13.47-39.11,17.86-29.03,9.21-59.85,12.65-87.64,25.67-10.35,4.85-19.28,10.85-27.02,17.78l-1.03.93c-16.92,15.52-28.02,35.51-35.62,57.38,0,.02,0,.03-.02.05-8.3,23.86-12.4,49.95-15.34,74.91-.96,8.19-1.69,16.44-2.14,24.72-1.1,20.02-.61,40.21,1.89,60.07.63,5.11,1.4,10.2,2.32,15.26.21,1.13.42,2.25.63,3.37.01.07.03.13.04.2,2.31,11.86,5.41,23.55,9.4,34.95.12.36.25.73.39,1.09,5.25,14.81,12.01,29.11,20.48,42.68,12.06,19.33,27.37,36.91,35.7,58.12,14.82,37.74,5.29,80.16-4.41,119.53h9.13c.35.01.69.01,1.04.01,9.65,0,19.29,0,28.94.01h8.54s8.11.01,21.66.01h9.35c5.07,0,10.14,0,15.2.01h393.03c.13-.56.27-1.12.4-1.68,2.44-10.22,4.88-20.43,7.31-30.64,2.31-9.67,4.62-19.37,5.62-29.25,1.9-18.92-1.1-37.86-5.29-56.27-2.2-9.65-6.27-17.01-1.65-25.55,3.84-7.09,9.83-13.44,14.2-20.27.32-.5.65-1,.97-1.5,11.99-18.59,22.2-38.26,30.03-59.27,5.94-15.95,10.44-32.79,9.62-49.8Z"/>
    <path class="cls-2" d="m748.8,896.57c-.42.26-.84.51-1.26.76-.6.35-1.19.69-1.76,1.03-19.22,11.42-29.53,34.33-49,45.3-1.34.75-2.78,1.49-3.64,2.77-.93,1.38-1.03,3.15-1.05,4.81-.2,13.72,2.59,27.65-.37,41.05-1.57,7.12-4.74,13.95-5.05,21.24-.27,6.14,1.53,12.24,1.21,18.38-.31,5.9-2.56,11.53-3.52,17.36-3.2,19.38,6.59,36.69,8.08,55.7.61,7.79.15,15.62-.3,23.42-.81,13.71-1.61,27.42-2.41,41.13-.43,7.19-.87,14.51-3.41,21.26-1.26,3.35-3,6.43-5.14,9.22h-150.23c-34.42-2.18-69.49,0-103.84,0h-72.26c-16.74,0-33.48,0-50.21-.01h-29.71c-13.55,0-21.66-.01-21.66-.01h-8.54c-1.29-6.88-1.04-14.29-1.16-21.23-.39-21.68-.48-43.23-.15-64.9.39-25.38.03-50.76-1.08-76.12-.23-5.14-.49-10.28-.75-15.43-.71-14.24-1.42-28.49-2.13-42.73-.13-2.48-.25-4.97-.74-7.41-1.11-5.48-4.57-12.22-9.6-15.12-5.49-3.17-15.61-1.95-22.01-2.54-15.97-1.48-31.87-3.72-47.63-6.72-4.86-.93-10.75-1.17-15.09-3.96-.11-.07-.22-.15-.33-.23-.01-.07-.03-.13-.04-.2-.21-1.12-.42-2.24-.63-3.37-.92-5.06-1.69-10.15-2.32-15.26.32-1.48.65-2.87.87-4.13,1.07-5.95-.5-13.25-.83-19.28-.37-6.51-.74-13.01-1.1-19.52-.32-5.71-.64-11.43-.83-17.14.45-8.28,1.18-16.53,2.14-24.72,2.94-24.96,7.04-51.05,15.34-74.91,4.27-2.15,9.31-1.14,13.78-4.34,3.63-2.6,6.54-6.06,9.64-9.27,3.57-3.7,7.49-7.15,12.08-9.47,4.59-2.32,9.93-3.44,14.95-2.34,3.23.71,6.26,2.31,9.56,2.58,3.3.27,7.18-1.45,7.66-4.73.14-.98-.04-1.99.16-2.96.7-3.39,8.93-7.25,11.84-8.6,17.35-8.06,35.53,9.4,52.96,2.5,4.41-1.75,8.77-4.12,13.51-4.13,1.94,0,3.88.4,5.81.28,1.94-.12,4-.9,4.93-2.6.58-1.07.64-2.35,1.13-3.47.76-1.73,2.44-2.85,4.04-3.86,11.36-7.23,22.01-13.95,31.52-23.59,9.2-9.32,17.24-19.8,23.78-31.15,3.94-6.84,7.38-14.43,8.89-22.14.13-.66.25-1.33.35-2,.69-4.55.66-9.13-.37-13.6,2.09-1.61,4.17-3.23,6.24-4.87,10.55-7.52,13.85-7.65,26.24-3.27,9.52,3.37,18.5,8.12,26.9,13.69,1.72,1.14,3.4,2.3,5.02,3.48.52.37,1.03.75,1.53,1.13.5.37.99.74,1.48,1.12,30.83,23.63,43.85,54.16,65.26,86.95,23.69,36.26,52.34,69.29,84.97,97.78,8.23,7.18,16.82,14.15,26.72,18.76,15.99,7.43,33.89,8.25,51.18,9.61,8.77.69,17.57,1.5,26.17,3.41,4.25.95,8.44,2.16,12.5,3.74,3.76,1.47,6.93,3.66,10.9,4.12,5.84.68,10.96,3.36,15.37,7.04,1.02,3.66.97,8.02,2.01,14.73.88,5.69,2.15,11.34,3.43,16.98Z"/>
    <path class="cls-4" d="m256.18,599.42c-16.95-3.77-33.4-13.54-46.11-26.3h-.01l-.12-.12-1.22-1.26c-4.62-4.81-8.7-10.01-12.08-15.46-3.64-5.87-6.11-12.39-6.86-19.07-.06-.4-.09-.8-.13-1.2-.31-3.73-.08-7.5.78-11.22.42-1.84,1.01-3.67,1.76-5.48,3.19-7.67,8.78-14.76,15.36-20.58,4.19-3.7,8.78-6.88,13.4-9.36,9.04-4.84,19.08-7.66,29.32-8.55,5.25-.48,10.56-.43,15.81.1,3.76.38,7.54,1.03,11.19,2.04,2.25.62,4.46,1.36,6.59,2.26.35.14.69.29,1.02.44,1.52.68,2.99,1.44,4.42,2.29h0c.42.25.84.51,1.26.79.74.47,1.46.98,2.17,1.51,10.94,8.2,16.67,21.79,18.79,35.3,5.67,36.3-9.9,83.96-55.34,73.87Z"/>
    <path class="cls-2" d="m277.27,482.96c-.01.33-.02.65-.05.97-.82,10.79-7.57,20.94-17.2,25.87-4.19,2.15-8.88,3.38-12.66,6.19-1.39,1.04-2.63,2.26-3.93,3.42-3.99,3.56-8.73,6.49-13.99,7.48-2.16.4-4.36.47-6.55.54-10.59.34-22.27.98-32.46-2.64.42-1.84,1.01-3.67,1.76-5.48,3.19-7.67,8.78-14.76,15.36-20.58,14.83-3.46,29.08-9.38,41.99-17.45.24-.15.49-.31.73-.46,5.25-.48,10.56-.43,15.81.1,3.76.38,7.54,1.03,11.19,2.04Z"/>
    <path class="cls-4" d="m755.04,344.04c-.87,11.76-14.95,17.01-26.51,19.4-15.87,3.28-31.79,6.36-47.74,9.23-13.42,2.42-26.5,2.21-38.23,9.43-.17.1-.33.2-.5.31-11.1,7.06-19.34,16.73-26.04,27.92-3.28,5.48-5.02,7.94-3.62,14.43,1.67,7.68,4.53,15.09,6.55,22.69.37,1.4.72,2.81,1.03,4.23,2.04,9.21,2.69,18.86-.59,27.61-2.84,7.57-9.37,13.58-10.7,21.57-.11.63-.18,1.28-.22,1.94-.24,4.48.59,8.93,1.03,13.4,1.16,11.77-5.92,24.15-14.51,31.99-3.37,3.08-8.26,5.95-13.3,7.36-6.57,1.85-13.41,1.21-17.5-4.73-10.45-15.15-22.01-31.41-28.16-48.78-.06-.17-.12-.34-.18-.51-6.18-17.77-18.58-34.66-27.24-51.47-2.62-5.08-5.2-10.19-7.31-15.5-6.83-17.26-6.61-34.82-9.79-52.73-1.83-10.34.33-19.08,6.17-26.32,2.57-3.21,5.87-6.11,9.85-8.74,1.06-.69,2.11-1.36,3.16-2.01,13.06-8.12,25.37-13.43,33.52-27.9,1.22-2.17,2.33-4.39,3.35-6.65.15-.3.28-.61.41-.91,3.46-7.8,6.02-16.01,9.03-24.02.13-.36.27-.72.41-1.07,1.09-2.87,2.24-5.7,3.53-8.47,13.75-29.63,40.09-49.85,72.27-55.66,12.3-2.23,25.29-2.78,38.06-1.39.36.04.71.08,1.07.12,7.3.86,14.52,2.36,21.49,4.56.84.26,1.68.53,2.51.82,7.76,2.65,15.17,6.18,21.99,10.67,9.56,6.29,20.67,19.22,21.53,31.27,1.04,14.5-14.33,25.67-10.23,40.81,2.79,10.32,14.43,16.74,20.96,24.83,2.91,3.6,4.8,7.52,4.45,12.27Z"/>
    <path class="cls-2" d="m755.04,344.04c-.87,11.76-14.95,17.01-26.51,19.4-15.87,3.28-31.79,6.36-47.74,9.23-13.42,2.42-26.5,2.21-38.23,9.43-22.49,3.25-45.15,6.21-67.8,4.71-2.25-.14-4.69-.29-6.58.94-1.89,1.23-2.54,4.46-.62,5.65-14.2.74-28.83.13-41.97-5.29-13.15-5.43-24.66-16.41-27.6-30.32-.15-.71-.26-1.48-.31-2.28,2.57-3.21,5.87-6.11,9.85-8.74,1.06-.69,2.11-1.36,3.16-2.01,2.12.85,4.24,1.89,6.2,2.27,13.76,2.7,28.68-1.35,42.19-3.74,19.77-3.51,39.86-5.15,59.93-4.89,10.13.14,20.81.63,29.76-4.1,6.93-3.66,12.22-10.2,19.61-12.83,9.79-3.48,21.83,1.79,25.93,11.34.57,1.33,1.04,2.79,2.12,3.75,1.8,1.61,4.54,1.29,6.91.88,8.55-1.48,17.09-2.96,25.63-4.44,7.14-1.24,14.57-2.46,21.62-1.23,2.91,3.6,4.8,7.52,4.45,12.27Z"/>
    <path class="cls-2" d="m619.39,479.29c-2.84,7.57-9.37,13.58-10.7,21.57-1.99-1.1-3.84-2.66-5.36-3.89-3.63-2.93-6.29-7-6.8-11.72-.08-.78-.13-1.61-.59-2.24-.7-.94-2.03-1.08-3.2-1.07-4.98.06-10.25,1.31-14.76-.81-.56-.26-1.16-.58-1.76-.44-.68.15-1.09.83-1.42,1.45-.78,1.45-1.55,2.89-2.32,4.34-1.97,3.66-3.77,8.63-.82,11.56,1.28,1.27,3.13,1.72,4.81,2.36,8.89,3.42,14.16,14.24,11.37,23.35-1.41,4.61-4.53,8.56-5.84,13.2-1.7,6-.2,12.36-.31,18.6-6.57,1.85-13.41,1.21-17.5-4.73-10.45-15.15-22.01-31.41-28.16-48.78.93-15.46,5.66-30.57,12.3-44.59,2.08-4.39,4.47-8.85,8.36-11.76,3.22-2.41,7.21-3.55,11.17-4.3,17.81-3.34,36.67.81,52.12,10.29,2.04,9.21,2.69,18.86-.59,27.61Z"/>
    <g>
      <path class="cls-5" d="m264.66,569.32c-3.56,2.01-7.43,3.49-11.51,4.38-6.18,1.36-12.78,2.04-19.6,2.04s-13.28-.63-20.05-1.88c-1.16-.21-2.29-.46-3.43-.74h-.01l-.12-.12-1.22-1.26c1.64.44,3.29.83,4.96,1.14,13.7,2.53,27.28,2.47,39.26-.15,3.97-.88,7.75-2.31,11.23-4.28,25.84-14.59,33.48-52.33,25.13-80.49.42.24.84.5,1.26.78,7.96,28.42.04,65.94-25.9,80.58Z"/>
      <path class="cls-5" d="m722.5,272.01c-.02,3.63-.42,6.31-1.3,8.68-3.65,9.93-15.64,13.71-24.79,13.93-4.14.1-8.34-.27-12.4-.63-5.63-.5-11.46-1.01-17.12-.25-10,1.35-18.99,6.56-27.69,11.61-5.34,3.09-10.86,6.29-16.62,8.63-9.07,3.67-19.67,5.53-31.5,5.53-.21,0-.42,0-.64-.01-15.28-.08-30-3.36-42.88-9.29.15-.3.28-.61.41-.91,12.76,5.87,27.33,9.12,42.48,9.2,11.95.07,22.65-1.76,31.76-5.45,5.69-2.31,11.18-5.49,16.49-8.57,8.78-5.09,17.86-10.36,28.06-11.73,5.77-.78,11.65-.26,17.34.24,4.03.36,8.19.73,12.29.63,8.83-.21,20.39-3.82,23.88-13.27.83-2.27,1.21-4.84,1.23-8.35.11-18.06-9.54-36.19-24.58-46.18-1.29-.86-2.31-1.68-3.09-2.45.84.26,1.68.53,2.51.82.37.27.75.54,1.13.79,15.32,10.18,25.14,28.64,25.03,47.03Z"/>
      <path class="cls-5" d="m707.73,268.88c-1.96,5.82-8.82,8.34-14.61,7.82-4.55-.41-8.81-2.25-12.94-4.03-1.15-.49-2.3-.99-3.46-1.45-7.32-2.95-21.52-7.03-34.31-1.19-3.62,1.66-6.83,3.98-9.5,6.03-2.38,1.84-4.76,3.81-7.06,5.72-7.1,5.89-14.44,11.97-23.19,15.22-4.56,1.69-9.44,2.52-14.33,2.52-6.48,0-12.97-1.47-18.73-4.37-4.78-2.41-9.06-5.81-12.6-9.87.13-.36.27-.72.41-1.07,3.51,4.15,7.82,7.62,12.64,10.05,9.85,4.96,21.91,5.64,32.26,1.8,8.6-3.19,15.87-9.22,22.9-15.05,2.31-1.91,4.7-3.89,7.09-5.74,2.71-2.09,5.98-4.45,9.69-6.15,9.73-4.44,22.2-4.03,35.11,1.17,1.16.47,2.32.97,3.48,1.47,4.05,1.74,8.24,3.55,12.63,3.94,5.38.49,11.78-1.81,13.58-7.14.74-2.21.67-4.82-.22-8.22-1.8-6.9-5.73-13.32-11.04-18.07-2.58-2.3-5.52-4.27-8.36-6.17-2.06-1.37-4.18-2.79-6.17-4.33-5.25-4.09-8.53-8.48-9.73-13.08.36.04.71.08,1.07.12,1.23,4.25,4.34,8.33,9.27,12.17,1.96,1.52,4.07,2.93,6.11,4.29,2.87,1.92,5.85,3.9,8.47,6.25,5.47,4.89,9.5,11.48,11.35,18.57.94,3.59,1,6.39.19,8.79Z"/>
      <path class="cls-5" d="m348.6,644.5h0c-4.17,9.26-9.48,17.79-15.82,25.31-12.12,14.37-30.6,21.73-43.45,26.01-25.08,8.37-51.27,12.58-77.51,12.58-6.51,0-13.02-.26-19.52-.77l1.03-.93c32.26,2.45,64.81-1.53,95.69-11.83,12.73-4.24,31.04-11.53,42.99-25.71,5.99-7.1,11.05-15.1,15.09-23.77l1.5-.89Z"/>
      <path class="cls-5" d="m215.8,1199.97h-.01c-.35,0-.69,0-1.04-.01,18.35-54.1,25.39-135.37-13.74-192.44-8.15-11.89-19.44-20.31-32.65-24.33-4.77-1.46-9.61-2.65-14.51-3.55h0c-.14-.37-.27-.74-.39-1.1,5.14.93,10.21,2.17,15.2,3.69,13.42,4.09,24.89,12.64,33.18,24.72,39.26,57.27,32.3,138.71,13.96,193.02Z"/>
      <path class="cls-5" d="m752.59,915.06c-2.53,1.87-5.12,3.63-7.67,5.37-2.83,1.93-5.76,3.93-8.54,6.02-13.01,9.78-23.05,22.73-28.26,36.47-6.52,17.2-3.5,32.28.75,46.02,2.82,9.14,4.56,17.79,5.2,25.9-.32.5-.65,1-.97,1.5-.52-8.52-2.25-17.6-5.19-27.11-4.29-13.91-7.36-29.19-.72-46.66,5.28-13.92,15.43-27.03,28.59-36.92,2.79-2.1,5.74-4.11,8.58-6.04,2.68-1.83,5.41-3.69,8.05-5.66l.18,1.11Z"/>
      <path class="cls-5" d="m273.39,535.68c-7.09,9.39-18.96,14.66-33.43,14.83h-.87c-11.51,0-24.01-2.63-38.19-8.05-3.87-1.48-7.55-3.36-11.12-5.25-.06-.4-.09-.8-.13-1.2,3.73,1.98,7.58,3.97,11.6,5.51,14.42,5.51,27.09,8.13,38.7,7.99,14.15-.17,25.74-5.29,32.64-14.43,10.2-13.51,11.83-34.16,11.27-49.86.35.14.69.29,1.02.44.52,15.81-1.22,36.41-11.49,50.02Z"/>
    </g>
    <path class="cls-7" d="m707.79,264.25c-12.4,2.49-13.77,4.5-15.46,22.78-1.69-18.28-3.05-20.3-15.46-22.78,12.4-2.49,13.77-4.5,15.46-22.78,1.69,18.28,3.05,20.3,15.46,22.78Z"/>
    <path class="cls-7" d="m303.59,527.7c-10.45,2.09-11.6,3.79-13.02,19.19-1.42-15.4-2.57-17.09-13.02-19.19,10.45-2.09,11.6-3.79,13.02-19.19,1.42,15.4,2.57,17.09,13.02,19.19Z"/>
    <path class="cls-7" d="m259.19,714.11c-11.84,2.37-13.15,4.3-14.76,21.75-1.61-17.45-2.92-19.37-14.76-21.75,11.84-2.37,13.15-4.3,14.76-21.75,1.61,17.45,2.92,19.37,14.76,21.75Z"/>
    <path class="cls-7" d="m741.2,937.08c-9.97,2-11.07,3.62-12.43,18.32-1.36-14.7-2.46-16.32-12.43-18.32,9.97-2,11.07-3.62,12.43-18.32,1.36,14.7,2.46,16.32,12.43,18.32Z"/>
    <path class="cls-7" d="m249.46,979.51c-13.13,2.63-14.58,4.77-16.37,24.12-1.79-19.35-3.23-21.49-16.37-24.12,13.13-2.63,14.58-4.77,16.37-24.12,1.79,19.35,3.23,21.49,16.37,24.12Z"/>
    <path class="cls-7" d="m233.1,1048.97c-9.99,2-11.09,3.62-12.45,18.34-1.36-14.72-2.46-16.34-12.45-18.34,9.99-2,11.09-3.62,12.45-18.34,1.36,14.72,2.46,16.34,12.45,18.34Z"/>
    <path class="cls-7" d="m322.29,681.83c-7.75,1.55-8.6,2.81-9.66,14.23-1.05-11.42-1.91-12.68-9.66-14.23,7.75-1.55,8.6-2.81,9.66-14.23,1.05,11.42,1.91,12.68,9.66,14.23Z"/>
    <path class="cls-7" d="m676.87,287.03c-10.05,2.01-11.16,3.65-12.53,18.46-1.37-14.81-2.48-16.45-12.53-18.46,10.05-2.01,11.16-3.65,12.53-18.46,1.37,14.81,2.48,16.45,12.53,18.46Z"/>
    <g>
      <path class="cls-1" d="m835.65,236.54c-7.54-5.3-16.6-10.73-24.04-16.35-5.81-4.39-11.45-8.07-16.31-13.61-34.07-38.82-25.77-68.47,10.66-102.24,9.6-8.9,18.3-14.46,31.74-23.45,37.73-25.25,78.98-52.5,117.07-78.95-28.78-.7-57.99-1.06-87.02-1.39-15.11,13.7-31.45,29.85-46.35,43.17-27.91,24.95-60.49,47.21-73.63,83.15-13.63,37.3-3.02,66.48,22.29,94.71,9.7,10.81,22.02,18.35,33.91,25.82,44.02,27.65,89.56,59.26,104.5,111.94,11.5,40.57,6.36,82.15-4.31,122.44-7.03,26.55-16.79,52.67-25.33,78.74-6.17,18.83-11.58,37.47-16.27,56.73-1.19,4.88-1.82,10.11-2.47,15.22-.19,1.48-.39,3.44-.43,4.99-1.27,45.23,18.46,74.58,27.35,116.62,2.33,11.02,2.92,22.59,2.72,34.15-.66,37.73-15.18,77.92-39.08,105.73-19.1,22.23-42.07,37.35-57.56,58.98-15.49,21.63-14.84,38.87-15.47,63.49-.42,16.33,2.25,33.1,3.23,49.9.37,6.43,2.23,14.17,3.63,20.66,6.34-8.62,12.48-17.44,18.87-26.04,10.68,6.82,21.58,13.79,32.27,20.29-2.67-2.74-5.98-11.16-6.9-13.97-11.38-34.48-30.95-66.52-7.32-101.4,18.31-27.02,48.7-53.33,64.21-84.17.76-1.51,2.25-4.09,3.04-5.81,16.78-36.3,25.71-80.49,17.09-119.64-10.13-45.99-33.19-78.23-28.51-127,1.69-8.28,3.67-16.87,5.83-25.24.01-.05.04-.16.09-.32,1.07-3.97,2.23-8.02,3.37-12.01.02-.06.07-.1.08-.16,17.62-58.81,44.86-115.35,48.6-177.51,1.31-21.86-1.91-43.65-7.01-64.9-14.84-48.96-51.74-83.86-92.54-112.56Z"/>
      <path class="cls-1" d="m927.95,348.98c4.96,21.25,8.46,43.06,7.07,64.91-3.96,62.13-30.94,118.72-48.69,177.51,9.37-36.04,16.21-72.39,17.8-109.7,9.97-40.37,15.81-81.84,4.12-122.52-15.12-52.62-60.42-84.29-104.53-111.91-11.91-7.46-24.2-15.02-33.89-25.82-25.32-28.22-35.94-57.41-22.32-94.71,13.13-35.93,45.83-58.23,73.6-83.15,14.83-13.31,31.41-29.49,46.39-43.17,29.06.34,58.23.69,87.04,1.39-38.14,26.44-79.29,53.7-117.11,78.95-13.47,8.99-22.09,14.55-31.7,23.45-36.47,33.78-44.76,63.44-10.64,102.25,4.87,5.53,10.46,9.22,16.26,13.6,7.44,5.62,16.52,11.05,24.05,16.35,40.76,28.7,77.71,63.6,92.55,112.56Z"/>
    </g>
    <g>
      <path class="cls-2" d="m826.08,237.08c-7.39-5.27-16.49-11.32-23.97-16.59-5.73-4.26-11.01-8.76-15.94-13.66-34.28-34.67-24.23-69.96,7.77-102.21,8.37-8.56,18.04-16.03,27.76-23.11,27.25-19.96,88.87-61.82,116.31-81.39h-87.34c-29.45,27.86-32.21,31.2-45.68,44.23-25.24,24.38-54.54,49.29-66.68,82.83-12.68,34.78-3.41,68.64,22.66,94.79,9.92,10.08,21.54,18.53,33.53,25.95,44.54,27.27,89.61,61.19,103.32,112.48,12.13,40.74,6.64,81.66-4.53,121.68-7.37,26.37-17.19,52.34-26.08,77.61-6.32,18.29-12.43,36.95-16.99,55.82-1.03,4.81-2.15,10.11-2.65,15.09-.15,1.44-.52,3.65-.55,5.07-3.15,41.19,13.42,80.05,21.16,119.54,1.93,10.37,2.94,21.03,2.78,31.56-.81,34.36-11.77,69.33-35.35,95.48-18.61,21.1-41.31,38.52-57.05,63.24-15.72,24.83-21.15,53.55-23.4,81.93-1.6,18.81-2.75,37.68-1.18,56.51.6,7.21,1.33,14.51,3.09,21.56l19.83-26.51s31.66,22.19,31.66,22.19c-2.78-2.05-4.77-13.15-5.99-16.56-15.03-41.88-19.61-87.8,4.53-127.47,18.7-30.74,46.71-54.99,63.32-87.13.81-1.57,1.6-3.16,2.35-4.77,15.74-33.75,21.22-72,14.36-108.5-8.09-42.87-28.94-84.66-22.42-128.73,1.74-8.48,3.85-16.87,6.22-25.2,0-.05.04-.15.09-.31,1.12-3.98,2.32-7.95,3.56-11.89.01-.06.03-.12.05-.17,18.28-58.13,46.93-113.79,49.81-175.4,1.1-21.66-1.2-43.73-7.2-64.7-12.85-48.1-51.07-84.78-91.15-113.22Z"/>
      <path class="cls-6" d="m916.98,350.18c6,20.97,8.3,43.04,7.2,64.7-2.88,61.61-31.53,117.27-49.81,175.4,6.12-21.54,17.77-67.53,18.67-108.32,11.17-40.02,16.66-80.94,4.53-121.68-13.71-51.29-58.78-85.21-103.32-112.48-11.99-7.42-23.61-15.87-33.53-25.95-26.07-26.14-35.34-60.01-22.66-94.79,12.14-33.54,41.44-58.45,66.68-82.83,13.47-13.02,16.23-16.37,45.68-44.23h87.34c-27.44,19.56-89.06,61.43-116.31,81.39-9.72,7.08-19.39,14.55-27.76,23.11-32,32.25-42.05,67.54-7.77,102.21,4.93,4.9,10.21,9.4,15.94,13.66,7.48,5.27,16.58,11.32,23.97,16.59,40.08,28.44,78.3,65.12,91.15,113.22Z"/>
    </g>
    <g>
      <path class="cls-9" d="m839.72,181.93c.19-1.26,1.19-2.88,1-4.79-.22-2.33-1.35-3.57-3.63-4.19-2.9-.79-5.52.12-8.08,1.23-2.71,1.17-4.49.58-5.79-2.1-.68-1.41-1.08-2.91-1.39-4.43-.34-1.62.11-2.37,1.71-2.94,2.48-.87,4.72-2.07,6.46-4.13,3.58-4.24,1.09-8.39-2.89-10.05-1.29-.54-2.66-.93-4.03-1.2-1.56-.3-1.71-1.36-1.58-2.56.22-2.08.9-4.05,1.76-5.96.84-1.86,2.51-2.46,4.37-1.69,2.35.98,4.65,2.11,7.33,1.85,3.9-.38,4.87-2.68,5.17-6.31.12-1.49-.43-2.84-1.2-4.11-.22-.36-.41-.73-.58-1.11-1.37-3.07-.82-4.6,2.17-6,.98-.46,1.98-.88,2.98-1.29,2.37-.98,4.1-.19,5.01,2.24.57,1.52.64,3.23,1.92,4.49.66.66,1.24,1.37,2.03,1.89,2.63,1.71,5.67,1.24,7.75-1.16,1.26-1.45,1.99-3.12,2.42-4.97.7-3,2.21-3.59,5-2.4,1.77.76,3.44,1.67,5.14,2.55,1.13.58,1.29,1.25.92,2.24-.65,1.76-1.33,3.5-2.01,5.25-.98,2.49-.64,5.18,1.07,6.46,2.6,1.94,5.49,2.7,8.81,1.04,1.02-.51,2.05-1.01,3.06-1.52,1.42-.72,2.45-.05,3.2,1.04,1.41,2.06,2.22,4.43,2.79,6.83.33,1.39-.59,2.11-1.91,2.54-2.2.72-4.56,1.18-6.02,3.29-2.34,3.38-2.37,7.43,1.73,9.41,1.67.81,3.33,1.66,4.99,2.49.7.35.99.87,1.11,1.7.41,2.72-.81,5.02-1.95,7.24-.93,1.82-3.06,1.8-5.63.39-2.3-1.26-4.69-1.84-7.29-.94-3.47,1.2-4.21,4.24-3.59,7.77.39,2.17,1.68,3.98,2.37,6.04.33,1,.11,1.64-.64,2.32-1.99,1.79-4.46,2.39-6.97,2.74-2.05.28-2.81-.47-3.24-2.81-.34-1.8-1.06-3.41-2.16-4.86-1.5-1.99-3.62-2.56-5.93-2.29-2.49.3-4.26,1.57-5.1,4.14-.61,1.87-1.62,3.6-2.28,5.47-.45,1.28-1.78,1.09-2.68.69-2.02-.89-4.21-1.35-6.03-2.83-.98-.8-1.17-1.47-.92-2.46.32-1.27.73-2.51,1.26-4.27Zm.77,1.44c-.2.66-.49,1.66-.79,2.66-.29.94-.23,1.69.78,2.23,1.8.96,3.66,1.73,5.61,2.3.59.17.82-.14,1.15-.49,1.1-1.17,1.23-2.73,1.73-4.15.74-2.08,1.7-4.24,3.82-5.04,5.2-1.98,8.57-.52,10.91,4.73.35.78.37,1.71.64,2.54.64,2,1.09,2.17,3.17,1.98,1.84-.17,3.29-1.14,4.84-1.95,1.26-.66,1.64-1.31.88-2.79-.98-1.89-2.17-3.68-2.49-5.96-.87-6.12,4.02-9.19,9.03-8.37,1.96.32,3.64,1.08,5.34,1.95,1.04.54,2.16.37,2.61-.58.94-1.93,2.2-3.86,1.91-6.14-.11-.84-.3-2.41-1.22-2.28-1.71.25-2.71-.85-3.97-1.39-3.31-1.42-5.27-4.92-4.07-8.5,1.13-3.39,4.07-4.82,7.12-5.86,2.05-.69,2.7-1.67,1.78-3.61-.51-1.07-.95-2.16-1.44-3.24-1.42-3.14-1.74-3.3-4.62-1.42-3.36,2.19-6.74,1.76-10.06.23-1.47-.68-2.77-1.9-3.08-3.7-.45-2.6.4-4.95,1.67-7.12.55-.94.88-1.87,1.05-2.9.08-.47.09-.92-.49-1.17-2.18-.97-4.28-2.1-6.75-2.23-.94-.05-1.47.11-1.67,1.1-.49,2.45-1.76,4.5-3.36,6.38-2.08,2.44-5.33,2.98-8.07,1.35-2.61-1.55-4.07-3.86-4.77-6.76-.5-2.07-1.67-2.67-3.68-1.99-1.65.56-3.09,1.49-4.58,2.35-.87.51-1,1.17-.76,2.11.45,1.76,1.54,3.24,2.02,5.01.91,3.37-.18,6.04-2.41,8.44-1.78,1.92-6.08,1.27-8.36.27-.99-.43-1.97-.92-2.94-1.4-1.06-.53-1.9-.07-2.36.81-.69,1.33-1.38,2.68-1.74,4.17-.7,2.9-.53,3.26,2.39,4.05,1.87.5,3.76.99,5.08,2.51,3.33,3.82,3.74,6.72-.21,10.53-1.83,1.76-3.96,2.84-6.25,3.67-1.02.37-1.24.99-.94,1.88.46,1.37.89,2.77,1.53,4.07.99,2.02,2.37,2.4,4.49,1.61,1.54-.57,3-1.36,4.65-1.62,3.94-.62,7.26,1.01,8,5.14.39,2.14-.17,4.22-1.08,6.57Z"/>
      <path class="cls-9" d="m897.37,159.3c-.89-1.87-.21-3.73-.17-5.52.1-4.38-.79-8.54-2.48-12.51-2.15-5.05-5.25-9.38-9.56-12.93-1.61-1.32-3.47-2.19-5.01-3.55-.27-.24-.6-.4-.63-.82,11.08,3.39,21.57,24.05,17.85,35.33Z"/>
      <path class="cls-9" d="m894.33,132.77c3.63,3.67,5.35,8.23,5.93,13.31-1.16-4.8-2.88-9.35-5.93-13.31Z"/>
      <path class="cls-9" d="m860.31,143.28c4.94,2.34,8.26,5.87,9.06,11.6.87,6.25-2.83,13.13-8.9,14.62-7.92,1.94-12.99.08-16.95-7.43-1.82-3.47-1.65-7.01-.26-10.44,1.19-2.93,3.5-5.04,6.33-6.51,2.25-1.17,4.61-1.87,7.13-2.24,1.3-.19,2.34.25,3.58.4Zm-16.81,11.5c-1.49,5.32,2.58,12.3,8.08,13.84,7.78,2.18,15.36-1.45,16.84-8.8,1.44-7.16-1.47-13.04-8.45-15.44-6.59-2.26-15.25,3.11-16.47,10.4Z"/>
      <path class="cls-9" d="m844.04,170.87c-2.81-3.31-4.88-7.12-7.38-10.65.15-.1.3-.21.45-.31,2.43,3.57,4.86,7.14,7.29,10.71-.12.08-.25.17-.37.25Z"/>
      <path class="cls-9" d="m873.66,153.1c-1.87-3.18-3.74-6.37-5.61-9.55.13-.08.27-.16.4-.24,2.11,3.04,4.04,6.18,5.64,9.53l-.43.26Z"/>
      <path class="cls-9" d="m874.85,150c-1.59-1.28-2.13-3.28-3.21-4.93,1.68,1.23,2.09,3.3,3.21,4.93Z"/>
      <path class="cls-9" d="m837.04,163.21c.93,1.41,1.85,2.83,2.78,4.24-1.57-.99-2.29-2.54-3.13-4,.12-.08.23-.16.35-.23Z"/>
      <path class="cls-9" d="m876.14,148.23c-1.24-1.04-2.13-2.46-2.6-4.05,1.22,1.48,2.05,2.68,2.6,4.05Z"/>
    </g>
    <path class="cls-9" d="m782.56,1041.1c-16.59,3.33-18.42,6.02-20.68,30.48-2.26-24.45-4.09-27.15-20.68-30.48,16.59-3.33,18.42-6.02,20.68-30.48,2.26,24.45,4.09,27.15,20.68,30.48Z"/>
    <path class="cls-9" d="m882.5,622.26c-10.95,2.4-12.16,4.35-13.65,22-1.49-17.65-2.7-19.6-13.65-22,10.95-2.4,12.16-4.35,13.65-22,1.49,17.65,2.7,19.6,13.65,22Z"/>
    <g>
      <path class="cls-9" d="m287.93,289.86c.21,3.69.8,6.92,1.92,9.9.87,2.32,2.39,4.5,4.57,6.01,2.22,1.53,4.97,2.13,7.6,2.01,2.64-.12,5.2-.83,7.58-1.86l.56-.25.65-.31c.43-.21.84-.44,1.24-.66l.6-.34.15-.09.08-.05s-.03-.03-.04-.05l-.28-.2c-.38-.27-.73-.53-1.13-.8-1.28-.84-2.56-1.68-3.83-2.52-1.57-1.03-3.14-2.07-4.71-3.1.22-2.56.45-5.13.67-7.69l3.31-1.31,2.44-.97.25-.1,6.7,3.98,2.27,1.34,1.31.77s.12.09.15.08v-.19s.03-.38.03-.38l.04-.76.07-1.52c0-.25.03-.53.03-.74v-.52c-.04-.69,0-1.39-.09-2.08l-.11-1.19c-.04-.4-.13-.79-.2-1.19-.11-.8-.37-1.57-.58-2.35-.53-1.54-1.27-3.03-2.32-4.31-1.04-1.28-2.39-2.33-3.86-3.05-1.48-.73-3.07-1.15-4.67-1.37-1.05-.15-2.1-.18-3.14-.19-1.04.03-2.09.09-3.12.22-1.03.13-2.05.31-3.07.54-.51.11-1.01.24-1.51.37-.25.07-.5.14-.75.21l-.39.12-7.83-5.26c-1.51-1-3.03-2-4.54-3-4.62-3.04-9.25-6.06-13.85-9.12-3.5-2.33-6.95-4.63-10.5-6.89-1.11-.72-2.22-1.43-3.34-2.16l-.83-.55-.31-.2-.12-.08s-.03-.09-.04-.13c-.03-.12-.13-.54-.22-.85-.09-.33-.18-.66-.29-.98-.82-2.58-1.82-5.07-2.89-7.52l-.59-1.31-.15-.33-.08-.17-.09-.16-.36-.65c-.23-.44-.51-.85-.78-1.26-.26-.42-.59-.8-.89-1.19-.31-.39-.68-.73-1.01-1.09l-.57-.49-.29-.24-.31-.22c-.8-.61-1.72-1.05-2.67-1.38-1.3-.44-2.69-.58-4.03-.49-1.35.09-2.66.38-3.92.8-2.04.69-3.94,1.7-5.71,2.89-.52.35-1.06.75-1.55,1.14l-.37.3-.05.04s-.02.01-.02.02l.02.02.1.07.19.15.77.58,2.7,1.97c1.14.82,2.28,1.62,3.42,2.43.81.57,1.63,1.13,2.42,1.72.49.36.97.72,1.46,1.09-.23,1.78-.47,3.55-.7,5.33l-2.86,1.5-2.91,1.57c-.36.2-.73.39-1.11.6-2.43-1.3-4.92-2.63-7.38-3.94l-1.57-.82-.74-.39c-.18-.16-.11.11-.12.23v.43s-.02.85-.02.85c0,.28,0,.53.02.86.04.62.05,1.23.13,1.85.26,2.44.93,4.86,2.23,6.9.62.92,1.33,1.78,2.21,2.44.41.37.9.63,1.35.93.49.24.97.52,1.49.69.5.22,1.04.35,1.57.51.54.11,1.08.25,1.63.31,1.1.16,2.21.2,3.33.17,1.59-.04,3.19-.24,4.76-.55.79-.16,1.57-.34,2.35-.55.39-.11.77-.22,1.16-.33l.59-.19c.31-.1.62-.21.93-.33,1.04.67,2.09,1.35,3.14,2.03,2.81,1.83,5.66,3.84,8.42,5.53,3.81,2.35,7.54,4.84,11.3,7.26,4.77,3.05,9.51,6.09,14.28,9.14,1.66,1.07,3.32,2.21,4.97,3.33.32.22.59.48.81.78-.96-.6-1.98-1.18-2.88-1.81-2.61-1.81-5.17-3.35-7.78-4.98-3.25-2.04-6.52-4.19-9.78-6.29-2.34-1.51-4.67-3.02-7.01-4.54-3.86-2.53-7.68-4.85-11.51-7.24-.65-.41-1.31-.83-1.96-1.24-.69-.44-1.38-.89-2.07-1.33l-.6.21-.53.17c-.34.1-.68.21-1.03.3-.69.19-1.38.36-2.07.51-3.16.68-6.45,1.02-9.68.25-1.02-.22-2.14-.59-3.12-.98-1.29-.53-2.47-1.36-3.45-2.41-.97-1.05-1.76-2.28-2.27-3.63-.16-.32-.24-.68-.36-1.02-.1-.35-.24-.68-.3-1.04-.14-.71-.33-1.41-.39-2.13l-.13-1.07c-.03-.36-.04-.72-.06-1.08-.02-.37-.04-.69-.05-1.1l.02-1.23c0-.34.02-.69.03-1.03v-.13s0-.06,0-.06v-.03s.02,0,.03,0l.23.13.46.26c.59.34,1.19.68,1.78,1.01,1.24.7,2.36,1.3,3.58,1.8.83.34,2.01,1.01,3.04,1.54.34.18.68.36,1.03.54l1.15-.6,5.35-2.84.57-4.86-2.64-1.89-6.34-4.57c-.79-.59-1.72-1.19-2.28-1.8.38-.31.74-.62,1.14-.93.38-.3.82-.62,1.22-.89,1.11-.76,2.27-1.44,3.49-2.02.83-.4,1.72-.72,2.61-.99,1.7-.51,3.5-.67,5.23-.75.09,0,.22,0,.31.01,2,.24,3.89.98,5.48,2.12,1.59,1.16,2.85,2.69,3.79,4.44.17.34.36.65.53,1.02.15.33.29.66.44.99.29.66.58,1.33.88,2,.58,1.35,1.14,2.72,1.62,4.14.31.91.64,1.84.95,2.82.07.25.15.49.22.74l.05.18.02.04s.02.05.03.06l.07.03s.01,0,.04.02l.16.1.62.4c1.76,1.13,3.61,2.29,5.26,3.46,2.59,1.84,5.12,3.36,7.7,5.01,1.94,1.24,4.06,2.54,5.86,3.97.2.16.47.36.71.51,2.86,1.85,5.72,3.7,8.57,5.54,1.76,1.13,3.56,2.21,5.12,3.48.19.15.54.41.71.5,1.06.56,2.09,1.22,3.11,1.91.51.35,1.02.7,1.53,1.05l.77.52.69.46s.02,0,.03.01h.02s0-.02,0-.02c0,0,0,0,0,0l.09-.03c.24-.08.48-.16.73-.24.49-.15.98-.29,1.48-.42.79-.2,1.62-.36,2.43-.47.61-.09,1.24-.12,1.85-.19,1.69-.17,3.41-.19,5.13.02,1.72.21,3.45.66,5.06,1.46,1.61.79,3.07,1.96,4.18,3.38,1.12,1.42,1.87,3.06,2.39,4.72.17.64.39,1.28.49,1.93.13.65.26,1.3.31,1.95.07.65.14,1.3.12,1.95v.97s-.03.54-.03.54l-.07.85c-.04.49-.07,1.12-.09,1.81,0,.35-.02.7-.03,1.06,0,.18,0,.36-.01.53v.07s0,.03,0,.03c0,0-.02,0-.02,0l-.11-.06-.21-.12c-.65-.36-1.33-.75-1.99-1.12-.34-.19-.67-.39-.99-.57-.16-.09-.32-.19-.47-.28-.08-.05-.16-.1-.24-.15-1.17-.78-2.39-1.5-3.61-2.21l-1.84-1.06-.92-.54-.46-.27-.06-.04h-.01s-.02-.03-.02-.03l-.02-.02h-.05s-.02.02-.02.02l-.19.07-.83.33c-.55.22-1.11.44-1.67.67-.88.36-1.76.71-2.64,1.07-.09,1.07-.17,2.14-.26,3.2-.07.8-.14,1.63-.24,2.37-.05.37-.09.71-.13,1.05l-.03.27s0,.07,0,.11c.04.02.07.04.11.06h.03s.01.02.01.02l.06.04c.09.05.19.11.29.17,1.25.73,2.75,1.86,4.11,2.81.75.53,1.36.9,2.13,1.37l.27.16.46.29c.31.2.62.4.93.6.15.1.32.21.47.31l.41.31c.27.21.55.41.83.62l.21.16s.08.05.09.08l-.12.07-.47.27-.93.53c-.33.17-.63.35-.97.52-.34.16-.68.33-1.01.49-.2.09-.41.18-.62.27-.17.07-.34.13-.51.2-.33.14-.66.25-.94.38-1.02.44-2.1.77-3.18.98-1.08.21-2.17.3-3.21.3-1.39-.02-2.47-.16-3.63-.27-1.4-.14-2.9-.72-4.17-1.64-.3-.18-.54-.42-.8-.63-.26-.22-.52-.43-.75-.68l-.69-.73-.61-.79-.3-.4-.26-.42-.51-.84c-.29-.58-.59-1.16-.85-1.75-.29-.76-.64-1.58-.89-2.33-.16-.45-.32-.86-.42-1.26-.1-.4-.18-.78-.25-1.13-.16-.71-.19-1.35-.23-1.94-.1-1.18.02-2.2,0-3.38,0-.3.17-.13.35-.23Z"/>
      <path class="cls-9" d="m291.94,280.61c-.15-.08-.27-.12-.36-.2-.18-.16-.38-.22-.61-.27-.33-.07-.69-.19-.95-.4-.47-.36-1.01-.56-1.49-.88-.49-.32-.98-.63-1.47-.94-.3-.19-.59-.38-.89-.56-.48-.3-.98-.57-1.45-.88-.25-.16-.46-.39-.7-.58-.08-.06-.18-.15-.26-.14-.38.04-.62-.24-.89-.42-.49-.32-.93-.7-1.43-.98-.38-.21-.71-.47-1.06-.72-.29-.22-.62-.38-.93-.58-.62-.4-1.25-.79-1.86-1.2-.29-.19-.55-.43-.82-.65-.05-.04-.1-.1-.15-.09-.3.01-.51-.19-.74-.34-.37-.24-.8-.43-1.1-.75-.36-.37-.9-.4-1.26-.76-.15-.15-.35-.25-.53-.35-.18-.11-.38-.2-.57-.3-.12-.06-.28-.09-.37-.19-.34-.38-.8-.56-1.22-.8-.53-.31-1.08-.59-1.57-.95-.34-.25-.69-.45-1.08-.59-.08-.03-.16-.09-.23-.15-.54-.5-1.22-.77-1.84-1.13-.45-.26-.86-.59-1.28-.89-.1-.07-.19-.15-.3-.21-.24-.13-.48-.26-.72-.39-.29-.16-.59-.32-.87-.5-.43-.27-.85-.55-1.27-.83-.52-.35-1.03-.72-1.54-1.08-.06-.04-.14-.08-.21-.09-.5-.09-.88-.42-1.29-.67-.47-.29-.88-.66-1.33-.97-.28-.19-.58-.33-.87-.5-.08-.04-.18-.06-.25-.12-.51-.41-.97-.9-1.53-1.23-.69-.41-1.11-1.09-1.74-1.55-.24-.17-.41-.44-.58-.69-.13-.19-.04-.46.12-.54.21-.1.48.03.6.27.24.51.54.96.99,1.33.35.29.66.64,1,.95.09.08.19.16.29.23.34.23.71.42.98.75.15.18.42.27.64.4.18.11.36.21.54.33.42.27.84.54,1.26.82.81.52,1.61,1.05,2.42,1.57.58.37,1.17.72,1.76,1.07.05.03.12.04.17.08.59.38,1.18.77,1.78,1.14.64.39,1.3.75,1.94,1.15.86.54,1.77.98,2.57,1.61.36.28.8.46,1.19.7.89.55,1.76,1.12,2.65,1.67.19.12.4.22.6.34.55.34,1.1.68,1.63,1.04.17.12.32.28.51.46.23-.08.39.11.59.27.35.27.75.47,1.11.72.5.34.99.71,1.5,1.05.6.4,1.21.77,1.81,1.15.04.02.09.04.12.06.7.46,1.4.91,2.11,1.37.06.04.14.06.21.1.26.16.51.33.77.5.32.2.65.39.97.61.74.51,1.56.89,2.25,1.48.1.09.25.11.37.19.15.09.29.21.44.31.13.08.25.19.38.24.64.24,1.22.56,1.74,1.01.15.13.37.23.57.26.37.06.62.32.94.47.14.07.14.09.11.38Z"/>
      <g>
        <path class="cls-9" d="m242.65,249.76c0-.11-.02-.23-.03-.34,0-.19,0-.39.01-.58,0-.16-.02-.32-.01-.47,0-.3.04-.6.05-.88,0-.13,0-.24,0-.36.01-.25.02-.5.04-.75.01-.22.02-.43.04-.64.03-.26.07-.53.1-.79.01-.11,0-.22.03-.32.01-.07.06-.14.09-.21,0-.02.03-.05.01-.07-.15-.2-.05-.44-.05-.66,0-.14,0-.28,0-.43,0-.18.02-.36,0-.53,0-.1-.05-.18-.06-.27,0-.03,0-.07,0-.11v-.12s0-.18,0-.18c0,0,.01-.02,0-.02-.19-.05-.08-.25-.13-.37-.05-.12-.08-.24-.12-.36-.05-.17-.09-.34-.16-.5-.03-.07-.09-.13-.11-.19-.09-.25-.34-.34-.54-.46-.07-.05-.14-.1-.21-.16-.06-.03-.12-.08-.18-.1-.21-.08-.43-.12-.65-.15-.16-.02-.31-.04-.47-.03,0,0,0,0-.01,0-.04-.03-.1-.21-.11-.34-.02-.14,0-.21.08-.18.04.02.09.07.13.1.15.11.29.13.44.11.12-.02.25-.06.34.06.1.14.24.08.35.16.07.04.16.04.24.08.05.03.1.09.14.14l.16.17s.03.02.05,0c.1-.07.11.02.15.06.09.07.11.22.25.23.06.01.06.11.05.19,0,.05.01.08.07.06.02,0,.03,0,.04,0,.05.14.09.28.12.43,0,.02-.02.06,0,.06.18.01.09.22.13.34.02.04.04.07.07.11,0,.01.04.01.03.03-.05.25.03.43.13.61.02.03-.02.09-.02.13,0,.05,0,.09,0,.14,0,.1.04.18-.01.29-.07.16.02.25.04.38.01.11.03.21.04.33,0,.12,0,.25-.02.38-.01.1-.05.22-.08.32,0,.03-.04.06-.03.08.06.12.02.26,0,.4,0,.08.03.16.01.25-.07.3,0,.6-.1.94-.03.1,0,.2,0,.3,0,.06-.05.13-.05.19,0,.06.02.11.02.17,0,.1.03.19,0,.29-.12.3-.07.59-.07.9,0,.23.05.45,0,.7-.04.21,0,.41-.04.63-.04.23,0,.46-.05.7,0,.04-.05.08-.07.12h-.04Z"/>
        <path class="cls-9" d="m246.56,243.02s-.05-.06-.05-.09c-.05-.31-.13-.62-.14-.95,0-.11-.09-.19-.11-.3-.07-.36-.16-.72-.28-1.08-.12-.36-.29-.71-.46-1.06-.12-.26-.24-.53-.39-.78-.14-.22-.31-.42-.48-.62-.14-.17-.28-.36-.45-.51-.48-.4-1.03-.75-1.63-.97-.56-.21-1.17-.28-1.76-.31-.27,0-.55.05-.81.13-.08.03-.15.11-.22.14-.07.03-.13.04-.2.06-.06.01-.13,0-.17-.19-.03-.11.02-.31.08-.34.03-.02.07-.04.11-.03.28.08.53-.08.81-.13.21-.03.41-.02.62,0,.19,0,.37.05.55.07.25.03.5.05.74.12.11.03.19.17.35.08.02-.01.04,0,.05.01.21.34.58.28.82.5.04.03.06.09.09.13.04.03.08.06.13.06.17,0,.31.06.37.24.03.12.15.14.23.22.16.15.32.31.46.48.13.14.24.29.37.41.09.1.19.18.21.33.01.1.07.18.17.23.14.06.15.21.18.34.04.2.1.37.2.52.08.11.07.26.11.38.04.11.12.21.16.33.07.22.13.44.17.66.04.2.04.41.07.6.02.09.1.15.14.24.03.07.06.14-.04.25-.05.06-.03.12.01.16.16.18.2.4.08.65l-.08.02Z"/>
        <path class="cls-9" d="m248.86,240.43c-.05-.07-.12-.13-.14-.2-.08-.24-.17-.48-.25-.71-.06-.14-.12-.28-.18-.42-.07-.16-.13-.32-.2-.49-.03-.09-.03-.2-.07-.29-.05-.11-.15-.2-.21-.31-.18-.29-.37-.59-.58-.87-.29-.38-.59-.74-.98-1.1-.38-.35-.79-.66-1.24-.92-.23-.13-.48-.22-.72-.33-.75-.33-1.54-.58-2.36-.67-.48-.05-.96-.03-1.43.04-.3.05-.6.13-.89.22-.14.04-.27.1-.36.27-.07.13-.16.17-.27.06-.04-.37-.04-.41.13-.48.35-.14.71-.21,1.07-.27.08-.01.15-.07.23-.09.35-.08.7-.08,1.04-.01.29.06.59,0,.9.01.07,0,.14-.04.21-.02.11.03.2.09.3.14.07.03.15.11.22.09.17-.07.29.03.43.07.24.07.49.15.72.25.11.05.21.11.3.18.12.1.23.17.38.21.16.04.27.19.37.33.06.08.08.16.22.08.05-.03.12-.01.16.02.35.25.68.52.99.82.17.15.31.29.45.45.13.17.23.37.34.55.13.2.25.4.38.6.09.14.24.23.23.42,0,.02,0,.04.02.05.32.26.39.66.44,1.03.01.1.09.16.11.26.03.12.12.22.06.38-.04.1.08.17.13.26.01.02.04.03.05.05.03.11.04.22.06.32l-.03.02Z"/>
        <path class="cls-9" d="m243.07,232.51s-.08.01-.12,0c-.33-.09-.66-.18-1-.24-.03,0-.07-.05-.09-.04-.35.17-.69.02-1.03.08-.33.05-.66.11-.99.19-.14.03-.28.08-.42.08-.06,0-.12-.1-.19-.15.04-.08.07-.18.12-.25.02-.03.08-.03.12-.03.49,0,.96-.1,1.45-.18.12-.02.25-.01.37,0,.47.04.93.12,1.38.24.16.04.32.08.4.32Z"/>
        <path class="cls-9" d="m246.42,245.87c.02-.09.03-.19.04-.28,0-.08,0-.15,0-.23,0-.08.02-.17.03-.25.02-.23.04-.46.06-.7.02-.17.06-.35.05-.52-.01-.21-.08-.41-.12-.61,0-.04.03-.1.08-.16.15.07.24.16.14.29-.03.04-.05.09-.04.12.08.17.06.36.02.55,0,.04-.04.09,0,.12.1.09.06.21.07.32,0,0,.01.02,0,.03-.15.19-.01.35-.12.53-.06.11-.12.22-.03.31,0,0,.01.02,0,.03-.08.1-.06.19-.04.27.01.04-.04.1-.07.15h-.11Z"/>
        <path class="cls-9" d="m243.43,232.58c-.06,0-.12-.02-.2-.03.12-.11.12-.11.2.03Z"/>
      </g>
      <g>
        <path class="cls-9" d="m306.02,283.71l-.41.17c-.15.06-.31.13-.46.19-.07.03-.14.04-.22.06-.04.01-.09.01-.13.04-.29.23-.66.3-.98.45-.21.1-.44.17-.66.26-.08.03-.15.09-.22.13-.2.11-.4.24-.62.31-.27.08-.5.23-.75.34-.16.07-.31.17-.47.25-.16.08-.32.16-.48.25-.39.22-.76.45-1.1.72-.21.16-.39.34-.56.53-.24.25-.46.51-.63.81-.13.23-.24.46-.32.71-.07.21-.14.43-.18.65-.08.42-.1.85-.11,1.29-.01.23-.02.47-.03.7,0,.13,0,.26,0,.39,0,.35.03.71.03,1.06,0,.3.02.6.03.89,0,.19.08.38,0,.57.09.17.06.35.09.53.03.22.04.43.06.65,0,.02,0,.04,0,.06-.04.33.03.66.06.98.05.49.1.99.17,1.48.04.28.08.57.13.85.02.13.08.26.09.39,0,.1-.04.2-.06.31-.06.01-.1.03-.14.03-.09,0-.19.03-.26,0-.04-.02-.02-.12-.04-.19-.05-.17-.03-.34-.03-.5,0-.12-.05-.23-.06-.35-.02-.2,0-.41-.05-.61-.08-.25.05-.51-.03-.76-.04-.15-.06-.3-.06-.46,0-.22-.07-.44-.08-.66-.02-.22-.05-.45-.08-.67,0-.04,0-.07,0-.11.05-.16.05-.23-.02-.39.06-.04.12-.08.19-.12-.03-.04-.06-.07-.1-.12.05-.08.14-.17-.03-.26-.06-.03-.05-.16-.06-.24-.02-.1-.03-.2-.04-.3,0-.06.02-.12.04-.23-.04-.05-.13-.13-.04-.25.01-.02,0-.06-.02-.08-.05-.07-.06-.13,0-.21.02-.03.02-.08,0-.12-.07-.24-.07-.48-.05-.72,0-.05.01-.1,0-.15-.05-.28.08-.57-.01-.86,0-.01,0-.03,0-.04.12-.16.05-.33.04-.5,0-.2-.01-.41.02-.61.01-.11.09-.22.13-.33.01-.03.03-.08,0-.11-.1-.17-.02-.33.06-.48.05-.1.06-.22.09-.34.02-.07.02-.14.03-.22.05.03.09.04.12.06.01,0,.03-.01.03-.02.03-.11.06-.2.04-.34-.02-.12.08-.24.14-.36.09-.12.18-.23.29-.34.01-.01.03-.02.05-.03.16-.06.23-.2.35-.3.03-.02.04-.06.05-.09.03-.2.19-.28.35-.36.05-.03.12-.05.15-.1.13-.19.34-.29.52-.43.03-.03.05-.08.07-.12.05-.11.1-.2.27-.15.08.02.17-.05.25-.09.16-.08.31-.16.46-.24.04-.02.08-.04.11-.07.16-.17.38-.23.6-.3.12-.04.23-.09.35-.14.03-.01.04-.04.07-.06.03-.03.05-.06.08-.08.16-.07.32-.13.48-.2.14-.06.27-.12.41-.18.13-.05.25-.11.38-.16.11-.05.22-.1.33-.16.14-.06.28-.11.42-.17.05-.01.1-.03.14-.04.28-.12.55-.23.82-.34.14-.06.28-.1.4-.18.06-.03.14-.01.21-.03.07-.02.13-.08.2-.1.05-.02.11-.01.16-.02l.02.07Z"/>
        <path class="cls-9" d="m296.63,298.4c-.1-.07-.12-.17-.12-.27,0-.13-.02-.26-.04-.4-.04-.36-.09-.71-.11-1.06,0-.17.05-.35.08-.53.02-.09.03-.18.05-.27-.04-.06-.12-.11-.12-.17,0-.07.07-.13.1-.2.02-.04.04-.09.04-.14,0-.16.05-.31.14-.45,0,0,.01,0,.03,0,0,.18,0,.37,0,.55,0,.07.01.15.02.22,0,.06.03.13,0,.19-.05.16-.02.32,0,.48.02.17,0,.35.01.53,0,.06.01.11.04.17.04.1.05.19.03.29-.03.13,0,.26.03.39.05.36.12.72.18,1.09,0,.02,0,.04,0,.06,0,.09-.09.18-.18.2-.08.01-.22-.05-.22-.13,0-.18-.09-.36.03-.54Z"/>
      </g>
    </g>
    <g>
      <path class="cls-9" d="m501.48,97.08c.04.2.08.41.13.62-1.91-1.64-3.79-3.51-5.72-5.68-.7-.79-1.43-1.52-2.15-2.28-.2-.21-.43-.43-.59-.65-.54-.74-1.1-1.37-1.67-1.97-.29-.3-.57-.59-.86-.88-.26-.27-.53-.54-.8-.81-.28-.28-.56-.6-.84-.92l-.02-.03c.27-.24.54-.49.81-.73.31-.29.63-.58.93-.86,2.36-2.25,4.67-4.52,7.06-6.76,2.57-2.41,5.26-4.79,7.81-7.21,1.57-1.49,3.24-2.89,4.83-4.36,1.97-1.83,4.12-3.59,6.18-5.39.09-.08.2-.15.27-.23,2.27-2.35,5.16-4.46,7.41-6.82.24-.26.63-.58.9-.74.93-.52,1.82-1.04,2.77-1.44.23-.12.48-.2.72-.29.24-.08.48-.19.73-.26.51-.12,1.01-.29,1.54-.32l.54-.06c.18-.03.36-.03.55-.02l1.1.02c.72.12,1.47.18,2.15.44,1.43.4,2.67,1.18,3.79,2.03.44.34.82.73,1.23,1.08.2.18.41.35.6.54l.56.59c.72.81,1.4,1.72,1.86,2.82.46,1.08.71,2.31.62,3.55-.08,1.23-.5,2.4-1.06,3.41-.72,1.27-1.67,2.32-2.68,3.23-.51.46-1.04.88-1.59,1.27-.28.2-.55.39-.84.57l-.44.27-.23.13s-.03.02-.05.03l-.02.02s0,0-.05.05l-.22.2c-.83.76-1.64,1.53-2.48,2.28-.8.71-1.63,1.4-2.43,2.11l-4.68,4.15c-1.62,1.41-3.24,2.82-4.85,4.24-.93.82-1.82,1.67-2.73,2.5-.61.55-1.22,1.12-1.85,1.65-1.13.94-2.05,1.96-3.24,2.93-1.96,1.59-3.88,3.32-5.84,4.94-1.35,1.11-2.72,2.13-4.09,3.2-.45.36-.9.77-1.36,1.13-.72.58-1.56,1.33-1.98,1.33-.23,0-.44-.16-.23-.46.46-.65,1.25-1.44,2.16-2.09.55-.39,1.13-.81,1.6-1.08,1.68-.94,3.43-2.44,5.13-3.88,2.35-1.99,4.68-4.03,7-6.07l5.07-4.51c1.04-.9,2.08-1.81,3.11-2.71,1.73-1.54,3.47-3.08,5.2-4.62,1.13-1.03,2.25-2.05,3.38-3.08l3.06-2.75.27-.15.37-.22c.24-.15.48-.31.72-.47.47-.32.93-.66,1.37-1.03.88-.73,1.7-1.55,2.39-2.52.7-.95,1.24-2.07,1.49-3.29.23-1.22.11-2.53-.32-3.66-.41-1.1-1.04-2.07-1.76-2.91-.72-.85-1.56-1.54-2.38-2.26-1.72-1.34-3.84-2.35-6.09-2.47-1.78-.13-3.58.27-5.14,1.01-1.12.54-2.15,1.24-3.05,2.1-.87.8-1.74,1.6-2.61,2.41-1.31,1.19-2.69,2.36-4.01,3.55-2.02,1.82-4.05,3.64-6.06,5.46-2.47,2.23-4.94,4.46-7.38,6.71-1.02.94-2.16,1.84-3.09,2.85-.36.4-.98.85-1.45,1.29-1.34,1.26-2.66,2.5-4,3.76-1.13,1.04-2.26,2.09-3.39,3.13l-1.7,1.57-.42.39-.26.25-.44.44s-.09.09-.13.13l.55.55.13.13.06.06s.04.04.09.09l.48.51,1.9,2.03c1.36,1.44,2.71,2.88,4.06,4.32,1.49,1.59,2.99,3.17,4.56,4.84Z"/>
      <path class="cls-9" d="m523.89,52.45c.06.05.12.07.14.12.04.1.14.13.26.15.18.03.36.09.43.22.12.23.38.34.53.53.16.2.32.39.49.58.1.12.2.23.3.34.17.18.35.35.5.54.08.1.1.25.16.37.02.04.05.09.1.08.28-.06.28.13.37.24.16.19.25.44.44.61.14.13.23.29.33.45.08.14.21.23.32.35.21.24.42.48.61.74.09.12.14.27.21.41.01.02.02.06.05.06.21-.03.24.1.31.19.12.15.3.26.34.47.04.25.39.23.44.46.02.1.1.15.17.22.07.07.14.12.22.18.05.04.14.05.15.11.03.25.24.35.39.5.19.19.41.35.55.58.1.16.22.28.41.35.04.02.06.05.07.09.1.33.41.47.63.69.16.16.26.37.39.55.03.04.05.09.09.13.09.08.19.15.27.23.11.1.22.19.32.3.14.16.28.34.41.51.16.22.31.45.46.67.02.03.05.05.09.05.29.03.37.24.51.4.16.17.24.41.38.61.08.12.21.2.32.3.03.03.08.03.1.07.12.26.18.59.37.79.24.25.17.71.35,1,.07.11.04.29.02.46-.01.13-.21.33-.36.4-.19.08-.31.02-.26-.15.11-.35.14-.66.04-.9-.08-.19-.11-.42-.16-.62-.01-.05-.04-.1-.07-.14-.11-.14-.25-.25-.26-.47,0-.12-.14-.17-.21-.25-.06-.07-.13-.13-.19-.2-.14-.17-.27-.33-.41-.5-.26-.32-.52-.65-.79-.97-.19-.23-.41-.44-.61-.65-.02-.02-.05-.02-.07-.04-.2-.23-.38-.47-.59-.7-.22-.24-.47-.45-.69-.7-.29-.33-.66-.59-.87-.99-.09-.18-.29-.27-.42-.42-.3-.34-.59-.69-.89-1.03-.07-.07-.15-.13-.22-.21-.19-.21-.37-.42-.55-.64-.06-.07-.06-.18-.1-.3-.19.08-.2-.05-.25-.15-.09-.17-.25-.29-.37-.44-.16-.21-.29-.45-.45-.65-.19-.24-.4-.47-.6-.71-.01-.02-.04-.02-.05-.04-.23-.28-.46-.56-.69-.84-.02-.03-.06-.03-.09-.06-.09-.1-.16-.21-.25-.31-.11-.13-.23-.24-.32-.37-.22-.32-.57-.54-.72-.91-.02-.06-.11-.07-.15-.11-.05-.06-.09-.13-.13-.19-.04-.05-.06-.12-.13-.15-.3-.13-.52-.32-.63-.61-.03-.08-.12-.14-.24-.15-.21-.02-.25-.19-.37-.28-.06-.04-.04-.06.12-.27Z"/>
      <path class="cls-9" d="m504.22,85.64c.36-.55.75-1.01,1.2-1.44.49-.47.98-.94,1.48-1.41.11-.11.22-.24.34-.31.73-.4,1.21-1.08,1.82-1.6.23-.2.44-.43.66-.64.38-.36.76-.73,1.16-1.08.46-.4.93-.78,1.4-1.17.07-.05.16-.11.19-.17.28-.57.82-.93,1.28-1.36.34-.32.7-.56,1.06-.83.36-.28.78-.57.98-1.02.06-.14.27-.28.41-.42.64-.6,1.29-1.21,1.94-1.81.21-.19.44-.35.66-.52.07-.05.17-.08.22-.14.7-.92,1.65-1.64,2.45-2.48.21-.22.46-.42.68-.63.46-.44.9-.89,1.37-1.31.29-.26.63-.47.94-.72.19-.15.41-.3.54-.48.45-.64,1.07-1.09,1.66-1.59.33-.28.62-.63.95-.91.73-.61,1.48-1.18,2.09-1.92.19-.23.51-.44.79-.57.17-.08.4-.04.54.03.18.09.19.33,0,.56-.35.43-.62.89-1.14,1.24-.58.38-1.11.85-1.75,1.11-.55.23-.94.71-1.39,1.1-.89.77-1.75,1.57-2.6,2.37-1.24,1.16-2.47,2.34-3.71,3.5-1.02.97-2.05,1.93-3.08,2.89-.2.19-.43.38-.66.52-.57.36-.96.88-1.42,1.34-.39.39-.82.75-1.23,1.12-.48.43-.97.87-1.45,1.3-.65.59-1.3,1.18-1.94,1.77-.63.58-1.26,1.18-1.9,1.76-.28.25-.57.48-.86.73-.47.4-.92.81-1.32,1.29-.37.43-.89.77-1.33,1.16-.19.17-.39.35-.54.55-.14.18-.24.23-.48.19Z"/>
      <path class="cls-9" d="m510.18,92.13c-.37-.13-.67-.3-.93-.53-.29-.25-.57-.5-.86-.74-.06-.06-.16-.1-.19-.17-.19-.45-.64-.63-.95-.96-.12-.12-.26-.22-.39-.33-.22-.19-.44-.38-.65-.59-.24-.24-.45-.5-.68-.75-.03-.04-.06-.09-.1-.1-.4-.06-.59-.38-.86-.61-.2-.17-.32-.39-.47-.58-.16-.2-.32-.44-.64-.47-.1,0-.18-.13-.26-.2-.37-.33-.73-.65-1.09-.99-.11-.11-.2-.24-.3-.36-.03-.04-.03-.11-.07-.13-.61-.29-1.01-.82-1.54-1.2-.14-.1-.25-.24-.38-.35-.27-.23-.55-.45-.8-.69-.16-.15-.26-.35-.4-.52-.09-.1-.17-.23-.29-.28-.43-.17-.68-.52-.97-.84-.16-.18-.39-.3-.56-.48-.36-.39-.67-.81-1.15-1.08-.15-.08-.26-.27-.31-.45-.03-.11.04-.29.12-.41.11-.16.3-.23.45-.15.28.15.6.23.78.54.2.34.48.62.57,1.03.08.35.4.52.63.76.45.47.94.91,1.42,1.34.7.63,1.42,1.25,2.12,1.88.59.52,1.17,1.04,1.75,1.57.11.1.22.22.3.36.18.34.53.5.81.72.24.19.45.42.67.63.26.25.52.5.78.75.35.34.7.67,1.06,1,.35.33.71.64,1.06.97.15.14.28.31.43.46.24.25.48.48.79.66.28.16.45.47.68.7.1.1.21.2.34.26.12.05.14.12.06.32Z"/>
      <path class="cls-9" d="m464.25,123.67c.41-.73.86-1.32,1.41-1.87.6-.6,1.19-1.2,1.79-1.8.13-.14.26-.31.41-.39.93-.47,1.48-1.36,2.23-2.02.29-.25.53-.55.8-.81.46-.46.92-.93,1.41-1.37.56-.5,1.15-.98,1.72-1.46.08-.07.2-.13.23-.21.3-.75.97-1.19,1.52-1.75.41-.41.87-.7,1.3-1.04.45-.35.96-.71,1.17-1.31.06-.19.32-.36.5-.54.78-.77,1.56-1.54,2.36-2.3.25-.24.54-.44.82-.65.08-.07.22-.09.27-.17.81-1.2,1.99-2.09,2.94-3.18.25-.29.56-.53.83-.8.56-.56,1.09-1.14,1.66-1.67.36-.33.78-.59,1.16-.89.23-.19.51-.37.66-.61.51-.84,1.29-1.4,2.01-2.02.41-.35.74-.81,1.15-1.16.89-.77,1.83-1.47,2.55-2.43.23-.3.63-.55.98-.7.21-.09.54-.01.73.1.26.15.31.48.09.78-.41.55-.7,1.17-1.36,1.6-.73.47-1.38,1.06-2.2,1.35-.71.25-1.17.89-1.71,1.37-1.08.97-2.13,1.99-3.17,3-1.51,1.47-3,2.97-4.5,4.45-1.24,1.23-2.48,2.46-3.73,3.67-.25.24-.52.47-.81.65-.72.44-1.17,1.11-1.72,1.7-.47.5-.99.95-1.49,1.42-.59.55-1.18,1.1-1.77,1.65-.79.74-1.58,1.49-2.37,2.24-.77.74-1.53,1.5-2.3,2.23-.34.32-.7.61-1.05.92-.58.51-1.12,1.02-1.6,1.64-.43.56-1.09.97-1.63,1.46-.24.21-.48.45-.65.71-.16.23-.29.29-.63.21Z"/>
      <path class="cls-9" d="m464.65,123.19c-.12.9-.31,1.72-.57,2.56l-.85,2.74c-.06.21-.11.44-.2.61-.54,1.02-.73,2.15-1.11,3.22-.05.13-.07.21-.1.31l-.69.5c-.61.42-1.21.85-1.83,1.25-.71.46-1.44.91-2.17,1.36-.1.06-.24.13-.3.2-.56.65-1.36,1.07-2.08,1.58-.54.37-1.08.65-1.62.97-.28.17-.57.33-.85.52-.28.19-.51.39-.83.72-.02.02-.05.04-.08.07-.17-.12-.44-.45-.62-.63l-2.59-2.67c-.29-.3-.48-.55-.85-.98-.1-.12-.16-.25-.26-.34.63-.87,1.07-1.41,1.62-2.05.53-.62,1.08-1.23,1.58-1.87.26-.34.57-.65.85-.98.58-.68,1.14-1.37,1.73-2.03.37-.41.78-.78,1.17-1.17.24-.24.51-.5.67-.76.19-.3.4-.59.63-.86.11-.14.23-.27.35-.41l.51-.55c.43-.08.85-.15,1.28-.23.6-.11,1.2-.31,1.8-.42,1.31-.24,2.62-.43,3.89-.84.4-.13.93-.18,1.35-.17.26,0,.5.14.6.26.14.17-.03.39-.42.52-.74.24-1.4.55-2.27.63-.97.1-1.94.29-2.89.25-.81-.03-1.64.24-2.45.4l-.61.12c-1,1.11-1.93,2.18-2.88,3.28l-4.66,5.43c-.44.52-1.01,1.17-1.23,1.45l1.15,1.17,1.32,1.36c.27.28.54.58.77.89l.16.21.14.16c.07.08.15.16.22.24l.21-.16.1-.08.16-.12.68-.51c.63-.45,1.29-.87,1.93-1.3l2.27-1.51,3.06-2.06.89-.6.44-.3.22-.15.05-.04v-.05s.05-.12.05-.12l.11-.35.23-.71c.16-.5.36-.99.53-1.49.29-.82.55-1.62.75-2.48.18-.77.54-1.56.81-2.34.12-.34.23-.7.3-1.04.06-.31.14-.45.39-.59Z"/>
    </g>
    <g>
      <path class="cls-9" d="m501.84,269.62c.04-1.11-.02-2.22-.12-3.32-.03-.25-.04-.52-.08-.75-.21-1.11-.42-2.22-.66-3.31-.11-.55-.24-1.09-.37-1.64l-.21-.81-.11-.41-.13-.43c-.29-.89-.74-1.75-1.35-2.51-.6-.76-1.39-1.4-2.29-1.84-.9-.45-1.91-.65-2.89-.66-1-.01-1.94.18-2.84.47-1.01.33-1.99.79-2.87,1.48-.45.33-.86.76-1.23,1.22-.09.12-.17.25-.26.38-.09.12-.17.26-.23.4l-.21.43-.15.46c-.06.15-.09.31-.11.47-.03.16-.06.32-.07.48,0,.31-.03.63.02.95.06.64.26,1.29.58,1.85.32.57.73,1.05,1.2,1.46.46.4.97.71,1.49.96.55.27,1.11.46,1.68.6.28.08.58.13.86.17l.84.1c1.12.09,2.24.02,3.33-.18,2.18-.41,4.22-1.32,5.99-2.6.73-.54,1.44-1.11,2.1-1.73.66-.63,1.27-1.28,1.84-1.97,1.14-1.37,2.12-2.85,2.97-4.38.88-1.59,1.64-3.22,2.35-4.85l.52-1.22c.16-.38.3-.67.46-.94.02-.03.04-.07.06-.09l.05-.07.04-.05s.06-.06.09-.09c.06-.05.15-.08.23-.07,0,0,.01,0,.02,0,.09.01.17.07.23.13-.01-.02.17.17.32.33.15.17.35.38.53.56.37.38.74.74,1.14,1.09.2.17.39.34.6.51.21.17.38.32.66.51.49.36,1.05.69,1.68.93.33.1.64.23,1,.27l.53.08c.18.02.36,0,.54,0,.18,0,.36,0,.53-.03l.52-.09c.36-.05.66-.19.98-.3.31-.12.59-.28.88-.43.26-.17.52-.34.77-.52.81-.62,1.44-1.33,2.01-2.04.57-.72,1.03-1.47,1.47-2.23.86-1.52,1.53-3.09,2.12-4.68.73-2.02,1.34-4.07,1.71-6.24.07-.41.12-.83.16-1.26.01-.22.03-.43.04-.66,0-.23,0-.47,0-.66-.03-.94-.06-1.75.07-2.4.03-.16.07-.31.12-.46.06-.14.11-.29.18-.4.12-.23.22-.32.38-.42.33-.16.65-.13,1.2.23.13.08.25.19.37.3l.18.18.22.25.9,1c1.43,1.63,2.81,3.33,4.28,4.87.31.32.78,1.07.9,1.4.1.26-.16.25-.36.2-.23-.05-.58-.5-.93-.96-.25-.33-.54-.65-.8-.98-.31-.41-.63-.81-.94-1.22-.14-.19-.27-.38-.42-.56-.68-.82-1.37-1.63-2.07-2.42l-1.06-1.18-.07-.07-.05-.05-.09-.09c-.06-.07-.13-.11-.19-.16-.12-.1-.25-.18-.37-.25-.2-.09-.27-.11-.34-.11-.04,0-.08,0-.11.02-.04,0-.07.02-.1.04-.03.02-.06.05-.09.07-.03.04-.05.06-.1.16-.05.07-.09.19-.14.3-.04.11-.08.22-.11.34-.13.55-.12,1.32-.1,2.24v.35s0,.42,0,.42c0,.28-.04.53-.06.79-.05.5-.13.99-.21,1.47-.52,2.8-1.46,5.44-2.47,7.99-.55,1.35-1.22,2.67-2.07,3.94-.43.63-.89,1.26-1.44,1.86-.55.6-1.15,1.2-1.92,1.72-.21.16-.47.3-.73.44-.13.07-.26.14-.4.2l-.44.16c-.15.05-.29.11-.45.15l-.48.09c-.16.03-.32.06-.49.07h-.5c-.34.03-.66-.02-.99-.08-.34-.04-.64-.14-.94-.25-.15-.05-.31-.1-.45-.16l-.4-.2-.4-.21c-.13-.07-.24-.15-.36-.23-.61-.4-1-.73-1.43-1.1-.43-.36-.84-.74-1.24-1.14-.2-.2-.4-.4-.58-.6l-.24-.25-.1-.1s-.02-.01-.01-.01h0s0,0,0,0c0,0,0,0,0,0,0,0,0,0-.02,0-.11.15-.26.42-.38.68l-.92,2.12c-.65,1.46-1.36,2.93-2.2,4.34-.67,1.12-1.41,2.32-2.17,3.44-.52.76-1.09,1.46-1.72,2.12-.64.66-1.31,1.28-2.04,1.85-1.02.82-2.13,1.56-3.32,2.15-2.22,1.08-4.76,1.68-7.34,1.47-.38-.05-.74-.07-1.13-.15-.2-.03-.39-.07-.58-.13-.19-.04-.38-.1-.57-.16-.76-.24-1.5-.59-2.2-1.07-.69-.48-1.35-1.13-1.81-1.96-.47-.82-.7-1.8-.68-2.71v-.31s.05-.32.05-.32c.04-.21.06-.43.14-.62.22-.8.65-1.47,1.11-2.04.47-.58,1.01-1.02,1.57-1.41,1.12-.76,2.33-1.25,3.61-1.55.51-.12,1.04-.19,1.59-.24.55-.02,1.12,0,1.68.1.56.09,1.1.28,1.61.51.5.25.96.55,1.34.92.92.72,1.62,1.65,2.11,2.63.25.5.44,1.01.59,1.53.14.49.25.95.37,1.42.45,1.89.8,3.83.94,5.79.05.84.09,1.69.05,2.53-.01.26-.07.49-.1.73l-.08-.06Z"/>
      <path class="cls-9" d="m498.16,281.05c-.89,1.41-1.76,2.69-2.8,3.86-1.58,1.82-3.38,3.47-5.33,4.88-1.76,1.28-3.65,2.36-5.59,3.3-.22.12-.45.21-.67.33-2.29,1.16-4.69,2.05-7.12,2.71-1.25.34-2.54.74-3.82,1.06-1.09.27-2.17.49-3.26.73-.8.18-1.62.35-2.43.53-1.68.35-3.27.45-5,.8-.38.08-.79.16-1.16.2-.23.03-.41-.02-.61-.03.18-.08.35-.2.54-.23,1.16-.2,2.32-.4,3.47-.62,1.15-.22,2.3-.44,3.44-.68l1.73-.38c1.67-.37,3.33-.78,4.98-1.23.99-.27,1.97-.55,2.95-.85l1.47-.47,1.46-.52c.19-.06.37-.14.55-.22,2.68-1.17,5.34-2.38,7.77-4.12,2.12-1.52,4.21-3.21,6.01-5.16.22-.24.41-.51.62-.76.46-.57.85-1.18,1.3-1.76.68-1.01.95-1.24,1.48-1.36Z"/>
      <path class="cls-9" d="m468.04,295.3c-.53.14-.75.19-.97.25l-.07-.05c.13-.04.26-.09.39-.13.11-.03.23-.03.65-.08Z"/>
    </g>
  </g>
</svg>