<?xml version="1.0" encoding="UTF-8"?>
<svg id="_Слой_2" data-name="Слой 2" xmlns="http://www.w3.org/2000/svg" viewBox="0 0 643.36 957.92">
  <defs>
    <style>
      .cls-1 {
        fill: #f8edd7;
        stroke-width: 0px;
      }
    </style>
  </defs>
  <g id="_Слой_1-2" data-name="Слой 1">
    <g>
      <path class="cls-1" d="m642.36,2H1c-.55,0-1-.45-1-1S.45,0,1,0h641.36c.55,0,1,.45,1,1s-.45,1-1,1Z"/>
      <path class="cls-1" d="m642.36,75.53H1c-.55,0-1-.45-1-1s.45-1,1-1h641.36c.55,0,1,.45,1,1s-.45,1-1,1Z"/>
      <path class="cls-1" d="m642.36,149.06H1c-.55,0-1-.45-1-1s.45-1,1-1h641.36c.55,0,1,.45,1,1s-.45,1-1,1Z"/>
      <path class="cls-1" d="m642.36,222.6H1c-.55,0-1-.45-1-1s.45-1,1-1h641.36c.55,0,1,.45,1,1s-.45,1-1,1Z"/>
      <path class="cls-1" d="m642.36,296.13H1c-.55,0-1-.45-1-1s.45-1,1-1h641.36c.55,0,1,.45,1,1s-.45,1-1,1Z"/>
      <path class="cls-1" d="m642.36,369.66H1c-.55,0-1-.45-1-1s.45-1,1-1h641.36c.55,0,1,.45,1,1s-.45,1-1,1Z"/>
      <path class="cls-1" d="m642.36,443.19H1c-.55,0-1-.45-1-1s.45-1,1-1h641.36c.55,0,1,.45,1,1s-.45,1-1,1Z"/>
      <path class="cls-1" d="m642.36,516.72H1c-.55,0-1-.45-1-1s.45-1,1-1h641.36c.55,0,1,.45,1,1s-.45,1-1,1Z"/>
      <path class="cls-1" d="m642.36,590.26H1c-.55,0-1-.45-1-1s.45-1,1-1h641.36c.55,0,1,.45,1,1s-.45,1-1,1Z"/>
      <path class="cls-1" d="m642.36,663.79H1c-.55,0-1-.45-1-1s.45-1,1-1h641.36c.55,0,1,.45,1,1s-.45,1-1,1Z"/>
      <path class="cls-1" d="m642.36,737.32H1c-.55,0-1-.45-1-1s.45-1,1-1h641.36c.55,0,1,.45,1,1s-.45,1-1,1Z"/>
      <path class="cls-1" d="m642.36,810.85H1c-.55,0-1-.45-1-1s.45-1,1-1h641.36c.55,0,1,.45,1,1s-.45,1-1,1Z"/>
      <path class="cls-1" d="m642.36,884.38H1c-.55,0-1-.45-1-1s.45-1,1-1h641.36c.55,0,1,.45,1,1s-.45,1-1,1Z"/>
      <path class="cls-1" d="m642.36,957.92H1c-.55,0-1-.45-1-1s.45-1,1-1h641.36c.55,0,1,.45,1,1s-.45,1-1,1Z"/>
    </g>
  </g>
</svg>